<svg width="175" height="105" viewBox="0 0 175 105" fill="none" xmlns="http://www.w3.org/2000/svg">
<path d="M174 104V104.5H174.5V104H174ZM174 3.68359H174.5V3.18359H174V3.68359ZM0 104.5H2.55882V103.5H0V104.5ZM7.67647 104.5H12.7941V103.5H7.67647V104.5ZM17.9118 104.5H23.0294V103.5H17.9118V104.5ZM28.1471 104.5H33.2647V103.5H28.1471V104.5ZM38.3824 104.5H43.5V103.5H38.3824V104.5ZM48.6176 104.5H53.7353V103.5H48.6176V104.5ZM58.8529 104.5H63.9706V103.5H58.8529V104.5ZM69.0882 104.5H74.2059V103.5H69.0882V104.5ZM79.3235 104.5H84.4412V103.5H79.3235V104.5ZM89.5588 104.5H94.6765V103.5H89.5588V104.5ZM99.7941 104.5H104.912V103.5H99.7941V104.5ZM110.029 104.5H115.147V103.5H110.029V104.5ZM120.265 104.5H125.382V103.5H120.265V104.5ZM130.5 104.5H135.618V103.5H130.5V104.5ZM140.735 104.5H145.853V103.5H140.735V104.5ZM150.971 104.5H156.088V103.5H150.971V104.5ZM161.206 104.5H166.323V103.5H161.206V104.5ZM171.441 104.5H174V103.5H171.441V104.5ZM174.5 104V101.492H173.5V104H174.5ZM174.5 96.4758V91.46H173.5V96.4758H174.5ZM174.5 86.4442V81.4284H173.5V86.4442H174.5ZM174.5 76.4127V71.3969H173.5V76.4127H174.5ZM174.5 66.3811V61.3653H173.5V66.3811H174.5ZM174.5 56.3495V51.3337H173.5V56.3495H174.5ZM174.5 46.3179V41.3021H173.5V46.3179H174.5ZM174.5 36.2863V31.2705H173.5V36.2863H174.5ZM174.5 26.2547V21.2389H173.5V26.2547H174.5ZM174.5 16.2231V11.2073H173.5V16.2231H174.5ZM174.5 6.19147V3.68359H173.5V6.19147H174.5ZM174 3.18359H171.352V4.18359H174V3.18359ZM166.056 3.18359H160.759V4.18359H166.056V3.18359ZM155.463 3.18359H150.167V4.18359H155.463V3.18359ZM144.87 3.18359H139.574V4.18359H144.87V3.18359ZM134.278 3.18359H128.981V4.18359H134.278V3.18359ZM123.685 3.18359H121.037V4.18359H123.685V3.18359Z" fill="#616D7B"/>
<path d="M114.029 3.68359L121.037 3.6836" stroke="#616D7B"/>
<path d="M116.577 6.36808L114.029 3.68404L116.577 1" stroke="#616D7B" stroke-linecap="square"/>
</svg>
