<svg width="645" height="568" viewBox="0 0 645 568" fill="none" xmlns="http://www.w3.org/2000/svg">
<path d="M586 0.5L220.5 1.5L210.497 8.86999L207 19L210.497 23.5L201.5 28L197 25.5L195.5 38.5L189 36.0214H186L181.5 52L164.062 61.9924L162.5 54.5L171 42.7109L162.5 45.5L157.5 52L153 77.5L148 83.5L142 96L146.748 97.5L138.484 122.198L137.697 134.003L134.155 146.201L131.794 142V138.331L130.614 128.5L118.5 146.988H112.5V140.5L103.068 146.201L104 151L100 157L98.7393 160L104 163L112.5 166.5L103.068 177.288L101 189.5L94.0171 195.782L96 202L92 206L87.5 215.5L84.9663 222.934L80 236.5L77.0961 242.609V245L69.5 238.28L62.5361 241.035L51.5177 254.807L40.8929 259.529L35 257.5V266.5L39 268.186L37.7448 274.5L43.5 278.5L54 277L47 285L39 289L36.5643 293.5L39 295.5L37.7448 303.207H32.6291L28.5 300.5L18 310.5L11.5 326.03L5.5 328.5L0.5 338L23.5783 340.5L24.3654 352L37.7448 354.5L43 361.5V368.528H28.0465L27 379L32.6291 383.5L21.5 397.5L25.5 418.5L44 425L53 423L56 432.5L64 442L61.5 448L66.0777 453.296L65 459.5L62.5361 467.551L73.5 475.5L79 461.5L89.5 454.705L96.5 462.575H107V470.5L102 474.5L109.5 482H120.5L123.5 492.5H131.5L135.5 499L141 495L145 500.5L150.5 495V501.5L154 506.5H159L165 510L169.5 523V533.5L184 538L191 534.979L196.116 540.488L203 544.816L204.5 553.5L211.5 556.5L218 555V562.5L237.5 567L251.5 566.065V559L245 552L243.946 546L240 527.5L243.946 506.5L254 493.5L256 484.5L261 481.5L262.834 469.264L278.5 456.5L303.5 448.5L296.5 437L301.5 432L314.5 427.5L317.5 434L327.5 453.524L337.778 442.506L342.5 440.539L346 435.361H355.31L361.999 433L375 442.9L385 440.539L410.5 450L414 459.427L417.878 475.56L433.619 486.578L446.998 487.5L445 471L446.998 461.788V453.524L442.276 446.835L443.85 440.539L442.276 429.5L459 414L460.5 402.5L468.5 410.5H478.5L485.956 404.337L484.382 396.467L489.498 394.106L501 383L508 369.5L505.632 357L493.5 358.5L508 347.5V338.5L514.5 339.5L520.948 325.243L518.224 312.5L528.062 305.5L538.5 294L528.062 277.5L529 266L526.094 243.5L511.928 229L504.845 231.984L495.5 220L502.483 216.638L522.553 220L537 205.5L533.571 199L543 183L540.5 177L549 173.5L572.5 177L585.5 156.432H591L616 133.5L644.5 115L641 102L626 96.5L637.5 75L629 59L616 43L611 29.5L597.5 18.5L588 10.5L586 0.5Z" stroke="#57A7D7" stroke-linejoin="round"/>
</svg>
