<svg width="28" height="39" viewBox="0 0 28 39" fill="none" xmlns="http://www.w3.org/2000/svg">
<path d="M26.6301 0H1.36986C0.616438 0 0 0.616438 0 1.36986V37.1507C0 37.9041 0.616438 38.5205 1.36986 38.5205H26.6301C27.3836 38.5205 28 37.9041 28 37.1507V1.36986C28 0.609589 27.3904 0 26.6301 0ZM26.6301 37.1507H1.36986V1.36986H26.6301V37.1507Z" fill="#616D7B"/>
<path d="M23.5892 7.4375H4.41797V7.77997H23.5892V7.4375Z" fill="#616D7B"/>
<path d="M23.5892 10.5742H4.41797V10.9167H23.5892V10.5742Z" fill="#616D7B"/>
<path d="M23.5892 13.7109H4.41797V14.0534H23.5892V13.7109Z" fill="#616D7B"/>
<path d="M23.5892 16.9844H4.41797V17.3268H23.5892V16.9844Z" fill="#616D7B"/>
<path d="M23.5892 20.2598H4.41797V20.6022H23.5892V20.2598Z" fill="#616D7B"/>
<path d="M13.1166 26.5762H4.41797V26.9186H13.1166V26.5762Z" fill="#616D7B"/>
<path d="M19.5977 26.0195C17.1182 26.0195 15.0977 28.0401 15.0977 30.5195C15.0977 32.999 17.1182 35.0195 19.5977 35.0195C22.084 35.0195 24.0977 32.999 24.0977 30.5195C24.0977 28.0401 22.084 26.0195 19.5977 26.0195ZM19.5977 34.5127C17.3922 34.5127 15.6114 32.725 15.6114 30.5264C15.6114 28.3278 17.399 26.5401 19.5977 26.5401C21.8031 26.5401 23.584 28.3278 23.584 30.5264C23.584 32.725 21.8031 34.5127 19.5977 34.5127Z" fill="#616D7B"/>
<path d="M21.4265 29.116L19.3443 31.1982L18.1593 30.0133C18.0224 29.8763 17.81 29.8763 17.6731 30.0133C17.5361 30.1502 17.5361 30.3626 17.6731 30.4996L19.0977 31.9242C19.1593 31.9859 19.2484 32.027 19.3374 32.027C19.4265 32.027 19.5155 31.9927 19.5772 31.9242L21.9059 29.5954C22.0429 29.4585 22.0429 29.2461 21.9059 29.1091C21.7689 28.9722 21.5566 28.979 21.4265 29.116Z" fill="#616D7B"/>
</svg>
