<svg width="34" height="34" viewBox="0 0 34 34" fill="none" xmlns="http://www.w3.org/2000/svg">
<path d="M33.1491 0H22.4781V0.414572H3.49069V0H0.829143C0.373114 0 0 0.373114 0 0.829143V33.1409C0 33.5969 0.373114 33.97 0.829143 33.97H14.253V32.3117H12.6942V23.1911H14.253V22.362H11.865V32.3117H1.65829V1.65829H3.49069V1.24371H22.4781V1.65829H32.32V13.5233H12.2879V15.1816H32.32V22.362H22.4781V23.1911H24.128V25.8278H24.9572V23.1911H32.3117V32.3117H24.9572V29.4097H24.128V32.3117H21.7401V33.97H33.1491C33.6052 33.97 33.9783 33.5969 33.9783 33.1409V0.829143C33.9783 0.373114 33.6135 0 33.1491 0Z" fill="#616D7B"/>
</svg>
