<svg width="38" height="34" viewBox="0 0 38 34" fill="none" xmlns="http://www.w3.org/2000/svg">
<path d="M15.9191 17.0391L3.91016 31.3605L5.97926 33.3079L6.10097 31.8879H7.52094L7.96722 30.5897L9.54948 30.7519L9.75233 28.9668H11.2534L11.6592 27.2629L13.3631 27.4252L13.4443 25.8023L15.4322 26.0052V24.2201L17.4202 24.4229L17.5825 22.5161L19.5299 22.9218V22.7595" stroke="#616D7B" stroke-miterlimit="10" stroke-linecap="round" stroke-linejoin="round"/>
<path d="M23.1369 19.5939H23.6643L23.6238 17.9711L25.49 18.3362V16.7134L27.4374 16.8757L27.8025 15.0905L29.3442 15.4151L29.7499 13.4677L31.2916 13.6706V12.778L23.4209 8.03125L17.457 15.1311" stroke="#616D7B" stroke-miterlimit="10" stroke-linecap="round" stroke-linejoin="round"/>
<path d="M23.4219 8.03268L29.3046 1.25739C29.548 0.932821 30.0349 0.89225 30.3595 1.17624L36.729 6.53157C37.0536 6.81556 37.0942 7.30241 36.8102 7.62698L32.2257 12.9417L31.2926 12.7794" stroke="#616D7B" stroke-miterlimit="10" stroke-linecap="round" stroke-linejoin="round"/>
<path d="M30.1955 3.28539L34.5366 6.77447C34.8611 7.05846 34.9017 7.50474 34.6583 7.82931L33.4817 9.28985C33.2789 9.53327 32.9543 9.61441 32.6703 9.53327L27.8424 8.03216C27.7613 7.99159 27.6396 7.95102 27.5584 7.86988L26.8687 7.26132C26.5441 6.97732 26.5036 6.53105 26.7876 6.20648L29.1407 3.4071C29.3841 3.08254 29.8709 3.04197 30.1955 3.28539Z" stroke="#616D7B" stroke-miterlimit="10" stroke-linecap="round" stroke-linejoin="round"/>
<path d="M11.6262 8.51623L9.80469 10.1309L19.2234 20.7565L21.0449 19.1419L11.6262 8.51623Z" stroke="#616D7B" stroke-miterlimit="10" stroke-linecap="round" stroke-linejoin="round"/>
<path d="M31.1684 29.534L28.4907 31.9277C28.2473 32.1305 27.8822 32.1305 27.6793 31.8871L18.8349 21.8662C18.6321 21.6227 18.6321 21.2576 18.8755 21.0548L21.5531 18.6611C21.7966 18.4582 22.1617 18.4582 22.3646 18.7017L31.209 28.682C31.4524 28.966 31.4118 29.3312 31.1684 29.534Z" stroke="#616D7B" stroke-miterlimit="10" stroke-linecap="round" stroke-linejoin="round"/>
<path d="M18.6348 1.05371C16.3223 0.526288 12.9955 0.201723 9.99329 2.87939L4.59739 7.66672C4.47568 7.78844 4.47568 7.95072 4.55682 8.113L5.04367 8.68099L2.77171 10.669L2.48772 10.385C2.44715 10.2227 2.24429 10.2227 2.12258 10.3444L0.743178 11.5615C0.499754 11.7644 0.459183 12.1701 0.702607 12.4135L3.17742 15.2129C3.38027 15.4563 3.78598 15.4969 4.0294 15.2534L5.4088 14.0363C5.53051 13.9146 5.53052 13.7523 5.44937 13.59L5.0031 13.1032L7.27505 11.1152L7.72133 11.6021C7.84304 11.7238 8.00532 11.7238 8.16761 11.6426L13.5635 6.85531C13.6852 6.7336 13.6852 6.57132 13.6041 6.40903L13.1578 5.88161C12.7115 5.3542 13.1984 4.50221 15.592 3.24452C17.9857 1.98683 19.4868 2.63596 21.3531 2.83882C23.2193 3.04167 21.2314 1.66227 18.6348 1.05371Z" stroke="#616D7B" stroke-miterlimit="10" stroke-linecap="round" stroke-linejoin="round"/>
</svg>
