<svg width="972" height="798" viewBox="0 0 972 798" fill="none" xmlns="http://www.w3.org/2000/svg">
<path d="M1 5V4.5H0.5V5H1ZM1 797H0.5V797.5H1V797ZM971 797V797.5H971.5V797H971ZM971 5H971.5V4.5H971V5ZM791 4.5C790.724 4.5 790.5 4.72386 790.5 5C790.5 5.27614 790.724 5.5 791 5.5V4.5ZM12.5 4.5H9.625V5.5H12.5V4.5ZM3.875 4.5H1V5.5H3.875V4.5ZM0.5 5V7.50633H1.5V5H0.5ZM0.5 12.519V17.5316H1.5V12.519H0.5ZM0.5 22.5443V27.557H1.5V22.5443H0.5ZM0.5 32.5696V37.5823H1.5V32.5696H0.5ZM0.5 42.5949V47.6076H1.5V42.5949H0.5ZM0.5 52.6202V57.6329H1.5V52.6202H0.5ZM0.5 62.6456V67.6582H1.5V62.6456H0.5ZM0.5 72.6709V77.6835H1.5V72.6709H0.5ZM0.5 82.6962V87.7088H1.5V82.6962H0.5ZM0.5 92.7215V97.7342H1.5V92.7215H0.5ZM0.5 102.747V107.759H1.5V102.747H0.5ZM0.5 112.772V117.785H1.5V112.772H0.5ZM0.5 122.797V127.81H1.5V122.797H0.5ZM0.5 132.823V137.835H1.5V132.823H0.5ZM0.5 142.848V147.861H1.5V142.848H0.5ZM0.5 152.873V157.886H1.5V152.873H0.5ZM0.5 162.899V167.911H1.5V162.899H0.5ZM0.5 172.924V177.937H1.5V172.924H0.5ZM0.5 182.949V187.962H1.5V182.949H0.5ZM0.5 192.975V197.987H1.5V192.975H0.5ZM0.5 203V208.013H1.5V203H0.5ZM0.5 213.025V218.038H1.5V213.025H0.5ZM0.5 223.051V228.063H1.5V223.051H0.5ZM0.5 233.076V238.089H1.5V233.076H0.5ZM0.5 243.101V248.114H1.5V243.101H0.5ZM0.5 253.127V258.139H1.5V253.127H0.5ZM0.5 263.152V268.165H1.5V263.152H0.5ZM0.5 273.177V278.19H1.5V273.177H0.5ZM0.5 283.203V288.215H1.5V283.203H0.5ZM0.5 293.228V298.241H1.5V293.228H0.5ZM0.5 303.253V308.266H1.5V303.253H0.5ZM0.5 313.279V318.291H1.5V313.279H0.5ZM0.5 323.304V328.317H1.5V323.304H0.5ZM0.5 333.329V338.342H1.5V333.329H0.5ZM0.5 343.355V348.367H1.5V343.355H0.5ZM0.5 353.38V358.393H1.5V353.38H0.5ZM0.5 363.405V368.418H1.5V363.405H0.5ZM0.5 373.431V378.443H1.5V373.431H0.5ZM0.5 383.456V388.469H1.5V383.456H0.5ZM0.5 393.481V398.494H1.5V393.481H0.5ZM0.5 403.507V408.519H1.5V403.507H0.5ZM0.5 413.532V418.545H1.5V413.532H0.5ZM0.5 423.557V428.57H1.5V423.557H0.5ZM0.5 433.583V438.595H1.5V433.583H0.5ZM0.5 443.608V448.621H1.5V443.608H0.5ZM0.5 453.633V458.646H1.5V453.633H0.5ZM0.5 463.659V468.671H1.5V463.659H0.5ZM0.5 473.684V478.697H1.5V473.684H0.5ZM0.5 483.709V488.722H1.5V483.709H0.5ZM0.5 493.735V498.747H1.5V493.735H0.5ZM0.5 503.76V508.773H1.5V503.76H0.5ZM0.5 513.785V518.798H1.5V513.785H0.5ZM0.5 523.811V528.823H1.5V523.811H0.5ZM0.5 533.836V538.848H1.5V533.836H0.5ZM0.5 543.861V548.874H1.5V543.861H0.5ZM0.5 553.886V558.899H1.5V553.886H0.5ZM0.5 563.912V568.924H1.5V563.912H0.5ZM0.5 573.937V578.95H1.5V573.937H0.5ZM0.5 583.962V588.975H1.5V583.962H0.5ZM0.5 593.987V599H1.5V593.987H0.5ZM0.5 604.013V609.025H1.5V604.013H0.5ZM0.5 614.038V619.051H1.5V614.038H0.5ZM0.5 624.063V629.076H1.5V624.063H0.5ZM0.5 634.089V639.101H1.5V634.089H0.5ZM0.5 644.114V649.126H1.5V644.114H0.5ZM0.5 654.139V659.152H1.5V654.139H0.5ZM0.5 664.164V669.177H1.5V664.164H0.5ZM0.5 674.19V679.202H1.5V674.19H0.5ZM0.5 684.215V689.227H1.5V684.215H0.5ZM0.5 694.24V699.253H1.5V694.24H0.5ZM0.5 704.265V709.278H1.5V704.265H0.5ZM0.5 714.291V719.303H1.5V714.291H0.5ZM0.5 724.316V729.329H1.5V724.316H0.5ZM0.5 734.341V739.354H1.5V734.341H0.5ZM0.5 744.366V749.379H1.5V744.366H0.5ZM0.5 754.392V759.404H1.5V754.392H0.5ZM0.5 764.417V769.43H1.5V764.417H0.5ZM0.5 774.442V779.455H1.5V774.442H0.5ZM0.5 784.468V789.48H1.5V784.468H0.5ZM0.5 794.493V797H1.5V794.493H0.5ZM1 797.5H3.5V796.5H1V797.5ZM8.5 797.5H13.5V796.5H8.5V797.5ZM18.5 797.5H23.5V796.5H18.5V797.5ZM28.5 797.5H33.5V796.5H28.5V797.5ZM38.5 797.5H43.5V796.5H38.5V797.5ZM48.5 797.5H53.5V796.5H48.5V797.5ZM58.5 797.5H63.5V796.5H58.5V797.5ZM68.5 797.5H73.5V796.5H68.5V797.5ZM78.5 797.5H83.5V796.5H78.5V797.5ZM88.5 797.5H93.5V796.5H88.5V797.5ZM98.5 797.5H103.5V796.5H98.5V797.5ZM108.5 797.5H113.5V796.5H108.5V797.5ZM118.5 797.5H123.5V796.5H118.5V797.5ZM128.5 797.5H133.5V796.5H128.5V797.5ZM138.5 797.5H143.5V796.5H138.5V797.5ZM148.5 797.5H153.5V796.5H148.5V797.5ZM158.5 797.5H163.5V796.5H158.5V797.5ZM168.5 797.5H173.5V796.5H168.5V797.5ZM178.5 797.5H183.5V796.5H178.5V797.5ZM188.5 797.5H193.5V796.5H188.5V797.5ZM198.5 797.5H203.5V796.5H198.5V797.5ZM208.5 797.5H213.5V796.5H208.5V797.5ZM218.5 797.5H223.5V796.5H218.5V797.5ZM228.5 797.5H233.5V796.5H228.5V797.5ZM238.5 797.5H243.5V796.5H238.5V797.5ZM248.5 797.5H253.5V796.5H248.5V797.5ZM258.5 797.5H263.5V796.5H258.5V797.5ZM268.5 797.5H273.5V796.5H268.5V797.5ZM278.5 797.5H283.5V796.5H278.5V797.5ZM288.5 797.5H293.5V796.5H288.5V797.5ZM298.5 797.5H303.5V796.5H298.5V797.5ZM308.5 797.5H313.5V796.5H308.5V797.5ZM318.5 797.5H323.5V796.5H318.5V797.5ZM328.5 797.5H333.5V796.5H328.5V797.5ZM338.5 797.5H343.5V796.5H338.5V797.5ZM348.5 797.5H353.5V796.5H348.5V797.5ZM358.5 797.5H363.5V796.5H358.5V797.5ZM368.5 797.5H373.5V796.5H368.5V797.5ZM378.5 797.5H383.5V796.5H378.5V797.5ZM388.5 797.5H393.5V796.5H388.5V797.5ZM398.5 797.5H403.5V796.5H398.5V797.5ZM408.5 797.5H413.5V796.5H408.5V797.5ZM418.5 797.5H423.5V796.5H418.5V797.5ZM428.5 797.5H433.5V796.5H428.5V797.5ZM438.5 797.5H443.5V796.5H438.5V797.5ZM448.5 797.5H453.5V796.5H448.5V797.5ZM458.5 797.5H463.5V796.5H458.5V797.5ZM468.5 797.5H473.5V796.5H468.5V797.5ZM478.5 797.5H483.5V796.5H478.5V797.5ZM488.5 797.5H493.5V796.5H488.5V797.5ZM498.5 797.5H503.5V796.5H498.5V797.5ZM508.5 797.5H513.5V796.5H508.5V797.5ZM518.5 797.5H523.5V796.5H518.5V797.5ZM528.5 797.5H533.5V796.5H528.5V797.5ZM538.5 797.5H543.5V796.5H538.5V797.5ZM548.5 797.5H553.5V796.5H548.5V797.5ZM558.5 797.5H563.5V796.5H558.5V797.5ZM568.5 797.5H573.5V796.5H568.5V797.5ZM578.5 797.5H583.5V796.5H578.5V797.5ZM588.5 797.5H593.5V796.5H588.5V797.5ZM598.5 797.5H603.5V796.5H598.5V797.5ZM608.5 797.5H613.5V796.5H608.5V797.5ZM618.5 797.5H623.5V796.5H618.5V797.5ZM628.5 797.5H633.5V796.5H628.5V797.5ZM638.5 797.5H643.5V796.5H638.5V797.5ZM648.5 797.5H653.5V796.5H648.5V797.5ZM658.5 797.5H663.5V796.5H658.5V797.5ZM668.5 797.5H673.5V796.5H668.5V797.5ZM678.5 797.5H683.5V796.5H678.5V797.5ZM688.5 797.5H693.5V796.5H688.5V797.5ZM698.5 797.5H703.5V796.5H698.5V797.5ZM708.5 797.5H713.5V796.5H708.5V797.5ZM718.5 797.5H723.5V796.5H718.5V797.5ZM728.5 797.5H733.5V796.5H728.5V797.5ZM738.5 797.5H743.5V796.5H738.5V797.5ZM748.5 797.5H753.5V796.5H748.5V797.5ZM758.5 797.5H763.5V796.5H758.5V797.5ZM768.5 797.5H773.5V796.5H768.5V797.5ZM778.5 797.5H783.5V796.5H778.5V797.5ZM788.5 797.5H793.5V796.5H788.5V797.5ZM798.5 797.5H803.5V796.5H798.5V797.5ZM808.5 797.5H813.5V796.5H808.5V797.5ZM818.5 797.5H823.5V796.5H818.5V797.5ZM828.5 797.5H833.5V796.5H828.5V797.5ZM838.5 797.5H843.5V796.5H838.5V797.5ZM848.5 797.5H853.5V796.5H848.5V797.5ZM858.5 797.5H863.5V796.5H858.5V797.5ZM868.5 797.5H873.5V796.5H868.5V797.5ZM878.5 797.5H883.5V796.5H878.5V797.5ZM888.5 797.5H893.5V796.5H888.5V797.5ZM898.5 797.5H903.5V796.5H898.5V797.5ZM908.5 797.5H913.5V796.5H908.5V797.5ZM918.5 797.5H923.5V796.5H918.5V797.5ZM928.5 797.5H933.5V796.5H928.5V797.5ZM938.5 797.5H943.5V796.5H938.5V797.5ZM948.5 797.5H953.5V796.5H948.5V797.5ZM958.5 797.5H963.5V796.5H958.5V797.5ZM968.5 797.5H971V796.5H968.5V797.5ZM971.5 797V794.494H970.5V797H971.5ZM971.5 789.481V784.468H970.5V789.481H971.5ZM971.5 779.456V774.443H970.5V779.456H971.5ZM971.5 769.43V764.418H970.5V769.43H971.5ZM971.5 759.405V754.392H970.5V759.405H971.5ZM971.5 749.38V744.367H970.5V749.38H971.5ZM971.5 739.354V734.342H970.5V739.354H971.5ZM971.5 729.329V724.316H970.5V729.329H971.5ZM971.5 719.304V714.291H970.5V719.304H971.5ZM971.5 709.279V704.266H970.5V709.279H971.5ZM971.5 699.253V694.241H970.5V699.253H971.5ZM971.5 689.228V684.215H970.5V689.228H971.5ZM971.5 679.203V674.19H970.5V679.203H971.5ZM971.5 669.177V664.165H970.5V669.177H971.5ZM971.5 659.152V654.139H970.5V659.152H971.5ZM971.5 649.127V644.114H970.5V649.127H971.5ZM971.5 639.101V634.089H970.5V639.101H971.5ZM971.5 629.076V624.063H970.5V629.076H971.5ZM971.5 619.051V614.038H970.5V619.051H971.5ZM971.5 609.025V604.013H970.5V609.025H971.5ZM971.5 599V593.987H970.5V599H971.5ZM971.5 588.975V583.962H970.5V588.975H971.5ZM971.5 578.949V573.937H970.5V578.949H971.5ZM971.5 568.924V563.911H970.5V568.924H971.5ZM971.5 558.899V553.886H970.5V558.899H971.5ZM971.5 548.873V543.861H970.5V548.873H971.5ZM971.5 538.848V533.835H970.5V538.848H971.5ZM971.5 528.823V523.81H970.5V528.823H971.5ZM971.5 518.797V513.785H970.5V518.797H971.5ZM971.5 508.772V503.759H970.5V508.772H971.5ZM971.5 498.747V493.734H970.5V498.747H971.5ZM971.5 488.721V483.709H970.5V488.721H971.5ZM971.5 478.696V473.683H970.5V478.696H971.5ZM971.5 468.671V463.658H970.5V468.671H971.5ZM971.5 458.645V453.633H970.5V458.645H971.5ZM971.5 448.62V443.607H970.5V448.62H971.5ZM971.5 438.595V433.582H970.5V438.595H971.5ZM971.5 428.569V423.557H970.5V428.569H971.5ZM971.5 418.544V413.531H970.5V418.544H971.5ZM971.5 408.519V403.506H970.5V408.519H971.5ZM971.5 398.493V393.481H970.5V398.493H971.5ZM971.5 388.468V383.455H970.5V388.468H971.5ZM971.5 378.443V373.43H970.5V378.443H971.5ZM971.5 368.417V363.405H970.5V368.417H971.5ZM971.5 358.392V353.379H970.5V358.392H971.5ZM971.5 348.367V343.354H970.5V348.367H971.5ZM971.5 338.341V333.329H970.5V338.341H971.5ZM971.5 328.316V323.303H970.5V328.316H971.5ZM971.5 318.291V313.278H970.5V318.291H971.5ZM971.5 308.265V303.253H970.5V308.265H971.5ZM971.5 298.24V293.227H970.5V298.24H971.5ZM971.5 288.215V283.202H970.5V288.215H971.5ZM971.5 278.189V273.177H970.5V278.189H971.5ZM971.5 268.164V263.152H970.5V268.164H971.5ZM971.5 258.139V253.126H970.5V258.139H971.5ZM971.5 248.114V243.101H970.5V248.114H971.5ZM971.5 238.088V233.076H970.5V238.088H971.5ZM971.5 228.063V223.05H970.5V228.063H971.5ZM971.5 218.038V213.025H970.5V218.038H971.5ZM971.5 208.013V203H970.5V208.013H971.5ZM971.5 197.987V192.975H970.5V197.987H971.5ZM971.5 187.962V182.949H970.5V187.962H971.5ZM971.5 177.937V172.924H970.5V177.937H971.5ZM971.5 167.911V162.899H970.5V167.911H971.5ZM971.5 157.886V152.874H970.5V157.886H971.5ZM971.5 147.861V142.848H970.5V147.861H971.5ZM971.5 137.836V132.823H970.5V137.836H971.5ZM971.5 127.81V122.798H970.5V127.81H971.5ZM971.5 117.785V112.772H970.5V117.785H971.5ZM971.5 107.76V102.747H970.5V107.76H971.5ZM971.5 97.7346V92.722H970.5V97.7346H971.5ZM971.5 87.7093V82.6967H970.5V87.7093H971.5ZM971.5 77.6841V72.6714H970.5V77.6841H971.5ZM971.5 67.6588V62.6462H970.5V67.6588H971.5ZM971.5 57.6335V52.6209H970.5V57.6335H971.5ZM971.5 47.6083V42.5957H970.5V47.6083H971.5ZM971.5 37.583V32.5704H970.5V37.583H971.5ZM971.5 27.5578V22.5451H970.5V27.5578H971.5ZM971.5 17.5325V12.5198H970.5V17.5325H971.5ZM971.5 7.5072V5H970.5V7.5072H971.5ZM971 4.5H968.5V5.5H971V4.5ZM963.5 4.5H958.5V5.5H963.5V4.5ZM953.5 4.5H948.5V5.5H953.5V4.5ZM943.5 4.5H938.5V5.5H943.5V4.5ZM933.5 4.5H928.5V5.5H933.5V4.5ZM923.5 4.5H918.5V5.5H923.5V4.5ZM913.5 4.5H908.5V5.5H913.5V4.5ZM903.5 4.5H898.5V5.5H903.5V4.5ZM893.5 4.5H888.5V5.5H893.5V4.5ZM883.5 4.5H878.5V5.5H883.5V4.5ZM873.5 4.5H868.5V5.5H873.5V4.5ZM863.5 4.5H858.5V5.5H863.5V4.5ZM853.5 4.5H848.5V5.5H853.5V4.5ZM843.5 4.5H838.5V5.5H843.5V4.5ZM833.5 4.5H828.5V5.5H833.5V4.5ZM823.5 4.5H818.5V5.5H823.5V4.5ZM813.5 4.5H808.5V5.5H813.5V4.5ZM803.5 4.5H798.5V5.5H803.5V4.5ZM793.5 4.5H791V5.5H793.5V4.5Z" fill="#616D7B"/>
<path d="M780 5H791" stroke="#616D7B"/>
<path d="M784 9L780 5L784 1" stroke="#616D7B" stroke-linecap="square"/>
</svg>
