<svg width="436" height="248" viewBox="0 0 436 248" fill="none" xmlns="http://www.w3.org/2000/svg">
<path d="M34.5 4.5C34.7762 4.5 35 4.72386 35 5C35 5.27614 34.7762 5.5 34.5 5.5V4.5ZM398.5 4.5H401.292V5.5H398.5V4.5ZM406.875 4.5H412.458V5.5H406.875V4.5ZM418.042 4.5H423.625V5.5H418.042V4.5ZM429.208 4.5H432V5.5H429.208V4.5ZM432 4.5C432.474 4.5 432.927 4.59436 433.34 4.76578L432.957 5.6895C432.663 5.56756 432.34 5.5 432 5.5V4.5ZM435.234 6.66011C435.406 7.07348 435.5 7.52635 435.5 8H434.5C434.5 7.6601 434.432 7.33724 434.31 7.04316L435.234 6.66011ZM435.5 8V10.4583H434.5V8H435.5ZM435.5 15.375V20.2917H434.5V15.375H435.5ZM435.5 25.2083V30.125H434.5V25.2083H435.5ZM435.5 35.0417V39.9583H434.5V35.0417H435.5ZM435.5 44.875V49.7917H434.5V44.875H435.5ZM435.5 54.7083V59.625H434.5V54.7083H435.5ZM435.5 64.5417V69.4583H434.5V64.5417H435.5ZM435.5 74.375V79.2917H434.5V74.375H435.5ZM435.5 84.2083V89.125H434.5V84.2083H435.5ZM435.5 94.0417V98.9583H434.5V94.0417H435.5ZM435.5 103.875V108.792H434.5V103.875H435.5ZM435.5 113.708V118.625H434.5V113.708H435.5ZM435.5 123.542V128.458H434.5V123.542H435.5ZM435.5 133.375V138.292H434.5V133.375H435.5ZM435.5 143.208V148.125H434.5V143.208H435.5ZM435.5 153.042V157.958H434.5V153.042H435.5ZM435.5 162.875V167.792H434.5V162.875H435.5ZM435.5 172.708V177.625H434.5V172.708H435.5ZM435.5 182.542V187.458H434.5V182.542H435.5ZM435.5 192.375V197.292H434.5V192.375H435.5ZM435.5 202.208V207.125H434.5V202.208H435.5ZM435.5 212.042V216.958H434.5V212.042H435.5ZM435.5 221.875V226.792H434.5V221.875H435.5ZM435.5 231.708V236.625H434.5V231.708H435.5ZM435.5 241.542V244H434.5V241.542H435.5ZM435.5 244C435.5 244.474 435.406 244.926 435.234 245.34L434.31 244.957C434.432 244.663 434.5 244.34 434.5 244H435.5ZM433.34 247.234C432.927 247.406 432.474 247.5 432 247.5V246.5C432.34 246.5 432.663 246.432 432.957 246.31L433.34 247.234ZM432 247.5H429.512V246.5H432V247.5ZM424.535 247.5H419.558V246.5H424.535V247.5ZM414.581 247.5H409.605V246.5H414.581V247.5ZM404.628 247.5H399.651V246.5H404.628V247.5ZM394.674 247.5H389.698V246.5H394.674V247.5ZM384.721 247.5H379.744V246.5H384.721V247.5ZM374.767 247.5H369.791V246.5H374.767V247.5ZM364.814 247.5H359.837V246.5H364.814V247.5ZM354.86 247.5H349.884V246.5H354.86V247.5ZM344.907 247.5H339.93V246.5H344.907V247.5ZM334.953 247.5H329.977V246.5H334.953V247.5ZM325 247.5H320.023V246.5H325V247.5ZM315.047 247.5H310.07V246.5H315.047V247.5ZM305.093 247.5H300.116V246.5H305.093V247.5ZM295.14 247.5H290.163V246.5H295.14V247.5ZM285.186 247.5H280.209V246.5H285.186V247.5ZM275.233 247.5H270.256V246.5H275.233V247.5ZM265.279 247.5H260.302V246.5H265.279V247.5ZM255.326 247.5H250.349V246.5H255.326V247.5ZM245.372 247.5H240.395V246.5H245.372V247.5ZM235.419 247.5H230.442V246.5H235.419V247.5ZM225.465 247.5H220.488V246.5H225.465V247.5ZM215.512 247.5H210.535V246.5H215.512V247.5ZM205.558 247.5H200.581V246.5H205.558V247.5ZM195.605 247.5H190.628V246.5H195.605V247.5ZM185.651 247.5H180.674V246.5H185.651V247.5ZM175.698 247.5H170.721V246.5H175.698V247.5ZM165.744 247.5H160.767V246.5H165.744V247.5ZM155.791 247.5H150.814V246.5H155.791V247.5ZM145.837 247.5H140.86V246.5H145.837V247.5ZM135.884 247.5H130.907V246.5H135.884V247.5ZM125.93 247.5H120.953V246.5H125.93V247.5ZM115.977 247.5H111V246.5H115.977V247.5ZM106.023 247.5H101.046V246.5H106.023V247.5ZM96.0697 247.5H91.093V246.5H96.0697V247.5ZM86.1162 247.5H81.1395V246.5H86.1162V247.5ZM76.1627 247.5H71.186V246.5H76.1627V247.5ZM66.2092 247.5H61.2325V246.5H66.2092V247.5ZM56.2557 247.5H51.279V246.5H56.2557V247.5ZM46.3022 247.5H41.3255V246.5H46.3022V247.5ZM36.3488 247.5H31.372V246.5H36.3488V247.5ZM26.3953 247.5H21.4185V246.5H26.3953V247.5ZM16.4418 247.5H11.465V246.5H16.4418V247.5ZM6.48828 247.5H4V246.5H6.48828V247.5ZM4 247.5C3.52637 247.5 3.07349 247.406 2.66013 247.234L3.04318 246.31C3.33725 246.432 3.66013 246.5 4 246.5V247.5ZM0.765778 245.34C0.59436 244.927 0.5 244.474 0.5 244H1.5C1.5 244.34 1.56757 244.663 1.68951 244.957L0.765778 245.34ZM0.5 244V241.542H1.5V244H0.5ZM0.5 236.625V231.708H1.5V236.625H0.5ZM0.5 226.792V221.875H1.5V226.792H0.5ZM0.5 216.958V212.042H1.5V216.958H0.5ZM0.5 207.125V202.208H1.5V207.125H0.5ZM0.5 197.292V192.375H1.5V197.292H0.5ZM0.5 187.458V182.542H1.5V187.458H0.5ZM0.5 177.625V172.708H1.5V177.625H0.5ZM0.5 167.792V162.875H1.5V167.792H0.5ZM0.5 157.958V153.042H1.5V157.958H0.5ZM0.5 148.125V143.208H1.5V148.125H0.5ZM0.5 138.292V133.375H1.5V138.292H0.5ZM0.5 128.458V123.542H1.5V128.458H0.5ZM0.5 118.625V113.708H1.5V118.625H0.5ZM0.5 108.792V103.875H1.5V108.792H0.5ZM0.5 98.9583V94.0417H1.5V98.9583H0.5ZM0.5 89.125V84.2083H1.5V89.125H0.5ZM0.5 79.2916V74.375H1.5V79.2916H0.5ZM0.5 69.4583V64.5416H1.5V69.4583H0.5ZM0.5 59.625V54.7083H1.5V59.625H0.5ZM0.5 49.7916V44.8749H1.5V49.7916H0.5ZM0.5 39.9583V35.0416H1.5V39.9583H0.5ZM0.5 30.1249V25.2083H1.5V30.1249H0.5ZM0.5 20.2916V15.3749H1.5V20.2916H0.5ZM0.5 10.4582V8H1.5V10.4582H0.5ZM0.5 8C0.5 7.52635 0.59436 7.07348 0.765778 6.66011L1.68951 7.04316C1.56757 7.33724 1.5 7.6601 1.5 8H0.5ZM2.6601 4.76578C3.07349 4.59436 3.52634 4.5 4 4.5V5.5C3.6601 5.5 3.33725 5.56756 3.04315 5.6895L2.6601 4.76578ZM4 4.5H6.54166V5.5H4V4.5ZM11.625 4.5H16.7083V5.5H11.625V4.5ZM21.7917 4.5H26.875V5.5H21.7917V4.5ZM31.9583 4.5H34.5V5.5H31.9583V4.5Z" fill="#616D7B"/>
<path d="M42 5H31" stroke="#616D7B"/>
<path d="M38 9L42 5L38 1" stroke="#616D7B" stroke-linecap="square"/>
</svg>
