<svg width="106" height="49" viewBox="0 0 106 49" fill="none" xmlns="http://www.w3.org/2000/svg">
<path d="M102.899 48.0721C102.899 47.9678 102.899 47.8844 102.899 47.801C102.899 47.4465 102.899 47.0815 102.899 46.727C102.899 46.4142 102.857 46.3829 102.553 46.3829C101.727 46.3829 100.9 46.3829 100.063 46.3829C99.9796 46.3829 99.8855 46.3724 99.7809 46.3724C99.7809 46.2265 99.7809 46.1118 99.7809 45.9971C99.7809 32.598 99.7809 19.1989 99.7809 5.81031C99.7809 5.41408 99.7495 5.00741 99.6867 4.6216C99.4984 3.50588 98.9544 2.56743 98.0651 1.85837C97.113 1.0659 96.0145 0.732226 94.78 0.867781C94.0581 0.940772 93.3885 1.1806 92.8026 1.58726C91.4739 2.51529 90.7939 3.79785 90.7625 5.4245C90.7625 5.50792 90.7521 5.59134 90.7521 5.69561C90.3859 5.69561 90.0406 5.69561 89.6849 5.69561C89.5803 5.69561 89.4861 5.69561 89.392 5.71647C88.691 5.86245 88.2202 6.43595 88.2098 7.15543C88.2098 7.3327 88.2098 7.52039 88.2098 7.69765C88.1051 7.74979 88.011 7.7915 87.9273 7.84363C87.6448 8.00004 87.3728 8.18773 87.1635 8.43799C86.6509 9.01149 86.4207 9.68926 86.4207 10.4505C86.4312 11.8269 86.4207 13.2033 86.4207 14.5797C86.4207 14.6422 86.4207 14.6944 86.4207 14.7569C86.4312 14.9863 86.473 15.028 86.7032 15.0385C86.7451 15.0385 86.7869 15.0385 86.8288 15.0385C89.5908 15.0385 92.3528 15.0385 95.1148 15.0385C95.1775 15.0385 95.2298 15.0385 95.2926 15.0385C95.4705 15.0176 95.5228 14.9655 95.5332 14.7882C95.5332 14.7256 95.5332 14.6735 95.5332 14.6109C95.5332 13.2554 95.5332 11.8894 95.5332 10.5339C95.5332 10.3566 95.5228 10.1689 95.5019 9.99165C95.3763 9.01149 94.8532 8.30243 93.9848 7.83321C93.9011 7.7915 93.8279 7.74979 93.7442 7.70808C93.7442 7.52039 93.7442 7.34312 93.7442 7.17629C93.7337 6.25869 92.97 5.6539 92.2377 5.70604C91.8924 5.72689 91.5576 5.70604 91.2019 5.70604C91.181 5.66433 91.1705 5.64348 91.1705 5.63305C91.1705 5.59134 91.1601 5.54963 91.1601 5.50792C91.1705 4.2775 91.6099 3.22435 92.5097 2.35888C93.242 1.66025 94.1208 1.2953 95.1252 1.24316C95.8053 1.21188 96.4644 1.34744 97.0607 1.67068C98.5463 2.47358 99.3624 3.72486 99.3624 5.41408C99.3728 18.9383 99.3728 32.452 99.3728 45.9762C99.3728 46.0388 99.3728 46.1118 99.3728 46.1743C99.3728 46.2369 99.3624 46.2995 99.3519 46.3829C99.2473 46.3829 99.1531 46.3829 99.0694 46.3829C98.2429 46.3829 97.4164 46.3829 96.5795 46.3829C96.3179 46.3829 96.2865 46.4142 96.2865 46.6748C96.2865 47.0711 96.2865 47.4569 96.2865 47.8531C96.2865 47.9261 96.2761 47.9991 96.2761 48.0721C95.0311 48.0721 93.807 48.0721 92.562 48.0721C92.3423 47.2171 92.1121 46.3829 91.8924 45.5383C92.2586 45.4757 92.2691 45.4653 92.2691 45.1212C92.2691 45.0795 92.2691 45.0378 92.2691 44.996C92.2691 40.1786 92.2691 35.3508 92.2691 30.5334C92.2691 30.4291 92.2691 30.3249 92.2691 30.1997C92.3737 30.1997 92.4469 30.1997 92.5201 30.1997C92.7503 30.1893 92.7817 30.1684 92.7817 29.939C92.7817 29.5115 92.7817 29.084 92.7817 28.6669C92.7817 28.4062 92.7608 28.3854 92.4992 28.375C92.4678 28.375 92.4365 28.375 92.3946 28.375C88.6073 28.375 84.8096 28.375 81.0223 28.375C80.9595 28.375 80.9072 28.375 80.8444 28.375C80.677 28.3854 80.6247 28.4375 80.6247 28.6044C80.6247 29.0632 80.6247 29.522 80.6247 29.9808C80.6247 30.1372 80.6875 30.1893 80.834 30.1997C80.9281 30.2102 81.0223 30.2102 81.1374 30.2102C81.1374 30.3457 81.1374 30.45 81.1374 30.5647C81.1374 35.3821 81.1374 40.2099 81.1374 45.0273C81.1374 45.0899 81.1374 45.1629 81.1374 45.2254C81.1478 45.4548 81.1792 45.4861 81.4198 45.5174C81.4512 45.5174 81.4826 45.5383 81.5245 45.5487C81.2943 46.4037 81.0746 47.2379 80.8549 48.0825C78.3126 48.0825 75.8017 48.0825 73.2594 48.0825C73.4163 47.1336 73.5628 46.1952 73.7197 45.2359C73.8243 45.2359 73.9185 45.2359 74.0022 45.2359C75.0275 45.2359 76.0423 45.2359 77.0676 45.2359C77.1513 45.2359 77.235 45.2359 77.3187 45.2254C77.4338 45.215 77.507 45.1525 77.4965 45.0273C77.4965 44.9752 77.4965 44.9231 77.4965 44.8813C77.4965 42.9419 77.4965 41.0128 77.4965 39.0733C77.4965 39.0212 77.4965 38.9691 77.4965 38.9274C77.4861 38.7918 77.4338 38.7397 77.2978 38.7292C77.235 38.7188 77.1827 38.7292 77.1199 38.7292C76.4713 38.7292 75.8331 38.7292 75.1844 38.7292C75.1007 38.7292 75.0066 38.7188 74.9019 38.7188C74.9019 38.6041 74.9019 38.5103 74.9019 38.4164C74.9019 37.2694 74.9019 36.1329 74.9019 34.9859C74.9019 34.5792 74.9019 34.5792 74.4834 34.5792C73.9708 34.5792 73.4582 34.5792 72.956 34.5792C72.8723 34.5792 72.799 34.5688 72.7049 34.5688C72.7049 34.4541 72.7049 34.3602 72.7049 34.2664C72.7049 32.3582 72.7049 30.45 72.7049 28.5314C72.7049 28.0309 72.5898 27.5512 72.3387 27.1237C71.7947 26.1957 70.9891 25.6743 69.901 25.6743C59.0937 25.6743 48.2863 25.6743 37.4894 25.6743C37.3534 25.6743 37.2174 25.6743 37.0918 25.6951C35.6062 25.9141 34.6751 27.2488 34.6751 28.4688C34.6855 30.4083 34.6751 32.3373 34.6751 34.2768C34.6751 34.3706 34.6646 34.4645 34.6646 34.5792C34.539 34.5792 34.4554 34.5792 34.3612 34.5792C33.7544 34.5792 33.158 34.5792 32.5512 34.5792C32.4885 34.5792 32.4362 34.5792 32.3734 34.5792C32.2583 34.5896 32.1851 34.6522 32.1851 34.7669C32.1851 34.8294 32.1851 34.9024 32.1851 34.965C32.1851 36.112 32.1851 37.2694 32.1851 38.4164C32.1851 38.5103 32.1851 38.6145 32.1851 38.7292C32.07 38.7292 31.9863 38.7292 31.9026 38.7292C31.505 38.7292 31.1179 38.7292 30.7204 38.7292C30.4484 38.7292 30.4065 38.771 30.4065 39.0316C30.4065 41.0024 30.4065 42.9732 30.4065 44.9335C30.4065 45.1837 30.4588 45.2254 30.6994 45.2463C30.7622 45.2463 30.8355 45.2463 30.8982 45.2463C31.9131 45.2463 32.9279 45.2463 33.9322 45.2463C34.0159 45.2463 34.1101 45.2567 34.2043 45.2567C34.3612 46.216 34.5181 47.1441 34.6751 48.0825C31.6829 48.0825 28.7326 48.0825 25.7509 48.0825C25.8869 47.7488 25.8869 47.4152 25.8869 47.0815C25.8869 46.873 25.8869 46.6644 25.8869 46.4559C25.8869 41.0962 25.8869 35.747 25.8869 30.3874C25.8869 30.2831 25.8869 30.1789 25.8869 30.0537C26.1066 30.0537 26.2844 30.0537 26.4727 30.0537C26.6506 30.0537 26.7134 30.0016 26.7343 29.8243C26.7448 29.7722 26.7343 29.7201 26.7343 29.6784C26.7343 28.6044 26.7343 27.5303 26.7343 26.4459C26.7343 26.1435 26.6611 26.081 26.3681 26.0705C25.5416 26.0705 24.7151 26.0705 23.8781 26.0705C23.784 26.0705 23.7003 26.0705 23.5957 26.0705C23.6166 25.9141 23.6271 25.7994 23.648 25.6743C23.7526 24.9965 23.8572 24.3083 23.9618 23.6305C23.9828 23.5263 23.9514 23.4324 23.8572 23.3699C23.8154 23.3386 23.7735 23.2864 23.7735 23.2343C23.7735 22.9528 23.7944 22.6712 23.8049 22.3897C23.8154 22.2437 23.8154 22.1082 23.8154 21.9622C23.8154 21.8579 23.7735 21.7745 23.6689 21.7536C23.4178 21.7119 23.1563 21.6702 22.9052 21.6494C22.7273 21.6389 22.6959 21.6702 22.675 21.8683C22.6436 22.2124 22.6122 22.5461 22.5913 22.8902C22.5808 23.1196 22.6331 23.1717 22.8738 23.2134C23.0202 23.2447 23.1876 23.2239 23.3341 23.3281C22.9261 23.3699 22.0682 23.3594 21.8799 23.3073C21.8589 23.1717 21.8276 23.0466 21.8066 22.9215C21.838 22.9006 21.8485 22.8902 21.8485 22.8902C21.9845 22.8485 22.1205 22.8068 22.2565 22.7651C22.4867 22.6921 22.5285 22.6399 22.4658 22.4001C22.3821 22.0664 22.2984 21.7432 22.2042 21.4095C22.1519 21.2114 22.0682 21.1697 21.8694 21.2218C21.6811 21.274 21.5032 21.3365 21.3254 21.3991C21.0743 21.4825 21.0534 21.5242 21.1161 21.7849C21.1371 21.8996 21.1685 22.0143 21.1894 22.129C21.2835 22.5252 21.3777 22.9215 21.4719 23.3177C21.1998 23.4324 21.1894 23.4429 21.2208 23.7348C21.2208 23.7765 21.2312 23.8182 21.2417 23.8599C21.3463 24.5377 21.4614 25.2051 21.566 25.8828C21.5765 25.9454 21.566 26.008 21.566 26.0705C21.0952 26.1227 15.6444 26.1018 15.4666 26.0497C15.4666 25.1321 15.4666 24.2249 15.4666 23.2864C15.5921 23.2864 15.6968 23.2864 15.8014 23.2864C15.9897 23.276 16.0211 23.2447 16.0315 23.0675C16.042 22.8798 16.0315 22.6817 16.0315 22.494C16.0315 22.3167 15.9688 22.2541 15.7909 22.2541C15.0376 22.2541 14.2844 22.2541 13.5311 22.2541C13.5102 22.2541 13.4997 22.2541 13.4788 22.2541C13.3742 22.2854 13.2905 22.3376 13.2905 22.4523C13.2905 22.6712 13.2905 22.8902 13.2905 23.0987C13.2905 23.2134 13.3532 23.2864 13.4788 23.2864C13.5834 23.2864 13.688 23.2864 13.8031 23.2864C13.8031 24.2353 13.8031 25.1634 13.8031 26.081C13.3637 26.1331 7.99663 26.1122 7.80832 26.0497C7.80832 25.9663 7.80832 25.8724 7.80832 25.789C7.80832 24.9757 7.80832 24.1728 7.80832 23.3594C7.80832 23.2969 7.80832 23.2447 7.80832 23.1822C7.80832 23.057 7.73508 23.0049 7.62 22.9945C7.5363 22.9945 7.46306 22.984 7.36891 22.984C7.35844 22.9319 7.35844 22.9006 7.34798 22.8693C7.34798 22.6504 7.34798 22.4314 7.34798 22.2229C7.33752 22.0352 7.29567 21.9935 7.10735 21.983C7.01319 21.983 6.90857 21.983 6.80395 21.983C6.80395 21.8788 6.80395 21.7953 6.80395 21.6911C6.89811 21.6911 6.98181 21.6911 7.0655 21.6911C7.17013 21.6911 7.26428 21.6911 7.36891 21.6911C7.47353 21.6806 7.5363 21.6181 7.54676 21.5138C7.55722 21.42 7.50491 21.3574 7.42122 21.3261C7.36891 21.3053 7.30613 21.3053 7.25382 21.3053C6.89811 21.3053 6.55286 21.3053 6.19715 21.3053C6.14484 21.3053 6.09253 21.3053 6.05068 21.3157C5.94606 21.347 5.90421 21.42 5.90421 21.5242C5.91467 21.6285 5.97744 21.6911 6.08206 21.6911C6.17622 21.6911 6.25992 21.6911 6.375 21.6911C6.375 21.8058 6.36454 21.8788 6.36454 21.9517C6.32269 21.9622 6.31223 21.9726 6.30177 21.9726C6.239 21.9726 6.16576 21.9726 6.10299 21.983C5.83097 21.983 5.78912 22.0247 5.77866 22.3063C5.77866 22.4314 5.77866 22.5565 5.77866 22.6817C5.77866 22.7859 5.77866 22.8902 5.7682 23.0049C5.67404 23.0049 5.61127 23.0049 5.55896 23.0049C5.39156 23.0153 5.33925 23.0675 5.32879 23.2343C5.32879 23.2969 5.32879 23.349 5.32879 23.4116C5.32879 24.2249 5.32879 25.0278 5.32879 25.8411C5.32879 25.9245 5.31833 26.0184 5.31833 26.1122C5.19278 26.1122 5.09862 26.1122 5.01493 26.1122C4.33489 26.1122 3.65485 26.1122 2.98527 26.1122C2.72372 26.1122 2.66095 26.1748 2.66095 26.4355C2.66095 27.5512 2.66095 28.6669 2.66095 29.7931C2.66095 30.0537 2.7028 30.0955 2.97481 30.0955C3.13174 30.0955 3.28868 30.0955 3.46653 30.0955C3.46653 30.2414 3.46653 30.3457 3.46653 30.45C3.46653 35.9764 3.46653 41.4925 3.46653 47.0189C3.46653 47.3839 3.44561 47.7488 3.59208 48.1347C3.47699 48.1347 3.38284 48.1347 3.29914 48.1347C2.38893 48.1347 1.47873 48.1347 0.558062 48.1347C0.474365 48.1347 0.390668 48.1347 0.306971 48.1451C0.202349 48.1659 0.118652 48.2181 0.118652 48.3432C0.118652 48.4475 0.191887 48.5309 0.327895 48.5517C0.422054 48.5622 0.526675 48.5517 0.631297 48.5517C35.5225 48.5517 70.4137 48.5517 105.305 48.5517C105.368 48.5517 105.42 48.5517 105.483 48.5517C105.545 48.5517 105.608 48.5413 105.682 48.5413C105.682 48.3953 105.682 48.2702 105.682 48.1242C104.719 48.0721 103.819 48.0721 102.899 48.0721ZM95.0834 10.0438C95.1148 10.2419 95.1148 10.44 95.1148 10.6381C95.1148 11.8686 95.1148 13.0886 95.1148 14.319C95.1148 14.4128 95.1148 14.4962 95.1148 14.6214C92.3318 14.6214 89.5803 14.6214 86.8078 14.6214C86.7974 14.5588 86.7869 14.4962 86.7869 14.4337C86.7869 13.0573 86.766 11.6809 86.7974 10.3045C86.8183 9.26174 87.4669 8.41713 88.4295 8.06261C88.5132 8.03132 88.6073 8.0209 88.7015 8.0209C90.1976 8.0209 91.6936 8.0209 93.1897 8.0209C93.3153 8.0209 93.4617 8.04175 93.5768 8.09389C94.4347 8.46927 94.9474 9.11576 95.0834 10.0438ZM92.2586 6.08142C92.8026 6.08142 93.2316 6.47766 93.3048 7.03031C93.3257 7.20757 93.3048 7.39526 93.3048 7.60381C91.725 7.60381 90.1662 7.60381 88.5968 7.60381C88.555 7.22842 88.5445 6.88432 88.7642 6.56108C88.9735 6.24826 89.2769 6.08142 89.6431 6.08142C90.5219 6.08142 91.3902 6.07099 92.2586 6.08142ZM23.0202 22.8172C23.0202 22.5565 23.0202 22.3167 23.0202 22.0664C23.1563 22.0873 23.2713 22.0977 23.376 22.1082C23.376 22.3793 23.376 22.6087 23.376 22.8589C23.24 22.8381 23.1353 22.8276 23.0202 22.8172ZM21.8799 23.7348C22.3193 23.7348 22.7692 23.7348 23.2086 23.7348C23.2609 23.7348 23.3132 23.7348 23.355 23.7348C23.4701 23.7452 23.512 23.7869 23.491 23.9121C23.3969 24.4647 23.3236 25.0174 23.24 25.5596C23.219 25.716 23.1876 25.8724 23.1667 26.0392C22.7587 26.0392 22.3821 26.0392 21.9845 26.0392C21.8589 25.2781 21.7439 24.5169 21.6183 23.7244C21.7125 23.7348 21.7962 23.7348 21.8799 23.7348ZM21.5137 21.7641C21.6183 21.7223 21.7229 21.6911 21.838 21.6494C21.9008 21.8996 21.9636 22.129 22.0368 22.3793C21.9113 22.421 21.8066 22.4523 21.6811 22.494C21.6183 22.2229 21.566 22.0039 21.5137 21.7641ZM13.6985 22.8276C13.6985 22.7651 13.6985 22.6921 13.6985 22.6087C14.3471 22.6087 14.9749 22.6087 15.6131 22.6087C15.6235 22.6817 15.6235 22.7442 15.634 22.8068C15.5503 22.8693 14.0228 22.8798 13.6985 22.8276ZM15.0272 23.276C15.0272 24.1832 15.0272 25.1008 15.0272 26.0392C14.7552 26.0392 14.5041 26.0392 14.2321 26.0392C14.2321 25.1112 14.2321 24.204 14.2321 23.2864C14.3995 23.2343 14.7552 23.2343 15.0272 23.276ZM6.19715 22.348C6.4587 22.348 6.68887 22.348 6.93996 22.348C6.93996 22.5461 6.93996 22.7338 6.93996 22.9423C6.69933 22.9423 6.44824 22.9423 6.19715 22.9423C6.19715 22.7442 6.19715 22.5565 6.19715 22.348ZM5.70543 23.3594C6.27038 23.3594 6.81441 23.3594 7.38983 23.3594C7.38983 24.2562 7.38983 25.1425 7.38983 26.0392C6.82488 26.0392 6.27038 26.0392 5.70543 26.0392C5.70543 25.1529 5.70543 24.2666 5.70543 23.3594ZM3.02712 29.6262C3.02712 28.5731 3.02712 27.5199 3.02712 26.4668C10.7796 26.4668 18.5111 26.4668 26.2426 26.4668C26.2949 26.6545 26.3054 29.2717 26.2635 29.6262C18.5215 29.6262 10.79 29.6262 3.02712 29.6262ZM18.7308 32.4624C18.4483 32.4624 18.4065 32.5146 18.396 32.8066C18.396 32.9317 18.396 33.0568 18.396 33.2132C17.2138 33.2132 16.0525 33.2132 14.8702 33.2132C14.8702 32.1496 14.8702 31.1069 14.8702 30.0537C18.396 30.0537 21.9113 30.0537 25.4475 30.0537C25.4475 31.1069 25.4475 32.1392 25.4475 33.2028C24.2652 33.2028 23.1039 33.2028 21.9008 33.2028C21.9008 33.0672 21.9008 32.9317 21.8903 32.7961C21.8799 32.525 21.8276 32.4729 21.566 32.4729C20.6244 32.4624 19.6828 32.4624 18.7308 32.4624ZM21.4509 32.8795C21.4509 32.9838 21.4509 33.0881 21.4509 33.1819C21.2835 33.2341 19.2434 33.2445 18.8145 33.2028C18.8145 33.0985 18.8145 33.0047 18.8145 32.8795C19.6933 32.8795 20.5616 32.8795 21.4509 32.8795ZM3.86409 30.0537C7.38983 30.0537 10.9156 30.0537 14.4518 30.0537C14.4518 31.1069 14.4518 32.1392 14.4518 33.2028C13.1858 33.2028 11.9304 33.2028 10.6436 33.2028C10.6436 33.0464 10.6436 32.9004 10.6436 32.744C10.6331 32.525 10.5808 32.4624 10.3611 32.4624C9.40902 32.4624 8.45697 32.4624 7.49445 32.4624C7.2329 32.4624 7.19105 32.5042 7.19105 32.7648C7.19105 32.9004 7.19105 33.0255 7.19105 33.1611C7.00273 33.2236 4.36628 33.2445 3.87456 33.1924C3.82224 33.0255 3.81178 30.3457 3.86409 30.0537ZM14.389 33.6199C14.4413 33.7971 14.4518 35.4029 14.3995 35.7679C14.2216 35.7679 14.0437 35.7679 13.8659 35.7679C13.6148 35.7679 13.5834 35.8096 13.5834 36.0599C13.5834 36.8836 13.5834 37.7074 13.5834 38.5416C13.5834 38.771 13.6253 38.8127 13.8659 38.8127C14.0437 38.8127 14.2111 38.8127 14.389 38.8127C14.4518 39.0004 14.4727 45.1525 14.4204 45.6425C14.2425 45.6842 4.16749 45.7051 3.85363 45.653C3.85363 41.6489 3.85363 37.6448 3.85363 33.6199C7.37937 33.6199 10.8842 33.6199 14.389 33.6199ZM7.59907 33.2028C7.59907 33.0777 7.59907 32.9838 7.59907 32.8795C8.47789 32.8795 9.34625 32.8795 10.2355 32.8795C10.2355 32.9838 10.2355 33.0881 10.2355 33.2028C9.35671 33.2028 8.48835 33.2028 7.59907 33.2028ZM14.4204 38.406C14.2844 38.406 14.1484 38.406 14.0019 38.406C14.0019 37.6657 14.0019 36.9358 14.0019 36.185C14.1484 36.185 14.2739 36.185 14.3995 36.185C14.4518 36.3518 14.4622 37.9889 14.4204 38.406ZM4.4709 47.5507C4.43951 47.6759 4.39766 47.8114 4.33489 47.9261C4.21981 48.1347 4.05241 48.1347 3.93733 47.9261C3.88502 47.8218 3.83271 47.6967 3.83271 47.5716C3.82224 47.1024 3.83271 46.6436 3.83271 46.1743C3.83271 46.1535 3.84317 46.1326 3.85363 46.0805C4.15703 46.0805 4.44997 46.0805 4.76384 46.0805C4.74291 46.2056 4.73245 46.3203 4.70106 46.435C4.63829 46.8104 4.56506 47.1858 4.4709 47.5507ZM4.7743 48.0617C4.92077 47.4047 5.05678 46.7478 5.20325 46.0909C11.491 46.0909 17.7683 46.0909 24.0769 46.0909C24.2129 46.7374 24.3594 47.3943 24.5059 48.0408C24.328 48.0929 5.10909 48.1138 4.7743 48.0617ZM25.4265 47.6237C25.4265 47.7384 25.3638 47.8635 25.301 47.9678C25.1964 48.1347 25.0499 48.1242 24.9453 47.9574C24.9034 47.8844 24.872 47.8114 24.8511 47.728C24.736 47.2275 24.6314 46.7165 24.5268 46.216C24.5163 46.1743 24.5268 46.1326 24.5268 46.0805C24.8302 46.0805 25.1336 46.0805 25.4265 46.0805C25.437 46.1013 25.4579 46.1118 25.4579 46.1222C25.4475 46.6227 25.4475 47.1232 25.4265 47.6237ZM25.4579 45.6321C25.2696 45.6842 15.2469 45.7051 14.8807 45.653C14.8807 43.3798 14.8807 41.1171 14.8807 38.8127C15.069 38.8127 15.2573 38.8127 15.4352 38.8127C15.6654 38.8127 15.7177 38.771 15.7177 38.5311C15.7177 37.7074 15.7177 36.8836 15.7177 36.0494C15.7177 35.7992 15.6758 35.7679 15.4247 35.7575C15.2678 35.7575 15.1109 35.7575 14.9435 35.7575C14.933 35.7575 14.9121 35.747 14.8702 35.7366C14.8702 35.0276 14.8702 34.3289 14.8702 33.6199C18.396 33.6199 21.9008 33.6199 25.4161 33.6199C25.4161 33.6199 25.4265 33.6303 25.437 33.6407C25.4475 33.6512 25.4475 33.6512 25.4475 33.6616C25.4475 37.5927 25.4579 41.5342 25.4579 45.4653C25.4684 45.5278 25.4579 45.58 25.4579 45.6321ZM14.8807 38.406C14.8807 37.6657 14.8807 36.9253 14.8807 36.1746C15.0376 36.1746 15.1632 36.1746 15.2783 36.1746C15.3306 36.3623 15.341 38.0723 15.2887 38.406C15.1632 38.406 15.0272 38.406 14.8807 38.406ZM35.0517 28.3854C35.0517 27.3427 35.8887 26.3312 36.9349 26.1018C37.1337 26.0601 37.3324 26.0392 37.5312 26.0392C48.2863 26.0392 59.0413 26.0392 69.7859 26.0288C71.0205 26.0288 72.0981 26.9256 72.2759 28.1873C72.2864 28.2811 72.2864 28.375 72.2864 28.4584C72.2864 30.3978 72.2864 32.3269 72.2864 34.2664C72.2864 34.3498 72.2864 34.4332 72.2864 34.5375C71.4808 34.5375 70.7066 34.5375 69.9324 34.5375C69.7859 34.2977 69.7336 34.0265 69.6709 33.7659C69.4825 32.89 69.4198 32.0036 69.4616 31.1069C69.4825 30.5125 69.5349 29.9286 69.6604 29.3447C69.7441 28.9276 69.8592 28.5209 70.0893 28.156C70.3091 27.8015 70.0684 27.4886 69.7232 27.4365C69.6395 27.4261 69.5453 27.4261 69.4512 27.4261C68.7711 27.4469 68.0806 27.4886 67.4006 27.4886C65.3395 27.5095 63.289 27.5303 61.2279 27.5408C60.7362 27.5408 60.2445 27.5303 59.7528 27.5199C59.1983 27.5095 58.6333 27.4886 58.0788 27.4678C57.6708 27.4469 57.2628 27.4156 56.8548 27.4052C56.7501 27.4052 56.6351 27.4156 56.5409 27.4574C56.2584 27.5512 56.1015 27.8223 56.2793 28.1351C56.6037 28.6982 56.7292 29.3134 56.8129 29.939C56.8966 30.5855 56.9385 31.232 56.9071 31.8785C56.8757 32.6501 56.8129 33.4218 56.5723 34.1621C56.5409 34.2768 56.4991 34.3811 56.4572 34.5062C54.5112 34.5062 52.5758 34.5062 50.6193 34.5062C50.4415 34.1517 50.3682 33.7554 50.295 33.3696C50.159 32.5876 50.1172 31.7951 50.1485 31.0026C50.1799 30.2727 50.2427 29.5428 50.4729 28.8442C50.5461 28.6148 50.6298 28.3854 50.7553 28.1768C50.9437 27.8744 50.839 27.4678 50.3682 27.4156C50.2322 27.4052 50.0858 27.4052 49.9498 27.4156C49.1756 27.4365 48.4014 27.4678 47.6167 27.4782C45.6812 27.4991 43.7562 27.5199 41.8207 27.5303C41.3604 27.5303 40.9 27.5199 40.4397 27.5095C39.8747 27.4991 39.2993 27.4782 38.7344 27.4574C38.3263 27.4365 37.9183 27.4052 37.5103 27.3948C37.3743 27.3948 37.2278 27.4261 37.1023 27.4886C36.8721 27.5929 36.7884 27.864 36.9244 28.083C37.3638 28.8129 37.4684 29.6367 37.5312 30.45C37.5731 31.0026 37.5835 31.5657 37.5626 32.1183C37.5417 32.8065 37.4475 33.4948 37.2487 34.1621C37.2174 34.2768 37.165 34.3811 37.1232 34.4958C36.4432 34.4958 35.7631 34.4958 35.0726 34.4958C35.0622 34.4228 35.0517 34.3498 35.0517 34.2768C35.0517 32.3373 35.0517 30.3666 35.0517 28.3854ZM57.2942 31.1069C57.2523 30.1789 57.1686 29.2613 56.8443 28.3854C56.7815 28.2185 56.6978 28.0726 56.6141 27.8744C56.7188 27.864 56.8129 27.8327 56.9071 27.8327C57.6708 27.8536 58.4241 27.8849 59.1878 27.8953C60.37 27.9162 61.5418 27.937 62.724 27.9474C63.6761 27.9579 64.6281 27.9579 65.5802 27.9474C66.5636 27.937 67.5471 27.9057 68.541 27.8849C68.8757 27.8744 69.2105 27.8536 69.5453 27.8327C69.6081 27.8327 69.6709 27.8432 69.7546 27.8536C69.7441 27.9057 69.7546 27.9474 69.7336 27.9787C69.3988 28.5731 69.2733 29.23 69.1896 29.8869C69.0745 30.7002 69.0536 31.5136 69.1059 32.3269C69.1478 32.9942 69.2315 33.672 69.4302 34.3185C69.4512 34.3811 69.4616 34.4436 69.4826 34.5271C65.2872 34.5271 61.1233 34.5271 56.9071 34.5271C56.9594 34.3394 57.0117 34.1725 57.0535 34.0057C57.1895 33.4635 57.2628 32.9108 57.2837 32.3582C57.2837 31.9411 57.3151 31.524 57.2942 31.1069ZM37.9706 31.2425C37.9497 30.45 37.8869 29.6679 37.6672 28.8963C37.5731 28.5626 37.4371 28.2394 37.3115 27.8953C37.3534 27.8119 37.4371 27.8432 37.5208 27.8432C38.0334 27.864 38.5565 27.8849 39.0691 27.8953C39.111 27.8953 39.1528 27.9057 39.1947 27.9057C40.5652 27.9266 41.9358 27.9474 43.3063 27.9579C44.2584 27.9683 45.2104 27.9579 46.1625 27.9579C46.6019 27.9579 47.0518 27.9474 47.4912 27.937C48.0457 27.9266 48.6106 27.9057 49.1651 27.8849C49.4685 27.8744 49.7824 27.8536 50.0858 27.8432C50.1904 27.8432 50.295 27.864 50.4206 27.8744C50.3892 27.9579 50.3787 27.9996 50.3578 28.0413C50.023 28.6565 49.9079 29.3238 49.8138 30.0016C49.7196 30.6794 49.6987 31.3676 49.7301 32.0454C49.7614 32.8065 49.8451 33.5677 50.0648 34.3081C50.0858 34.3811 50.0962 34.4541 50.1276 34.5375C45.9323 34.5375 41.7684 34.5375 37.5731 34.5375C37.6463 34.2351 37.7195 33.9535 37.7823 33.672C37.9392 32.8691 37.9916 32.0558 37.9706 31.2425ZM32.5931 34.9546C46.5496 34.9546 60.4956 34.9546 74.4834 34.9546C74.4834 36.1954 74.4834 37.4363 74.4834 38.6563C74.3056 38.7084 32.9279 38.7188 32.5931 38.6771C32.5512 38.4998 32.5408 35.2257 32.5931 34.9546ZM31.0238 44.8084C30.961 44.8084 30.8878 44.7979 30.8355 44.7979C30.7831 44.6102 30.7622 39.48 30.8145 39.1151C46.2252 39.1151 61.6464 39.1151 77.0885 39.1151C77.0885 41.0128 77.0885 42.8897 77.0885 44.7562C77.078 44.7666 77.0676 44.7771 77.0676 44.7771C77.0571 44.7875 77.0571 44.7875 77.0467 44.7875C61.6987 44.7979 46.3612 44.8084 31.0238 44.8084ZM35.0622 48.0617C34.9052 47.1232 34.7483 46.1848 34.5914 45.2254C35.1563 45.2254 35.6899 45.2254 36.2548 45.2254C36.0665 46.1743 35.8468 47.1128 35.648 48.0617C35.4493 48.0617 35.2714 48.0617 35.0622 48.0617ZM36.0561 48.0721C36.2653 47.1128 36.4641 46.1848 36.6733 45.2359C48.1921 45.2359 59.6795 45.2359 71.2088 45.2359C71.418 46.1743 71.6273 47.1128 71.847 48.0721C59.9097 48.0721 48.0038 48.0721 36.0561 48.0721ZM72.255 48.0721C72.0458 47.1336 71.8365 46.1952 71.6273 45.2359C72.1922 45.2359 72.7258 45.2359 73.2908 45.2359C73.1338 46.1848 72.9874 47.1232 72.8304 48.0721C72.6316 48.0721 72.4643 48.0721 72.255 48.0721ZM81.0014 29.7826C81.0014 29.5011 81.0014 29.2404 81.0014 28.9797C81.0014 28.9172 81.0118 28.8546 81.0223 28.7712C84.7991 28.7712 88.5759 28.7712 92.3632 28.7712C92.3632 29.1049 92.3632 29.4385 92.3632 29.7826C88.5759 29.7826 84.8096 29.7826 81.0014 29.7826ZM81.5558 34.8816C81.5035 34.6939 81.4931 30.4813 81.5454 30.2102C84.9665 30.2102 88.3981 30.2102 91.8297 30.2102C91.8297 31.7743 91.8297 33.3175 91.8297 34.8607C91.6623 34.9129 81.9116 34.9233 81.5558 34.8816ZM91.8401 35.33C91.8401 36.894 91.8401 38.4373 91.8401 39.9909C88.3981 39.9909 84.977 39.9909 81.5349 39.9909C81.5349 38.4269 81.5349 36.8836 81.5349 35.33C84.977 35.33 88.3981 35.33 91.8401 35.33ZM81.5558 40.4185C84.977 40.4185 88.4085 40.4185 91.8401 40.4185C91.8401 41.9826 91.8401 43.5258 91.8401 45.069C91.6518 45.1212 81.8906 45.1316 81.5558 45.0899C81.514 44.9022 81.5035 40.6791 81.5558 40.4185ZM81.3571 47.6759C81.5454 46.9668 81.7337 46.2473 81.922 45.5174C82.0476 45.5174 82.1626 45.5174 82.3091 45.5174C82.0057 46.2577 81.7023 46.9668 81.4094 47.6863C81.3989 47.6863 81.378 47.6759 81.3571 47.6759ZM81.7023 48.0617C81.7442 47.9574 81.7755 47.874 81.8069 47.7906C82.0894 47.1024 82.3823 46.4037 82.6648 45.7155C82.7276 45.5591 82.8008 45.507 82.9787 45.507C85.4582 45.5174 87.9482 45.507 90.4277 45.507C90.4905 45.507 90.5428 45.5174 90.6265 45.5174C90.9822 46.3724 91.3275 47.2066 91.6832 48.0617C88.3458 48.0617 85.0397 48.0617 81.7023 48.0617ZM91.9657 47.6863C91.6727 46.9668 91.3693 46.2577 91.0659 45.5174C91.2019 45.5174 91.317 45.5174 91.453 45.5174C91.6413 46.2265 91.8296 46.9459 92.018 47.6654C92.0075 47.6759 91.9866 47.6759 91.9657 47.6863ZM102.501 47.8114C102.501 47.8844 102.501 47.9574 102.501 48.0304C102.302 48.0929 97.2072 48.1138 96.6736 48.0617C96.6631 47.6446 96.6736 47.2275 96.6736 46.7895C98.6196 46.7895 100.545 46.7895 102.501 46.7895C102.501 47.1545 102.501 47.4882 102.501 47.8114Z" fill="#A1ABB5"/>
<path d="M4.5544 20.2831C11.292 20.2831 18.0296 20.2831 24.7672 20.2831C24.8195 20.2831 24.8718 20.2831 24.9137 20.2831C25.1229 20.2727 25.1752 20.231 25.1752 20.0328C25.1752 19.6366 25.1752 19.2508 25.1752 18.8546C25.1752 18.6564 25.1125 18.6043 24.9137 18.6043C24.5998 18.6043 24.2964 18.6043 23.9826 18.6043C23.6269 18.6043 23.2607 18.6043 22.8631 18.6043C22.8631 18.4687 22.8631 18.354 22.8631 18.2498C22.8631 12.5878 22.8631 6.92574 22.8631 1.26373C22.8631 0.867491 22.8631 0.867491 22.4551 0.867491C17.224 0.867491 11.993 0.867491 6.76191 0.867491C6.39573 0.867491 6.33296 0.7945 6.34342 1.29501C6.34342 6.9466 6.34342 12.6086 6.34342 18.2602C6.34342 18.3645 6.34342 18.4687 6.34342 18.5939C6.24926 18.5939 6.18649 18.6043 6.11326 18.6043C5.5483 18.6043 4.97288 18.6043 4.40793 18.6043C4.15684 18.6043 4.11499 18.646 4.11499 18.8963C4.11499 19.2091 4.11499 19.5323 4.11499 19.8451C4.12545 20.2831 4.12545 20.2831 4.5544 20.2831ZM6.78283 1.27416C12.0034 1.27416 17.2136 1.27416 22.4656 1.27416C22.4656 7.05087 22.4656 12.8067 22.4656 18.5834C17.2345 18.5834 12.0139 18.5834 6.79329 18.5834C6.73052 18.4062 6.72006 1.57655 6.78283 1.27416ZM4.53348 19.0318C4.71133 18.9797 24.422 18.9693 24.7672 19.0214C24.7672 19.2925 24.7672 19.574 24.7672 19.866C18.0296 19.866 11.3025 19.866 4.53348 19.866C4.53348 19.5845 4.53348 19.3029 4.53348 19.0318Z" fill="#A1ABB5"/>
<path d="M43.6722 17.3741C43.735 17.3741 43.8082 17.3741 43.871 17.3741C47.1247 17.3741 50.3784 17.3741 53.6426 17.3741C56.9277 17.3741 60.2023 17.3741 63.4874 17.3741C63.9268 17.3741 63.9269 17.3741 63.9269 16.9466C63.9269 12.15 63.9269 7.35346 63.9269 2.55691C63.9269 2.13982 63.9269 2.12939 63.5084 2.12939C56.9591 2.12939 50.3993 2.12939 43.8501 2.12939C43.4106 2.12939 43.4106 2.12939 43.4106 2.55691C43.4106 7.35346 43.4106 12.15 43.4106 16.9466C43.4106 16.9987 43.4106 17.0508 43.4106 17.0925C43.4211 17.3219 43.463 17.3637 43.6722 17.3741ZM43.8187 2.56734C43.8187 2.56734 43.8291 2.55691 43.8396 2.55691C43.8501 2.54649 43.8501 2.54649 43.8605 2.54649C43.9233 2.53606 43.9756 2.53606 44.0384 2.53606C50.5144 2.53606 56.9905 2.53606 63.4665 2.54649C63.477 2.54649 63.4979 2.55691 63.5188 2.57777C63.5188 7.36389 63.5188 12.15 63.5188 16.9466C63.5188 16.9466 63.5084 16.957 63.4979 16.957C63.4874 16.9674 63.4874 16.9674 63.477 16.9674C63.4142 16.9778 63.3619 16.9778 63.2991 16.9778C56.8231 16.9778 50.347 16.9778 43.871 16.9674C43.8605 16.9674 43.8396 16.957 43.8187 16.9361C43.8187 12.1604 43.8187 7.36389 43.8187 2.56734Z" fill="#A1ABB5"/>
<path d="M32.9697 14.3295C32.9697 14.9343 32.9697 15.5286 32.9697 16.1334C32.9697 16.3837 33.0116 16.4254 33.2627 16.4254C33.587 16.4254 33.9113 16.4254 34.2461 16.4254C34.3298 16.4254 34.403 16.4358 34.5077 16.4358C34.5077 16.5297 34.5181 16.6131 34.5181 16.6965C34.5181 17.1344 34.5181 17.5828 34.5181 18.0208C34.5181 18.271 34.5704 18.3336 34.8215 18.3336C35.24 18.344 35.6585 18.344 36.077 18.3336C36.3176 18.3336 36.3595 18.271 36.3699 18.0312C36.3699 17.5828 36.3699 17.1344 36.3699 16.6756C36.3699 16.5922 36.3804 16.5192 36.3804 16.415C36.485 16.415 36.5582 16.415 36.6419 16.415C36.9558 16.415 37.2801 16.415 37.594 16.415C37.8974 16.415 37.9183 16.3941 37.9183 16.0813C37.9183 16.0709 37.9183 16.0604 37.9183 16.0604C37.9183 13.7351 37.9183 11.4099 37.9183 9.08458C37.9183 9.02201 37.9183 8.96988 37.9183 8.90731C37.9078 8.80304 37.8451 8.74048 37.7405 8.74048C37.6881 8.74048 37.6358 8.74048 37.594 8.74048C36.1607 8.74048 34.7378 8.74048 33.3045 8.74048C33.2731 8.74048 33.2417 8.74048 33.1999 8.74048C33.043 8.75091 32.9907 8.80304 32.9802 8.94902C32.9697 9.01159 32.9802 9.08458 32.9802 9.14714C32.9697 10.8781 32.9697 12.5986 32.9697 14.3295ZM35.941 17.9165C35.5957 17.9165 35.2714 17.9165 34.9261 17.9165C34.9261 17.4264 34.9261 16.9467 34.9261 16.4254C35.2609 16.415 35.5957 16.4254 35.9305 16.4254C35.9724 16.6131 35.9828 17.5932 35.941 17.9165ZM33.3777 9.14714C34.7587 9.14714 36.1188 9.14714 37.4789 9.14714C37.5312 9.32441 37.5521 11.2117 37.4998 11.5767C36.1397 11.5767 34.7692 11.5767 33.3882 11.5767C33.3777 10.7738 33.3777 9.98132 33.3777 9.14714ZM33.3777 12.0355C33.5451 11.9729 37.2069 11.9625 37.5103 12.0251C37.5103 12.609 37.5103 13.2034 37.5103 13.7873C37.3429 13.8498 33.6811 13.8603 33.3777 13.7977C33.3777 13.2138 33.3777 12.6194 33.3777 12.0355ZM33.3673 14.2461C34.7692 14.2461 36.1293 14.2461 37.5103 14.2461C37.5312 14.83 37.5207 15.4139 37.5207 16.0083C36.1293 16.0083 34.7692 16.0083 33.3777 16.0083C33.3464 15.4348 33.3673 14.8509 33.3673 14.2461Z" fill="#A1ABB5"/>
<path d="M69.4302 16.008C69.4302 16.0497 69.4302 16.0914 69.4302 16.1331C69.4406 16.3521 69.4929 16.4146 69.7126 16.4251C69.9323 16.4251 70.152 16.4251 70.3613 16.4251C70.5601 16.4251 70.7588 16.4251 70.9681 16.4251C70.9785 16.5293 70.9785 16.6128 70.9785 16.6962C70.9785 17.1446 70.9785 17.5929 70.9785 18.0517C70.9785 18.2811 71.0309 18.3437 71.2506 18.3437C71.69 18.3541 72.1189 18.3541 72.5583 18.3437C72.7676 18.3437 72.8199 18.2811 72.8303 18.0622C72.8408 17.7389 72.8303 17.4157 72.8303 17.082C72.8303 16.8734 72.8303 16.6649 72.8303 16.4251C72.9454 16.4251 73.0187 16.4251 73.0919 16.4251C73.4372 16.4251 73.7824 16.4251 74.1172 16.4251C74.295 16.4251 74.3578 16.3625 74.3683 16.1852C74.3683 16.154 74.3683 16.1227 74.3683 16.081C74.3683 13.7453 74.3683 11.4095 74.3683 9.07384C74.3683 8.77145 74.3264 8.72974 74.0126 8.72974C72.6002 8.72974 71.1878 8.72974 69.7649 8.72974C69.7231 8.72974 69.6812 8.72974 69.6394 8.72974C69.4929 8.74016 69.4302 8.80273 69.4197 8.93828C69.4092 9.00085 69.4197 9.07384 69.4197 9.1364C69.4302 11.4408 69.4302 13.7244 69.4302 16.008ZM72.3909 17.9162C72.0666 17.9162 71.7318 17.9162 71.3866 17.9162C71.3866 17.4157 71.3866 16.9464 71.3866 16.4355C71.7214 16.4146 72.0561 16.4251 72.3805 16.4251C72.4328 16.6128 72.4432 17.6242 72.3909 17.9162ZM73.9603 16.0184C72.5688 16.0184 71.2087 16.0184 69.8382 16.0184C69.8382 15.4241 69.8382 14.8506 69.8382 14.2562C71.2087 14.2562 72.5793 14.2562 73.9603 14.2562C73.9603 14.8401 73.9603 15.4241 73.9603 16.0184ZM69.8382 9.14683C71.2087 9.14683 72.5688 9.14683 73.9289 9.14683C73.9812 9.31366 74.0021 11.1906 73.9498 11.5764C72.5897 11.5764 71.2192 11.5764 69.8382 11.5764C69.8382 10.7735 69.8382 9.98101 69.8382 9.14683ZM69.8172 12.0352C70.016 11.983 73.5627 11.9622 73.9603 12.0143C73.9916 12.6087 73.9707 13.203 73.9707 13.8183C72.5688 13.8183 71.2087 13.8183 69.8277 13.8183C69.8068 13.2135 69.8277 12.6191 69.8172 12.0352Z" fill="#A1ABB5"/>
<path d="M86.7029 41.9721C87.1004 41.9721 87.4038 41.6698 87.3933 41.2735C87.3933 40.8669 87.0795 40.554 86.6819 40.5645C86.2844 40.5645 85.9705 40.8981 85.981 41.2944C85.9914 41.6698 86.3053 41.9721 86.7029 41.9721ZM86.6924 40.9607C86.8493 40.9607 86.9958 41.1067 86.9958 41.2631C87.0063 41.4091 86.8493 41.5551 86.6924 41.5551C86.525 41.5551 86.389 41.4195 86.389 41.2527C86.389 41.0963 86.525 40.9607 86.6924 40.9607Z" fill="#A1ABB5"/>
<path d="M86.7031 30.3977C86.316 30.3873 85.9812 30.7209 85.9812 31.1068C85.9812 31.503 86.2846 31.795 86.6822 31.8054C87.0902 31.8054 87.3936 31.5238 87.404 31.1276C87.404 30.7314 87.0902 30.4081 86.7031 30.3977ZM86.7031 31.4091C86.5462 31.4091 86.3997 31.2632 86.3997 31.1068C86.3892 30.9399 86.5252 30.8148 86.6926 30.8044C86.8496 30.7939 86.996 30.9399 87.0065 31.0963C87.0065 31.2527 86.86 31.4091 86.7031 31.4091Z" fill="#A1ABB5"/>
<path d="M86.6926 36.8939C87.0797 36.8939 87.3935 36.581 87.3935 36.1952C87.3935 35.799 87.0797 35.4549 86.6821 35.4758C86.2636 35.4862 85.9707 35.8407 85.9707 36.2057C85.9916 36.581 86.316 36.8939 86.6926 36.8939ZM86.703 35.8928C86.8704 35.8928 87.0064 36.0388 87.0064 36.1952C87.0064 36.3308 86.8286 36.4976 86.6926 36.4872C86.5461 36.4872 86.3996 36.3308 86.3996 36.1744C86.3996 36.0075 86.5252 35.8928 86.703 35.8928Z" fill="#A1ABB5"/>
<path d="M8.56128 6.73803C8.56128 10.2625 8.56128 13.7973 8.56128 17.3217C8.56128 17.6241 8.61359 17.6762 8.90653 17.6762C8.93792 17.6762 8.9693 17.6762 9.01115 17.6762C12.7775 17.6762 16.5439 17.6762 20.3102 17.6762C20.7183 17.6762 20.7497 17.645 20.7497 17.2383C20.7497 14.8296 20.7497 12.4209 20.7497 10.0122C20.7497 7.60349 20.7497 5.19479 20.7497 2.78609C20.7497 2.70267 20.7497 2.61925 20.7392 2.53584C20.7183 2.43156 20.6555 2.35857 20.5404 2.34814C20.4776 2.34814 20.4253 2.34814 20.3626 2.34814C16.5648 2.34814 12.7671 2.34814 8.9693 2.34814C8.90653 2.34814 8.83329 2.34814 8.77052 2.34814C8.65544 2.35857 8.59267 2.43156 8.5822 2.54626C8.57174 2.60883 8.5822 2.68182 8.5822 2.74438C8.56128 4.06865 8.56128 5.40334 8.56128 6.73803ZM8.9693 2.74438C12.7671 2.74438 16.5439 2.74438 20.3312 2.74438C20.3312 7.59307 20.3312 12.4209 20.3312 17.2696C16.5439 17.2696 12.7671 17.2696 8.9693 17.2696C8.9693 12.4209 8.9693 7.59307 8.9693 2.74438Z" fill="#A1ABB5"/>
<path d="M45.4717 15.0907C45.4821 15.2471 45.5345 15.3096 45.7018 15.3305C45.7751 15.3409 45.8483 15.3305 45.932 15.3305C48.5057 15.3305 51.0898 15.3305 53.6635 15.3305C56.2477 15.3305 58.8318 15.3305 61.416 15.3305C61.4787 15.3305 61.552 15.3305 61.6147 15.3305C61.8031 15.3201 61.8554 15.2575 61.8658 15.0698C61.8658 15.0177 61.8658 14.9655 61.8658 14.9238C61.8658 11.4933 61.8658 8.07311 61.8658 4.64254C61.8658 4.21502 61.8554 4.20459 61.4369 4.20459C56.2581 4.20459 51.0794 4.20459 45.9006 4.20459C45.8588 4.20459 45.8169 4.20459 45.7751 4.20459C45.5345 4.21502 45.4821 4.25673 45.4717 4.49655C45.4717 4.52784 45.4717 4.55912 45.4717 4.60083C45.4717 8.05226 45.4717 11.5037 45.4717 14.9551C45.4717 14.9864 45.4717 15.0385 45.4717 15.0907ZM45.8797 4.62168C45.8797 4.62168 45.8902 4.61125 45.9006 4.61125C45.9111 4.60083 45.9111 4.60083 45.9216 4.60083C45.9843 4.5904 46.0366 4.5904 46.0994 4.5904C51.2049 4.5904 56.3104 4.5904 61.4055 4.60083C61.416 4.60083 61.4369 4.61125 61.4683 4.63211C61.4683 8.05226 61.4683 11.4724 61.4683 14.903C61.4683 14.903 61.4578 14.9134 61.4473 14.9134C61.4369 14.9238 61.4369 14.9238 61.4264 14.9238C61.3636 14.9343 61.3113 14.9343 61.2486 14.9343C56.143 14.9343 51.0375 14.9343 45.9425 14.9238C45.932 14.9238 45.9111 14.9134 45.8797 14.8926C45.8797 11.4724 45.8797 8.05226 45.8797 4.62168Z" fill="#A1ABB5"/>
<path d="M18.1237 5.93515C18.0609 5.94558 17.9877 5.99771 17.9353 6.04985C17.3495 6.55036 16.774 7.05087 16.1986 7.55138C14.5875 8.93821 12.9763 10.325 11.3651 11.7223C11.2187 11.8474 11.0722 11.9725 10.9362 12.0977C10.8629 12.1602 10.8316 12.2541 10.8629 12.3479C10.8839 12.4105 10.9571 12.4418 11.0199 12.5043C11.114 12.4522 11.1873 12.4209 11.25 12.3688C11.7313 11.9517 12.2021 11.5346 12.6834 11.1175C14.5247 9.52214 16.366 7.93719 18.2178 6.34181C18.2597 6.30011 18.3015 6.2584 18.3329 6.21669C18.3852 6.1437 18.3852 6.04985 18.3224 5.98729C18.2806 5.95601 18.1864 5.92472 18.1237 5.93515Z" fill="#A1ABB5"/>
<path d="M11.6894 10.096C11.7731 10.0334 11.8464 9.99171 11.9091 9.93957C13.1018 8.90727 14.2945 7.87497 15.4872 6.8531C15.7069 6.66541 15.9161 6.48814 16.1254 6.29003C16.2509 6.17533 16.2614 6.06063 16.1672 5.96678C16.094 5.89379 15.9684 5.90422 15.8534 5.98763C15.801 6.02934 15.7487 6.07105 15.6964 6.11276C14.3782 7.24934 13.06 8.39634 11.7417 9.53291C11.658 9.6059 11.5743 9.67889 11.5116 9.76231C11.4802 9.80402 11.4802 9.89787 11.5116 9.93957C11.5534 10.0126 11.6267 10.0438 11.6894 10.096Z" fill="#A1ABB5"/>
<path d="M50.117 13.0677C50.2112 13.0052 50.3053 12.953 50.389 12.8905C50.6192 12.6923 50.8493 12.4838 51.0795 12.2753C52.9941 10.6069 54.9191 8.94895 56.8441 7.28059C57.022 7.12418 57.1894 6.96777 57.3672 6.81136C57.4509 6.72794 57.4509 6.6341 57.3882 6.54025C57.3359 6.45683 57.2208 6.44641 57.1162 6.50897C57.0534 6.55068 57.0011 6.60282 56.9383 6.64452C56.0595 7.40572 55.1807 8.17734 54.3018 8.94895C52.9104 10.1585 51.5085 11.3681 50.1065 12.5881C50.0542 12.6298 49.9915 12.6715 49.9705 12.7341C49.9496 12.807 49.9496 12.8905 49.9705 12.9635C49.9705 13.0052 50.0438 13.026 50.117 13.0677Z" fill="#A1ABB5"/>
<path d="M50.7762 10.6378C50.8181 10.617 50.8913 10.5753 50.9645 10.5127C52.084 9.55339 53.2034 8.58365 54.3124 7.62434C54.6053 7.36366 54.9087 7.11341 55.1912 6.85272C55.3063 6.74845 55.3168 6.63375 55.254 6.55033C55.1808 6.45649 55.0552 6.45649 54.9192 6.56076C54.8878 6.58162 54.8564 6.6129 54.825 6.64418C54.4484 6.96742 54.0718 7.3011 53.6951 7.62434C52.7012 8.48981 51.7073 9.34485 50.7134 10.2103C50.6611 10.2624 50.5983 10.3146 50.567 10.3771C50.4937 10.5023 50.5774 10.6274 50.7762 10.6378Z" fill="#A1ABB5"/>
</svg>
