<svg width="16" height="20" viewBox="0 0 16 20" fill="none" xmlns="http://www.w3.org/2000/svg">
<path d="M10.6589 11.1593V17.0671H1.46893V2.62571H10.6589V4.74086H11.3153V1.20345C11.3153 0.547023 10.7683 0 10.1119 0H2.01595C1.35952 0 0.8125 0.547023 0.8125 1.20345V18.3435C0.8125 18.9999 1.35952 19.5469 2.01595 19.5469H10.1484C10.8048 19.5469 11.3518 18.9999 11.3518 18.3435V11.1593H10.6589ZM4.56872 0.984641C4.56872 0.8023 4.7146 0.656427 4.89694 0.656427H7.2309C7.41324 0.656427 7.55911 0.8023 7.55911 0.984641C7.55911 1.16698 7.41324 1.31285 7.2309 1.31285H4.89694C4.7146 1.31285 4.56872 1.16698 4.56872 0.984641ZM6.13686 18.9635C5.73571 18.9999 5.40749 18.6352 5.40749 18.2341C5.40749 17.9059 5.69924 17.6141 6.06392 17.5777C6.46507 17.5412 6.79328 17.9059 6.79328 18.307C6.75681 18.6717 6.46507 18.9635 6.13686 18.9635Z" fill="#212C30"/>
<path d="M7.81313 13.019V10.6486C7.19317 10.6121 6.68262 10.0651 6.68262 9.40868V6.45476C6.68262 5.76187 7.22964 5.21484 7.92254 5.21484H14.1221C14.815 5.21484 15.362 5.76187 15.362 6.45476V9.40868C15.362 10.1016 14.815 10.6486 14.1221 10.6486H10.4024L7.81313 13.019ZM7.88607 5.79833C7.52139 5.79833 7.22964 6.09008 7.22964 6.45476V9.40868C7.22964 9.77337 7.52139 10.0651 7.88607 10.0651H8.36015V11.7062L10.1471 10.0651H14.0857C14.4503 10.0651 14.7421 9.77337 14.7421 9.40868V6.45476C14.7421 6.09008 14.4503 5.79833 14.0857 5.79833H7.88607Z" fill="#212C30"/>
<path d="M8.87158 9.40819C9.19383 9.40819 9.45507 9.14696 9.45507 8.8247C9.45507 8.50245 9.19383 8.24121 8.87158 8.24121C8.54932 8.24121 8.28809 8.50245 8.28809 8.8247C8.28809 9.14696 8.54932 9.40819 8.87158 9.40819Z" fill="#212C30"/>
<path d="M11.0962 9.40819C11.4184 9.40819 11.6797 9.14696 11.6797 8.8247C11.6797 8.50245 11.4184 8.24121 11.0962 8.24121C10.7739 8.24121 10.5127 8.50245 10.5127 8.8247C10.5127 9.14696 10.7739 9.40819 11.0962 9.40819Z" fill="#212C30"/>
<path d="M13.3208 9.40819C13.643 9.40819 13.9043 9.14696 13.9043 8.8247C13.9043 8.50245 13.643 8.24121 13.3208 8.24121C12.9985 8.24121 12.7373 8.50245 12.7373 8.8247C12.7373 9.14696 12.9985 9.40819 13.3208 9.40819Z" fill="#212C30"/>
</svg>
