<svg width="34" height="34" viewBox="0 0 34 34" fill="none" xmlns="http://www.w3.org/2000/svg">
<path fill-rule="evenodd" clip-rule="evenodd" d="M16.9364 0C26.3137 0 33.8729 7.5592 33.8729 16.9364C33.8729 26.3137 26.3137 33.8729 16.9364 33.8729C11.8651 33.8729 7.27214 31.5764 4.1145 28.036L5.93254 26.9835C8.61175 29.9497 12.5349 31.7678 16.8407 31.7678C25.0698 31.7678 31.6721 25.1654 31.6721 16.9364C31.6721 8.70743 25.0698 2.10509 16.8407 2.10509C8.70743 2.10509 2.10509 8.70743 2.10509 16.9364C2.10509 19.1372 2.58352 21.1466 3.34901 22.9647C3.54038 23.4431 3.82744 23.5388 4.30587 23.2517L6.12391 22.1992L7.27214 24.3043L4.49725 25.9309C3.4447 26.505 2.58352 26.218 2.00941 25.1654C1.62666 24.3999 1.24392 23.6345 0.956861 22.869C0.382744 21.0509 0 19.0415 0 16.9364C0 7.5592 7.5592 0 16.9364 0ZM23.0603 15.8839L26.1223 14.0659C26.218 13.9702 26.4094 14.0659 26.505 14.1615L27.1748 15.4055C27.2705 15.5011 27.1748 15.6925 27.0792 15.7882L24.0172 17.6062L23.0603 15.8839ZM20.3811 11.0996L23.4431 9.28155C23.5388 9.18586 23.7301 9.28155 23.8258 9.37724L24.4956 10.6212C24.5913 10.7168 24.4956 10.9082 24.3999 11.0039L21.338 12.8219L20.3811 11.0996ZM13.6831 11.9608L18.0847 9.47292C18.276 9.37723 18.6588 9.37724 18.7545 9.66429L21.7207 14.7357L24.687 19.807C24.7827 19.9984 24.7827 20.3811 24.4956 20.4768L19.9984 22.9647C19.807 23.0603 19.52 22.9647 19.3286 22.7733C19.0415 22.2949 18.5631 22.0078 18.0847 22.1992L12.0564 23.4431L10.6212 21.0509L9.28155 18.6588L13.3961 13.9702C13.7788 13.5874 13.7788 13.109 13.4917 12.5349C13.3961 12.3435 13.3961 12.0564 13.6831 11.9608ZM8.99449 19.52L6.79371 20.7639C6.69802 20.8596 6.60234 20.9552 6.69803 21.1466L8.61175 24.4956C8.70743 24.5913 8.80312 24.687 8.99449 24.5913L11.1953 23.3474L8.99449 19.52Z" fill="#F1BB51"/>
</svg>
