<svg width="530" height="362" viewBox="0 0 530 362" fill="none" xmlns="http://www.w3.org/2000/svg">
<path d="M82.9463 0.173828V115.408" stroke="#D5D5D5" stroke-dasharray="5 5"/>
<path d="M56.4072 0.173828V100.044" stroke="#D5D5D5" stroke-dasharray="5 5"/>
<path d="M29.8682 0.173828V84.679" stroke="#D5D5D5" stroke-dasharray="5 5"/>
<path d="M0.536133 0.173828V69.3145" stroke="#D5D5D5" stroke-dasharray="5 5"/>
<path d="M138.817 0.173828L138.817 146.836" stroke="#D5D5D5" stroke-dasharray="5 5"/>
<path d="M111.58 0.173828L111.58 131.471" stroke="#D5D5D5" stroke-dasharray="5 5"/>
<path d="M166.752 0.173828L166.752 162.2" stroke="#D5D5D5" stroke-dasharray="5 5"/>
<path d="M193.991 0.173828L193.991 177.565" stroke="#D5D5D5" stroke-dasharray="5 5"/>
<path d="M222.624 0.173828L222.624 192.93" stroke="#D5D5D5" stroke-dasharray="5 5"/>
<path d="M251.258 0.173828L251.258 208.294" stroke="#D5D5D5" stroke-dasharray="5 5"/>
<path d="M278.495 0.173828L278.495 223.659" stroke="#D5D5D5" stroke-dasharray="5 5"/>
<path d="M306.431 0.173828L306.431 239.023" stroke="#D5D5D5" stroke-dasharray="5 5"/>
<path d="M334.367 0.173828L334.367 254.388" stroke="#D5D5D5" stroke-dasharray="5 5"/>
<path d="M362.302 0.173828L362.302 269.752" stroke="#D5D5D5" stroke-dasharray="5 5"/>
<path d="M390.238 0.173828L390.238 285.117" stroke="#D5D5D5" stroke-dasharray="5 5"/>
<path d="M417.475 0.173828L417.475 300.482" stroke="#D5D5D5" stroke-dasharray="5 5"/>
<path d="M445.41 0.173828L445.41 315.846" stroke="#D5D5D5" stroke-dasharray="5 5"/>
<path d="M472.648 0.173828L472.648 331.211" stroke="#D5D5D5" stroke-dasharray="5 5"/>
<path d="M501.282 0.173828L501.282 346.575" stroke="#D5D5D5" stroke-dasharray="5 5"/>
<path d="M528.52 0.173828L528.52 361.94" stroke="#D5D5D5" stroke-dasharray="5 5"/>
</svg>
