<svg width="31" height="27" viewBox="0 0 31 27" fill="none" xmlns="http://www.w3.org/2000/svg">
<path d="M10.9016 19.3438C10.652 19.0109 10.4023 18.6781 10.1527 18.4284C9.903 18.1788 9.65334 18.0123 9.48691 17.9291C9.32047 17.8459 9.23725 17.7627 9.23725 17.7627C8.73794 17.6795 8.23863 17.6795 7.73932 17.8459C7.24001 17.9291 6.7407 18.1788 6.3246 18.5116C5.82529 18.7613 5.4092 19.1774 5.07633 19.7599C4.66023 20.3424 4.32736 21.0082 3.99449 21.7572C3.66161 22.4229 3.32874 23.0887 2.91265 23.6712C2.49655 24.1705 2.08046 24.5866 1.66437 25.0027C1.24828 25.4188 0.832185 25.5852 0.582529 25.7516C0.332874 25.8349 0.0832185 25.9181 0 25.9181V26.0845C0.915403 26.4174 1.74759 26.667 2.57977 26.8335C3.32874 26.9999 3.99449 26.9999 4.66023 26.9999C5.15954 26.9999 5.57564 26.9999 5.99173 26.9167C7.32323 26.667 8.40506 26.1677 9.32047 25.2523C10.4023 24.1705 11.1513 22.6726 11.5674 20.6753C11.4009 20.176 11.1513 19.6767 10.9016 19.3438Z" fill="#296E8B"/>
<path d="M30.2086 0.0372161C30.1254 -0.0460017 30.0422 -0.129219 27.6288 1.45192C26.2141 2.45053 24.3001 3.86524 22.3028 5.36316C20.1391 7.02751 18.0587 8.69187 16.3111 10.1898C14.2306 11.9374 12.7327 13.3521 11.8173 14.3507C11.6508 14.5171 11.5676 14.6836 11.4844 14.85C11.4012 15.0164 11.318 15.0996 11.1515 15.3493C11.0683 15.4325 11.0683 15.5157 10.9851 15.6822C10.9019 15.7654 10.9019 15.8486 10.8186 15.9318C10.7354 16.0983 10.569 16.3479 10.3193 16.6808V16.764L10.4026 16.8472C10.569 16.9304 10.6522 17.0969 10.8186 17.1801C10.9851 17.3465 11.1515 17.513 11.318 17.6794C11.4844 17.929 11.7341 18.0955 11.9005 18.3451C12.0669 18.5948 12.2334 18.9277 12.3998 19.2605V19.3438L12.483 19.2605C12.7327 19.0941 13.0656 18.9277 13.3152 18.8444C13.4816 18.7612 13.6481 18.678 13.7313 18.5948C13.8145 18.5948 13.8977 18.5116 13.981 18.5116C14.1474 18.4284 14.3138 18.3451 14.5635 18.1787C14.7299 18.0955 14.8964 17.929 15.0628 17.8458C16.1446 16.9304 17.5594 15.5157 19.3902 13.5185C20.9713 11.8541 22.7189 9.85692 24.4665 7.69326C26.0477 5.77925 27.5456 3.94845 28.6274 2.53375C30.4583 0.28687 30.2918 0.120434 30.2086 0.0372161Z" fill="#296E8B"/>
</svg>
