<svg width="21" height="24" viewBox="0 0 21 24" fill="none" xmlns="http://www.w3.org/2000/svg">
<path d="M8.58693 9.63109H7.81448C3.95225 9.63109 0.862456 12.7209 0.862456 16.5831V17.5487H0.21875V18.9648H6.20522V17.5487H5.49714V16.5831C5.49714 15.2957 6.52707 14.2658 7.81448 14.2658H8.58693V15.0382H10.0031V9.05176H8.58693V9.63109Z" fill="#3CADDE"/>
<path d="M14.5088 5.06055V6.4767H15.2169V7.44226C15.2169 8.72967 14.187 9.7596 12.8995 9.7596H12.1271V8.98716H10.7109V14.9736H12.1271V14.3943H12.8995C16.7618 14.3943 19.8516 11.3045 19.8516 7.44226V6.4767H20.4953V5.06055H14.5088Z" fill="#3CADDE"/>
<path d="M20.4309 3.00085H19.7872V0.619141H15.1525V3.00085H14.5088V4.41701H20.4309V3.00085Z" fill="#3CADDE"/>
<path d="M0.21875 21.0246H0.862456V23.4063H5.49714V21.0246H6.14085V19.6084H0.21875V21.0246Z" fill="#3CADDE"/>
</svg>
