<svg width="68" height="40" viewBox="0 0 68 40" fill="none" xmlns="http://www.w3.org/2000/svg">
<path d="M8.80691 34.3704C8.80691 34.3704 8.80691 30.1904 8.80691 29.3544C8.80691 28.5184 8.52824 26.916 7.1349 26.916C5.74156 26.916 5.46289 28.5184 5.46289 29.3544C5.46289 30.1904 5.46289 34.3704 5.46289 34.3704H8.80691Z" stroke="#212C30" stroke-miterlimit="10" stroke-linecap="round" stroke-linejoin="round"/>
<path d="M16.4007 34.3704C16.4007 34.3704 16.4007 30.1904 16.4007 29.3544C16.4007 28.5184 16.122 26.916 14.7286 26.916C13.3353 26.916 13.0566 28.5184 13.0566 29.3544C13.0566 30.1904 13.0566 34.3704 13.0566 34.3704H16.4007Z" stroke="#212C30" stroke-miterlimit="10" stroke-linecap="round" stroke-linejoin="round"/>
<path d="M8.80691 17.4414H5.46289V23.1541H8.80691V17.4414Z" stroke="#212C30" stroke-miterlimit="10" stroke-linecap="round" stroke-linejoin="round"/>
<path d="M16.4007 17.4414H13.0566V23.1541H16.4007V17.4414Z" stroke="#212C30" stroke-miterlimit="10" stroke-linecap="round" stroke-linejoin="round"/>
<path d="M59.5244 34.3704C59.5244 34.3704 59.5244 30.1904 59.5244 29.3544C59.5244 28.5184 59.8031 26.916 61.1964 26.916C62.5898 26.916 62.8684 28.5184 62.8684 29.3544C62.8684 30.1904 62.8684 34.3704 62.8684 34.3704H59.5244Z" stroke="#212C30" stroke-miterlimit="10" stroke-linecap="round" stroke-linejoin="round"/>
<path d="M51.9307 34.3704C51.9307 34.3704 51.9307 30.1904 51.9307 29.3544C51.9307 28.5184 52.2093 26.916 53.6027 26.916C54.996 26.916 55.2747 28.5184 55.2747 29.3544C55.2747 30.1904 55.2747 34.3704 55.2747 34.3704H51.9307Z" stroke="#212C30" stroke-miterlimit="10" stroke-linecap="round" stroke-linejoin="round"/>
<path d="M59.4734 23.1562L62.8174 23.1562L62.8174 17.4436L59.4734 17.4436L59.4734 23.1562Z" stroke="#212C30" stroke-miterlimit="10" stroke-linecap="round" stroke-linejoin="round"/>
<path d="M51.9079 23.1562L55.252 23.1562L55.252 17.4436L51.9079 17.4436L51.9079 23.1562Z" stroke="#212C30" stroke-miterlimit="10" stroke-linecap="round" stroke-linejoin="round"/>
<path d="M48.6566 15.4209V38.5504H46.2183C46.2183 38.5504 46.2183 38.2717 46.2183 37.8537C46.2183 34.9277 46.2183 23.8506 46.2183 22.5269C46.2183 21.0639 45.7306 18.1379 43.0832 18.1379C40.4359 18.1379 39.9482 21.0639 39.9482 22.5269C39.9482 23.9899 39.9482 38.5504 39.9482 38.5504H37.5099C37.5099 38.5504 37.5099 24.0596 37.5099 22.5269C37.5099 20.9943 37.0222 18.1379 34.3749 18.1379H34.0962C31.3792 18.1379 30.9612 21.0639 30.9612 22.5269C30.9612 23.9899 30.9612 38.5504 30.9612 38.5504H28.5228C28.5228 38.5504 28.5228 24.0596 28.5228 22.5269C28.5228 20.9943 28.0352 18.1379 25.3878 18.1379C22.7405 18.1379 22.2528 21.0639 22.2528 22.5269C22.2528 23.8506 22.2528 34.9277 22.2528 37.8537C22.2528 38.2717 22.2528 38.5504 22.2528 38.5504H19.8145V15.4209" stroke="#212C30" stroke-miterlimit="10" stroke-linejoin="round"/>
<path d="M65.3071 13.958V38.5505H2.74609V13.958" stroke="#212C30" stroke-miterlimit="10" stroke-linejoin="round"/>
<path d="M31.309 3.50781H22.322L1.42188 13.9579H19.396" stroke="#212C30" stroke-miterlimit="10" stroke-linejoin="round"/>
<path d="M48.8652 13.9579H66.7L45.7302 3.50781H36.9521" stroke="#212C30" stroke-miterlimit="10" stroke-linejoin="round"/>
<path d="M48.8658 13.9581L36.9527 3.50801L34.166 1L31.3097 3.50801L19.3966 13.9581L17.7246 15.4211H50.6075L48.8658 13.9581Z" stroke="#212C30" stroke-miterlimit="10" stroke-linejoin="round"/>
<path d="M34.1656 11.1017C35.5892 11.1017 36.7433 9.94758 36.7433 8.52397C36.7433 7.10036 35.5892 5.94629 34.1656 5.94629C32.742 5.94629 31.5879 7.10036 31.5879 8.52397C31.5879 9.94758 32.742 11.1017 34.1656 11.1017Z" stroke="#212C30" stroke-miterlimit="10" stroke-linecap="round" stroke-linejoin="round"/>
</svg>
