<svg width="37" height="34" viewBox="0 0 37 34" fill="none" xmlns="http://www.w3.org/2000/svg">
<path d="M30.9066 7.94194L25.7396 0L12.9176 9.95135L0 19.9984L6.41097 26.9835L30.9066 7.94194Z" fill="#BD3AA8"/>
<path d="M31.8637 27.3658C30.9069 25.6435 26.3139 24.4952 25.8355 22.1031L36.0739 14.1611L31.8637 8.70703L19.4245 18.3713L6.98535 28.0356L11.1955 33.4897L21.4339 25.5478C23.6347 26.696 23.6347 31.2889 25.07 32.7242C27.2708 34.925 30.3328 32.4372 30.3328 32.4372C30.3328 32.4372 33.3947 30.045 31.8637 27.3658ZM27.6535 30.6191C27.3665 30.2364 27.4622 29.6623 27.8449 29.3752C28.2277 29.0882 28.8018 29.1838 29.0888 29.5666C29.3759 29.9493 29.2802 30.5235 28.8975 30.8105C28.5147 31.0976 27.9406 31.0019 27.6535 30.6191Z" fill="#BD3AA8"/>
</svg>
