<svg width="1440" height="733" viewBox="0 0 1440 733" fill="none" xmlns="http://www.w3.org/2000/svg">
<mask id="mask0" mask-type="alpha" maskUnits="userSpaceOnUse" x="0" y="0" width="1440" height="733">
<rect width="1440" height="733" fill="url(#paint0_linear)"/>
</mask>
<g mask="url(#mask0)">
<path fill-rule="evenodd" clip-rule="evenodd" d="M1440 0H0V733H1440V0ZM819.5 110.5L1185 109.5L1187 119.5L1196.5 127.5L1210 138.5L1215 152L1228 168L1236.5 184L1225 205.5L1240 211L1243.5 224L1215 242.5L1190 265.432H1184.5L1171.5 286L1148 282.5L1139.5 286L1142 292L1132.57 308L1136 314.5L1121.55 329L1101.48 325.638L1094.5 329L1103.84 340.984L1110.93 338L1125.09 352.5L1128 375L1127.06 386.5L1137.5 403L1127.06 414.5L1117.22 421.5L1119.95 434.243L1113.5 448.5L1107 447.5V456.5L1092.5 467.5L1104.63 466L1107 478.5L1100 492L1088.5 503.106L1083.38 505.467L1084.96 513.337L1077.5 519.5H1067.5L1059.5 511.5L1058 523L1041.28 538.5L1042.85 549.539L1041.28 555.835L1046 562.524V570.788L1044 580L1046 596.5L1032.62 595.578L1016.88 584.56L1013 568.427L1009.5 559L984 549.539L974 551.9L960.999 542L954.31 544.361H945L941.5 549.539L936.778 551.506L926.5 562.524L916.5 543L913.5 536.5L900.5 541L895.5 546L902.5 557.5L877.5 565.5L861.834 578.264L860 590.5L855 593.5L853 602.5L842.946 615.5L839 636.5L842.946 655L844 661L850.5 668V675.065L836.5 676L817 671.5V664L810.5 665.5L803.5 662.5L802 653.816L795.116 649.488L790 643.979L783 647L768.5 642.5V632L764 619L758 615.5H753L749.5 610.5V604L744 609.5L740 604L734.5 608L730.5 601.5H722.5L719.5 591H708.5L701 583.5L706 579.5V571.575H695.5L688.5 563.705L678 570.5L672.5 584.5L661.536 576.551L664 568.5L665.078 562.296L660.5 557L663 551L655 541.5L652 532L643 534L624.5 527.5L620.5 506.5L631.629 492.5L626 488L627.047 477.528H642V470.5L636.745 463.5L623.365 461L622.578 449.5L599.5 447L604.5 437.5L610.5 435.03L617 419.5L627.5 409.5L631.629 412.207H636.745L638 404.5L635.564 402.5L638 398L646 394L653 386L642.5 387.5L636.745 383.5L638 377.186L634 375.5V366.5L639.893 368.529L650.518 363.807L661.536 350.035L668.5 347.28L676.096 354V351.609L679 345.5L683.966 331.934L686.5 324.5L691 315L695 311L693.017 304.782L700 298.5L702.068 286.288L711.5 275.5L703 272L697.739 269L699 266L703 260L702.068 255.201L711.5 249.5V255.988H717.5L729.614 237.5L730.794 247.331V251L733.155 255.201L736.697 243.003L737.484 231.198L745.748 206.5L741 205L747 192.5L752 186.5L756.5 161L761.5 154.5L770 151.711L761.5 163.5L763.062 170.992L780.5 161L785 145.021H788L794.5 147.5L796 134.5L800.5 137L809.497 132.5L806 128L809.497 117.87L819.5 110.5Z" fill="white"/>
</g>
<defs>
<linearGradient id="paint0_linear" x1="720" y1="256.234" x2="720" y2="733" gradientUnits="userSpaceOnUse">
<stop stop-color="white" stop-opacity="0.7"/>
<stop offset="1" stop-color="white"/>
</linearGradient>
</defs>
</svg>
