<svg width="636" height="561" viewBox="0 0 636 561" fill="none" xmlns="http://www.w3.org/2000/svg">
<path d="M577.408 1L217.584 1.98676L207.736 9.25917L204.293 19.2551L207.736 23.6955L198.879 28.1359L194.449 25.669L192.972 38.4969L186.573 36.0512H183.62L179.189 51.8182L162.023 61.6783L160.484 54.2851L168.852 42.6521L160.484 45.4042L155.562 51.8182L151.132 76.9806L146.21 82.9011L140.303 95.2357L144.977 96.7158L136.841 121.087L136.067 132.735L132.58 144.772L130.256 140.627V137.006L129.093 127.305L117.168 145.549H111.261V139.147L101.975 144.772L102.893 149.507L98.955 155.428L97.7138 158.388L102.893 161.349L111.261 164.802L101.975 175.447L99.9394 187.498L93.065 193.697L95.0171 199.832L91.0792 203.779L86.6491 213.154L84.1547 220.489L79.2655 233.876L76.4067 239.903V242.263L68.9286 235.632L62.0728 238.35L51.2255 251.94L40.7657 256.6L34.9643 254.598V263.478L38.9022 265.142L37.6665 271.372L43.3323 275.319L53.6693 273.839L46.778 281.733L38.9022 285.68L36.5043 290.121L38.9022 292.094L37.6665 299.7H32.6302L28.5652 297.028L18.2283 306.896L11.8292 322.221L5.92236 324.658L1 334.032L23.72 336.499L24.4948 347.846L37.6665 350.313L42.8401 357.221V364.156H28.1188L27.0885 374.489L32.6302 378.929L21.6739 392.744L25.6118 413.466L43.8245 419.88L52.6848 417.906L55.6382 427.281L63.514 436.655L61.0528 442.575L65.5594 447.801L64.4984 453.923L62.0728 461.867L72.8665 469.711L78.2811 455.897L88.618 449.191L95.5093 456.957H105.846V464.778L100.924 468.725L108.307 476.125H119.137L122.09 486.486H129.966L133.904 492.9L139.318 488.953L143.256 494.38L148.671 488.953V495.367L152.116 500.301H157.039L162.946 503.755L167.376 516.583V526.943L181.651 531.384L188.542 528.403L193.578 533.839L200.356 538.11L201.832 546.679L208.724 549.639L215.123 548.159V555.56L234.32 560L248.102 559.077V552.106L241.703 545.199L240.665 539.278L236.781 521.023L240.665 500.301L250.564 487.473L252.533 478.592L257.455 475.632L259.261 463.558L274.683 450.963L299.295 443.069L292.404 431.721L297.326 426.787L310.124 422.347L313.078 428.761L322.922 448.027L333.041 437.154L337.689 435.213L341.135 430.104H350.3L356.886 427.774L369.685 437.543L379.53 435.213L404.634 444.549L408.079 453.851L411.897 469.771L427.393 480.643L440.565 481.553L438.598 465.271L440.565 456.181V448.027L435.916 441.426L437.466 435.213L435.916 424.32L452.38 409.026L453.857 397.678L461.733 405.572H471.578L478.918 399.49L477.368 391.725L482.404 389.395L493.728 378.436L500.62 365.115L498.288 352.78L486.345 354.26L500.62 343.406V334.525L507.019 335.512L513.367 321.444L510.685 308.869L520.37 301.962L530.646 290.614L520.37 274.333L521.293 262.985L518.433 240.783L504.486 226.475L497.513 229.419L488.314 217.594L495.189 214.276L514.946 217.594L529.169 203.286L525.793 196.872L535.076 181.084L532.615 175.163L540.983 171.71L564.118 175.163L576.916 154.868H582.331L606.943 132.239L635 113.984L631.554 101.156L616.787 95.729L628.109 74.5137L619.741 58.7255L606.943 42.9373L602.02 29.6161L588.73 18.7617L579.377 10.8676L577.408 1Z" stroke="#57A7D7" stroke-linejoin="round"/>
</svg>
