<svg width="1000" height="721" viewBox="0 0 1000 721" fill="none" xmlns="http://www.w3.org/2000/svg">
<mask id="mask0" mask-type="alpha" maskUnits="userSpaceOnUse" x="0" y="0" width="1000" height="721">
<rect width="1000" height="721" fill="url(#paint0_linear)"/>
</mask>
<g mask="url(#mask0)">
<path fill-rule="evenodd" clip-rule="evenodd" d="M1000 0H0V721H1000V0ZM564.584 107.987L924.408 107L926.377 116.868L935.73 124.762L949.02 135.616L953.943 148.937L966.741 164.726L975.109 180.514L963.787 201.729L978.554 207.156L982 219.984L953.943 238.239L929.331 260.868H923.916L911.118 281.163L887.983 277.71L879.615 281.163L882.076 287.084L872.793 302.872L876.169 309.286L861.946 323.594L842.189 320.276L835.314 323.594L844.513 335.419L851.486 332.475L865.433 346.783L868.293 368.985L867.37 380.333L877.646 396.614L867.37 407.962L857.685 414.869L860.367 427.444L854.019 441.512L847.62 440.525V449.406L833.345 460.26L845.288 458.78L847.62 471.115L840.728 484.436L829.404 495.395L824.368 497.725L825.918 505.49L818.578 511.572H808.733L800.857 503.678L799.38 515.026L782.916 530.32L784.466 541.213L782.916 547.426L787.565 554.026V562.181L785.598 571.271L787.565 587.552L774.393 586.643L758.897 575.771L755.079 559.851L751.634 550.549L726.53 541.213L716.685 543.543L703.886 533.774L697.3 536.104H688.135L684.689 541.213L680.041 543.154L669.922 554.026L660.078 534.761L657.124 528.347L644.326 532.787L639.404 537.721L646.295 549.069L621.683 556.963L606.261 569.558L604.455 581.632L599.533 584.592L597.564 593.473L587.665 606.301L583.781 627.023L587.665 645.278L588.703 651.199L595.102 658.106V665.077L581.32 666L562.123 661.56V654.159L555.724 655.639L548.832 652.679L547.356 644.11L540.578 639.839L535.542 634.403L528.651 637.384L514.376 632.943V622.583L509.946 609.755L504.039 606.301H499.116L495.671 601.367V594.953L490.256 600.38L486.318 594.953L480.904 598.9L476.966 592.486H469.09L466.137 582.125H455.307L447.924 574.725L452.846 570.778V562.957H442.509L435.618 555.191L425.281 561.897L419.866 575.711L409.073 567.867L411.498 559.923L412.559 553.801L408.053 548.575L410.514 542.655L402.638 533.281L399.685 523.906L390.825 525.88L372.612 519.466L368.674 498.744L379.63 484.929L374.089 480.489L375.119 470.156H389.84V463.221L384.666 456.313L371.495 453.846L370.72 442.499L348 440.032L352.922 430.658L358.829 428.221L365.228 412.896L375.565 403.028L379.63 405.7H384.666L385.902 398.094L383.504 396.121L385.902 391.68L393.778 387.733L400.669 379.839L390.332 381.319L384.666 377.372L385.902 371.142L381.964 369.478V360.598L387.766 362.6L398.226 357.94L409.073 344.35L415.929 341.632L423.407 348.263V345.903L426.266 339.876L431.155 326.489L433.649 319.154L438.079 309.779L442.017 305.832L440.065 299.697L446.939 293.498L448.975 281.447L458.261 270.802L449.893 267.349L444.714 264.388L445.955 261.428L449.893 255.507L448.975 250.772L458.261 245.147V251.549H464.168L476.093 233.305L477.256 243.006V246.627L479.58 250.772L483.067 238.735L483.841 227.087L491.977 202.716L487.303 201.236L493.21 188.901L498.132 182.981L502.562 157.818L507.484 151.404L515.852 148.652L507.484 160.285L509.023 167.678L526.189 157.818L530.62 142.051H533.573L539.972 144.497L541.449 131.669L545.879 134.136L554.736 129.695L551.293 125.255L554.736 115.259L564.584 107.987Z" fill="white"/>
</g>
<defs>
<linearGradient id="paint0_linear" x1="500" y1="252.039" x2="500" y2="721" gradientUnits="userSpaceOnUse">
<stop stop-color="white" stop-opacity="0.7"/>
<stop offset="1" stop-color="white"/>
</linearGradient>
</defs>
</svg>
