<svg width="480" height="822" viewBox="0 0 480 822" fill="none" xmlns="http://www.w3.org/2000/svg">
<mask id="mask0" mask-type="alpha" maskUnits="userSpaceOnUse" x="0" y="0" width="480" height="822">
<rect width="480" height="822" fill="url(#paint0_linear)"/>
</mask>
<g mask="url(#mask0)">
<path fill-rule="evenodd" clip-rule="evenodd" d="M480 0H0V822H480V0ZM167.191 393.716L422.826 393.015L424.225 400.026L430.869 405.634L440.311 413.345L443.808 422.809L452.9 434.026L458.845 445.243L450.802 460.315L461.293 464.171L463.741 473.284L443.808 486.253L426.323 502.33H422.476L413.384 516.748L396.948 514.295L391.003 516.748L392.751 520.955L386.156 532.171L388.555 536.728L378.45 546.893L364.413 544.536L359.529 546.893L366.065 555.294L371.019 553.202L380.927 563.367L382.959 579.141L382.303 587.203L389.604 598.77L382.303 606.832L375.422 611.739L377.328 620.673L372.818 630.667L368.272 629.966V636.275L358.13 643.987L366.615 642.935L368.272 651.698L363.376 661.162L355.331 668.948L351.753 670.603L352.854 676.12L347.639 680.441H340.645L335.05 674.832L334.001 682.894L322.304 693.76L323.405 701.499L322.304 705.913L325.606 710.602V716.395L324.209 722.853L325.606 734.42L316.249 733.774L305.24 726.05L302.527 714.74L300.079 708.131L282.244 701.499L275.25 703.154L266.157 696.214L261.478 697.869H254.967L252.519 701.499L249.216 702.878L242.028 710.602L235.034 696.915L232.936 692.358L223.843 695.513L220.346 699.018L225.242 707.08L207.757 712.688L196.8 721.636L195.517 730.214L192.02 732.317L190.621 738.627L183.589 747.74L180.83 762.462L183.589 775.431L184.327 779.637L188.873 784.545V789.497L179.081 790.153L165.443 786.998V781.74L160.896 782.792L156 780.689L154.951 774.601L150.136 771.567L146.558 767.705L141.663 769.823L131.521 766.668V759.307L128.374 750.194L124.177 747.74H120.68L118.232 744.235V739.678L114.386 743.534L111.588 739.678L107.741 742.482L104.943 737.926H99.3482L97.2499 730.565H89.5564L84.3108 725.307L87.8079 722.503V716.947H80.4641L75.5682 711.43L68.2244 716.193L64.3776 726.008L56.7094 720.435L58.4326 714.791L59.1864 710.442L55.9847 706.729L57.7332 702.523L52.1379 695.863L50.0397 689.203L43.745 690.606L30.8059 686.049L28.0082 671.327L35.7921 661.513L31.855 658.358L32.587 651.017H43.0456V646.09L39.37 641.182L30.0123 639.43L29.4619 631.368L13.3206 629.615L16.8177 622.956L21.0141 621.224L25.5603 610.337L32.9041 603.326L35.7921 605.225H39.37L40.2479 599.821L38.5444 598.419L40.2479 595.265L45.8432 592.46L50.7391 586.852L43.3953 587.904L39.37 585.1L40.2479 580.673L37.4503 579.491V573.182L41.5719 574.604L49.003 571.294L56.7094 561.639L61.58 559.708L66.8928 564.419V562.742L68.9238 558.46L72.3973 548.95L74.1694 543.738L77.3167 537.078L80.1144 534.274L78.7275 529.915L83.6114 525.511L85.0577 516.95L91.6546 509.388L85.7097 506.934L82.0303 504.831L82.912 502.728L85.7097 498.521L85.0577 495.157L91.6546 491.161V495.709H95.8511L104.324 482.748L105.149 489.64V492.212L106.801 495.157L109.278 486.606L109.828 478.33L115.608 461.016L112.287 459.964L116.484 451.201L119.981 446.995L123.128 429.119L126.625 424.562L132.57 422.607L126.625 430.871L127.718 436.124L139.914 429.119L143.061 417.917H145.16L149.706 419.655L150.755 410.541L153.902 412.294L160.195 409.139L157.749 405.985L160.195 398.883L167.191 393.716Z" fill="white"/>
</g>
<defs>
<linearGradient id="paint0_linear" x1="240" y1="311.164" x2="240" y2="822" gradientUnits="userSpaceOnUse">
<stop stop-color="white"/>
<stop offset="0.296875" stop-color="white" stop-opacity="0.7"/>
<stop offset="1" stop-color="white"/>
</linearGradient>
</defs>
</svg>
