<svg width="768" height="594" viewBox="0 0 768 594" fill="none" xmlns="http://www.w3.org/2000/svg">
<mask id="mask0" mask-type="alpha" maskUnits="userSpaceOnUse" x="0" y="0" width="768" height="594">
<rect width="768" height="594" fill="url(#paint0_linear)"/>
</mask>
<g mask="url(#mask0)">
<path fill-rule="evenodd" clip-rule="evenodd" d="M768 0H0V594H768V0ZM436.557 128.076L710.044 127.326L711.54 134.826L718.649 140.826L728.75 149.076L732.491 159.201L742.219 171.201L748.579 183.201L739.974 199.326L751.198 203.451L753.817 213.201L732.491 227.075L713.785 244.274H709.67L699.942 259.7L682.358 257.075L675.998 259.7L677.869 264.2L670.814 276.2L673.379 281.075L662.569 291.95L647.552 289.428L642.327 291.95L649.319 300.938L654.619 298.7L665.219 309.575L667.393 326.449L666.691 335.074L674.502 347.449L666.691 356.074L659.33 361.324L661.368 370.882L656.544 381.574L651.68 380.824V387.574L640.83 395.824L649.908 394.699L651.68 404.074L646.442 414.199L637.836 422.528L634.008 424.299L635.185 430.201L629.607 434.823H622.124L616.138 428.823L615.016 437.448L602.502 449.073L603.68 457.352L602.502 462.074L606.035 467.091V473.289L604.54 480.198L606.035 492.573L596.024 491.882L584.246 483.618L581.344 471.518L578.725 464.448L559.645 457.352L552.162 459.123L542.435 451.698L537.429 453.469H530.463L527.844 457.352L524.311 458.828L516.62 467.091L509.138 452.448L506.893 447.573L497.166 450.948L493.424 454.698L498.662 463.323L479.956 469.323L468.234 478.896L466.861 488.073L463.12 490.323L461.624 497.073L454.1 506.823L451.148 522.573L454.1 536.448L454.889 540.947L459.753 546.197V551.496L449.277 552.197L434.687 548.822V543.197L429.823 544.322L424.585 542.072L423.463 535.56L418.312 532.313L414.484 528.182L409.246 530.448L398.396 527.073V519.198L395.029 509.448L390.54 506.823H386.798L384.179 503.073V498.198L380.064 502.323L377.071 498.198L372.956 501.198L369.963 496.323H363.977L361.732 488.448H353.501L347.889 482.823L351.63 479.823V473.879H343.774L338.536 467.977L330.679 473.073L326.564 483.573L318.36 477.611L320.204 471.573L321.01 466.92L317.585 462.948L319.456 458.448L313.47 451.323L311.225 444.198L304.49 445.698L290.648 440.823L287.655 425.074L295.982 414.574L291.77 411.199L292.553 403.345H303.742V398.074L299.81 392.824L289.799 390.949L289.21 382.324L271.941 380.449L275.683 373.324L280.172 371.472L285.036 359.824L292.893 352.324L295.982 354.355H299.81L300.749 348.574L298.927 347.074L300.749 343.699L306.735 340.699L311.973 334.699L304.116 335.824L299.81 332.824L300.749 328.089L297.756 326.824V320.075L302.166 321.596L310.116 318.055L318.36 307.726L323.571 305.66L329.255 310.7V308.906L331.428 304.325L335.144 294.15L337.039 288.575L340.407 281.45L343.4 278.45L341.916 273.787L347.141 269.075L348.688 259.916L355.746 251.825L349.386 249.2L345.449 246.95L346.393 244.7L349.386 240.2L348.688 236.601L355.746 232.325V237.191H360.235L369.3 223.325L370.183 230.699V233.45L371.95 236.601L374.6 227.452L375.189 218.599L381.372 200.076L377.819 198.951L382.309 189.576L386.05 185.076L389.417 165.951L393.158 161.076L399.519 158.984L393.158 167.826L394.328 173.445L407.375 165.951L410.742 153.967H412.987L417.851 155.826L418.973 146.076L422.34 147.951L429.072 144.576L426.456 141.201L429.072 133.604L436.557 128.076Z" fill="white"/>
</g>
<defs>
<linearGradient id="paint0_linear" x1="384" y1="84.9951" x2="384" y2="594" gradientUnits="userSpaceOnUse">
<stop stop-color="white"/>
<stop offset="0.296875" stop-color="white" stop-opacity="0.7"/>
<stop offset="1" stop-color="white"/>
</linearGradient>
</defs>
</svg>
