<?xml version="1.0" encoding="utf-8"?>
<svg version="1.1" xmlns="http://www.w3.org/2000/svg" xmlns:xlink="http://www.w3.org/1999/xlink" x="0px" y="0px" viewBox="0 0 1000 1000" enable-background="new 0 0 1000 1000" xml:space="preserve">
<g><g transform="translate(0.000000,511.000000) scale(0.100000,-0.100000)"><path d="M2652.8,4971.8c-38.2-19.1-69.3-38.2-71.7-40.6c-4.8-2.4-12-537.8-19.1-1188L2550,2560l-1183.2-12c-650.2-7.2-1185.6-14.3-1188-19.1c-2.4-2.4-21.5-35.9-43-76.5C104.8,2390.3,100,1972,100-1132.9v-3518.4l69.3-69.3l69.3-69.3h3518.4c3104.9,0,3523.2,4.8,3585.4,35.8c40.6,21.5,74.1,40.6,76.5,43c4.8,2.4,12,537.8,19.1,1187.9l12,1183.2l1183.2,12c650.1,7.2,1185.5,14.3,1187.9,19.1c2.4,2.4,21.5,35.8,43,76.5c31.1,62.1,35.8,480.4,35.8,3585.4v3518.4l-69.3,69.3l-69.3,69.3H6238.1C3164.3,5007.6,2710.2,5002.8,2652.8,4971.8z M9493.7,1341v-3262.7H6231H2968.3V1341v3262.7H6231h3262.7V1341z M2562-38.2v-2179.9l52.6-55l50.2-55h2184.7h2182.3v-1027.8v-1027.8H3769H506.3V-1121v3262.7h1027.8H2562V-38.2z"/><path d="M6338.5,4166.2c-124.3-62.1-148.2-227.1-47.8-327.5c45.4-45.4,83.7-47.8,1068.4-47.8h1023L6486.7,1895.5C4682.1,90.9,4593.7-2.3,4593.7-83.6c0-157.8,155.4-255.8,294-186.5c28.7,14.4,894,867.7,1924.1,1895.5L8681,3492.2v-1023c0-984.8,2.4-1023,47.8-1068.4c100.4-100.4,265.3-76.5,327.5,47.8c23.9,45.4,31.1,349,31.1,1309.8c0,1355.3,0,1350.5-131.5,1410.2C8865,4211.7,6422.2,4209.3,6338.5,4166.2z"/></g></g>
</svg>