<svg width="926" height="125" viewBox="0 0 926 125" fill="none" xmlns="http://www.w3.org/2000/svg">
<path d="M34.2462 4.5C34.5223 4.5 34.7462 4.72386 34.7462 5C34.7462 5.27614 34.5223 5.5 34.2462 5.5V4.5ZM3.5 5V5.5V5ZM896 4.5H898.167V5.5H896V4.5ZM902.5 4.5H906.833V5.5H902.5V4.5ZM911.167 4.5H915.5V5.5H911.167V4.5ZM919.833 4.5H922V5.5H919.833V4.5ZM922 4.5C922.474 4.5 922.927 4.59436 923.34 4.76578L922.957 5.6895C922.663 5.56756 922.34 5.5 922 5.5V4.5ZM925.234 6.66011C925.406 7.07348 925.5 7.52635 925.5 8H924.5C924.5 7.6601 924.432 7.33724 924.31 7.04316L925.234 6.66011ZM925.5 8V10.5682H924.5V8H925.5ZM925.5 15.7045V20.8409H924.5V15.7045H925.5ZM925.5 25.9773V31.1136H924.5V25.9773H925.5ZM925.5 36.25V41.3864H924.5V36.25H925.5ZM925.5 46.5227V51.6591H924.5V46.5227H925.5ZM925.5 56.7955V61.9318H924.5V56.7955H925.5ZM925.5 67.0682V72.2045H924.5V67.0682H925.5ZM925.5 77.3409V82.4773H924.5V77.3409H925.5ZM925.5 87.6136V92.75H924.5V87.6136H925.5ZM925.5 97.8863V103.023H924.5V97.8863H925.5ZM925.5 108.159V113.295H924.5V108.159H925.5ZM925.5 118.432V121H924.5V118.432H925.5ZM925.5 121C925.5 121.474 925.406 121.927 925.234 122.34L924.31 121.957C924.432 121.663 924.5 121.34 924.5 121H925.5ZM923.34 124.234C922.927 124.406 922.474 124.5 922 124.5V123.5C922.34 123.5 922.663 123.432 922.957 123.31L923.34 124.234ZM922 124.5H919.504V123.5H922V124.5ZM914.512 124.5H909.52V123.5H914.512V124.5ZM904.529 124.5H899.537V123.5H904.529V124.5ZM894.545 124.5H889.553V123.5H894.545V124.5ZM884.561 124.5H879.569V123.5H884.561V124.5ZM874.577 124.5H869.586V123.5H874.577V124.5ZM864.594 124.5H859.602V123.5H864.594V124.5ZM854.61 124.5H849.618V123.5H854.61V124.5ZM844.626 124.5H839.634V123.5H844.626V124.5ZM834.643 124.5H829.651V123.5H834.643V124.5ZM824.659 124.5H819.667V123.5H824.659V124.5ZM814.675 124.5H809.683V123.5H814.675V124.5ZM804.692 124.5H799.7V123.5H804.692V124.5ZM794.708 124.5H789.716V123.5H794.708V124.5ZM784.724 124.5H779.732V123.5H784.724V124.5ZM774.74 124.5H769.749V123.5H774.74V124.5ZM764.757 124.5H759.765V123.5H764.757V124.5ZM754.773 124.5H749.781V123.5H754.773V124.5ZM744.789 124.5H739.797V123.5H744.789V124.5ZM734.806 124.5H729.814V123.5H734.806V124.5ZM724.822 124.5H719.83V123.5H724.822V124.5ZM714.838 124.5H709.846V123.5H714.838V124.5ZM704.854 124.5H699.863V123.5H704.854V124.5ZM694.871 124.5H689.879V123.5H694.871V124.5ZM684.887 124.5H679.895V123.5H684.887V124.5ZM674.903 124.5H669.912V123.5H674.903V124.5ZM664.92 124.5H659.928V123.5H664.92V124.5ZM654.936 124.5H649.944V123.5H654.936V124.5ZM644.952 124.5H639.96V123.5H644.952V124.5ZM634.969 124.5H629.977V123.5H634.969V124.5ZM624.985 124.5H619.993V123.5H624.985V124.5ZM615.001 124.5H610.009V123.5H615.001V124.5ZM605.017 124.5H600.026V123.5H605.017V124.5ZM595.034 124.5H590.042V123.5H595.034V124.5ZM585.05 124.5H580.058V123.5H585.05V124.5ZM575.066 124.5H570.074V123.5H575.066V124.5ZM565.083 124.5H560.091V123.5H565.083V124.5ZM555.099 124.5H550.107V123.5H555.099V124.5ZM545.115 124.5H540.123V123.5H545.115V124.5ZM535.132 124.5H530.14V123.5H535.132V124.5ZM525.148 124.5H520.156V123.5H525.148V124.5ZM515.164 124.5H510.172V123.5H515.164V124.5ZM505.18 124.5H500.189V123.5H505.18V124.5ZM495.197 124.5H490.205V123.5H495.197V124.5ZM485.213 124.5H480.221V123.5H485.213V124.5ZM475.229 124.5H470.237V123.5H475.229V124.5ZM465.246 124.5H460.254V123.5H465.246V124.5ZM455.262 124.5H450.27V123.5H455.262V124.5ZM445.278 124.5H440.286V123.5H445.278V124.5ZM435.294 124.5H430.303V123.5H435.294V124.5ZM425.311 124.5H420.319V123.5H425.311V124.5ZM415.327 124.5H410.335V123.5H415.327V124.5ZM405.343 124.5H400.352V123.5H405.343V124.5ZM395.36 124.5H390.368V123.5H395.36V124.5ZM385.376 124.5H380.384V123.5H385.376V124.5ZM375.392 124.5H370.401V123.5H375.392V124.5ZM365.409 124.5H360.417V123.5H365.409V124.5ZM355.425 124.5H350.433V123.5H355.425V124.5ZM345.442 124.5H340.45V123.5H345.442V124.5ZM335.458 124.5H330.466V123.5H335.458V124.5ZM325.474 124.5H320.482V123.5H325.474V124.5ZM315.491 124.5H310.499V123.5H315.491V124.5ZM305.507 124.5H300.515V123.5H305.507V124.5ZM295.523 124.5H290.531V123.5H295.523V124.5ZM285.54 124.5H280.548V123.5H285.54V124.5ZM275.556 124.5H270.564V123.5H275.556V124.5ZM265.572 124.5H260.581V123.5H265.572V124.5ZM255.589 124.5H250.597V123.5H255.589V124.5ZM245.605 124.5H240.613V123.5H245.605V124.5ZM235.621 124.5H230.63V123.5H235.621V124.5ZM225.638 124.5H220.646V123.5H225.638V124.5ZM215.654 124.5H210.662V123.5H215.654V124.5ZM205.671 124.5H200.679V123.5H205.671V124.5ZM195.687 124.5H190.695V123.5H195.687V124.5ZM185.703 124.5H180.711V123.5H185.703V124.5ZM175.72 124.5H170.728V123.5H175.72V124.5ZM165.736 124.5H160.744V123.5H165.736V124.5ZM155.752 124.5H150.76V123.5H155.752V124.5ZM145.769 124.5H140.777V123.5H145.769V124.5ZM135.785 124.5H130.793V123.5H135.785V124.5ZM125.801 124.5H120.81V123.5H125.801V124.5ZM115.818 124.5H110.826V123.5H115.818V124.5ZM105.834 124.5H100.842V123.5H105.834V124.5ZM95.8505 124.5H90.8586V123.5H95.8505V124.5ZM85.8668 124.5H80.875V123.5H85.8668V124.5ZM75.8832 124.5H70.8914V123.5H75.8832V124.5ZM65.8995 124.5H60.9077V123.5H65.8995V124.5ZM55.9159 124.5H50.9241V123.5H55.9159V124.5ZM45.9323 124.5H40.9404V123.5H45.9323V124.5ZM35.9486 124.5H30.9568V123.5H35.9486V124.5ZM25.965 124.5H20.9731V123.5H25.965V124.5ZM15.9813 124.5H10.9895V123.5H15.9813V124.5ZM5.99768 124.5H3.5V123.5H5.99768V124.5ZM3.5 124.5C3.02637 124.5 2.57349 124.406 2.1601 124.234L2.54315 123.31C2.83722 123.432 3.1601 123.5 3.5 123.5V124.5ZM0.265808 122.34C0.0943604 121.927 0 121.474 0 121H1C1 121.34 1.06757 121.663 1.18951 121.957L0.265808 122.34ZM0 121V118.432H1V121H0ZM0 113.295V108.159H1V113.295H0ZM0 103.023V97.8864H1V103.023H0ZM0 92.75V87.6136H1V92.75H0ZM0 82.4773V77.3409H1V82.4773H0ZM0 72.2045V67.0682H1V72.2045H0ZM0 61.9318V56.7955H1V61.9318H0ZM0 51.6591V46.5227H1V51.6591H0ZM0 41.3864V36.25H1V41.3864H0ZM0 31.1137V25.9773H1V31.1137H0ZM0 20.8409V15.7046H1V20.8409H0ZM0 10.5682V8H1V10.5682H0ZM0 8C0 7.52635 0.0943604 7.07348 0.265808 6.66011L1.18951 7.04316C1.06757 7.33724 1 7.6601 1 8H0ZM2.1601 4.76578C2.57349 4.59436 3.02637 4.5 3.5 4.5V5.5C3.1601 5.5 2.83722 5.56756 2.54315 5.6895L2.1601 4.76578ZM3.5 4.5H6.06219V5.5H3.5V4.5ZM11.1865 4.5H16.3109V5.5H11.1865V4.5ZM21.4353 4.5H26.5596V5.5H21.4353V4.5ZM31.684 4.5H34.2462V5.5H31.684V4.5Z" fill="#616D7B"/>
<path d="M34.5 5H23.5" stroke="#616D7B"/>
<path d="M30.5 9L34.5 5L30.5 1" stroke="#616D7B" stroke-linecap="square"/>
</svg>
