<svg width="290" height="156" viewBox="0 0 290 156" fill="none" xmlns="http://www.w3.org/2000/svg">
<path d="M23.5 4.5C23.7762 4.5 24 4.72386 24 5C24 5.27614 23.7762 5.5 23.5 5.5V4.5ZM263 4.5H265.875V5.5H263V4.5ZM271.625 4.5H277.375V5.5H271.625V4.5ZM283.125 4.5H286V5.5H283.125V4.5ZM286 4.5C286.474 4.5 286.927 4.59436 287.34 4.76578L286.957 5.6895C286.663 5.56756 286.34 5.5 286 5.5V4.5ZM289.234 6.66011C289.406 7.07348 289.5 7.52635 289.5 8H288.5C288.5 7.6601 288.432 7.33724 288.31 7.04316L289.234 6.66011ZM289.5 8V10.5714H288.5V8H289.5ZM289.5 15.7143V20.8571H288.5V15.7143H289.5ZM289.5 26V31.1429H288.5V26H289.5ZM289.5 36.2857V41.4286H288.5V36.2857H289.5ZM289.5 46.5714V51.7143H288.5V46.5714H289.5ZM289.5 56.8571V62H288.5V56.8571H289.5ZM289.5 67.1429V72.2857H288.5V67.1429H289.5ZM289.5 77.4286V82.5714H288.5V77.4286H289.5ZM289.5 87.7143V92.8572H288.5V87.7143H289.5ZM289.5 98V103.143H288.5V98H289.5ZM289.5 108.286V113.429H288.5V108.286H289.5ZM289.5 118.571V123.714H288.5V118.571H289.5ZM289.5 128.857V134H288.5V128.857H289.5ZM289.5 139.143V144.286H288.5V139.143H289.5ZM289.5 149.429V152H288.5V149.429H289.5ZM289.5 152C289.5 152.474 289.406 152.927 289.234 153.34L288.31 152.957C288.432 152.663 288.5 152.34 288.5 152H289.5ZM287.34 155.234C286.927 155.406 286.474 155.5 286 155.5V154.5C286.34 154.5 286.663 154.432 286.957 154.311L287.34 155.234ZM286 155.5H283.482V154.5H286V155.5ZM278.446 155.5H273.411V154.5H278.446V155.5ZM268.375 155.5H263.339V154.5H268.375V155.5ZM258.304 155.5H253.268V154.5H258.304V155.5ZM248.232 155.5H243.196V154.5H248.232V155.5ZM238.161 155.5H233.125V154.5H238.161V155.5ZM228.089 155.5H223.054V154.5H228.089V155.5ZM218.018 155.5H212.982V154.5H218.018V155.5ZM207.946 155.5H202.911V154.5H207.946V155.5ZM197.875 155.5H192.839V154.5H197.875V155.5ZM187.804 155.5H182.768V154.5H187.804V155.5ZM177.732 155.5H172.696V154.5H177.732V155.5ZM167.661 155.5H162.625V154.5H167.661V155.5ZM157.589 155.5H152.554V154.5H157.589V155.5ZM147.518 155.5H142.482V154.5H147.518V155.5ZM137.446 155.5H132.411V154.5H137.446V155.5ZM127.375 155.5H122.339V154.5H127.375V155.5ZM117.304 155.5H112.268V154.5H117.304V155.5ZM107.232 155.5H102.196V154.5H107.232V155.5ZM97.1607 155.5H92.1249V154.5H97.1607V155.5ZM87.0892 155.5H82.0535V154.5H87.0892V155.5ZM77.0178 155.5H71.9821V154.5H77.0178V155.5ZM66.9464 155.5H61.9106V154.5H66.9464V155.5ZM56.8749 155.5H51.8392V154.5H56.8749V155.5ZM46.8035 155.5H41.7677V154.5H46.8035V155.5ZM36.732 155.5H31.6963V154.5H36.732V155.5ZM26.6606 155.5H21.6249V154.5H26.6606V155.5ZM16.5892 155.5H11.5535V154.5H16.5892V155.5ZM6.51776 155.5H4V154.5H6.51776V155.5ZM4 155.5C3.52637 155.5 3.07349 155.406 2.66013 155.234L3.04318 154.311C3.33725 154.432 3.6601 154.5 4 154.5V155.5ZM0.765778 153.34C0.59436 152.927 0.5 152.474 0.5 152H1.5C1.5 152.34 1.56757 152.663 1.68951 152.957L0.765778 153.34ZM0.5 152V149.429H1.5V152H0.5ZM0.5 144.286V139.143H1.5V144.286H0.5ZM0.5 134V128.857H1.5V134H0.5ZM0.5 123.714V118.571H1.5V123.714H0.5ZM0.5 113.429V108.286H1.5V113.429H0.5ZM0.5 103.143V98H1.5V103.143H0.5ZM0.5 92.8571V87.7143H1.5V92.8571H0.5ZM0.5 82.5714V77.4286H1.5V82.5714H0.5ZM0.5 72.2857V67.1428H1.5V72.2857H0.5ZM0.5 62V56.8571H1.5V62H0.5ZM0.5 51.7143V46.5714H1.5V51.7143H0.5ZM0.5 41.4285V36.2857H1.5V41.4285H0.5ZM0.5 31.1428V26H1.5V31.1428H0.5ZM0.5 20.8571V15.7142H1.5V20.8571H0.5ZM0.5 10.5714V8H1.5V10.5714H0.5ZM0.5 8C0.5 7.52635 0.59436 7.07348 0.765778 6.66011L1.68951 7.04316C1.56757 7.33724 1.5 7.6601 1.5 8H0.5ZM2.66013 4.76578C3.07349 4.59436 3.52634 4.5 4 4.5V5.5C3.6601 5.5 3.33725 5.56756 3.04315 5.6895L2.66013 4.76578ZM4 4.5H6.4375V5.5H4V4.5ZM11.3125 4.5H16.1875V5.5H11.3125V4.5ZM21.0625 4.5H23.5V5.5H21.0625V4.5Z" fill="#616D7B"/>
<path d="M30 5L19 5" stroke="#616D7B"/>
<path d="M26 9L30 5L26 1" stroke="#616D7B" stroke-linecap="square"/>
</svg>
