<svg width="24" height="20" viewBox="0 0 24 20" fill="none" xmlns="http://www.w3.org/2000/svg">
<path d="M4.46172 6.81894C5.40989 6.81894 6.13925 6.05311 6.13925 5.1414C6.13925 4.19323 5.37342 3.46387 4.46172 3.46387C3.51354 3.46387 2.78418 4.2297 2.78418 5.1414C2.78418 6.05311 3.55001 6.81894 4.46172 6.81894Z" fill="#212C30"/>
<path d="M9.0578 14.1869C9.0578 14.1869 9.0578 14.1504 9.0578 14.1869C9.0578 14.1504 9.0578 14.1504 9.0578 14.1869C9.0578 14.1504 9.0578 14.1139 9.02133 14.1139V14.0775C9.02133 14.0775 9.02133 14.041 8.98487 14.041C8.98487 14.041 8.98487 14.0045 8.9484 14.0045C8.9484 14.0045 8.9484 13.968 8.91193 13.968C8.91193 13.968 8.91193 13.9316 8.87546 13.9316C8.87546 13.9316 8.87546 13.8951 8.83899 13.8951L8.80252 13.8586C8.80252 13.8586 8.80252 13.8586 8.76606 13.8222L8.72959 13.7857C8.72959 13.7857 8.72959 13.7857 8.69312 13.7492L8.65665 13.7128C8.65665 13.7128 8.62018 13.7128 8.62018 13.6763C8.62018 13.6763 8.58372 13.6763 8.58372 13.6398C8.58372 13.6398 8.54725 13.6398 8.54725 13.6034C8.54725 13.6034 8.51078 13.6034 8.51078 13.5669C8.51078 13.5669 8.47431 13.5669 8.47431 13.5304H8.43784C8.43784 13.5304 8.40137 13.5304 8.40137 13.494H8.36491H8.32844H8.29197H8.2555H8.21903H8.18257C8.1461 13.494 8.1461 13.494 8.1461 13.494H5.55686V10.1754C5.77567 10.2483 5.99447 10.3212 6.21328 10.3577C7.05205 10.5765 7.92729 10.613 8.76606 10.4306C8.98487 10.3942 9.20367 10.2483 9.34955 10.066C9.49542 9.88361 9.53189 9.62833 9.49542 9.40952C9.42248 8.93544 8.9484 8.60722 8.47431 8.68016C7.52614 8.8625 6.43209 8.68016 5.55686 8.16961C5.48392 7.80492 5.26511 7.47671 5.00983 7.2579C4.71809 7.03909 4.35341 6.92969 3.98872 6.92969C3.07702 6.92969 2.34766 7.65905 2.34766 8.57076V13.6763C2.34766 14.588 3.07702 15.3174 3.98872 15.3174H4.02519H7.48967L8.32844 18.7454C8.43784 19.1465 8.76606 19.4383 9.20367 19.4383C9.27661 19.4383 9.34955 19.4383 9.42248 19.4018C9.64129 19.3289 9.8601 19.2195 9.96951 19.0007C10.0789 18.7818 10.1154 18.563 10.0789 18.3442L9.0578 14.1869Z" fill="#212C30"/>
<path d="M5.19164 15.4987H1.65423V7.62155C1.65423 7.36627 1.43542 7.14746 1.18014 7.14746C0.924864 7.14746 0.706055 7.36627 0.706055 7.62155V19.0361C0.706055 19.2914 0.924864 19.5102 1.18014 19.5102C1.43542 19.5102 1.65423 19.2914 1.65423 19.0361V16.4468H4.71755V19.0361C4.71755 19.2914 4.93636 19.5102 5.19164 19.5102C5.44692 19.5102 5.66573 19.2914 5.66573 19.0361V15.9728C5.66573 15.9363 5.66573 15.8998 5.66573 15.8634C5.59279 15.6445 5.41045 15.4987 5.19164 15.4987Z" fill="#212C30"/>
<path d="M19.4141 6.81894C20.3623 6.81894 21.0917 6.05311 21.0917 5.1414C21.0917 4.19323 20.3258 3.46387 19.4141 3.46387C18.466 3.46387 17.7366 4.2297 17.7366 5.1414C17.7001 6.05311 18.466 6.81894 19.4141 6.81894Z" fill="#212C30"/>
<path d="M19.8519 15.2803C19.8519 15.2803 19.8884 15.2803 19.8519 15.2803C20.7636 15.2803 21.493 14.5509 21.493 13.6392V8.53365C21.493 7.62194 20.7636 6.89258 19.8519 6.89258C19.4872 6.89258 19.1225 7.03845 18.8308 7.25726C18.5391 7.47607 18.3567 7.80428 18.2838 8.16896C17.4085 8.64305 16.3145 8.86186 15.3663 8.67952C14.8922 8.60658 14.4181 8.89833 14.3452 9.40888C14.2723 9.88297 14.564 10.3571 15.0746 10.43C15.8769 10.5759 16.7521 10.5394 17.6273 10.3571C17.8462 10.3206 18.065 10.2477 18.2838 10.1747V13.4933H15.6945H15.6581H15.6216H15.5851H15.5487H15.5122H15.4757H15.4393C15.4393 13.4933 15.4028 13.4933 15.4028 13.5298H15.3663C15.3663 13.5298 15.3298 13.5298 15.3298 13.5663C15.3298 13.5663 15.2934 13.5663 15.2934 13.6027C15.2934 13.6027 15.2569 13.6027 15.2569 13.6392C15.2569 13.6392 15.2204 13.6392 15.2204 13.6757C15.2204 13.6757 15.184 13.6757 15.184 13.7121L15.1475 13.7486C15.1475 13.7486 15.1475 13.7486 15.111 13.7851L15.0746 13.8215C15.0746 13.8215 15.0746 13.8215 15.0381 13.858L15.0016 13.8945C15.0016 13.8945 15.0016 13.9309 14.9652 13.9309C14.9652 13.9309 14.9652 13.9674 14.9287 13.9674C14.9287 13.9674 14.9287 14.0039 14.8922 14.0039C14.8922 14.0039 14.8922 14.0403 14.8558 14.0403C14.8558 14.0403 14.8558 14.0768 14.8193 14.0768V14.1133V14.1497L13.7982 18.2707C13.7253 18.4895 13.7617 18.7447 13.9076 18.9271C14.017 19.1459 14.2358 19.2553 14.4546 19.3282C14.5276 19.3282 14.6005 19.3647 14.6734 19.3647C15.0746 19.3647 15.4393 19.073 15.5487 18.6718L16.3874 15.2438L19.8519 15.2803Z" fill="#212C30"/>
<path d="M22.6955 7.14746C22.4403 7.14746 22.2215 7.36627 22.2215 7.62155V15.4987H18.684C18.4652 15.4987 18.2829 15.6445 18.21 15.8634C18.21 15.8998 18.21 15.9363 18.21 15.9728V19.0361C18.21 19.2914 18.4288 19.5102 18.684 19.5102C18.9393 19.5102 19.1581 19.2914 19.1581 19.0361V16.4468H22.2215V19.0361C22.2215 19.2914 22.4403 19.5102 22.6955 19.5102C22.9508 19.5102 23.1696 19.2914 23.1696 19.0361V7.62155C23.1696 7.3298 22.9508 7.14746 22.6955 7.14746Z" fill="#212C30"/>
<path d="M17.8092 11.7436C17.8092 11.4883 17.5904 11.2695 17.3351 11.2695H6.54049C6.28522 11.2695 6.06641 11.4883 6.06641 11.7436C6.06641 11.9989 6.28522 12.2177 6.54049 12.2177H11.4637V19.0373C11.4637 19.2925 11.6825 19.5113 11.9378 19.5113C12.1931 19.5113 12.4119 19.2925 12.4119 19.0373V12.2177H17.3351C17.5904 12.2177 17.8092 11.9989 17.8092 11.7436Z" fill="#212C30"/>
<path d="M8.21856 4.55789C8.25503 4.55789 8.2915 4.55789 8.2915 4.59436C8.2915 4.63083 8.2915 4.6673 8.2915 4.6673L7.92682 5.21432L9.05733 4.55789H9.0938H11.683C11.9748 4.55789 12.1936 4.33908 12.1936 4.04734V3.57325H12.1571C11.756 3.57325 11.4642 3.24504 11.4642 2.88036V1.12988H8.21856C7.92682 1.12988 7.70801 1.34869 7.70801 1.64044V4.04734C7.74448 4.33908 7.96328 4.55789 8.21856 4.55789Z" fill="#212C30"/>
<path d="M12.1573 3.35507H14.7466C14.7831 3.35507 14.7831 3.35507 14.8195 3.35507L15.8406 3.97503L15.5489 3.53741C15.5124 3.50095 15.5124 3.46448 15.5489 3.42801C15.5854 3.39154 15.6218 3.35507 15.6583 3.35507C15.9136 3.35507 16.1324 3.13626 16.1324 2.88099V0.474086C16.1324 0.218809 15.9136 0 15.6583 0H12.1938C11.9385 0 11.7197 0.218809 11.7197 0.474086V2.88099C11.7197 3.13626 11.9021 3.35507 12.1573 3.35507Z" fill="#212C30"/>
</svg>
