<svg width="18" height="20" viewBox="0 0 18 20" fill="none" xmlns="http://www.w3.org/2000/svg">
<path d="M16.9262 1.6416H14.4464V2.55331H16.4886V18.5993H5.36581V18.3076C5.11053 18.2346 4.81878 18.1252 4.4541 17.9793V19.0369C4.4541 19.2922 4.67291 19.4745 4.89172 19.4745H16.8898C17.145 19.4745 17.3274 19.2557 17.3274 19.0369V2.11569C17.4003 1.86041 17.1815 1.6416 16.9262 1.6416Z" fill="#212C30"/>
<path d="M5.36449 2.55331H7.40671V1.6416H4.92688C4.6716 1.6416 4.48926 1.86041 4.48926 2.07922V4.96021C4.81747 4.77786 5.10922 4.52259 5.40096 4.23084V2.55331H5.36449Z" fill="#212C30"/>
<path d="M8.57467 2.95392C8.75701 3.0998 8.97582 3.17273 9.2311 3.17273H12.6226C12.8779 3.17273 13.0967 3.0998 13.2791 2.95392C13.5343 2.73511 13.7167 2.44337 13.7167 2.07869V1.714C13.7167 1.53166 13.6073 1.34932 13.4614 1.27639C13.3885 1.23992 13.2791 1.20345 13.1697 1.20345H12.1121C12.1121 0.547023 11.5651 0 10.9086 0C10.2522 0 9.70519 0.547023 9.70519 1.20345H8.64761C8.5382 1.20345 8.46527 1.23992 8.35586 1.27639C8.20999 1.38579 8.10059 1.53166 8.10059 1.714V2.04222C8.13705 2.4069 8.31939 2.73511 8.57467 2.95392ZM10.9451 0.729364C11.2368 0.729364 11.4557 0.948173 11.4557 1.23992C11.4557 1.53166 11.2004 1.714 10.9451 1.714C10.6534 1.714 10.4345 1.4952 10.4345 1.20345C10.4345 0.911704 10.6534 0.729364 10.9451 0.729364Z" fill="#212C30"/>
<path d="M15.6862 14.6963H11.0912C11.0183 14.8422 10.9453 14.988 10.8359 15.0974H15.6862V14.6963Z" fill="#212C30"/>
<path d="M9.04852 17.1036C9.01205 17.1401 8.97559 17.1401 8.97559 17.1765H15.6493V16.7754H9.48614C9.34027 16.8848 9.1944 16.9942 9.04852 17.1036Z" fill="#212C30"/>
<path d="M15.7581 6.49121H15.6852H12.3301C12.3301 6.63708 12.3301 6.78296 12.3301 6.89236H15.6852H15.7581V6.49121Z" fill="#212C30"/>
<path d="M15.7597 8.53418H12.2953C12.2953 8.68005 12.2953 8.82593 12.2588 8.93533H15.7597V8.53418Z" fill="#212C30"/>
<path d="M15.722 10.6123H12.1117C12.1117 10.7582 12.0752 10.9041 12.0752 11.0135H15.722V10.6123Z" fill="#212C30"/>
<path d="M15.6856 13.0554V12.6543H11.8565C11.82 12.8002 11.7835 12.946 11.7471 13.0554H15.6856Z" fill="#212C30"/>
<path d="M7.29766 4.85037H15.7218V4.44922H6.78711C6.96945 4.59509 7.11532 4.74096 7.29766 4.85037Z" fill="#212C30"/>
<path d="M5.40178 17.6869C5.47472 17.7234 5.51118 17.7234 5.58412 17.7234H5.62059C5.65706 17.7234 5.69353 17.7598 5.72999 17.7598C5.76646 17.7598 5.76646 17.7598 5.80293 17.7598C5.87587 17.7963 5.98527 17.7963 6.02174 17.7963C6.05821 17.7963 6.09468 17.7963 6.13114 17.7598C6.16761 17.7598 6.24055 17.7234 6.27702 17.7234C6.31348 17.7234 6.34995 17.6869 6.38642 17.6869C6.45936 17.6504 6.53229 17.6504 6.60523 17.614C6.67817 17.5775 6.7511 17.5775 6.86051 17.541C7.15225 17.4316 7.48047 17.2857 7.84515 17.1034C8.06396 16.994 8.28277 16.8481 8.50158 16.7023C8.57451 16.6658 8.61098 16.6293 8.68392 16.5564C9.12154 16.2282 9.44975 15.8635 9.74149 15.5353C9.74149 15.5353 9.74149 15.5353 9.74149 15.4988C9.77796 15.4259 9.8509 15.3894 9.88737 15.3165L9.92383 15.28C9.99677 15.2071 10.0332 15.1341 10.1062 15.0612C10.252 14.8424 10.3615 14.66 10.4709 14.4777C10.5073 14.4412 10.5073 14.4048 10.5438 14.3683C10.5803 14.3318 10.6167 14.2589 10.6167 14.2224C10.6532 14.1495 10.6897 14.0765 10.7261 14.0401C10.7626 13.9671 10.7626 13.9307 10.7991 13.8942C10.7991 13.8577 10.8355 13.8577 10.8355 13.8213C10.8355 13.8213 10.8355 13.7848 10.872 13.7848C10.872 13.7848 10.872 13.7483 10.9085 13.7483C10.9085 13.7483 10.9085 13.7483 10.9085 13.7119C10.9085 13.7119 10.9085 13.6754 10.9449 13.6754C10.9449 13.6389 10.9814 13.6025 10.9814 13.566C11.0179 13.4566 11.0908 13.3107 11.1273 13.2013C11.1273 13.1648 11.1638 13.0919 11.1638 13.0554C11.1638 13.0554 11.1638 13.0554 11.1638 13.019C11.2002 12.8731 11.2367 12.7637 11.2732 12.6178C11.3096 12.5084 11.3096 12.3625 11.3461 12.2531C11.419 11.8885 11.4555 11.4508 11.5284 10.9767C11.5284 10.8309 11.5649 10.7215 11.5649 10.5756C11.5649 10.5391 11.5649 10.4662 11.5649 10.3933C11.5649 10.2839 11.6014 10.1744 11.6014 10.065C11.6014 9.95564 11.6378 9.80977 11.6378 9.70036C11.6378 9.62742 11.6378 9.59096 11.6378 9.51802C11.6378 9.33568 11.6743 9.18981 11.6743 9.00747C11.7108 8.67925 11.7108 8.35104 11.7472 8.02282C11.7472 7.94989 11.7472 7.87695 11.7472 7.76755C11.7837 7.07465 11.7837 6.41822 11.7837 5.79827C11.7837 5.79827 11.7837 5.79827 11.7472 5.79827C11.7472 5.79827 11.7472 5.79827 11.7108 5.79827C11.7108 5.79827 11.7108 5.79827 11.6743 5.79827C11.6743 5.79827 11.6743 5.79827 11.6378 5.79827C11.6378 5.79827 11.6378 5.79827 11.6014 5.79827H11.5649H11.5284H11.492H11.4555H11.419H11.3826H11.3461C11.3096 5.79827 11.2732 5.83473 11.2367 5.83473H11.2002C11.2002 5.83473 11.2002 5.83473 11.1638 5.83473H11.1273C11.1273 5.83473 11.1273 5.83473 11.0908 5.83473H11.0543C11.0543 5.83473 11.0543 5.83473 11.0179 5.83473H10.9814C10.9814 5.83473 10.9814 5.83473 10.9449 5.83473C10.9085 5.83473 10.9085 5.83473 10.872 5.83473C10.8355 5.83473 10.8355 5.83473 10.7991 5.83473C10.7626 5.83473 10.7626 5.83473 10.7261 5.83473C10.7261 5.83473 10.7261 5.83473 10.6897 5.83473H10.6532C10.6532 5.83473 10.6532 5.83473 10.6167 5.83473H10.5803H10.5438H10.5073C10.5073 5.83473 10.5073 5.83473 10.4709 5.83473C10.4709 5.83473 10.4344 5.83473 10.3979 5.83473C10.3979 5.83473 10.3979 5.83473 10.3615 5.83473C10.325 5.83473 10.325 5.83473 10.2885 5.83473C10.252 5.83473 10.252 5.83473 10.2156 5.83473C10.2156 5.83473 10.2156 5.83473 10.1791 5.83473C10.1426 5.83473 10.1426 5.83473 10.1062 5.83473H10.0697H10.0332H9.99677H9.9603H9.92383C9.92383 5.83473 9.88737 5.83473 9.8509 5.83473H9.81443C9.77796 5.83473 9.77796 5.83473 9.74149 5.83473C9.70503 5.83473 9.70503 5.83473 9.66856 5.83473C9.66856 5.83473 9.66856 5.83473 9.63209 5.83473H9.59562H9.55915H9.52269H9.48622H9.44975C9.44975 5.83473 9.44975 5.83473 9.41328 5.83473C9.37681 5.83473 9.37681 5.83473 9.34034 5.83473C9.30388 5.83473 9.30388 5.83473 9.26741 5.83473C9.26741 5.83473 9.26741 5.83473 9.23094 5.83473C9.19447 5.83473 9.19447 5.83473 9.158 5.83473H9.12153H9.08507H9.0486H9.01213C9.01213 5.83473 9.01213 5.83473 8.97566 5.83473C8.93919 5.83473 8.93919 5.83473 8.90273 5.83473C8.86626 5.83473 8.82979 5.83473 8.82979 5.83473C8.79332 5.83473 8.79332 5.83473 8.75685 5.83473C8.75685 5.83473 8.75685 5.83473 8.72039 5.83473C8.68392 5.83473 8.68392 5.83473 8.64745 5.83473H8.61098C8.57451 5.83473 8.57451 5.83473 8.53804 5.83473H8.50158C8.46511 5.83473 8.46511 5.83473 8.42864 5.83473C8.42864 5.83473 8.42864 5.83473 8.39217 5.83473C8.31923 5.83473 8.28277 5.79827 8.20983 5.79827C8.20983 5.79827 8.20983 5.79827 8.17336 5.79827C8.13689 5.79827 8.13689 5.79827 8.10043 5.7618H8.06396C8.02749 5.7618 8.02749 5.7618 7.99102 5.72533H7.95455C7.91809 5.72533 7.91808 5.72533 7.88162 5.68886H7.84515C7.80868 5.68886 7.80868 5.68886 7.77221 5.65239C7.77221 5.65239 7.77221 5.65239 7.73574 5.65239C7.69928 5.65239 7.66281 5.61592 7.66281 5.61592C7.66281 5.61592 7.66281 5.61592 7.62634 5.61592C7.58987 5.61592 7.58987 5.57946 7.5534 5.57946H7.51693C7.48047 5.57946 7.48047 5.57946 7.444 5.54299H7.40753C7.40753 5.54299 7.37106 5.54299 7.37106 5.50652H7.33459C7.29813 5.50652 7.29813 5.47005 7.26166 5.47005H7.22519C7.18872 5.47005 7.15225 5.43358 7.15225 5.43358C7.11578 5.39712 7.07932 5.39712 7.04285 5.36065C7.00638 5.32418 6.96991 5.32418 6.93344 5.28771C6.82404 5.21477 6.71463 5.14184 6.6417 5.0689C6.56876 5.03243 6.53229 4.9595 6.45936 4.92303C6.38642 4.88656 6.34995 4.81362 6.27702 4.77716C6.20408 4.70422 6.13114 4.63128 6.05821 4.55835C6.02174 4.52188 6.02174 4.52188 5.98527 4.48541C5.91233 4.41247 5.8394 4.33954 5.80293 4.2666C5.72999 4.33954 5.69353 4.41247 5.62059 4.48541C5.58412 4.52188 5.58412 4.52188 5.54765 4.55835C5.47472 4.63128 5.40178 4.70422 5.32884 4.77716C5.29238 4.81362 5.21944 4.85009 5.18297 4.88656C5.18297 4.88656 5.1465 4.88656 5.1465 4.92303C5.07357 4.9595 5.0371 5.03243 4.96416 5.0689C4.85476 5.14184 4.78182 5.21477 4.67242 5.28771C4.63595 5.32418 4.59948 5.32418 4.56301 5.36065C4.52654 5.39712 4.49008 5.39712 4.45361 5.43358C4.38067 5.47005 4.3442 5.50652 4.27127 5.50652H4.2348C4.2348 5.50652 4.19833 5.50652 4.19833 5.54299H4.16186C4.16186 5.54299 4.12539 5.54299 4.12539 5.57946H4.08893C4.05246 5.57946 4.05246 5.57946 4.01599 5.61592C4.01599 5.61592 4.01599 5.61592 3.97952 5.61592C3.94305 5.61592 3.90658 5.65239 3.90658 5.65239C3.90658 5.65239 3.90658 5.65239 3.87012 5.65239C3.83365 5.65239 3.83365 5.65239 3.79718 5.68886H3.76071C3.76071 5.68886 3.72424 5.68886 3.72424 5.72533H3.68778H3.65131H3.61484C3.57837 5.72533 3.57837 5.72533 3.5419 5.72533H3.50543C3.46897 5.72533 3.46897 5.72533 3.4325 5.7618C3.39603 5.7618 3.39603 5.7618 3.35956 5.79827H3.32309H3.28663H3.25016H3.21369H3.17722H3.14075H3.10428C3.06782 5.79827 3.06782 5.79827 3.03135 5.79827C3.03135 5.79827 3.03135 5.79827 2.99488 5.79827C2.95841 5.79827 2.95841 5.79827 2.92194 5.79827C2.92194 5.79827 2.92194 5.79827 2.88547 5.79827C2.84901 5.79827 2.84901 5.79827 2.81254 5.79827H2.77607H2.7396H2.70313H2.66667H2.6302H2.59373C2.59373 5.79827 2.59373 5.79827 2.55726 5.79827C2.52079 5.79827 2.52079 5.79827 2.48432 5.79827C2.44786 5.79827 2.44786 5.79827 2.41139 5.79827C2.41139 5.79827 2.41139 5.79827 2.37492 5.79827H2.33845H2.30198H2.26552C2.44786 6.19942 2.44786 6.19942 2.44786 6.19942H2.41139C2.41139 6.19942 2.41139 6.19942 2.37492 6.19942C2.33845 6.19942 2.33845 6.19942 2.30198 6.19942C2.26552 6.19942 2.26552 6.19942 2.22905 6.19942H2.19258C2.15611 6.19942 2.15611 6.19942 2.15611 6.19942C2.08317 6.19942 2.08317 6.19942 2.08317 6.19942H2.04671H2.01024H1.97377H1.9373H1.90083H1.86437C1.8279 6.19942 1.8279 6.19942 1.79143 6.19942C1.75496 6.19942 1.75496 6.19942 1.71849 6.19942C1.71849 6.19942 1.71849 6.19942 1.68202 6.19942H1.64556H1.60909H1.57262H1.53615H1.49968H1.46322H1.42675H1.39028H1.35381C1.35381 6.19942 1.35381 6.19942 1.31734 6.19942C1.28087 6.19942 1.28087 6.19942 1.24441 6.19942C1.24441 6.19942 1.24441 6.19942 1.20794 6.19942H1.17147C1.17147 6.19942 1.17147 6.19942 1.135 6.19942H1.09853C1.09853 6.19942 1.09853 6.19942 1.06207 6.19942H1.0256C1.0256 6.19942 1.0256 6.19942 0.989129 6.19942H0.952661C0.952661 6.19942 0.952661 6.19942 0.916193 6.19942H0.879725C0.879725 6.19942 0.879725 6.19942 0.843257 6.19942H0.806788H0.77032C0.77032 6.19942 0.77032 6.19942 0.733852 6.19942H0.697384C0.697384 6.19942 0.697384 6.19942 0.660916 6.19942H0.624447C0.624447 6.19942 0.624447 6.19942 0.587979 6.19942H0.551511C0.551511 6.19942 0.551511 6.19942 0.515043 6.19942H0.478575H0.442107H0.405638C0.405638 6.19942 0.405638 6.19942 0.36917 6.19942C0.36917 6.19942 0.36917 6.19942 0.332702 6.19942C0.332702 6.19942 0.332702 6.19942 0.296234 6.19942C0.296234 6.19942 0.296234 6.19942 0.259766 6.19942C0.259766 6.45469 0.259766 6.74644 0.259766 7.03818C0.259766 7.18406 0.259766 7.32993 0.259766 7.4758C0.259766 7.62167 0.259766 7.76755 0.259766 7.91342C0.259766 8.05929 0.259766 8.20517 0.296234 8.38751C0.296234 8.46044 0.296234 8.56985 0.296234 8.64278C0.296234 8.86159 0.332702 9.11687 0.332702 9.37215C0.332702 9.44508 0.332702 9.55449 0.332702 9.62742C0.332702 9.70036 0.332702 9.80977 0.36917 9.8827C0.405638 10.3203 0.442107 10.7215 0.478575 11.0862C0.478575 11.0862 0.478575 11.0862 0.478575 11.1226C0.478575 11.2685 0.515043 11.4144 0.515043 11.5602C0.515043 11.6332 0.515043 11.6696 0.551511 11.7426C0.551511 11.8885 0.587979 11.9979 0.587979 12.1073C0.587979 12.1802 0.587979 12.2167 0.624447 12.2896C0.624447 12.3625 0.660916 12.4355 0.660916 12.5084C0.660916 12.5449 0.660916 12.6178 0.697384 12.6543C0.697384 12.6908 0.697384 12.7637 0.733852 12.8002C0.77032 12.9825 0.806788 13.1284 0.843257 13.3107C0.843257 13.3472 0.843257 13.3472 0.843257 13.3836C0.843257 13.4201 0.879725 13.4931 0.879725 13.5295C0.879725 13.6025 0.916193 13.6389 0.952661 13.7119C0.952661 13.7483 0.989129 13.7848 0.989129 13.8577C1.0256 13.9671 1.06207 14.0765 1.135 14.1859C1.17147 14.2589 1.20794 14.3683 1.28087 14.5142C1.28087 14.5506 1.31734 14.5871 1.35381 14.6236C1.35381 14.2224 1.35381 14.2589 1.39028 14.2954C1.42675 14.3683 1.46322 14.4048 1.49968 14.4777C1.49968 14.5142 1.53615 14.5142 1.53615 14.5506C1.64556 14.7694 1.8279 14.9882 1.97377 15.2435C2.01024 15.3165 2.04671 15.3529 2.11964 15.4259C2.15611 15.4623 2.19258 15.5353 2.22905 15.5717L2.26552 15.6082C2.55726 15.9364 2.88547 16.3011 3.32309 16.6293C3.72424 16.9211 4.12539 17.1763 4.49008 17.3222C4.81829 17.5046 5.1465 17.614 5.40178 17.6869ZM1.97377 13.3472C1.60909 12.5449 1.35381 10.7215 1.20794 6.96525C1.79143 7.11112 3.4325 7.40287 5.00063 6.52763C5.40178 6.30882 5.72999 6.05354 5.98527 5.79827C6.24055 6.05354 6.56876 6.30882 6.96991 6.52763C8.53804 7.40287 10.1791 7.11112 10.7626 6.96525C10.6532 10.7215 10.3615 12.5449 9.99677 13.3472C8.79332 16.1188 6.45936 16.6293 5.98527 16.7387C5.51118 16.6293 3.17722 16.1188 1.97377 13.3472Z" fill="#212C30"/>
<path d="M7.00619 13.53V12.2536H8.28258C8.46492 12.2536 8.64726 12.1077 8.64726 11.8889V10.5761C8.64726 10.3937 8.50139 10.2114 8.28258 10.2114H7.00619V8.93499C7.00619 8.75265 6.86032 8.57031 6.64151 8.57031H5.32866C5.14632 8.57031 4.96397 8.71619 4.96397 8.93499V10.2114H3.72406C3.54172 10.2114 3.35938 10.3573 3.35938 10.5761V11.8889C3.35938 12.0713 3.50525 12.2536 3.72406 12.2536H5.00044V13.53C5.00044 13.7123 5.14632 13.8947 5.36513 13.8947H6.67798C6.86032 13.8947 7.00619 13.7488 7.00619 13.53Z" fill="#212C30"/>
</svg>
