<svg width="13" height="13" viewBox="0 0 13 13" fill="none" xmlns="http://www.w3.org/2000/svg">
<path d="M10.088 12.0591H2.84213C1.50665 12.0591 0.423828 10.9763 0.423828 9.64077V2.84604C0.423828 1.51056 1.50665 0.427734 2.84213 0.427734H10.088C11.4235 0.427734 12.5063 1.51056 12.5063 2.84604V9.64077C12.5063 10.9763 11.4235 12.0591 10.088 12.0591ZM2.84213 1.29399C1.9849 1.29399 1.29009 1.98881 1.29009 2.84604V9.64077C1.29009 10.498 1.9849 11.1928 2.84213 11.1928H10.088C10.9453 11.1928 11.6401 10.498 11.6401 9.64077V2.84604C11.6401 1.98881 10.9453 1.29399 10.088 1.29399H2.84213Z" fill="#E7E7E8"/>
<path d="M6.46871 9.47843C4.68205 9.47843 3.23828 8.02564 3.23828 6.248C3.23828 4.46134 4.69107 3.01758 6.46871 3.01758C8.25537 3.01758 9.69913 4.47037 9.69913 6.248C9.69913 8.02564 8.24634 9.47843 6.46871 9.47843ZM6.46871 3.87481C5.16029 3.87481 4.09552 4.93959 4.09552 6.248C4.09552 7.55642 5.16029 8.62119 6.46871 8.62119C7.77712 8.62119 8.8419 7.55642 8.8419 6.248C8.8419 4.93959 7.77712 3.87481 6.46871 3.87481Z" fill="#E7E7E8"/>
<path d="M10.1214 3.38725C10.4944 3.23277 10.6715 2.80521 10.517 2.43226C10.3625 2.05931 9.93496 1.88221 9.56201 2.03669C9.18906 2.19117 9.01195 2.61874 9.16644 2.99169C9.32092 3.36464 9.7485 3.54174 10.1214 3.38725Z" fill="#E7E7E8"/>
</svg>
