<svg width="8" height="8" viewBox="0 0 8 8" fill="none" xmlns="http://www.w3.org/2000/svg">
<path d="M3.54192 0.564797C3.68611 0.092958 4.35408 0.092958 4.49827 0.564798L5.03904 2.33444C5.10329 2.54471 5.29735 2.68832 5.51721 2.68832H7.32939C7.8063 2.68832 8.01247 3.29245 7.63507 3.58401L6.11725 4.75655C5.95266 4.8837 5.88397 5.09945 5.94475 5.29835L6.51189 7.15427C6.65432 7.62038 6.11374 7.99403 5.72804 7.69607L4.32577 6.61279C4.14572 6.4737 3.89447 6.4737 3.71442 6.61279L2.31215 7.69607C1.92645 7.99403 1.38587 7.62038 1.52831 7.15427L2.09544 5.29835C2.15622 5.09945 2.08753 4.8837 1.92294 4.75655L0.405127 3.58401C0.027722 3.29245 0.233895 2.68832 0.7108 2.68832H2.52298C2.74284 2.68832 2.9369 2.54471 3.00115 2.33444L3.54192 0.564797Z" fill="#FAC04B"/>
</svg>
