<svg xmlns="http://www.w3.org/2000/svg" xmlns:xlink="http://www.w3.org/1999/xlink" width="96" height="2916" viewBox="0 0 96 2916"><svg width="62" height="54" viewBox="0 0 62 54" fill="none" id="advantage" y="0"><path d="M10.3 18.7c2.6 0 4.6-2.1 4.6-4.6 0-2.6-2.1-4.6-4.6-4.6-2.6 0-4.6 2.1-4.6 4.6 0 2.5 2.1 4.6 4.6 4.6zM22.9 38.9s0-.1 0 0c0-.1 0-.1 0 0 0-.1 0-.2-.1-.2v-.1s0-.1-.1-.1c0 0 0-.1-.1-.1 0 0 0-.1-.1-.1 0 0 0-.1-.1-.1 0 0 0-.1-.1-.1l-.1-.1-.1-.1-.1-.1-.1-.1-.1-.1s-.1 0-.1-.1c0 0-.1 0-.1-.1 0 0-.1 0-.1-.1 0 0-.1 0-.1-.1 0 0-.1 0-.1-.1h-.1s-.1 0-.1-.1h-7.8v-9.1c.6.2 1.2.4 1.8.5 2.3.6 4.7.7 7 .2.6-.1 1.2-.5 1.6-1 .4-.5.5-1.2.4-1.8-.2-1.3-1.5-2.2-2.8-2-2.6.5-5.6 0-8-1.4-.2-1-.8-1.9-1.5-2.5C11 19.3 10 19 9 19c-2.5 0-4.5 2-4.5 4.5v14C4.5 40 6.5 42 9 42h9.6l2.3 9.4c.3 1.1 1.2 1.9 2.4 1.9.2 0 .4 0 .6-.1.6-.2 1.2-.5 1.5-1.1.3-.6.4-1.2.3-1.8l-2.8-11.4z" fill="#212C30"></path><path d="M12.3 42.5H2.6V20.9c0-.7-.6-1.3-1.3-1.3-.7 0-1.3.6-1.3 1.3v31.3c0 .7.6 1.3 1.3 1.3.7 0 1.3-.6 1.3-1.3v-7.1H11v7.1c0 .7.6 1.3 1.3 1.3.7 0 1.3-.6 1.3-1.3v-8.4-.3c-.2-.6-.7-1-1.3-1zM51.3 18.7c2.6 0 4.6-2.1 4.6-4.6 0-2.6-2.1-4.6-4.6-4.6-2.6 0-4.6 2.1-4.6 4.6-.1 2.5 2 4.6 4.6 4.6zM52.5 41.9s.1 0 0 0c2.5 0 4.5-2 4.5-4.5v-14c0-2.5-2-4.5-4.5-4.5-1 0-2 .4-2.8 1-.8.6-1.3 1.5-1.5 2.5-2.4 1.3-5.4 1.9-8 1.4-1.3-.2-2.6.6-2.8 2-.2 1.3.6 2.6 2 2.8 2.2.4 4.6.3 7-.2.6-.1 1.2-.3 1.8-.5V37H40.4s-.1 0-.1.1h-.1s-.1 0-.1.1c0 0-.1 0-.1.1 0 0-.1 0-.1.1 0 0-.1 0-.1.1 0 0-.1 0-.1.1l-.1.1-.1.1-.1.1-.1.1-.1.1s0 .1-.1.1c0 0 0 .1-.1.1 0 0 0 .1-.1.1 0 0 0 .1-.1.1 0 0 0 .1-.1.1v.2l-2.8 11.3c-.2.6-.1 1.3.3 1.8.3.6.9.9 1.5 1.1.2 0 .4.1.6.1 1.1 0 2.1-.8 2.4-1.9l2.3-9.4 9.5.1z" fill="#212C30"></path><path d="M60.3 19.6c-.7 0-1.3.6-1.3 1.3v21.6h-9.7c-.6 0-1.1.4-1.3 1V52.2c0 .7.6 1.3 1.3 1.3.7 0 1.3-.6 1.3-1.3v-7.1H59v7.1c0 .7.6 1.3 1.3 1.3.7 0 1.3-.6 1.3-1.3V20.9c0-.8-.6-1.3-1.3-1.3zM46.9 32.2c0-.7-.6-1.3-1.3-1.3H16c-.7 0-1.3.6-1.3 1.3 0 .7.6 1.3 1.3 1.3h13.5v18.7c0 .7.6 1.3 1.3 1.3.7 0 1.3-.6 1.3-1.3V33.5h13.5c.7 0 1.3-.6 1.3-1.3zM20.6 12.5c.1 0 .2 0 .2.1v.2l-1 1.5 3.1-1.8H30.1c.8 0 1.4-.6 1.4-1.4V9.8h-.1c-1.1 0-1.9-.9-1.9-1.9V3.1h-8.9c-.8 0-1.4.6-1.4 1.4v6.6c.1.8.7 1.4 1.4 1.4z" fill="#212C30"></path><path d="M31.4 9.2h7.3l2.8 1.7-.8-1.2c-.1-.1-.1-.2 0-.3.1-.1.2-.2.3-.2.7 0 1.3-.6 1.3-1.3V1.3C42.3.6 41.7 0 41 0h-9.5c-.7 0-1.3.6-1.3 1.3v6.6c0 .7.5 1.3 1.2 1.3z" fill="#212C30"></path></svg><svg width="50" height="54" viewBox="0 0 50 54" fill="none" id="advantage2" y="54"><path d="M35.3 43.8L30.4 39l-1.2 1.2 6.6 6.6 6.3-12.6-1.6-.8-5.2 10.4zM22 28.2H5.5v2.2H22v-2.2zM24.3 24H5.5v2.2h18.8V24zM27.9 19.8H5.5V22h22.4v-2.2zM5.5 44.8V47h18.7c-.4-.7-.8-1.4-1.1-2.2H5.5z" fill="#212C30"></path><path d="M40.1 27.5V6.9c0-1.4-1.1-2.5-2.5-2.5H11.1v-2c0-.1.1-.2.2-.2h30.8c.1 0 .2.1.2.2v26.1c.8.5 1.5 1 2.2 1.6V2.5C44.5 1.1 43.4 0 42 0H11.4C10 0 8.9 1.1 8.9 2.5v2h-2C5.5 4.5 4.4 5.6 4.4 7v2h-2C1.1 8.9 0 10 0 11.4V51c0 1.4 1.1 2.5 2.5 2.5h30.8c.3 0 .5 0 .7-.1.6.1 1.1.1 1.7.1 7.4 0 13.4-6 13.4-13.4-.1-5.8-3.8-10.8-9-12.6zM6.7 6.9c0-.1.1-.2.2-.2h30.8c.1 0 .2.1.2.2v20c-.7-.1-1.5-.2-2.2-.2h-.3.3V11.4c0-1.4-1.1-2.5-2.5-2.5H6.7v-2zm28.5 19.8h-.1c0 .1 0 .1.1 0zM2.5 51.3c-.1 0-.2-.1-.2-.2V11.4c0-.1.1-.2.2-.2h30.8c.1 0 .2.1.2.2V27c-4.3.7-7.9 3.5-9.8 7.3 0 0 0-.1.1-.1v-1.8H5.5v2.2h18v-.1c-.3.6-.6 1.3-.8 2H5.5v2.2h16.9c0 .5-.1.9-.1 1.4v.5H5.5v2.2h16.9v-1c.6 4.7 3.8 8.7 8 10.5-.7-.3-1.5-.7-2.1-1.1H2.5v.1zm28.4 1.3h.1-.1zm-.4-.2c.1 0 .1 0 .2.1-.1 0-.1 0-.2-.1zm5.2-1.6C29.8 50.8 25 46 25 40.1c0-5.9 4.8-10.7 10.7-10.7 5.9 0 10.7 4.8 10.7 10.7 0 5.9-4.8 10.7-10.7 10.7z" fill="#212C30"></path></svg><svg width="47" height="54" viewBox="0 0 47 54" fill="none" id="advantage3" y="108"><path d="M45.7 4.5h-6.8V7h5.6v44H14v-.8c-.7-.2-1.5-.5-2.5-.9v2.9c0 .7.6 1.2 1.2 1.2h32.9c.7 0 1.2-.6 1.2-1.2V5.8c.2-.7-.4-1.3-1.1-1.3zM14 7h5.6V4.5h-6.8c-.7 0-1.2.6-1.2 1.2v7.9c.9-.5 1.7-1.2 2.5-2V7H14zM22.8 8.1c.5.4 1.1.6 1.8.6h9.3c.7 0 1.3-.2 1.8-.6.7-.6 1.2-1.4 1.2-2.4v-1c0-.5-.3-1-.7-1.2-.2-.1-.5-.2-.8-.2h-2.9C32.5 1.5 31 0 29.2 0c-1.8 0-3.3 1.5-3.3 3.3H23c-.3 0-.5.1-.8.2-.4.3-.7.7-.7 1.2v.9c.1 1 .6 1.9 1.3 2.5zM29.3 2c.8 0 1.4.6 1.4 1.4 0 .8-.7 1.3-1.4 1.3-.8 0-1.4-.6-1.4-1.4 0-.8.6-1.3 1.4-1.3z" fill="#212C30"></path><path d="M42.3 40.3H29.7c-.2.4-.4.8-.7 1.1h13.3v-1.1zM24.1 46.9c-.1.1-.2.1-.2.2h18.3V46H25.3l-1.2.9zM42.5 17.8H33.1v1.1H42.5v-1.1zM42.5 23.4H33c0 .4 0 .8-.1 1.1h9.6v-1.1zM42.4 29.1h-9.9c0 .4-.1.8-.1 1.1h10v-1.1zM42.3 35.8v-1.1H31.8c-.1.4-.2.8-.3 1.1h10.8zM19.3 13.3h23.1v-1.1H17.9c.5.4.9.8 1.4 1.1z" fill="#212C30"></path><path d="M14.1 48.5c.2.1.3.1.5.1h.1c.1 0 .2.1.3.1h.2c.2.1.5.1.6.1.1 0 .2 0 .3-.1.1 0 .3-.1.4-.1.1 0 .2-.1.3-.1.2-.1.4-.1.6-.2.2-.1.4-.1.7-.2.8-.3 1.7-.7 2.7-1.2.6-.3 1.2-.7 1.8-1.1.2-.1.3-.2.5-.4 1.2-.9 2.1-1.9 2.9-2.8v-.1c.1-.2.3-.3.4-.5l.1-.1c.2-.2.3-.4.5-.6.4-.6.7-1.1 1-1.6.1-.1.1-.2.2-.3.1-.1.2-.3.2-.4.1-.2.2-.4.3-.5.1-.2.1-.3.2-.4 0-.1.1-.1.1-.2 0 0 0-.1.1-.1 0 0 0-.1.1-.1v-.1s0-.1.1-.1c0-.1.1-.2.1-.3.1-.3.3-.7.4-1 0-.1.1-.3.1-.4v-.1c.1-.4.2-.7.3-1.1.1-.3.1-.7.2-1 .2-1 .3-2.2.5-3.5 0-.4.1-.7.1-1.1v-.5c0-.3.1-.6.1-.9 0-.3.1-.7.1-1v-.5c0-.5.1-.9.1-1.4.1-.9.1-1.8.2-2.7v-.7c.1-1.9.1-3.7.1-5.4h-.1-.1-.1-.1H30.4c-.1 0-.2.1-.3.1H30h-.2-.2-.2-.7-.2-.4-.1-.2-.5H26.5h-.7-.6-.5-.7-.7H22.4h-.1c-.2 0-.3-.1-.5-.1h-.1c-.1 0-.1 0-.2-.1h-.1c-.1 0-.1 0-.2-.1h-.1c-.1 0-.1 0-.2-.1h-.1c-.1 0-.1 0-.2-.1h-.1c-.1 0-.2-.1-.2-.1h-.1c-.1 0-.1-.1-.2-.1h-.1c-.1 0-.1 0-.2-.1h-.1s-.1 0-.1-.1h-.1c-.1 0-.1-.1-.2-.1h-.1c-.1 0-.2-.1-.2-.1-.1-.1-.2-.1-.3-.2-.1-.1-.2-.1-.3-.2-.3-.2-.6-.4-.8-.6-.2-.1-.3-.3-.5-.4-.2-.1-.3-.3-.5-.4l-.6-.6-.2-.2c-.2-.2-.4-.4-.5-.6-.2.2-.3.4-.5.6l-.2.2-.6.6c-.1.1-.3.2-.4.3 0 0-.1 0-.1.1-.2.1-.3.3-.5.4-.3.2-.5.4-.8.6-.1.1-.2.1-.3.2-.1.1-.2.1-.3.2-.2.1-.3.2-.5.2h-.1s-.1 0-.1.1h-.1s-.1 0-.1.1h-.1c-.1 0-.1 0-.2.1h-.1c-.1 0-.2.1-.2.1h-.1c-.1 0-.1 0-.2.1h-.1s-.1 0-.1.1h-.6c-.1 0-.1 0-.2.1-.1 0-.1 0-.2.1H7.6 7.3 6.4h-.5-.4L6 17h-.1H4 3 2.7h-.2-.2-.2-.2-.2H1.4h-.2H1 .8.4.3.2.1 0v4.7c0 .4 0 .8.1 1.3v.7c0 .6.1 1.3.1 2v.7c0 .2 0 .5.1.7.1 1.2.2 2.3.3 3.3v.1c0 .4.1.8.1 1.2 0 .2 0 .3.1.5 0 .4.1.7.1 1 0 .2 0 .3.1.5 0 .2.1.4.1.6 0 .1 0 .3.1.4 0 .1 0 .3.1.4.1.5.2.9.3 1.4v.2c0 .1.1.3.1.4 0 .2.1.3.2.5 0 .1.1.2.1.4.1.3.2.6.4.9.1.2.2.5.4.9 0 .1.1.2.2.3 0-1.1 0-1 .1-.9.1.2.2.3.3.5 0 .1.1.1.1.2.3.6.8 1.2 1.2 1.9.1.2.2.3.4.5.1.1.2.3.3.4l.1.1c.8.9 1.7 1.9 2.9 2.8 1.1.8 2.2 1.5 3.2 1.9.9.5 1.8.8 2.5 1zM4.7 36.6c-1-2.2-1.7-7.2-2.1-17.5 1.6.4 6.1 1.2 10.4-1.2 1.1-.6 2-1.3 2.7-2 .7.7 1.6 1.4 2.7 2 4.3 2.4 8.8 1.6 10.4 1.2-.3 10.3-1.1 15.3-2.1 17.5-3.3 7.6-9.7 9-11 9.3-1.3-.3-7.7-1.7-11-9.3z" fill="#212C30"></path><path d="M18.5 37.1v-3.5H22c.5 0 1-.4 1-1V29c0-.5-.4-1-1-1h-3.5v-3.5c0-.5-.4-1-1-1h-3.6c-.5 0-1 .4-1 1V28H9.5c-.5 0-1 .4-1 1v3.6c0 .5.4 1 1 1H13v3.5c0 .5.4 1 1 1h3.6c.5 0 .9-.4.9-1z" fill="#212C30"></path></svg><svg width="56" height="55" viewBox="0 0 56 55" fill="none" id="advantage4" y="162"><path d="M53.1 44.3v-8.4h1.5v-1.1c-8.4-5.2-8.8-5.5-14.5-9l-14.5 9v1.1h1.5v8.4h-2.3v2.2h30.5v-2.2h-2.2zm-24.6-9.8l4.8-3 5.5 3.2H28.5v-.2zm3.6 9.8h-3.6v-8.4h3.6v8.4zm7.4 0h-6.4v-3.6h6.4v3.6zm0-4.7h-6.4v-3.8h6.4v3.8zm0-5.7l-5.2-3 5.2-3.3v6.3zm1.2-6.3l5.2 3.3-5.2 3v-6.3zm7.4 16.7h-3.5v-6.2h3.5v6.2zm3.6 0h-2.5V37h-5.7v7.3h-2.8v-8.4h11.1v8.4h-.1zm0-9.6H41.5l5.5-3.2 4.8 3v.2h-.1zM26.8 21.8l3.6-3.7-4.7-1.6-1 .9c-.8-.4-3.8-2.2-4.6-2.2-.2 0-.2.1-.2.3.8 1.5 1.4 3.5 1.3 6h-7.3l-.6 3.4-2.9.4-.2 1.2v2.1h11.1c.1-1.8.1-3.7.1-5.8v-1.6l2.4 1c1.1.3 2.3.3 3-.4zm-10.3 1.8H15v-1h1.5v1zm4.2 0h-1.5v-1h1.5v1zM20.6 8.8c0 .8 0 1.1-.4 2-.4.9-1.1 1.6-2 2.1l-.3.2 18.6 6.5 1.7-4.6-4.3-1.5c0-.3 0-.6-.2-.8-.3-.6-2.5-1.5-3.2-1.4-.2 0-.4.2-.6.3-.5.7-.9 1.5-1.1 2.4-.1.3-.7.1-.6-.2.2-.7.5-1.4.9-2.1-2.8-.9-5.6-1.9-8.5-2.9z" fill="#212C30"></path><path d="M16.4 20.5H20c-.1-2.7-1.2-4.8-2-5.9-1.3 1.2-3.9-.8-5.6-1.3 1.6 1.2 3.6 3.4 4 7.2zM10.5 35.9c.1-.7.1-1.4.2-2.2 0-.2 0-.3-.2-.4-.2-.1-.5-.2-.8-.3v-6.7l1-5.4.7.1-.6 3.2 1.8-.3.6-3.5h1.9c-.5-4.5-3.6-6.4-4.8-7-.9.3-1.6.9-2.2 1.6-2.1 2.6-1.8 7.9-2.3 11.2.1 2.5.2 4.7.3 7.1-1.4-.3-2-.4-3.9-.7-.1 0-.3.1-.3.2l-.3 1.5c0 .1.1.3.2.3 1.7.3 3.1.5 4.4.6 0 .9.7.9 1.4 1 .7.1 1.5.2 2 .2s.9-.1.9-.5zM9.4 7.5C9 6 8.8 5.5 9 4.8L1.5 2.2 0 6.9c2.1.7 8.1 2.8 10.3 3.6-.3-.9-.7-2.2-.9-3z" fill="#212C30"></path><path d="M24.1 28.2c0-.3-.2-.5-.4-.5l-1.2-.1c-.3 0-.5.2-.5.4l-.1 1.1H10.4v3.4l.6.3c.5.3.4.7.4 1.3v.1l1.6.3.1-.4c0-.1.1-.2.2-.2h.1v-.1c.1-.5 0-1.1-.3-1.6-.3-.4-.6-.6-1-.8l.1-.3h.5c1.6.3 2.2 2.1 1.9 3.5l-.4 2.2c0 .1-.1.2-.2.2-.2.3-.2.4-.1.7h.3c.1 0 .2.1.1.2l-.2 1c0 .1-.1.2-.2.1l-1.6-.3c-.1 0-.2-.1-.1-.2l.2-1c0-.1.1-.2.2-.1h.2c.2-.3.2-.4.1-.7h-.1c-.1 0-.2-.1-.2-.2l.1-.4c-.5-.1-.9-.2-1.4-.2-.1.8-.8 1.1-1.5 1.2h-.5l-.8 15.5c0 .8-.1 1.9.2 1.9h5.7c.3 0 .3-2-.2-2.3l-.6-.2 1.7-13.3h.3l-.3 13.9c0 .8.1 1.9.4 1.9h6.8c.4 0 .5-2-.3-2.3l-1.8-.5.3-9c.1-2.3.2-4.4.3-6.4h1v1.1c0 .1.1.2.2.2h.5c.1 0 .2-.1.2-.2l.1-1.2c.6-.1.9-.6 1.1-1.3l.4-5.9H24l.1-.8zM22.5 5.9c.4 0 .6-.1.7-.3.2-.4.5-1.1-.1-1.1h-2.8c-.1 0-.2 0-.2-.1-.7-1-.7-2.1-1.7-2.8-1.5-1-4.2-.7-5.8.2-1.8 1-2.7 2.9-2 5.4l11.9-1.3zM16.2 12.5c1.3-.3 2.5-1.2 2.9-2.2.3-.7.5-2.1.5-3.3-3 .3-5.9.7-8.9 1 .2.9.4 1.8.7 2.3.6 1 1.8 1.9 3.2 2.2.8.1 1 .1 1.6 0z" fill="#212C30"></path></svg><svg width="53" height="54" viewBox="0 0 53 54" fill="none" id="advantage5" y="217"><path d="M9.5 7c1.3 0 2.3-1 2.3-2.3V2.3c0-1.3-1-2.3-2.3-2.3-1.2 0-2.2 1-2.2 2.3v2.4C7.3 6 8.3 7 9.5 7z" fill="#212C30"></path><path d="M20.6 37.5H3.1c-.4 0-.7-.3-.7-.7V11.7h33.8v9.8H38.6V6c0-1.7-1.4-3.1-3.1-3.1H32c.3.5.5 1.1.5 1.7C32.5 6.5 31 8 29.1 8s-3.4-1.5-3.4-3.4c0-.6.2-1.2.5-1.7H12.5c.3.6.5 1.2.5 1.8 0 1.9-1.5 3.4-3.4 3.4S6.2 6.6 6.2 4.7c0-.6.2-1.2.5-1.7H3.1C1.4 3 0 4.3 0 6v30.8c0 1.7 1.4 3.1 3.1 3.1h17.5c0-.5-.1-1-.1-1.6 0-.2 0-.5.1-.8z" fill="#212C30"></path><path d="M29 7c1.3 0 2.3-1 2.3-2.3V2.3C31.3 1 30.2 0 29 0c-1.3 0-2.3 1-2.3 2.3v2.4C26.7 6 27.7 7 29 7zM17.2 35.2h3.6l.5-2.1v-2h-4.1v4.1zM15.6 31.1h-4.2v4.2h4.2v-4.2zM9.9 31.1H5.7v4.2h4.2v-4.2zM28.7 23.9c1.3-.8 2.7-1.4 4.2-1.8V20h-4.2v3.9zM27.1 20h-4.2v4.2h4.2V20zM21.4 20h-4.2v4.2h4.2V20zM15.6 20h-4.2v4.2h4.2V20zM9.9 20H5.7v4.2h4.2V20zM32.9 14.4h-4.2v4.2h4.2v-4.2zM27.1 14.4h-4.2v4.2h4.2v-4.2zM21.4 14.4h-4.2v4.2h4.2v-4.2zM15.6 14.4h-4.2v4.2h4.2v-4.2zM26.3 25.6h-3.4v4c.9-1.5 2.1-2.8 3.4-4zM21.4 25.6h-4.2v4.2h4.2v-4.2zM15.6 25.6h-4.2v4.2h4.2v-4.2zM9.9 25.6H5.7v4.2h4.2v-4.2zM48.1 27.5c-2.9-2.9-6.7-4.5-10.8-4.5-4.1 0-7.9 1.6-10.8 4.5-2.9 2.9-4.5 6.7-4.5 10.8 0 4.1 1.6 7.9 4.5 10.8 2.9 2.9 6.7 4.5 10.8 4.5 4.1 0 7.9-1.6 10.8-4.5 2.9-2.9 4.5-6.7 4.5-10.8 0-4.1-1.6-7.9-4.5-10.8zM37.4 51.2c-7.2 0-13-5.8-13-13s5.8-13 13-13 13 5.8 13 13-5.9 13-13 13z" fill="#212C30"></path><path d="M38.5 36.8c0-2.8-.1-6.4-.8-9.8 0-.1-.1-.2-.3-.2-.1 0-.2.1-.3.2-.7 3.3-.8 6.8-.8 9.8-.4.3-.6.7-.7 1.2-2.4 1.3-4.2 2.5-5.8 3.8-.1.1-.1.2-.1.3 0 .1.1.1.2.1h.1c2.4-.6 4.6-1.6 6.5-2.5.3.2.6.2 1 .2.9-.1 1.6-.8 1.6-1.6.1-.5-.2-1.1-.6-1.5z" fill="#212C30"></path></svg><svg width="40" height="54" viewBox="0 0 40 54" fill="none" id="advantage6" y="271"><path d="M27 30.6v16.2H1.8V7.2H27V13h1.8V3.3c0-1.8-1.5-3.3-3.3-3.3H3.3C1.5 0 0 1.5 0 3.3v47c0 1.8 1.5 3.3 3.3 3.3h22.3c1.8 0 3.3-1.5 3.3-3.3V30.6H27zM10.3 2.7c0-.5.4-.9.9-.9h6.4c.5 0 .9.4.9.9s-.4.9-.9.9h-6.4c-.5 0-.9-.4-.9-.9zM14.6 52c-1.1.1-2-.9-2-2 0-.9.8-1.7 1.8-1.8 1.1-.1 2 .9 2 2-.1 1-.9 1.8-1.8 1.8z" fill="#212C30"></path><path d="M19.2 35.7v-6.5c-1.7-.1-3.1-1.6-3.1-3.4v-8.1c0-1.9 1.5-3.4 3.4-3.4h17c1.9 0 3.4 1.5 3.4 3.4v8.1c0 1.9-1.5 3.4-3.4 3.4H26.3l-7.1 6.5zm.2-19.8c-1 0-1.8.8-1.8 1.8v8.1c0 1 .8 1.8 1.8 1.8h1.3v4.5l4.9-4.5h10.8c1 0 1.8-.8 1.8-1.8v-8.1c0-1-.8-1.8-1.8-1.8h-17z" fill="#212C30"></path></svg><svg width="18" height="21" viewBox="0 0 18 21" fill="none" id="avatar" y="325"><path fill-rule="evenodd" clip-rule="evenodd" d="M9.218 9.302a4.524 4.524 0 1 0 0-9.048 4.524 4.524 0 0 0 0 9.048zm0 18.522a8.782 8.782 0 1 0 0-17.564 8.782 8.782 0 0 0 0 17.564z" fill="#616D7B"></path></svg><svg width="7" height="11" viewBox="0 0 7 11" fill="none" id="button-arrow" y="346"><path d="M1 1l5 4.5L1 10" stroke="#212C30" stroke-linecap="round" stroke-linejoin="round"></path></svg><svg width="9" height="17" viewBox="0 0 9 17" fill="none" id="calendary-arrow" y="357"><path d="M0 17V0l9 8.5L0 17l9-8.5L0 17z" fill="#212C30"></path></svg><svg width="13" height="13" viewBox="0 0 13 13" fill="none" id="close" y="374"><path d="M1 1l11.125 11M12.125 1L1 12" stroke="#212C30" stroke-width="2"></path></svg><svg width="10" height="10" viewBox="0 0 10 10" fill="none" id="close-bold" y="387"><path d="M1.4 1.4l7.2 7.2M8.6 1.4L1.4 8.6" stroke="#57A7D7" stroke-width="3"></path></svg><svg width="60" height="59" viewBox="0 0 60 59" fill="none" id="confirm" y="397"><path d="M42.076 6.344A27.015 27.015 0 0 0 29.5 3C14.864 3 3 14.864 3 29.5S14.864 56 29.5 56 56 44.136 56 29.5a26.057 26.057 0 0 0-1.802-9.432" stroke="#EFEFF0" stroke-width="5"></path><path d="M18 25l9.5 9.5L58 4" stroke="#EFEFF0" stroke-width="5"></path></svg><svg width="59" height="59" viewBox="0 0 59 59" fill="none" id="decline" y="456"><path d="M20 20l20.6 20.6M40.6 20L20 40.6" stroke="#E7E7E8" stroke-width="5"></path><circle cx="29.5" cy="29.5" r="26.5" stroke="#E7E7E8" stroke-width="5"></circle></svg><svg width="17" height="34" viewBox="0 0 17 34" fill="none" id="facebook" y="515"><path d="M16.693 1.05v5.177h-2.866c-2.113 0-2.758 1.08-2.758 2.868v3.556h5.624l-.896 5.773h-4.71v14.73H5.374v-14.73H.54v-5.772h4.835V7.959c0-5.177 3.654-7.113 6.806-7.113 2.704 0 4.513.205 4.513.205z" fill="#fff"></path></svg><svg width="18" height="17" viewBox="0 0 18 17" fill="none" id="facebook-round" y="549"><path d="M17.406 8.426C17.406 3.75 13.656 0 9.02 0 4.384 0 .594 3.75.594 8.426c0 4.395 3.386 8.024 7.7 8.386-.201 0-.403-.04-.604-.08v-5.766H5.472v-2.54H7.69V6.33c0-2.298 1.693-3.145 3.144-3.145 1.25 0 2.097.08 2.097.08v2.299h-1.33c-.968 0-1.25.484-1.25 1.25v1.572h2.58l-.403 2.54H10.35v5.766c-.202.04-.404.04-.605.08 4.274-.322 7.66-3.951 7.66-8.346z" fill="#fff"></path></svg><svg width="54" height="59" viewBox="0 0 54 59" fill="none" id="faq" y="566"><path d="M24.235 9.04c-11.28 0-20.46 9.18-20.46 20.46 0 11.28 9.18 20.46 20.46 20.46 11.28 0 20.46-9.17 20.46-20.45s-9.18-20.47-20.46-20.47zm0 38.93c-10.2 0-18.46-8.27-18.46-18.46 0-10.19 8.27-18.46 18.46-18.46 10.19 0 18.46 8.26 18.46 18.46 0 10.2-8.27 18.46-18.46 18.46zM20.216 1.29c3.6-.51 7.35-.32 10.87.55.04.01.08.01.12.01.22 0 .43-.15.48-.38.07-.27-.1-.54-.37-.61a29.8 29.8 0 0 0-11.25-.57c-.27.04-.46.29-.43.57.05.28.31.46.58.43zM33.716 2.62a28.542 28.542 0 0 1 17.98 19.24c.06.22.26.37.48.37a.502.502 0 0 0 .48-.64 29.506 29.506 0 0 0-18.61-19.91.498.498 0 1 0-.33.94zM28.387 57.71c-3.6.52-7.35.36-10.87-.5-.26-.06-.54.1-.6.37-.06.27.1.54.37.6 2.26.55 4.6.82 6.95.82 1.44 0 2.88-.1 4.3-.31a.5.5 0 0 0 .42-.57.506.506 0 0 0-.57-.41zM53.436 25.29a.5.5 0 1 0-.99.15c.19 1.34.29 2.71.29 4.08 0 2.3-.27 4.58-.81 6.79-.07.27.1.54.37.6.04.01.08.01.12.01.23 0 .43-.15.49-.38.56-2.29.84-4.65.84-7.03a33.01 33.01 0 0 0-.31-4.22zM51.775 38.61a.506.506 0 0 0-.64.31 28.498 28.498 0 0 1-19.19 18.03c-.27.07-.42.35-.35.62.06.22.26.37.48.37.04 0 .09-.01.14-.02 9.26-2.6 16.69-9.58 19.86-18.66a.5.5 0 0 0-.3-.65zM14.835 56.42a28.555 28.555 0 0 1-12.08-8.18.505.505 0 0 0-.71-.05c-.21.18-.23.5-.05.71 3.37 3.86 7.69 6.78 12.5 8.46a.496.496 0 0 0 .64-.3.501.501 0 0 0-.3-.64z" fill="#2B2B2D"></path><path d="M24.236 17.95c.14 0 .25-.11.25-.25V14c0-.14-.11-.25-.25-.25s-.25.11-.25.25v3.7c0 .14.11.25.25.25zM24.236 41.06c-.14 0-.25.11-.25.25v3.7c0 .14.11.25.25.25s.25-.11.25-.25v-3.7c0-.13-.12-.25-.25-.25zM35.785 29.51c0 .14.11.25.25.25h3.7c.14 0 .25-.11.25-.25s-.11-.25-.25-.25h-3.7c-.14 0-.25.11-.25.25zM12.427 29.26h-3.7c-.14 0-.25.11-.25.25s.11.25.25.25h3.7c.14 0 .25-.11.25-.25s-.11-.25-.25-.25zM31.036 21.46l-5.74 6.17c-.32-.18-.68-.29-1.07-.29-.46 0-.89.15-1.24.39l-8.96-8.04a.505.505 0 0 0-.71.04c-.18.21-.17.52.04.71l8.96 8.05c-.17.31-.27.66-.27 1.03 0 1.2.97 2.17 2.17 2.17a2.168 2.168 0 0 0 1.8-3.38l5.73-6.16c.19-.2.18-.52-.03-.71-.17-.2-.49-.18-.68.02zM6.756 10.82a.226.226 0 0 0-.08-.23l-1.99-1.8c3.38-3.19 7.5-5.53 11.96-6.76a.51.51 0 0 0 .35-.62.496.496 0 0 0-.61-.35 29.597 29.597 0 0 0-12.45 7.06l-1.85-1.67a.234.234 0 0 0-.17-.07c-.02 0-.05 0-.07.01a.24.24 0 0 0-.17.18L.096 12.7l-.09.35c-.02.09.01.19.08.25.05.04.11.06.17.06.03 0 .06-.01.09-.02l.33-.12 5.92-2.21c.08-.03.14-.1.16-.19z" fill="#2B2B2D"></path></svg><svg width="48" height="41" viewBox="0 0 48 41" fill="none" id="faq10" y="625"><path d="M23.628 2c6.81 0 12.74 3.69 15.94 9.18l2.08-.4C38.188 4.37 31.408 0 23.628 0c-10.48 0-19.13 7.92-20.31 18.09l2.08-.4C6.738 8.82 14.378 2 23.628 2zM23.627 38.93c-6.33 0-11.92-3.19-15.25-8.05l-2.1.4c3.62 5.79 10.03 9.65 17.34 9.65 10.03 0 18.38-7.26 20.12-16.8l-2.12.4c-1.85 8.25-9.19 14.4-17.99 14.4zM45.458 12.09a.51.51 0 0 0-.49-.41c-.03 0-.06 0-.09.01L.408 20.17c-.27.05-.45.31-.4.58l1.78 9.34c.02.13.1.25.21.32.08.06.18.09.28.09.03 0 .06 0 .09-.01l44.47-8.48c.13-.02.25-.1.32-.21.07-.11.1-.24.08-.37l-1.78-9.34zM9.708 26.56l-.96.18-1.77-3.49-.37 3.9-.96.18-2.4-4.79.88-.17 1.82 3.75.4-4.17.77-.15 1.9 3.74.31-4.16.88-.17-.5 5.35zm5.45-1.04l-.55-.95-2.15.41-.16 1.09-.9.17.87-5.41 1-.19 2.79 4.71-.9.17zm4.69-.9l-1.42-1.64-.98.19.35 1.84-.83.16-.96-5.06 2.02-.39c.45-.09.87 0 1.24.25.38.25.61.61.69 1.06.06.32.02.64-.11.94-.13.3-.34.54-.62.72l1.52 1.75-.9.18zm4.79-.91l-1.42-1.64-.98.19.35 1.84-.83.16-.96-5.06 2.02-.39c.45-.09.87 0 1.24.25s.61.61.69 1.06c.06.32.02.64-.11.94-.14.3-.34.54-.62.72l1.53 1.75-.91.18zm5.21-.99l-.55-.95-2.15.41-.16 1.09-.9.17.87-5.41 1-.19 2.79 4.71-.9.17zm5.01-.96l-3.04-2.98.65 3.43-.83.16-.96-5.06.65-.12 3.04 2.98-.66-3.43.83-.16.96 5.06-.64.12zm3.89-.74l-.83.16-.81-4.27-1.43.27-.15-.79 3.69-.7.15.79-1.42.27.8 4.27zm4.53-.87l-.83.16-.38-2.01-2.35-2.71.95-.18 1.66 2.01.8-2.48.95-.18-1.18 3.39.38 2z" fill="#2B2B2D"></path><path d="M27.268 21.34l1.6-.3-1.23-2.13-.37 2.43zM18.779 20.65a.79.79 0 0 0-.61-.14l-1.19.23.32 1.69 1.19-.23c.22-.04.39-.16.52-.35.12-.19.16-.41.12-.64-.05-.24-.16-.43-.35-.56zM23.568 19.73a.79.79 0 0 0-.61-.14l-1.19.23.32 1.69 1.19-.23c.22-.04.39-.16.52-.35a.89.89 0 0 0 .12-.64.84.84 0 0 0-.35-.56zM12.588 24.14l1.6-.3-1.24-2.13-.36 2.43zM35.809 25.65l-21.6 4.12a13.19 13.19 0 0 0 9.41 3.94c5.48-.01 10.18-3.33 12.19-8.06zM10.959 16.64l23.03-4.39a13.195 13.195 0 0 0-10.36-5.01c-5.97-.01-11.02 3.96-12.67 9.4z" fill="#2B2B2D"></path></svg><svg width="34" height="41" viewBox="0 0 34 41" fill="none" id="faq11" y="666"><path d="M26.313 37.37h-20.1c-.27 0-.5.22-.5.5v2.55c0 .27.22.5.5.5h20.11c.27 0 .5-.22.5-.5v-2.55a.51.51 0 0 0-.51-.5zM32.662 1.61c-.3-.35-.58-.65-3.62-.01 0 .69-.02 1.38-.06 2.06.75-.16 1.57-.32 2.12-.4.19 1.67.26 6.55-4.14 10.41a22.89 22.89 0 0 1-1.72 3.62c5-2.78 6.88-6.67 7.56-9.59.65-2.81.35-5.53-.14-6.09zM6.113 13.57a12.061 12.061 0 0 1-4.03-10.33c.51.07 1.26.22 2.05.39-.04-.67-.06-1.36-.06-2.05-2.97-.63-3.24-.33-3.56.03-.49.57-.79 3.29-.14 6.09.67 2.9 2.54 6.75 7.46 9.53a22.9 22.9 0 0 1-1.72-3.66zM17.913 23.22c-.44.08-.9.13-1.35.13-.57 0-1.13-.09-1.68-.21-.34 3.24-1.06 6.38-2.07 8.91-.41 1.03-1.2 2.45-1.64 3.41-.09.2.06.42.27.42h9.84c.22 0 .37-.23.27-.43-.47-.96-1.28-2.36-1.61-3.41-.85-2.7-1.65-5.68-2.03-8.82zM16.552 21.86c6.07 0 11-9.18 11-20.49 0-.06-.02-.11-.06-.17-.01-.02-.04-.03-.06-.05-.04-.03-.07-.07-.12-.1a.37.37 0 0 0-.11-.05c-.06-.03-.12-.06-.19-.09a.983.983 0 0 0-.16-.05c-.08-.03-.15-.06-.25-.08-.06-.02-.14-.03-.2-.05-.1-.02-.19-.05-.3-.07-.08-.02-.16-.03-.24-.05-.11-.02-.22-.05-.35-.07-.08-.01-.17-.03-.26-.04-.14-.02-.27-.04-.42-.06-.09-.01-.19-.02-.29-.04l-.46-.06-.34-.03c-.16-.02-.31-.03-.47-.05l-.36-.03c-.17-.01-.33-.03-.51-.04l-.39-.03-.52-.03c-.14-.01-.28-.01-.42-.02l-.54-.03c-.15-.01-.29-.01-.44-.02-.18-.01-.36-.01-.54-.02-.16-.01-.32-.01-.48-.01-.18 0-.35-.01-.53-.01-.16 0-.31-.01-.47-.01-.19 0-.37-.01-.56-.01h-2.05c-.17 0-.35.01-.52.01-.17 0-.33 0-.5.01-.17 0-.34.01-.51.01-.16 0-.33.01-.49.01-.17.01-.34.01-.51.02-.15.01-.31.01-.46.02l-.5.03c-.15.01-.3.01-.44.02l-.48.03-.43.03c-.16.01-.31.03-.46.04l-.39.03c-.16.01-.31.03-.46.05l-.34.03c-.15.02-.29.04-.43.05-.1.01-.21.02-.31.04-.14.02-.26.04-.39.06-.09.01-.19.03-.27.04-.13.02-.24.05-.35.07-.08.02-.16.03-.23.04-.11.02-.2.05-.3.08-.06.02-.13.03-.19.05-.09.03-.16.05-.24.08-.05.02-.11.04-.16.05-.07.03-.13.06-.18.09-.04.02-.08.04-.11.06-.05.03-.09.07-.12.11-.02.02-.05.03-.06.05-.04.05-.06.11-.06.17-.02 11.3 4.91 20.48 10.98 20.48z" fill="#2B2B2D"></path></svg><svg width="42" height="55" viewBox="0 0 42 55" fill="none" id="faq12" y="707"><path d="M30.37 40.12c-.32 0-.64-.06-.92-.16l-3.98-1.37-2.44 2.78 4.1 12.83c.14.41.74.54 1.02.2l2.98-3.79c.14-.2.41-.27.61-.2l4.6 1.35c.47.14.88-.27.68-.74l-4.11-12.71a2.707 2.707 0 0 1-2.54 1.81zM11.789 39.96l-.05.02-.05.01c-.26.07-.52.1-.78.1-1.09 0-2.02-.6-2.47-1.51l-4.06 12.38c-.27.47.14.88.61.74l4.6-1.35c.2-.07.47 0 .61.2l2.98 3.79c.27.34.88.27 1.02-.2l4.08-12.68-2.52-2.87-3.97 1.37z" fill="#2B2B2D"></path><path d="M40.81 19.64l-3.24-2.84c-.41-.34-.54-.88-.34-1.35l1.42-4.12c.14-.37.08-.74-.09-1.04-.18-.3-.48-.51-.85-.58l-4.32-.81c-.47-.07-.88-.47-.95-.95l-.81-4.32c-.03-.14-.08-.26-.14-.37a.21.21 0 0 0-.04-.06c-.07-.1-.15-.19-.24-.27-.02-.01-.04-.03-.06-.04-.1-.07-.2-.13-.32-.17-.01 0-.01-.01-.02-.01-.12-.04-.25-.06-.38-.06h-.08c-.11 0-.23.02-.34.05l-4.19 1.35c-.12.03-.24.05-.37.05h-.03c-.15 0-.3-.04-.45-.08-.04-.01-.07-.03-.11-.04-.15-.06-.28-.15-.4-.26l-.36-.41-2.55-2.9c-.24-.27-.57-.41-.92-.41-.35 0-.7.14-.97.41l-2.9 3.31c-.1.13-.23.21-.37.29-.04.02-.08.03-.12.05-.11.04-.22.07-.34.08-.03 0-.05.02-.08.02-.01 0-.02-.01-.04-.01-.14 0-.28-.03-.41-.09l-4.12-1.42c-.13-.05-.26-.06-.38-.07h-.08c-.13 0-.25.02-.36.07-.02.01-.03.02-.05.02-.1.04-.2.1-.29.17-.02.01-.03.02-.05.04-.09.08-.17.17-.23.28-.01.02-.03.05-.04.07-.06.11-.11.24-.14.37l-.81 4.32c-.02.12-.05.23-.11.34-.11.21-.29.39-.5.5-.11.05-.22.09-.34.11l-4.32.81c-.28.05-.51.19-.68.38-.11.13-.2.28-.25.44-.03.08-.05.17-.06.26-.02.18-.01.36.04.55l1.42 4.12c.1.35.05.75-.12 1.06-.06.11-.13.2-.21.29l-3.31 2.9c-.27.24-.41.57-.41.92 0 .35.14.7.41.97l3.31 2.9.03.03c.13.11.22.25.28.4.08.17.12.34.11.53v.03c-.01.12-.04.24-.09.36l-1.42 4.12c-.1.28-.1.56-.02.8.14.41.5.73.96.82l4.32.81c.47.07.88.47.95.95l.81 4.32c.11.61.64 1 1.24 1 .13 0 .25-.02.38-.05l4.12-1.42a1.428 1.428 0 0 1 1.36.34l2.9 3.31c.24.27.57.41.92.41.35 0 .7-.14.97-.41l.93-1.06 1.97-2.25a1.161 1.161 0 0 1 1.35-.34l4.12 1.42c.14.05.29.08.43.08.58 0 1.08-.42 1.19-1.02l.81-4.32c.07-.47.47-.88.95-.95l4.32-.81c.74-.14 1.15-.88.95-1.62l-1.42-4.12c-.03-.12-.05-.24-.05-.36 0-.37.14-.73.39-.99l3.31-2.9c.14-.12.24-.26.3-.42.07-.16.1-.33.1-.5.03-.39-.11-.74-.38-1.01zm-7.19.95c0 .45-.02.89-.07 1.33-.01.13-.04.26-.06.38-.04.3-.08.61-.14.9-.04.22-.11.43-.17.64-.05.2-.09.4-.16.6-.87 2.8-2.67 5.19-5.04 6.82l-.12.09c-.27.18-.55.34-.83.5-.08.05-.16.1-.25.15-.28.15-.58.29-.87.42-.09.04-.17.09-.26.13-.25.11-.51.19-.77.28-.14.05-.28.11-.43.16-.22.07-.45.12-.68.18-.19.05-.37.11-.56.14-.21.04-.43.07-.64.1-.22.03-.43.08-.65.1-.19.02-.39.02-.59.03-.24.01-.49.04-.73.04h-.01c-1.79 0-3.5-.37-5.05-1.03-.39-.16-.77-.35-1.14-.55-.74-.4-1.43-.87-2.07-1.4a12.99 12.99 0 0 1-4.66-11.36c.53-5.22 4.17-9.52 9.02-11.06.02-.01.03-.01.05-.02.34-.11.69-.19 1.04-.27.07-.02.14-.04.21-.05.31-.06.62-.1.93-.14.12-.02.24-.04.36-.05.26-.03.53-.03.8-.04.17-.01.35-.03.52-.03h.01c.9 0 1.77.09 2.62.27.85.17 1.66.43 2.44.76s1.52.73 2.21 1.2 1.34 1 1.92 1.59c1.18 1.18 2.13 2.58 2.79 4.13.66 1.55 1.03 3.27 1.03 5.06z" fill="#2B2B2D"></path><path d="M23.07 11.95l-6.65 2.21v3.23l3.12-.92v13.15h3.53V11.95z" fill="#2B2B2D"></path></svg><svg width="41" height="37" viewBox="0 0 41 37" fill="none" id="faq13" y="762"><path d="M10.35 0H2C.9 0 0 .9 0 2v7.03c0 1.1.9 2 2 2h8.35c1.1 0 2-.9 2-2V2c0-1.11-.89-2-2-2zm0 9.02H2V1.99h8.35v7.03zM24.64 0h-8.35c-1.1 0-2 .9-2 2v7.03c0 1.1.9 2 2 2h8.35c1.1 0 2-.9 2-2V2a2 2 0 0 0-2-2zm0 9.02h-8.35V1.99h8.35v7.03zM38.93 0h-8.35c-1.1 0-2 .9-2 2v7.03c0 1.1.9 2 2 2h8.35c1.1 0 2-.9 2-2V2a2 2 0 0 0-2-2zm0 9.02h-8.35V1.99h8.35v7.03zM10.35 12.96H2c-1.1 0-2 .9-2 2v7.03c0 1.1.9 2 2 2h8.35c1.1 0 2-.9 2-2v-7.03c0-1.11-.89-2-2-2zm0 9.02H2v-7.03h8.35v7.03zM24.64 12.96h-8.35c-1.1 0-2 .9-2 2v7.03c0 1.1.9 2 2 2h8.35c1.1 0 2-.9 2-2v-7.03a2 2 0 0 0-2-2zm0 9.02h-8.35v-7.03h8.35v7.03zM38.93 12.96h-8.35c-1.1 0-2 .9-2 2v7.03c0 1.1.9 2 2 2h8.35c1.1 0 2-.9 2-2v-7.03a2 2 0 0 0-2-2zm0 9.02h-8.35v-7.03h8.35v7.03zM10.35 25.92H2c-1.1 0-2 .9-2 2v7.03c0 1.1.9 2 2 2h8.35c1.1 0 2-.9 2-2v-7.03c0-1.11-.89-2-2-2zm0 9.02H2v-7.03h8.35v7.03zM24.64 25.92h-8.35c-1.1 0-2 .9-2 2v7.03c0 1.1.9 2 2 2h8.35c1.1 0 2-.9 2-2v-7.03a2 2 0 0 0-2-2zm0 9.02h-8.35v-7.03h8.35v7.03zM38.93 25.92h-8.35c-1.1 0-2 .9-2 2v7.03c0 1.1.9 2 2 2h8.35c1.1 0 2-.9 2-2v-7.03a2 2 0 0 0-2-2zm0 9.02h-8.35v-7.03h8.35v7.03z" fill="#2B2B2D"></path></svg><svg width="41" height="60" viewBox="0 0 41 60" fill="none" id="faq14" y="799"><path d="M38.93 0H2C.9 0 0 .9 0 2v52.31c0 1.1.9 2 2 2h22.94v-2H2V2h36.93v52.31h-3.77v2h3.77c1.1 0 2-.9 2-2V2c0-1.11-.89-2-2-2z" fill="#2B2B2D"></path><path d="M34.48 10.87H6.45v.5h28.03v-.5zM34.48 15.45H6.45v.5h28.03v-.5zM34.48 20.04H6.45v.5h28.03v-.5zM34.48 24.83H6.45v.5h28.03v-.5zM34.48 29.62H6.45v.5h28.03v-.5zM19.16 38.85H6.45v.5h12.71v-.5zM36.6 44.74c0-3.63-2.95-6.58-6.58-6.58s-6.58 2.95-6.58 6.58a6.57 6.57 0 0 0 2.76 5.35v8.22c0 .3.18.57.45.69a.763.763 0 0 0 .81-.14l2.57-2.37 2.64 2.38a.766.766 0 0 0 .8.13c.27-.12.44-.39.44-.69v-8.27c.47-.34.89-.75 1.25-1.2.9-1.13 1.44-2.55 1.44-4.1zM33.16 58.3l-3.15-2.83-.91.84-2.17 1.99v-7.75a6.578 6.578 0 0 0 6.23-.03v7.78zm1.36-9.85c-.18.22-.39.43-.6.62-.23.21-.48.4-.75.57-.91.58-1.99.93-3.15.93-1.13 0-2.18-.33-3.08-.88-.26-.17-.52-.35-.75-.55a6.14 6.14 0 0 1-.67-.68c-.12-.14-.23-.29-.34-.45-.09-.13-.16-.26-.24-.4a5.595 5.595 0 0 1-.5-1.14c-.17-.55-.26-1.13-.26-1.73 0-.6.09-1.19.26-1.73.06-.18.12-.36.2-.54.15-.35.33-.68.54-.99.1-.16.22-.3.34-.45a5.809 5.809 0 0 1 4.5-2.12c1.81 0 3.43.83 4.5 2.12.12.14.23.29.34.45a5.915 5.915 0 0 1 .74 1.53c.17.55.26 1.13.26 1.73 0 .6-.09 1.19-.26 1.73-.06.18-.12.36-.2.54a6.825 6.825 0 0 1-.54.99c-.11.16-.23.31-.34.45z" fill="#2B2B2D"></path><path d="M30.02 40.44c-2.37 0-4.3 1.93-4.3 4.3s1.93 4.3 4.3 4.3 4.3-1.93 4.3-4.3-1.93-4.3-4.3-4.3zm0 8.11c-2.1 0-3.8-1.71-3.8-3.8s1.71-3.8 3.8-3.8 3.8 1.71 3.8 3.8-1.71 3.8-3.8 3.8z" fill="#2B2B2D"></path></svg><svg width="54" height="33" viewBox="0 0 54 33" fill="none" id="faq15" y="859"><path d="M36.09 24.313c-2.04-.99-5.04-3.51-5.6-3.99-.06-.05-.1-.09-.1-.09v-1.42c1.09-1.17 2.15-3.62 2.53-4.08.39-.45.97-2.39.97-2.91s-.65-.97-.65-.97v-1.68h.45c.49 0 .88-.39.88-.88v-.92c0-.49-.39-.88-.88-.88h-.54c-.63-3.95-3.41-4.97-3.41-4.97v4.44h-1.19V.543l-.61-.31a2.16 2.16 0 0 0-1.95 0l-.61.31v5.42h-1.19v-4.44s-2.77 1.03-3.41 4.97h-.54c-.49 0-.88.39-.88.88v.92c0 .49.39.88.88.88h.27v1.68s-.65.45-.65.97.58 2.46.97 2.91c.39.45 1.45 2.91 2.53 4.08v1.42s-.04.04-.1.09c-.57.48-3.56 3-5.6 3.99-2.26 1.1-5.31 2.39-5.44 3.11l-.57 5.06H42.09l-.57-5.06c-.12-.71-3.16-2.01-5.43-3.11zm-12.7-7.15c-.14-.22-.28-.45-.41-.68-.18-.33-.35-.69-.52-1.05-.12-.26-.24-.51-.37-.76-.46-.91-.54-3.55-.52-5.49h10.68v1.69c-.04 1.56-.18 3.14-.51 3.8-.12.23-.23.46-.34.7 0 0 0 .01-.01.01-.37.7-.86 1.59-1.34 2.26-.3.32-.65.56-1.08.68-1.38.39-1.52.39-1.86.38h-.38c-.34.01-.49.01-1.86-.38-.64-.18-1.09-.6-1.48-1.16zm.53 3.93l.11-.09c.22-.19.35-.47.35-.76v-1.13c.08.03.15.07.24.09 1.44.41 1.66.42 2.13.42h.49c.39 0 .7-.05 1.99-.42.06-.02.11-.05.17-.07v1.1c0 .29.13.57.35.76l.11.09c.51.43 1.77 1.49 3.16 2.48l-.83 4.5H21.54l-.82-4.44a62.04 62.04 0 0 0 3.2-2.53zm-11.14 10.39l.42-3.73c.5-.45 2.44-1.37 3.63-1.93.19-.09.37-.18.56-.27l-.25 5.92h-4.36v.01zm23.76 0l-.25-5.96c.22.1.43.21.65.31 1.19.56 3.13 1.48 3.63 1.93l.42 3.73h-4.45v-.01z" fill="#2B2B2D"></path><path d="M53.31 28.383c-.1-.57-2.54-1.61-4.36-2.49-1.64-.8-4.04-2.81-4.49-3.2-.05-.04-.08-.07-.08-.07v-1.14c.87-.93 1.72-2.91 2.03-3.27.31-.36.78-1.92.78-2.34 0-.42-.52-.78-.52-.78v-1.35h.36c.39 0 .71-.32.71-.71v-.74c0-.39-.32-.71-.71-.71h-.44c-.51-3.17-2.73-3.99-2.73-3.99v3.56h-.95v-4.33l-.49-.24c-.49-.25-1.07-.25-1.56 0l-.49.24v4.35h-.95v-3.56s-2.23.82-2.73 3.99h-.44c-.39 0-.71.32-.71.71v.74c0 .39.32.71.71.71h.22v1.35s-.52.36-.52.78c0 .42.47 1.97.78 2.34.31.36 1.16 2.34 2.03 3.27v1.12s-.03.03-.08.07c-.18.15-.67.57-1.3 1.06.16.08.33.16.49.23 3.28 1.55 4.54 2.23 4.72 3.22l.01.03v.03l.57 5.06.01.11h10.59l-.46-4.05zM16.4 23.753c-.63-.49-1.12-.9-1.3-1.06-.05-.04-.08-.07-.08-.07v-1.14c.87-.93 1.72-2.91 2.03-3.27.31-.36.78-1.92.78-2.34 0-.42-.52-.78-.52-.78v-1.35h.22c.39 0 .71-.32.71-.71v-.74c0-.39-.32-.71-.71-.71h-.44c-.51-3.17-2.73-3.99-2.73-3.99v3.56h-.95v-4.33l-.49-.24c-.49-.25-1.07-.25-1.56 0l-.49.24v4.35h-.95v-3.56s-2.23.82-2.73 3.99h-.44c-.39 0-.71.32-.71.71v.74c0 .39.32.71.71.71h.36v1.35s-.52.36-.52.78c0 .42.47 1.97.78 2.34.31.36 1.16 2.34 2.03 3.27v1.12s-.03.03-.08.07c-.45.39-2.86 2.4-4.5 3.2-1.82.88-4.26 1.92-4.36 2.49L0 32.443h10.59l.01-.11.57-5.06v-.03l.01-.03c.18-.99 1.44-1.67 4.72-3.22.17-.09.33-.17.5-.24z" fill="#2B2B2D"></path></svg><svg width="42" height="42" viewBox="0 0 42 42" fill="none" id="faq16" y="892"><path d="M2.57 1.57H0v.5h2.57v1.68H0v.5h2.57v1.68H0v.5h2.57v1.68H0v.5h2.57v1.68H0v.5h2.57v1.68H0v.5h2.57v1.68H0v.5h2.57v1.68H0v.5h2.57v1.68H0v.5h2.57v1.68H0v.5h2.57v1.68H0v.5h2.57v1.68H0v.5h2.57v1.68H0v.5h2.57v1.68H0v.5h2.57v1.68H0v.5h2.57v1.68H0v.5h2.57v1.68H0v.5h2.57v1.68H0v.5h2.57v1.89h1V0h-1v1.57zM10.41 6.18H5.27v2.18h5.14V6.18zM20.68 23.62H5.27v2.18h20.55v-2.18h-5.14zM30.96 25.8h-5.14v2.18h5.14V25.8zM30.96 27.98v2.18h10.28v-2.18H30.96zM10.41 14.9H5.27v2.18h10.28V14.9h-5.14zM30.97 17.08H15.55v2.18h15.42v-2.18zM36.1 19.26h-5.14v2.18h10.28v-2.18H36.1zM15.55 10.54h5.13V8.36H10.41v2.18h5.14zM25.82 12.72H36.1v-2.18H20.68v2.18h5.14zM10.41 30.16H5.27v2.18h10.28v-2.18h-5.14zM25.82 32.34H15.55v2.18h15.41v-2.18h-5.14zM36.1 34.52h-5.14v2.18h5.14v-2.18z" fill="#2B2B2D"></path></svg><svg width="51" height="48" viewBox="0 0 51 48" fill="none" id="faq17" y="934"><path d="M35.75 18.93c-7.95 0-14.41 6.47-14.41 14.41s6.46 14.41 14.41 14.41 14.41-6.47 14.41-14.41-6.47-14.41-14.41-14.41zm0 26.82c-6.85 0-12.41-5.56-12.41-12.41 0-6.85 5.56-12.41 12.41-12.41 6.85 0 12.41 5.56 12.41 12.41 0 6.86-5.56 12.41-12.41 12.41z" fill="#2B2B2D"></path><path d="M35.75 25.66c.14 0 .25-.11.25-.25v-2.49c0-.14-.11-.25-.25-.25s-.25.11-.25.25v2.49c0 .13.11.25.25.25zM35.75 41.03c-.14 0-.25.11-.25.25v2.49c0 .14.11.25.25.25s.25-.11.25-.25v-2.49c0-.14-.11-.25-.25-.25zM46.17 33.09h-2.49c-.14 0-.25.11-.25.25s.11.25.25.25h2.49c.14 0 .25-.11.25-.25s-.11-.25-.25-.25zM27.81 33.09h-2.49c-.14 0-.25.11-.25.25s.11.25.25.25h2.49c.14 0 .25-.11.25-.25s-.11-.25-.25-.25zM40.2 27.82L36.31 32c-.17-.07-.37-.12-.57-.12-.25 0-.48.07-.68.18L29 26.62a.505.505 0 0 0-.71.04c-.18.21-.17.52.04.71l6.06 5.44c-.07.17-.11.35-.11.54 0 .81.65 1.46 1.46 1.46a1.455 1.455 0 0 0 1.3-2.12l3.89-4.18c.19-.2.18-.52-.03-.71a.492.492 0 0 0-.7.02zM.51 7.24h36.27v10.24c.17.01.34.01.5.03V3.87c0-.28-.22-.5-.5-.5h-4.89v1.32c0 .55-.45 1-1 1h-1.71c-.55 0-1-.45-1-1V3.37H7.72v1.32c0 .55-.45 1-1 1H5.01c-.55 0-1-.45-1-1V3.37H.5c-.28 0-.5.22-.5.5v28.29c0 .28.22.5.5.5h19.36c.01-.17.01-.33.03-.5H.5V7.24h.01z" fill="#2B2B2D"></path><path d="M13.79 11.45c0-.28-.22-.5-.5-.5h-2.77c-.28 0-.5.22-.5.5v2.77c0 .28.22.5.5.5h2.77c.28 0 .5-.22.5-.5v-2.77zM20.03 10.95h-2.77c-.28 0-.5.22-.5.5v2.77c0 .28.22.5.5.5h2.77c.28 0 .5-.22.5-.5v-2.77c0-.28-.23-.5-.5-.5zM27.26 11.45c0-.28-.22-.5-.5-.5h-2.77c-.28 0-.5.22-.5.5v2.77c0 .28.22.5.5.5h2.77c.28 0 .5-.22.5-.5v-2.77zM30.73 10.95c-.28 0-.5.22-.5.5v2.77c0 .28.22.5.5.5h2.77c.28 0 .5-.22.5-.5v-2.77c0-.28-.22-.5-.5-.5h-2.77zM7.06 18.44c0-.28-.22-.5-.5-.5H3.79c-.28 0-.5.22-.5.5v2.77c0 .28.22.5.5.5h2.77c.28 0 .5-.22.5-.5v-2.77zM13.79 18.44c0-.28-.22-.5-.5-.5h-2.77c-.28 0-.5.22-.5.5v2.77c0 .28.22.5.5.5h2.77c.28 0 .5-.22.5-.5v-2.77zM20.03 17.94h-2.77c-.28 0-.5.22-.5.5v2.77c0 .28.22.5.5.5h2.77c.28 0 .5-.22.5-.5v-2.77c0-.28-.23-.5-.5-.5zM26.76 17.94h-2.77c-.28 0-.5.22-.5.5v2.77c0 .28.22.5.5.5h.93c.72-.67 1.5-1.28 2.34-1.8v-1.47c0-.28-.22-.5-.5-.5zM6.56 24.78H3.79c-.28 0-.5.22-.5.5v2.77c0 .28.22.5.5.5h2.77c.28 0 .5-.22.5-.5v-2.77c0-.28-.22-.5-.5-.5zM13.29 24.78h-2.77c-.28 0-.5.22-.5.5v2.77c0 .28.22.5.5.5h2.77c.28 0 .5-.22.5-.5v-2.77c0-.28-.22-.5-.5-.5zM20.03 24.78h-2.77c-.28 0-.5.22-.5.5v2.77c0 .28.22.5.5.5h2.77c.28 0 .5-.22.5-.5v-2.77c0-.28-.23-.5-.5-.5zM5.01 5.19h1.71c.28 0 .5-.22.5-.5V.5c0-.28-.22-.5-.5-.5H5.01c-.28 0-.5.22-.5.5v4.19c0 .28.23.5.5.5zM29.18 5.19h1.71c.28 0 .5-.22.5-.5V.5c0-.28-.22-.5-.5-.5h-1.71c-.28 0-.5.22-.5.5v4.19c0 .28.22.5.5.5z" fill="#2B2B2D"></path></svg><svg width="42" height="49" viewBox="0 0 42 49" fill="none" id="faq18" y="982"><path d="M40.58 6.36l-.08-.86c-.05-.58-.35-1.1-.82-1.44a1.97 1.97 0 0 0-1.17-.38c-.15 0-.31.02-.46.05-2.34.55-4.38.82-6.26.82-4.02 0-7.15-1.26-9.83-3.96a2.006 2.006 0 0 0-2.84 0c-2.69 2.7-5.81 3.96-9.83 3.96-1.88 0-3.92-.27-6.26-.82-.15-.04-.31-.05-.46-.05-.41 0-.82.13-1.17.38-.47.34-.77.86-.82 1.44l-.09.89c-.8 8.19-3.23 33.1 19.33 41.5.23.08.46.13.7.13.24 0 .47-.04.7-.13C43.8 39.48 41.38 14.55 40.58 6.36zM20.51 46.02C-1.45 37.84 1.9 12.83 2.56 5.69c2.44.58 4.67.88 6.72.88 4.53 0 8.17-1.45 11.25-4.55 3.08 3.1 6.73 4.55 11.25 4.55 2.05 0 4.28-.3 6.72-.88.67 7.14 3.98 32.15-17.99 40.33z" fill="#2B2B2D"></path><path d="M27.77 19.91h-.49c-.02-.74-.07-1.67-.15-2.84-.19-3.04-2.42-6.3-6.86-6.3-4.2 0-6.7 3.48-6.93 6.75-.07.98-.12 1.76-.15 2.39h-.64c-.28 0-.5.22-.5.5v12.46c0 .28.22.5.5.5h15.22c.28 0 .5-.22.5-.5V20.41c0-.28-.23-.5-.5-.5zm-7.12 6.83l.23 2.7c.01.07-.02.14-.06.19-.04.05-.11.08-.18.08h-.94c-.07 0-.14-.03-.19-.08a.221.221 0 0 1-.06-.19l.27-2.7a1.297 1.297 0 0 1 .47-2.51c.72 0 1.3.58 1.3 1.3.01.55-.35 1.02-.84 1.21zm-5.45-6.83c.02-.54.06-1.28.13-2.26.17-2.37 1.95-4.89 4.94-4.89 3.38 0 4.73 2.39 4.86 4.43.08 1.19.12 2.06.14 2.72H15.2z" fill="#2B2B2D"></path></svg><svg width="50" height="57" viewBox="0 0 50 57" fill="none" id="faq19" y="1031"><path d="M34.5 10.87H6.45v.5H34.5v-.5zM34.5 15.46H6.45v.5H34.5v-.5zM34.5 20.05H6.45v.5H34.5v-.5zM34.5 24.85H6.45v.5H34.5v-.5zM34.51 29.64H6.46v.5h28.05v-.5zM19.181 38.87H6.461v.5h12.72v-.5zM24.84 46.35c-.55.41-1.18.68-1.84.96-.56.24-1.14.49-1.67.83-.17.11-.38.33-.4.58-.01.14.04.27.14.37.2.19.47.13.59.1.37-.08.74-.17 1.11-.25 1.66-.38 3.37-.77 5.08-.81.03.18.04.36.03.55l.5.04c.02-.3-.01-.61-.08-.9a.255.255 0 0 0-.24-.19c-1.83.02-3.64.43-5.38.83-.37.08-.74.17-1.11.25-.05.01-.09.02-.11.02.03-.04.08-.11.16-.16.49-.32 1.05-.56 1.6-.79.66-.28 1.34-.58 1.94-1.02.56-.41.88-.87.95-1.37.01-.09-.02-.18-.09-.23a.25.25 0 0 0-.25-.04c-2.07.81-4.14 1.62-6.22 2.41-1.05.4-2.36.9-3.65 1.27-.53.15-1.09.29-1.66.3-.09 0-.23 0-.29-.06-.07-.07-.05-.25.04-.49.27-.65.62-1.27 1.05-1.85 1.11-.49 2.22-.99 3.32-1.5.44-.2.94-.43 1.32-.84.1-.1.23-.26.24-.48.03-.36-.28-.63-.6-.68-.27-.04-.52.04-.74.13a9.364 9.364 0 0 0-3.87 2.96c-1.63.72-3.26 1.42-4.86 2.1l.2.46c1.36-.58 2.74-1.17 4.12-1.78-.25.41-.47.84-.65 1.28-.23.58-.09.88.08 1.04.18.17.41.2.61.2h.04c.63-.01 1.23-.16 1.79-.32 1.31-.37 2.63-.88 3.69-1.28 1.9-.73 3.8-1.46 5.7-2.2-.16.19-.34.38-.59.56zm-6.09-2.55c.14-.05.28-.11.41-.11.02 0 .04 0 .07.01.09.01.18.09.18.15 0 .04-.04.1-.11.17-.31.33-.77.54-1.17.73-.78.36-1.57.72-2.36 1.07.84-.87 1.87-1.57 2.98-2.02z" fill="#2B2B2D"></path><path d="M38.96 54.34H2V2h36.96v21.11c.7-1.08 1.36-2.07 2-2.99V2c0-1.1-.9-2-2-2H2C.9 0 0 .9 0 2v52.35c0 1.1.9 2 2 2h36.96c1.1 0 2-.9 2-2V38.01c-.68 1.07-1.35 2.1-2 3.06v13.27z" fill="#2B2B2D"></path><path d="M37.24 29.75c-2.27 3.91-4.23 7.68-5.53 10.63-.87 1.98-1.67 5.49-1.13 5.76 1.09.54 3.29-1.41 4.89-3.57 1.91-2.59 4.23-6.16 6.5-10.07.73-1.25 1.41-2.48 2.07-3.68l-4.62-2.69c-.73 1.16-1.46 2.37-2.18 3.62zM48.46 15.87c-.84-.49-1.88-.02-4.73 3.8a89.083 89.083 0 0 0-3.43 5.03l4.52 2.63c1.05-1.99 1.96-3.86 2.67-5.47 1.93-4.36 1.81-5.5.97-5.99z" fill="#2B2B2D"></path></svg><svg width="41" height="41" viewBox="0 0 41 41" fill="none" id="faq2" y="1088"><path d="M16.23 11h8.32c1.1 0 2-.9 2-2V2c0-1.1-.9-2-2-2h-8.32c-1.1 0-2 .9-2 2v7a2 2 0 0 0 2 2zm0-9h8.32v7h-8.32V2zM24.55 29.8h-8.32c-1.1 0-2 .9-2 2v7c0 1.1.9 2 2 2h8.32c1.1 0 2-.9 2-2v-7a2 2 0 0 0-2-2zm0 9h-8.32v-7h8.32v7zM38.93 29.8h-8.32c-1.1 0-2 .9-2 2v7c0 1.1.9 2 2 2h8.32c1.1 0 2-.9 2-2v-7a2 2 0 0 0-2-2zm0 9h-8.32v-7h8.32v7zM10.32 29.8H2c-1.1 0-2 .9-2 2v7c0 1.1.9 2 2 2h8.32c1.1 0 2-.9 2-2v-7a2 2 0 0 0-2-2zm0 9H2v-7h8.32v7zM6.66 20.9h13.23v7.24h1V20.9h13.07v7.24h1V19.9H20.89v-7.31h-1v7.31H5.66v8.05h1V20.9z" fill="#2B2B2D"></path></svg><svg width="41" height="40" viewBox="0 0 41 40" fill="none" id="faq20" y="1129"><path d="M8.16 24.2v2.13h9.67v-2.75H12.4l2.83-2.83c1.58-1.58 2.38-3.13 2.38-4.63 0-1.39-.47-2.5-1.4-3.31-.93-.81-2.06-1.23-3.37-1.23-1.02 0-1.96.26-2.81.78-.85.52-1.51 1.28-1.96 2.27l2.4 1.4c.52-1.13 1.33-1.69 2.42-1.69.55 0 1 .17 1.35.52.35.34.53.8.53 1.36 0 .77-.55 1.74-1.65 2.89L8.16 24.2zM22.29 23.29c-.46-.43-.68-1-.68-1.71s.23-1.28.68-1.7c.45-.42 1.03-.63 1.71-.63.68 0 1.26.21 1.72.64.46.43.69.99.69 1.69v.02c.83-.54 1.73-.96 2.69-1.26-.2-.9-.61-1.68-1.26-2.33-.94-.93-2.16-1.42-3.66-1.46l3.2-4.69h-3.26l-4.5 6.79c-.57.84-.85 1.81-.85 2.91 0 1.49.49 2.7 1.46 3.63.6.58 1.33.96 2.15 1.18.38-.89.88-1.72 1.48-2.47-.62-.01-1.15-.21-1.57-.61z" fill="#2B2B2D"></path><path d="M.7 32.24V7.37h35.93v13.49c.23.11.47.22.69.34V4.22c0-.38-.31-.69-.69-.69h-4.46v1.31c0 .76-.62 1.38-1.38 1.38H29.1c-.76 0-1.38-.62-1.38-1.38V3.53H8.23v1.31c0 .76-.62 1.38-1.38 1.38H5.16c-.76 0-1.38-.62-1.38-1.38V3.53H.69c-.38 0-.69.31-.69.69v28.02c0 .38.31.69.69.69h21.13c-.05-.23-.1-.46-.13-.69H.7z" fill="#2B2B2D"></path><path d="M5.16 5.53h1.69c.38 0 .69-.31.69-.69V.69c0-.38-.31-.69-.69-.69H5.16c-.38 0-.69.31-.69.69v4.15c0 .39.31.69.69.69zM29.1 5.53h1.69c.38 0 .69-.31.69-.69V.69c0-.38-.31-.69-.69-.69H29.1c-.38 0-.69.31-.69.69v4.15c0 .39.31.69.69.69zM40.7 29.43a8.508 8.508 0 0 0-3.27-5.7 8.553 8.553 0 0 0-6.34-1.72c-2.27.29-4.3 1.45-5.7 3.27a8.53 8.53 0 0 0-1.72 6.34c.29 2.27 1.45 4.3 3.27 5.7a8.526 8.526 0 0 0 5.22 1.79c.37 0 .74-.02 1.12-.07a8.487 8.487 0 0 0 5.69-3.27 8.473 8.473 0 0 0 1.73-6.34zm-7.59 8.24c-1.91.24-3.8-.27-5.32-1.44a7.143 7.143 0 0 1-2.74-4.78c-.25-1.91.27-3.8 1.44-5.32a7.143 7.143 0 0 1 4.78-2.74 7.146 7.146 0 0 1 5.32 1.44 7.143 7.143 0 0 1 2.74 4.78c.51 3.93-2.28 7.55-6.22 8.06z" fill="#2B2B2D"></path><path d="M34.92 31c-.17-.18-.32-.33-.47-.45-.15-.12-.36-.24-.65-.36-.29-.12-.51-.21-.67-.26-.16-.06-.41-.14-.75-.25-.69-.21-1.16-.42-1.42-.61a.932.932 0 0 1-.39-.79c0-.34.13-.62.39-.82.26-.2.6-.3 1.03-.3.82 0 1.42.36 1.8 1.08.05.1.17.14.27.08l.91-.53c.09-.05.12-.17.08-.26a3.39 3.39 0 0 0-1.17-1.29 3.29 3.29 0 0 0-1.15-.45v-.89a.19.19 0 0 0-.19-.19h-.97a.19.19 0 0 0-.19.19v.86c-.54.09-1.02.31-1.43.65-.57.47-.85 1.1-.85 1.9 0 .4.07.76.22 1.06.15.3.37.55.66.75.3.2.58.36.84.47.27.11.61.23 1.04.36.76.23 1.3.44 1.6.64.3.19.45.47.45.84 0 .35-.14.64-.42.86-.28.22-.7.33-1.26.33-1.05 0-1.77-.44-2.16-1.31a.196.196 0 0 0-.27-.1l-.94.55c-.08.05-.12.15-.08.24.25.61.65 1.1 1.21 1.47.4.26.87.43 1.39.52v.76c0 .11.09.19.19.19h.97c.11 0 .19-.09.19-.19v-.72c.71-.08 1.3-.3 1.78-.68.59-.48.88-1.12.88-1.94 0-.29-.03-.55-.1-.79-.09-.23-.21-.44-.37-.62z" fill="#2B2B2D"></path></svg><svg width="52" height="43" viewBox="0 0 52 43" fill="none" id="faq3" y="1169"><path d="M31.72 29.67l-4.28 5.32-.18.22 2.78 3.27 2.24 2.63c.16.18.34.33.52.46.06.05.13.07.2.11.13.08.25.16.39.22.08.04.17.06.25.08.12.04.25.09.38.12.09.02.19.02.28.03.12.02.25.04.37.04s.24-.01.36-.03c.09-.01.18-.01.27-.03.13-.02.25-.07.37-.1.08-.03.17-.04.25-.07.13-.05.26-.13.38-.2.07-.04.13-.06.2-.1.19-.12.36-.26.53-.43l1.33-1.33c.33-.33.58-.72.74-1.13a3.35 3.35 0 0 0 .13-1.93c-.1-.42-.28-.83-.55-1.2-.13-.18-.29-.35-.46-.51l-6.43-5.4-.07-.04zm2.37 7.29a1.325 1.325 0 0 1 1.88 0 1.33 1.33 0 0 1-.94 2.27 1.328 1.328 0 0 1-.94-2.27zM21.08 27.95l4.29-3.61-.09-.07-3.18-2.67s1.48-4.29-1.09-6.77c-1.55-1.49-3.3-1.81-4.45-1.83-.04 0-.07.01-.1.01s-.06 0-.08.01c-.03.01-.05.03-.08.04-.02.01-.05.02-.07.03l-.06.06c-.02.02-.04.03-.05.05-.02.02-.03.05-.04.08-.01.02-.03.04-.04.06-.01.03-.02.06-.02.09-.01.02-.01.04-.02.07v.17c.01.04.02.08.04.11.01.02.01.03.02.05.03.05.06.1.11.15l1.53 1.54a2.756 2.756 0 0 1 .01 3.87l-1.17 1.12c-.14.13-.28.25-.43.35-.05.03-.11.06-.17.09-.1.06-.21.12-.31.16-.07.03-.14.04-.21.06-.1.03-.2.07-.3.09-.07.01-.15.01-.22.02-.09.01-.18.03-.28.03h-.02c-.1 0-.2-.02-.31-.03-.08-.01-.15-.01-.23-.03-.11-.02-.21-.06-.31-.09-.07-.02-.14-.04-.21-.07-.11-.05-.22-.11-.32-.17-.05-.03-.11-.05-.16-.09-.15-.11-.3-.23-.43-.37l-1.45-1.51c-.05-.06-.12-.09-.18-.12-.02-.01-.04-.01-.06-.02a.353.353 0 0 0-.14-.03h-.06c-.06 0-.12.01-.18.03h-.01c-.06.02-.12.06-.17.11l-.04.04-.09.12c-.01.02-.02.04-.03.05-.03.07-.04.14-.05.22 0 .47.05 1.05.21 1.66.06.25.15.52.25.78.11.27.23.55.39.82.23.4.52.8.88 1.2.15.16.31.31.47.44.06.05.12.08.18.13.11.08.22.16.33.23.07.04.14.08.22.12.1.06.21.12.31.17.08.04.16.06.24.09.1.04.2.08.31.12.08.03.17.05.25.07.1.03.2.06.3.08.09.02.17.03.26.05.1.02.2.04.29.05l.26.03.29.03c.09.01.17.01.25.01.09 0 .18.01.27.01.1 0 .19 0 .28-.01.08 0 .16 0 .23-.01.09-.01.18-.01.27-.02.07-.01.14-.01.21-.02l.25-.03c.06-.01.12-.02.18-.02.08-.01.15-.03.22-.04l.15-.03c.07-.01.12-.03.18-.04.04-.01.09-.02.12-.03.05-.01.09-.02.13-.03.03-.01.07-.02.1-.02.04-.01.07-.02.09-.03.02 0 .04-.01.05-.01.03-.01.05-.01.05-.01l2.44 2.86z" fill="#2B2B2D"></path><path d="M40.6 19.729l-8.04-8.04c-.13-.13-.28-.22-.43-.29-.16-.06-.32-.1-.49-.1-.33 0-.67.13-.92.38l-2.91 2.91a1.31 1.31 0 0 0 0 1.85l4.24 4.24-5.49 4.64-4.49 3.78-5.83 4.9-1.52 1.14c-.88.78-1.23 1.93-1.05 3 .07.43.23.85.48 1.23.12.19.27.37.43.54l1.33 1.33c.16.16.33.3.52.42a3.27 3.27 0 0 0 1.81.54c.89 0 1.78-.36 2.43-1.08l1.16-1.53 4.45-5.54 4.3-5.35 4.23-5.26 5.79 5.79c.12.12.29.19.45.19.08 0 .16-.02.24-.05.08-.03.15-.08.21-.14l.97-.97c.15-.15.22-.37.17-.58l-1.44-6.86c-.09-.4-.3-.79-.6-1.09z" fill="#2B2B2D"></path><path d="M42.29 11.86V1.45h-5.67v6.36L25.69 0 0 18.41l1.84 2.63L25.69 4.03l23.85 17.01 1.86-2.66-9.11-6.52z" fill="#2B2B2D"></path></svg><svg width="42" height="26" viewBox="0 0 42 26" fill="none" id="faq4" y="1212"><path d="M9.916 11.135l-.61-3.55c-.02-.12.02-.23.1-.32l2.58-2.51a.36.36 0 0 0-.2-.61l-3.56-.52a.352.352 0 0 1-.27-.2L6.366.195a.36.36 0 0 0-.64 0l-1.59 3.23c-.05.11-.15.18-.27.2l-3.56.52a.36.36 0 0 0-.2.61l2.58 2.51c.08.08.12.2.1.32l-.61 3.55c-.05.29.26.51.52.38l3.19-1.68c.1-.05.23-.05.33 0l3.19 1.68c.25.14.56-.09.51-.38zM24.377 11.135l-.61-3.55c-.02-.12.02-.23.1-.32l2.58-2.51a.36.36 0 0 0-.2-.61l-3.56-.52a.352.352 0 0 1-.27-.2l-1.59-3.23a.36.36 0 0 0-.64 0l-1.59 3.23c-.05.11-.15.18-.27.2l-3.56.52a.36.36 0 0 0-.2.61l2.58 2.51c.08.08.12.2.1.32l-.61 3.55c-.05.29.26.51.52.38l3.19-1.68c.1-.05.23-.05.33 0l3.19 1.68c.25.14.56-.09.51-.38zM40.896 4.765a.36.36 0 0 0-.2-.61l-3.56-.52a.351.351 0 0 1-.27-.2l-1.59-3.23a.36.36 0 0 0-.64 0l-1.59 3.23c-.05.11-.15.18-.27.2l-3.56.52a.36.36 0 0 0-.2.61l2.58 2.51c.08.08.12.2.1.32l-.61 3.55c-.05.29.26.51.52.38l3.19-1.68c.1-.05.23-.05.33 0l3.19 1.68c.26.14.57-.08.52-.38l-.61-3.55c-.02-.12.02-.23.1-.32l2.57-2.51zM19.017 18.425l-3.56-.52a.352.352 0 0 1-.27-.2l-1.59-3.23a.36.36 0 0 0-.64 0l-1.59 3.23c-.05.11-.15.18-.27.2l-3.56.52a.36.36 0 0 0-.2.61l2.58 2.51c.08.08.12.2.1.32l-.61 3.55c-.05.29.26.51.52.38l3.19-1.68c.1-.05.23-.05.33 0l3.19 1.68c.26.14.57-.08.52-.38l-.61-3.55c-.02-.12.02-.23.1-.32l2.58-2.51c.2-.21.08-.57-.21-.61zM33.476 18.425l-3.56-.52a.351.351 0 0 1-.27-.2l-1.59-3.23a.36.36 0 0 0-.64 0l-1.59 3.23c-.05.11-.15.18-.27.2l-3.56.52a.36.36 0 0 0-.2.61l2.58 2.51c.08.08.12.2.1.32l-.61 3.55c-.05.29.26.51.52.38l3.19-1.68c.1-.05.23-.05.33 0l3.19 1.68c.26.14.57-.08.52-.38l-.61-3.55c-.02-.12.02-.23.1-.32l2.58-2.51c.2-.21.08-.57-.21-.61z" fill="#2B2B2D"></path></svg><svg width="49" height="43" viewBox="0 0 49 43" fill="none" id="faq5" y="1238"><path d="M13.226 2l9.01 4.59h4.41L14.136.22c-.28-.14-.59-.22-.91-.22-.21 0-.42.03-.62.1-.5.16-.92.52-1.16.99l-2.8 5.49h2.24L13.226 2zM34.907 40.81l-4.85-2.47h-4.41l8.35 4.25a1.993 1.993 0 0 0 2.69-.87l1.72-3.37h-2.24l-1.26 2.46zM48.037 18.12c-.16-.5-.52-.92-.99-1.16l-1.01-.52v2.24l.11.05-.11.21v4.41l1.89-3.71c.23-.46.28-1.01.11-1.52zM.097 24.68c.16.5.52.92.99 1.16l1.01.52v-2.24l-.11-.05.11-.21v-4.41l-1.89 3.71c-.23.47-.27 1.01-.11 1.52zM42.537 8.08H5.617c-1.1 0-2 .9-2 2v24.75c0 1.1.9 2 2 2h36.92c1.1 0 2-.9 2-2V10.08c0-1.1-.9-2-2-2zm0 26.76H5.617V10.08h36.92v24.76z" fill="#2B2B2D"></path><path d="M38.817 18.25h-15.02v.5h15.02v-.5zM38.817 22.21h-15.02v.5h15.02v-.5zM38.817 26.17h-15.02v.5h15.02v-.5zM14.776 21.34c1.77 0 3.21-1.44 3.21-3.21s-1.44-3.21-3.21-3.21-3.21 1.44-3.21 3.21 1.44 3.21 3.21 3.21zM14.777 30.3c2.03 0 4.43-.19 5.76-.88.57-.3-.54-3.71-1.19-4.64-.99-1.42-2.06-2.59-4.57-2.59-2.51 0-3.58 1.17-4.57 2.59-.65.93-1.76 4.34-1.19 4.64 1.33.69 3.73.88 5.76.88z" fill="#2B2B2D"></path></svg><svg width="41" height="57" viewBox="0 0 41 57" fill="none" id="faq6" y="1281"><path d="M38.88 0H2C.9 0 0 .9 0 2v52.24c0 1.1.9 2 2 2h36.88c1.1 0 2-.9 2-2V2c0-1.11-.89-2-2-2zm0 54.24H2V2h36.88v52.24z" fill="#2B2B2D"></path><path d="M34.44 10.86H6.45v.5h27.99v-.5zM34.44 15.44H6.45v.5h27.99v-.5zM34.44 20.02H6.45v.5h27.99v-.5zM34.44 24.8H6.45v.5h27.99v-.5zM34.44 29.58H6.45v.5h27.99v-.5zM19.15 38.8H6.45v.5h12.7v-.5zM28.61 37.99c-3.62 0-6.57 2.95-6.57 6.57s2.95 6.57 6.57 6.57c3.63 0 6.57-2.95 6.57-6.57s-2.94-6.57-6.57-6.57zm0 12.4a5.82 5.82 0 1 1 0-11.64 5.82 5.82 0 0 1 5.82 5.82c0 3.21-2.6 5.82-5.82 5.82z" fill="#2B2B2D"></path><path d="M31.28 42.51l-3.04 3.04-1.73-1.73c-.2-.2-.51-.2-.71 0-.2.2-.2.51 0 .71l2.08 2.08c.09.09.22.15.35.15.13 0 .26-.05.35-.15l3.4-3.4c.2-.2.2-.51 0-.71-.2-.2-.51-.19-.7.01z" fill="#2B2B2D"></path></svg><svg width="59" height="50" viewBox="0 0 59 50" fill="none" id="faq7" y="1338"><path d="M49.843 11.86V1.45h-5.67v6.36L33.243 0l-15.7 11.25c.3.16.59.35.84.6.59.6 1.21 1.07 1.88 1.43l12.98-9.26 23.85 17.01 1.86-2.66-9.11-6.51z" fill="#2B2B2D"></path><path d="M33.253 6.29l-10.87 7.75c.61.12 1.25.19 1.95.19 1.23 0 2.66-.19 4.23-.56.27-.06.54-.09.81-.09.73 0 1.44.23 2.04.66.82.59 1.35 1.51 1.44 2.52l.06.63c.11 1.11.26 2.66.33 4.48H39.583v10.05h-7.02c-.1.51-.21 1.01-.34 1.52-.66 2.63-1.64 5.03-2.91 7.16H50.553V18.63l-17.3-12.34z" fill="#2B2B2D"></path><path d="M31.432 17.53l-.06-.64c-.05-.58-.35-1.1-.82-1.44-.34-.25-.75-.38-1.17-.38-.15 0-.31.02-.46.05-1.71.41-3.21.6-4.58.6-2.87 0-5.1-.9-7.02-2.82a2.006 2.006 0 0 0-2.84 0c-1.91 1.92-4.14 2.82-7.02 2.82-1.37 0-2.87-.2-4.58-.6-.15-.04-.31-.05-.46-.05-.42 0-.82.13-1.17.38-.47.34-.77.86-.82 1.44l-.06.66c-.61 6.23-2.46 25.2 14.82 31.63.23.08.46.13.7.13.24 0 .47-.04.7-.13 17.29-6.43 15.44-25.41 14.84-31.65zm-15.55 29.79c-16.47-6.13-13.95-24.88-13.46-30.24 1.83.43 3.5.66 5.04.66 3.39 0 6.13-1.09 8.44-3.41 2.31 2.32 5.04 3.41 8.44 3.41 1.54 0 3.21-.22 5.04-.66.49 5.35 2.97 24.1-13.5 30.24z" fill="#2B2B2D"></path><path d="M21.143 30.93c-.31-.33-.6-.61-.86-.83-.27-.22-.67-.44-1.19-.66-.53-.22-.94-.38-1.23-.48-.29-.1-.75-.26-1.38-.46-1.26-.39-2.13-.77-2.61-1.12-.48-.35-.72-.84-.72-1.45 0-.63.24-1.13.71-1.5.47-.37 1.1-.56 1.89-.56 1.5 0 2.6.66 3.31 1.98.1.18.32.25.49.15l1.67-.97c.16-.09.23-.3.14-.47a6.281 6.281 0 0 0-2.14-2.37c-.64-.41-1.34-.68-2.11-.83v-1.63c0-.19-.16-.35-.35-.35h-1.78c-.2 0-.35.16-.35.35v1.58c-.99.17-1.87.56-2.63 1.19-1.04.86-1.56 2.02-1.56 3.49 0 .74.13 1.39.4 1.94s.67 1.01 1.22 1.38c.54.37 1.06.66 1.55.86.49.2 1.13.42 1.91.66 1.4.43 2.38.82 2.93 1.17.55.35.83.87.83 1.55 0 .65-.26 1.17-.77 1.57-.51.4-1.28.6-2.3.6-1.93 0-3.25-.8-3.96-2.41-.09-.2-.32-.28-.5-.17l-1.73 1.01c-.15.09-.22.28-.15.44.45 1.13 1.2 2.03 2.22 2.69.74.48 1.6.79 2.55.95v1.39c0 .19.16.35.35.35h1.78c.19 0 .35-.16.35-.35v-1.31c1.3-.14 2.39-.55 3.26-1.25 1.08-.88 1.62-2.06 1.62-3.56 0-.54-.06-1.02-.19-1.44-.15-.42-.36-.8-.67-1.13z" fill="#2B2B2D"></path></svg><svg width="41" height="41" viewBox="0 0 41 41" fill="none" id="faq8" y="1388"><path d="M39.98 0H27.11v.5H4.21V0H1C.45 0 0 .45 0 1v38.97c0 .55.45 1 1 1h16.19v-2h-1.88v-11h1.88v-1h-2.88v12H2V2h2.21v-.5h22.9V2h11.87v14.31H14.82v2h24.16v8.66H27.11v1h1.99v3.18h1v-3.18h8.87v11H30.1v-3.5h-1v3.5h-2.88v2h13.76c.55 0 1-.45 1-1V1c0-.55-.44-1-1-1z" fill="#2B2B2D"></path></svg><svg width="41" height="36" viewBox="0 0 41 36" fill="none" id="faq9" y="1429"><path d="M20.15 20.64H4.2v.5h15.95v-.5zM20.15 23.84H4.2v.5h15.95v-.5zM18.47 29.67c-.41.18-.83.36-1.22.61-.14.09-.3.26-.32.47-.01.12.03.24.12.32.17.16.4.11.49.09l.8-.18c1.18-.27 2.39-.55 3.6-.58.01.11.02.21.01.32l.5.04c.02-.23 0-.46-.06-.68a.255.255 0 0 0-.24-.19c-1.33.01-2.64.31-3.91.6-.2.05-.4.09-.6.14.32-.19.67-.34 1.04-.5.48-.21.98-.42 1.42-.75.42-.31.66-.66.71-1.04a.254.254 0 0 0-.09-.23.25.25 0 0 0-.25-.04c-1.5.59-3 1.17-4.5 1.74-.8.31-1.71.65-2.63.92-.38.11-.78.21-1.18.21-.11.02-.16-.02-.17-.02-.01-.01-.03-.09.05-.28.19-.46.44-.9.74-1.3.8-.35 1.59-.71 2.39-1.08.31-.14.69-.32.98-.62.08-.08.18-.21.2-.39.02-.3-.23-.53-.49-.57-.22-.03-.41.03-.57.1a6.76 6.76 0 0 0-2.83 2.15c-1.17.51-2.34 1.01-3.49 1.51l.2.46c.92-.39 1.85-.79 2.78-1.2-.14.24-.26.49-.36.75-.19.45-.06.7.07.83.16.15.38.16.49.16h.03c.46-.01.9-.12 1.31-.23.87-.25 1.69-.55 2.67-.93 1.29-.49 2.58-.99 3.87-1.5-.06.06-.14.12-.22.19-.42.3-.86.49-1.34.7zm-3.02-2.41c.09-.04.19-.07.27-.07h.04c.04.01.07.03.07.03s-.01.03-.06.08c-.22.23-.54.38-.82.51-.45.21-.9.41-1.35.62.54-.5 1.17-.9 1.85-1.17z" fill="#2B2B2D"></path><path d="M38.92 14.71h-1.33c-.21.67-.42 1.34-.64 2h1.97v16.97H27.74c-.23.05-.45.09-.69.09-.24 0-.48-.03-.71-.09H1.99V16.71h25.29c.21-.66.42-1.33.65-2H2c-1.1 0-2 .9-2 2v16.97c0 1.1.9 2 2 2h36.93c1.1 0 2-.9 2-2V16.71c-.01-1.11-.91-2-2.01-2z" fill="#2B2B2D"></path><path d="M25.96 21.14c.05-.17.09-.33.14-.5h-3.2c-.14 0-.25.11-.25.25v3.2c0 .14.11.25.25.25h2.24c.04-.16.08-.33.12-.5h-2.11v-2.7h2.81zM27.32 23.84c-.02.06-.03.12-.04.18-.19.75-.35 1.47-.5 2.14-.43 2.02-.49 5.44.06 5.59 1.12.29 2.8-1.95 3.86-4.28.43-.94.88-1.99 1.34-3.13.07-.17.13-.33.2-.5.34-.86.69-1.76 1.04-2.7.06-.16.12-.33.18-.5.45-1.23.9-2.51 1.34-3.83l.03-.11c.23-.68.43-1.34.63-2 .18-.57.38-1.16.55-1.72l-4.83-1.61c-.45 1.22-.89 2.49-1.33 3.79-1.01 3.11-1.89 6.1-2.53 8.68zM34.4 23.84c-.07.17-.13.34-.2.5h2.17c.14 0 .25-.11.25-.25v-3.2c0-.14-.11-.25-.25-.25h-.77c-.06.17-.12.33-.18.5h.71v2.7H34.4zM37.91 5.83c.94-4.44.62-5.48-.26-5.77-.87-.29-1.76.34-3.67 4.47-.71 1.52-1.46 3.35-2.22 5.36l4.72 1.57c.59-2.07 1.08-3.99 1.43-5.63z" fill="#2B2B2D"></path></svg><svg width="21" height="17" viewBox="0 0 21 17" fill="none" id="folders" y="1465"><path d="M19.809 1.222h-9.573l-.51-.764A1 1 0 0 0 8.862 0h-6.11c-.56 0-1.019.458-1.019 1.018v1.12h1.019v-1.12h6.11l.815 1.222h10.133v11.406h-1.018v1.019h1.018c.56 0 1.018-.458 1.018-1.018V2.24c0-.56-.407-1.018-1.018-1.018z" fill="#212C30"></path><path d="M17.517 4.175H7.638l-.662-.967c-.102-.153-.255-.255-.407-.255H.509c-.305 0-.509.204-.509.51V16.09c0 .305.204.509.51.509h17.006c.306 0 .51-.204.51-.51V4.686c0-.306-.204-.51-.51-.51z" fill="#212C30"></path></svg><svg width="17" height="17" viewBox="0 0 17 17" fill="none" id="instagram-round" y="1482"><path d="M11.65 4.113c-.322-.161-.645-.202-1.008-.202-.726-.04-1.492-.04-2.217-.04h-1.29c-.484 0-.968 0-1.452.08-.766.162-1.25.605-1.492 1.331-.08.323-.12.645-.12 1.008v3.185c0 .484 0 .968.08 1.411.161.766.605 1.25 1.37 1.492.323.08.646.121 1.009.121h3.79c.282 0 .564-.04.846-.08.766-.162 1.29-.605 1.492-1.371.08-.323.12-.686.12-1.049V6.29c0-.322-.04-.645-.08-.927-.201-.565-.484-1.008-1.048-1.25zm-3.225 6.773a2.701 2.701 0 1 1 0-5.403 2.701 2.701 0 0 1 0 5.403zm2.822-4.878a.637.637 0 0 1-.645-.645c0-.363.282-.645.645-.645.363 0 .645.282.645.645a.637.637 0 0 1-.645.645z" fill="#fff"></path><path d="M8.426 6.41a1.79 1.79 0 0 0-1.774 1.774 1.79 1.79 0 0 0 1.774 1.774A1.79 1.79 0 0 0 10.2 8.184 1.79 1.79 0 0 0 8.426 6.41z" fill="#fff"></path><path d="M8.426 0A8.397 8.397 0 0 0 0 8.426a8.397 8.397 0 0 0 8.426 8.427 8.397 8.397 0 0 0 8.427-8.427C16.853 3.75 13.063 0 8.426 0zm5.282 9.676c0 .484 0 1.008-.121 1.492-.282 1.21-1.008 1.935-2.217 2.177-.444.121-.928.121-1.412.121H8.426c-.685 0-1.37 0-2.056-.04-.484 0-.967-.08-1.41-.242-.848-.363-1.372-.968-1.614-1.855a8.074 8.074 0 0 1-.16-.967c-.041-1.33-.041-2.661 0-3.992 0-.443.04-.927.16-1.37.323-1.09 1.049-1.734 2.137-1.976.444-.08.847-.121 1.29-.121h3.306c.444 0 .887.04 1.33.12 1.17.283 1.976 1.13 2.178 2.299.08.443.08.887.08 1.33.041 1.049.041 2.057.041 3.024z" fill="#fff"></path></svg><svg width="26" height="25" viewBox="0 0 26 25" fill="none" id="pen" y="1499"><path fill-rule="evenodd" clip-rule="evenodd" d="M1.949 18.207l-1.215 6.78 6.684-1.232-5.47-5.547zM19.899.002L2.67 17.48l5.468 5.547L25.37 5.549 19.899 0z" fill="#616D7B"></path></svg><svg width="14" height="15" viewBox="0 0 14 15" fill="none" id="phone" y="1524"><path d="M4.758 5.314c.268-.531-1.002-2.436-1.67-3.322-.668-.664-2.672.333-3.006 1.33-.334.996.334 3.985 2.338 6.975 2.004 2.99 4.676 4.318 5.679 4.65 1.002.333 2.004-.996 2.672-1.993.668-.996-1.67-2.325-2.672-2.99-1.003-.664-.81 1.924-2.004 1.33-2.004-.997-3.34-3.322-3.34-4.983 0-.665 1.67-.332 2.003-.997z" fill="#FAC04B"></path><path d="M7.115 3.263c2.398 1.027 3.267 2.534 3.381 4.475m-2.72-6.462c3.563.958 4.912 3.995 5.05 6.324" stroke="#FAC04B" stroke-linecap="round" stroke-linejoin="round"></path></svg><svg width="22" height="29" viewBox="0 0 22 29" fill="none" id="pinterest" y="1539"><path d="M3.289 16.29C1.56 15.034.687 13.097.978 9.315c.291-3.782 4.494-7.73 8.587-8.302 4.348-.59 9.279.185 11.553 5.35 2.274 5.166-.728 11.383-3.33 12.97-2.601 1.586-4.548 1.568-5.73 1.162-1.183-.406-2.293-1.365-2.365-1.698-.055-.22-1.001 4.096-1.183 4.65C8.328 24 6.2 28.52 5.6 28.298c-.601-.221-.365-4.98-.274-5.497.091-.517 2.11-8.966 2.11-9.28 0-.313-.964-1.9-.181-4.335.691-2.159 3.056-2.712 4.002-1.827.8.738 1.2 1.808.164 4.834-.91 2.675-1.128 4.28.473 5.48 1.6 1.198 4.093-.776 4.948-2.492.856-1.715 1.729-6.143.728-8.246-1-2.103-2.947-3.394-5.403-3.394-2.456 0-5.713.424-7.514 4.28-1.71 3.67.218 6.254.4 6.475.182.221.273.387.182.683-.09.313-.273 1.143-.364 1.439-.09.295-.4.738-1.582-.13z" fill="#fff"></path></svg><svg width="17" height="17" viewBox="0 0 17 17" fill="none" id="pinterest-round" y="1568"><path d="M8.614 0A8.397 8.397 0 0 0 .187 8.426a8.397 8.397 0 0 0 8.427 8.427 8.397 8.397 0 0 0 8.426-8.427C17.04 3.75 13.25 0 8.614 0zm3.185 10.886c-1.17.726-2.056.685-2.58.524-.524-.161-1.049-.605-1.089-.766-.04-.121-.443 1.814-.524 2.056-.08.242-1.048 2.258-1.33 2.177-.283-.08-.162-2.217-.121-2.46.04-.241.967-3.99.967-4.152 0-.12-.443-.847-.08-1.935.322-.968 1.37-1.21 1.814-.806.363.322.524.806.08 2.136-.403 1.21-.524 1.895.202 2.46.726.524 1.855-.363 2.258-1.13.403-.765.766-2.74.322-3.668-.443-.927-1.33-1.532-2.459-1.532s-2.58.201-3.387 1.895c-.766 1.653.08 2.782.162 2.903.08.08.12.16.08.322-.04.121-.12.524-.161.645-.04.121-.161.323-.726-.04-.766-.564-1.169-1.411-1.048-3.104.12-1.694 2.016-3.468 3.87-3.71 1.976-.282 4.194.08 5.242 2.379 1.048 2.338-.323 5.12-1.492 5.806z" fill="#fff"></path></svg><svg width="29" height="29" viewBox="0 0 29 29" fill="none" id="plus" y="1585"><path d="M14.877.787v27.807m0-27.807v27.807m0-27.807v27.807M28.885 14.691H.88m28.006 0H.88m28.006 0H.88" stroke="#616D7B" stroke-width="5"></path></svg><svg width="51" height="96" viewBox="0 0 51 96" fill="none" id="process" y="1614"><path d="M16.7 22.3H6V33h10.7V22.3zM16.7 45.9H6v10.7h10.7V45.9z" stroke="#212C30" stroke-miterlimit="10" stroke-linecap="round" stroke-linejoin="round"></path><path d="M23.7 54h12.1M23.7 48.7h20.4" stroke="#212C30" stroke-miterlimit="10" stroke-linecap="round"></path><path d="M22.8 90.8h4.6" stroke="#212C30" stroke-miterlimit="10" stroke-linecap="round" stroke-linejoin="round"></path><path d="M23.7 30.5h12.1M23.7 25.2h20.4M35.8 81.7a8.1 8.1 0 1 0 0-16.2 8.1 8.1 0 0 0 0 16.2z" stroke="#212C30" stroke-miterlimit="10" stroke-linecap="round"></path><path d="M38.2 70.5c-1-1.8-4.7-1.5-4.7.7 0 2.5 5 1.7 5 3.9 0 2.4-4.2 3.2-5.4.7M35.9 68.2v1M35.9 77.5v1.2M6 74.8h11.1M6 69.4h16.9" stroke="#212C30" stroke-miterlimit="10" stroke-linecap="round"></path><path d="M47.7 94.6H2.5c-1.1 0-2-.9-2-2V3c0-1.1.9-2 2-2h45.2c1.1 0 2 .9 2 2v89.6c0 1.1-.9 2-2 2z" stroke="#212C30" stroke-miterlimit="10" stroke-linejoin="round"></path><path d="M8.6 26.3l3.2 3.2 8.2-8.2M8.6 49.8l3.2 3.2 8.2-8.2" stroke="#212C30" stroke-miterlimit="10" stroke-linecap="round" stroke-linejoin="round"></path><path d="M8.6 26.3l3.2 3.2 8.2-8.2M8.6 49.8l3.2 3.2 8.2-8.2" stroke="#212C30" stroke-miterlimit="10" stroke-linecap="round" stroke-linejoin="round"></path><path d="M.5 9.5h49.2M.5 87.6h49.2" stroke="#212C30" stroke-miterlimit="10" stroke-linejoin="round"></path></svg><svg width="63" height="95" viewBox="0 0 63 95" fill="none" id="process2" y="1710"><path d="M27.1 32.4h16.7M27.1 26.8h28.3" stroke="#212C30" stroke-miterlimit="10" stroke-linecap="round"></path><path d="M19.7 47.7H8.4V59h11.3V47.7z" stroke="#212C30" stroke-miterlimit="10" stroke-linecap="round" stroke-linejoin="round"></path><path d="M27.1 56.3h16.7M27.1 50.7h28.3M27.1 80.1h16.7M27.1 74.5h28.3" stroke="#212C30" stroke-miterlimit="10" stroke-linecap="round"></path><path d="M11.5 8H.5v86.3h61.8V8h-11" stroke="#212C30" stroke-miterlimit="10" stroke-linejoin="round"></path><path d="M49.3 1H13.5c-1.1 0-2 .9-2 2v8.2h39.8V3c0-1.1-.9-2-2-2zM11.3 50.6l5.5 5.4M11.3 56l5.5-5.4M11.1 28l3.4 3.4 8.7-8.7M11.1 75.7l3.4 3.4 8.7-8.7" stroke="#212C30" stroke-miterlimit="10" stroke-linecap="round" stroke-linejoin="round"></path><path d="M19.7 71.5H8.4v11.3h11.3V71.5z" stroke="#212C30" stroke-miterlimit="10" stroke-linecap="round" stroke-linejoin="round"></path><path d="M11.1 75.7l3.4 3.4 8.7-8.7M19.7 23.8H8.4v11.3h11.3V23.8z" stroke="#212C30" stroke-miterlimit="10" stroke-linecap="round" stroke-linejoin="round"></path><path d="M11.1 28l3.4 3.4 8.7-8.7" stroke="#212C30" stroke-miterlimit="10" stroke-linecap="round" stroke-linejoin="round"></path></svg><svg width="95" height="56" viewBox="0 0 95 56" fill="none" id="process3" y="1805"><path d="M11.1 48.9v-7.2c0-1.2-.4-3.5-2.4-3.5s-2.4 2.3-2.4 3.5v7.2h4.8zM22 48.9v-7.2c0-1.2-.4-3.5-2.4-3.5s-2.4 2.3-2.4 3.5v7.2H22zM11.1 24.6H6.3v8.2h4.8v-8.2zM22 24.6h-4.8v8.2H22v-8.2zM83.9 48.9v-7.2c0-1.2.4-3.5 2.4-3.5s2.4 2.3 2.4 3.5v7.2h-4.8zM73 48.9v-7.2c0-1.2.4-3.5 2.4-3.5s2.4 2.3 2.4 3.5v7.2H73zM83.827 32.804h4.8v-8.2h-4.8v8.2zM72.968 32.804h4.8v-8.2h-4.8v8.2z" stroke="#212C30" stroke-miterlimit="10" stroke-linecap="round" stroke-linejoin="round"></path><path d="M68.3 21.7v33.2h-3.5v-1-22c0-2.1-.7-6.3-4.5-6.3s-4.5 4.2-4.5 6.3v23h-3.5v-23c0-2.2-.7-6.3-4.5-6.3h-.4c-3.9 0-4.5 4.2-4.5 6.3v23h-3.5v-23c0-2.2-.7-6.3-4.5-6.3s-4.5 4.2-4.5 6.3v23h-3.5V21.7" stroke="#212C30" stroke-miterlimit="10" stroke-linejoin="round"></path><path d="M92.2 19.6v35.3H2.4V19.6M43.4 4.6H30.5l-30 15h25.8M68.6 19.6h25.6l-30.1-15H51.5" stroke="#212C30" stroke-miterlimit="10" stroke-linejoin="round"></path><path d="M68.6 19.6l-17.1-15-4-3.6-4.1 3.6-17.1 15-2.4 2.1h47.2l-2.5-2.1z" stroke="#212C30" stroke-miterlimit="10" stroke-linejoin="round"></path><path d="M47.5 15.5a3.7 3.7 0 1 0 0-7.4 3.7 3.7 0 0 0 0 7.4z" stroke="#212C30" stroke-miterlimit="10" stroke-linecap="round" stroke-linejoin="round"></path></svg><svg width="80" height="80" viewBox="0 0 80 80" fill="none" id="process4" y="1861"><path d="M28.3 33.3h50.4M28.3 78.9V55.8h13M55.8 44.2v13.1" stroke="#212C30" stroke-miterlimit="10" stroke-linecap="round" stroke-linejoin="round"></path><path d="M53.5 78.9h25.4V.5H.5v78.4h40.8l9-5.9" stroke="#212C30" stroke-miterlimit="10" stroke-linecap="round" stroke-linejoin="round"></path><path d="M59.6 59.6L55.8 71v7.9M.5 68.2h27.8M64.2.9v4.2h10.7v24H64.2v4.2M64.2 5.1v24M56.9 7.3h-14V27h14V7.3zM.5 74.8h27.8" stroke="#212C30" stroke-miterlimit="10" stroke-linecap="round" stroke-linejoin="round"></path><path d="M78.9 33.3H27.8v10.9h51.1V33.3zM33.102 33.3v10.9M38.201 33.3v10.9M43.3 33.3v10.9M48.4 33.3v10.9M53.5 33.3v10.9M58.602 33.3v10.9M63.701 33.3v10.9M68.8 33.3v10.9M73.9 33.3v10.9M8.8 65.8l5.6 2.4M6.1 65.8L.5 68.2M22.7 65.8l5.6 2.4M20 65.8l-5.6 2.4M37.9 78.9V55.8M56 53.7h22.7M56 71h22.7M.5 32.4h4.7V5.1h18.5V.5" stroke="#212C30" stroke-miterlimit="10" stroke-linecap="round" stroke-linejoin="round"></path><path d="M23.7 5.1v8.6h-9.3v18.7H5.2" stroke="#212C30" stroke-miterlimit="10" stroke-linecap="round" stroke-linejoin="round"></path></svg><svg width="91" height="53" viewBox="0 0 91 53" fill="none" id="process5" y="1941"><path d="M71.8 6.6l-4.2 1.5 7.7 19.5 3.5-1.3M90.3 26.5s-10 3.6-10 3.4c0-.2-9.2-25.6-9.2-25.6L81.7.5l8.6 26zM19 6.6l4.2 1.5-7.7 19.5-3.5-1.3" stroke="#212C30" stroke-miterlimit="10" stroke-linecap="round" stroke-linejoin="round"></path><path d="M.5 26.5s10 3.6 10 3.4c0-.2 9.3-25.5 9.3-25.5L9.2.5l-8.7 26zM67.9 9.2c-3.4 1.1-13.5-4.5-16.3-4.3-2.9.1-12.2 2.7-13.8 4.6-1.6 1.9-5.5 8-5.1 8.8.4.8 2.8 2.9 5.3 2.4 2.4-.5 4.6-5.6 5.8-5.5 1.2.1 7.2-.8 7.2 0s2.5 7 6.4 8.3c3.9 1.3 15.7 8.2 16.3 9.4.6 1.2 1.5 7.5-3.3 6.2-4.8-1.3-10-4.8-10-4.8s5.8 2.7 5.6 5c-.2 2.3-1.2 5-3.9 4.6-2.7-.4-9.1-4.5-8.6-4.3.5.2 5.3 3 5.3 4.3 0 1.3-.5 4.4-3.4 4.3-2.9-.1-6.6-3.1-6.2-2.6.5.5 1 2.2.6 3.3-.4 1.1-2.3 3-4.3 2.5s-3.1-1.8-3.1-1.8M22.6 9.5c4.2-.1 13.6 2 13.8 1.8M16.8 30.8c.5-1.6 2.8-3.7 4.7-3.7 1.9 0 4 .6 4 2.8 0 2.2-2.3 5.7-4.2 5.8-1.9 0-5.3-2.5-4.5-4.9z" stroke="#212C30" stroke-miterlimit="10" stroke-linecap="round" stroke-linejoin="round"></path><path d="M21.2 37.1c.5-1.6 4-5.2 5.9-5.2 1.9 0 4 .6 4 2.8 0 2.2-3.5 7.1-5.4 7.2-1.9.1-5.3-2.4-4.5-4.8zM28.3 42.2c.5-1.6 3.4-5.2 5.2-5.2 1.9 0 4 .6 4 2.8 0 2.2-2.9 7.1-4.8 7.2-1.8.2-5.2-2.3-4.4-4.8zM35.1 46.7c.5-1.6 2.8-3.7 4.7-3.7 1.9 0 4 .6 4 2.8 0 2.2-2.3 5.7-4.2 5.8-1.8.1-5.3-2.5-4.5-4.9zM16.7 26.4l2.2 1.8M74.1 26.4c-1 1.3-1.6 5.6-1.6 5.6" stroke="#212C30" stroke-miterlimit="10" stroke-linecap="round" stroke-linejoin="round"></path></svg><svg width="92" height="82" viewBox="0 0 92 82" fill="none" id="process6" y="1994"><path d="M39.399 40.8l-29.6 35.3 5.1 4.8.3-3.5h3.5l1.1-3.2 3.9.4.5-4.4h3.7l1-4.2 4.2.4.2-4 4.9.5v-4.4l4.9.5.4-4.7 4.8 1v-.4M57.2 47.1h1.3l-.1-4 4.6.9v-4l4.8.4.9-4.4 3.8.8 1-4.8 3.8.5v-2.2L57.9 18.6 43.2 36.1" stroke="#212C30" stroke-miterlimit="10" stroke-linecap="round" stroke-linejoin="round"></path><path d="M57.898 18.6l14.5-16.7c.6-.8 1.8-.9 2.6-.2l15.7 13.2c.8.7.9 1.9.2 2.7l-11.3 13.1-2.3-.4" stroke="#212C30" stroke-miterlimit="10" stroke-linecap="round" stroke-linejoin="round"></path><path d="M74.599 6.9l10.7 8.6c.8.7.9 1.8.3 2.6l-2.9 3.6c-.5.6-1.3.8-2 .6l-11.9-3.7c-.2-.1-.5-.2-.7-.4l-1.7-1.5c-.8-.7-.9-1.8-.2-2.6l5.8-6.9c.6-.8 1.8-.9 2.6-.3zM28.824 19.794l-4.49 3.98 23.216 26.19 4.49-3.98-23.216-26.19z" stroke="#212C30" stroke-miterlimit="10" stroke-linecap="round" stroke-linejoin="round"></path><path d="M77 71.6l-6.6 5.9c-.6.5-1.5.5-2-.1L46.6 52.7c-.5-.6-.5-1.5.1-2l6.6-5.9c.6-.5 1.5-.5 2 .1l21.8 24.6c.6.7.5 1.6-.1 2.1zM46.1 1.4C40.4.1 32.2-.7 24.8 5.9L11.5 17.7c-.3.3-.3.7-.1 1.1l1.2 1.4L7 25.1l-.7-.7c-.1-.4-.6-.4-.9-.1l-3.4 3c-.6.5-.7 1.5-.1 2.1L8 36.3c.5.6 1.5.7 2.1.1l3.4-3c.3-.3.3-.7.1-1.1l-1.1-1.2 5.6-4.9 1.1 1.2c.3.3.7.3 1.1.1l13.3-11.8c.3-.3.3-.7.1-1.1l-1.1-1.3c-1.1-1.3.1-3.4 6-6.5s9.6-1.5 14.2-1-.3-2.9-6.7-4.4z" stroke="#212C30" stroke-miterlimit="10" stroke-linecap="round" stroke-linejoin="round"></path></svg><svg width="96" height="44" viewBox="0 0 96 44" fill="none" id="process7" y="2076"><path d="M44 32.806H18.4c-.3 0-.6-.3-.6-.6v-10.2c0-1.4 1.1-2.6 2.6-2.6h22.8c.8 0 1.4.6 1.4 1.4v11.4c-.1.4-.3.6-.6.6zM44 37.006H18.4c-.3 0-.6-.3-.6-.6v-3c0-.3.3-.6.6-.6H44c.3 0 .6.3.6.6v3c-.1.3-.3.6-.6.6z" stroke="#212C30" stroke-miterlimit="10" stroke-linejoin="round"></path><path d="M45.1 32.806h25.6c.3 0 .6-.3.6-.6v-10.2c0-1.4-1.1-2.6-2.6-2.6H46c-.8 0-1.4.6-1.4 1.4v11.4c-.1.4.2.6.5.6zM45.1 37.006h25.6c.3 0 .6-.3.6-.6v-3c0-.3-.3-.6-.6-.6H45.1c-.3 0-.6.3-.6.6v3c0 .3.3.6.6.6z" stroke="#212C30" stroke-miterlimit="10" stroke-linejoin="round"></path><path d="M71.3 26.906c0-1.1.8-2 1.9-2h1.6c1 0 1.9.9 1.9 2v12.8c0 1.1-.8 2-1.9 2H14.3c-1 0-1.9-.9-1.9-2v-12.8c0-1.1.8-2 1.9-2h1.6c1 0 1.9.9 1.9 2" stroke="#212C30" stroke-miterlimit="10" stroke-linejoin="round"></path><path d="M36.3 14.106h.4c.1-.5.2-1 .2-1.5 0-3.5-2.8-6.3-6.3-6.3s-6.3 2.8-6.3 6.3c0 .5.1 1 .2 1.5h11.8zM1 42.906h8.1M83.5 2.506H56.8v10.8h26.7v-10.8zM79.2 30.906h16.2M80.2 43.006v-12M94.2 43.206v-12M80.3 33.605H94M85.6 27.105h-3v3.8h3v-3.8z" stroke="#212C30" stroke-miterlimit="10" stroke-linecap="round" stroke-linejoin="round"></path><path d="M5.1 42.906v-21.4c0-24.6 24.4-23.5 25.5-15.1" stroke="#212C30" stroke-miterlimit="10" stroke-linecap="round" stroke-linejoin="round"></path></svg><svg width="18" height="18" viewBox="0 0 18 18" fill="none" id="save-photo" y="2120"><rect x=".5" y=".5" width="12.808" height="12.808" rx=".5" stroke="#212C30" stroke-linejoin="round"></rect><rect x="4.692" y="4.691" width="12.808" height="12.808" rx=".5" fill="#E7E7E8" stroke="#212C30" stroke-linejoin="round"></rect><path d="M11.034 7.396v7.275m0-7.275v7.275m0-7.275v7.275M14.671 11.033H7.397m7.274 0H7.397m7.274 0H7.397" stroke="#212C30" stroke-width="2"></path></svg><svg width="15" height="26" viewBox="0 0 15 26" fill="none" id="slider-arrow" y="2138"><path d="M14.4 26V0L0 13l14.4 13L0 13l14.4 13z" fill="#fff"></path></svg><svg width="19" height="19" viewBox="0 0 19 19" fill="none" id="star" y="2164"><path d="M9.18.565a.5.5 0 0 1 .957 0l1.807 5.912a.5.5 0 0 0 .478.354h5.909a.5.5 0 0 1 .306.896l-4.832 3.733a.5.5 0 0 0-.173.542L15.465 18a.5.5 0 0 1-.784.542L9.965 14.9a.5.5 0 0 0-.612 0l-4.716 3.643A.5.5 0 0 1 3.853 18l1.833-5.998a.5.5 0 0 0-.173-.542L.681 7.727a.5.5 0 0 1 .306-.896h5.909a.5.5 0 0 0 .478-.354L9.181.565z" fill="#FAC04B"></path></svg><svg width="40" height="32" viewBox="0 0 40 32" fill="none" id="table" y="2183"><path d="M25.241 22.807c-.088.088-1.502-.619-1.59-.53-.09.088.088 1.59 0 1.68-.09.087-1.327-.531-1.327-.443l7.78 7.249c.264.265.618.176.883-.177l1.503-1.591a.694.694 0 0 0 0-.973l-7.16-6.63c-.089 0 0 1.326-.089 1.415zM6.325 17.06l2.21-2.298c.353-.353.265-.972-.089-1.325l-.265-.266 5.48-5.834-2.21-2.122c.796-2.21 2.74-3.624 4.42-4.154L14.811 0c-1.768.442-3.978 1.856-5.48 3.536L4.025 9.193l-.265-.265a.961.961 0 0 0-1.326 0l-2.21 2.298c-.353.354-.265.973.088 1.326l4.774 4.509c.265.353.884.353 1.238 0z" fill="#935656"></path><path d="M4.38 6.719c.265.265.707.177.972-.089l1.503-1.59a.694.694 0 0 0 0-.973l-.619-.442c-.265-.265-.707-.177-.972.088L3.849 5.216c-.265.354-.265.707 0 .972l.53.53zM13.043 9.99c-.265-.266-.707-.178-.972.088l-1.503 1.59a.694.694 0 0 0 0 .973l3.801 3.624 2.475-2.475-3.8-3.8zM25.065 18.476l-5.745-5.658L4.469 27.846l3.978 3.801.265-.177 1.503.53v-1.59l.088-.089 1.503.53.088-1.59v-.089l1.503.53.088-1.59 1.591.441v-1.591h.089l1.503.53v-1.68h.088l1.503.531v-1.59l.088-.09 1.503.531v-1.591l.088-.088 1.503.53v-1.591l.088-.089 1.503.53v-1.59h.089l1.502.442v-1.592h.089l1.503.442.088-1.59-1.238-.531zM39.032 11.227L30.81 3.183c-.707-.707-1.945-.707-2.652 0l-7.072 7.248c-.707.708-.707 1.945 0 2.652l4.155 4.155 6.1 1.768c.971.265 1.944.707 2.651 0l5.039-5.127c.707-.796.707-1.945 0-2.652zm-15.647 2.122c-.53 0-.972-.53-.884-1.061 0-.53.53-.973 1.061-.884.53.088.973.53.884 1.06-.088.443-.53.885-1.06.885zm3.536 3.27c-.53 0-.972-.53-.884-1.06 0-.53.53-.973 1.061-.884.53 0 .973.53.884 1.06-.088.53-.53.973-1.06.884zm9.017-3.8l-2.74 2.74c-.62.618-1.503.618-2.122 0l-4.95-4.862c-.62-.62-.62-1.503 0-2.122l2.74-2.74c.619-.62 1.503-.62 2.122 0l4.95 4.862c.619.53.619 1.502 0 2.121z" fill="#935656"></path></svg><svg width="21" height="34" viewBox="0 0 21 34" fill="none" id="table10" y="2215"><path d="M15.475 2.871V4.02h4.018v25.836h-4.018v1.148h5.167V2.87h-5.167zM.738 2.87v28.228l13.97 2.87V0L.738 2.87zm12.248 12.918c.287 0 .574.479.574 1.148 0 .67-.287 1.149-.574 1.149s-.574-.479-.574-1.149.287-1.148.574-1.148z" fill="#96B80F"></path></svg><svg width="28" height="34" viewBox="0 0 28 34" fill="none" id="table11" y="2249"><path d="M27.175 0H.575C.286 0 0 .287 0 .574v28.323c0 .383.287.574.574.574h.287v.574H.574c-.383 0-.574.287-.574.574v2.584c0 .383.287.574.574.574h26.6c.384 0 .575-.287.575-.574V30.62c0-.382-.287-.574-.574-.574h-.287v-.574h.287c.383 0 .574-.287.574-.574V.574C27.845.287 27.558 0 27.175 0zM26.6 28.323H14.544V8.9h12.057v19.424zm-25.07 0h-.287V8.9H13.3v19.424H1.531zM13.874 7.655H1.244V3.732H26.6v3.923H13.875zM1.244 1.244H26.6v1.244H1.244V1.244zM26.6 32.629H1.244v-1.34H26.6v1.34zm-.861-2.488H2.105v-.574h23.539v.574h.096z" fill="#79578D"></path><path d="M10.525 10.43c-.383 0-.574.287-.574.574v3.54c0 .383.287.574.574.574s.574-.287.574-.574v-3.54c0-.287-.191-.574-.574-.574zM17.32 15.214c.382 0 .573-.287.573-.574V11.1c0-.383-.287-.575-.574-.575-.383 0-.574.287-.574.575v3.54c-.096.287.191.574.574.574zM15.693 4.497h-3.54c-.383 0-.575.287-.575.574 0 .383.287.574.574.574h3.54c.288.096.575-.191.575-.478 0-.383-.287-.67-.574-.67z" fill="#79578D"></path></svg><svg width="31" height="30" viewBox="0 0 31 30" fill="none" id="table12" y="2283"><path d="M10.278.001H.738v9.54h9.54V0zM30.707 0h-9.539v9.54h9.54V0zM10.278 10.215H.738v9.54h9.54v-9.54zM20.492 10.215h-9.539v9.54h9.54v-9.54zM10.278 20.429H.738v9.539h9.54v-9.54zM20.492 20.429h-9.539v9.539h9.54v-9.54zM30.707 20.429h-9.539v9.539h9.54v-9.54z" fill="#189E9E"></path></svg><svg width="35" height="35" viewBox="0 0 35 35" fill="none" id="table13" y="2313"><path d="M7.914 13.803c-.574.574-.957 1.34-.957 2.2 0 .861.287 1.627.957 2.201l4.402 4.402 1.722 1.722 2.583 2.584c1.244 1.243 3.158 1.243 4.402 0l1.34-1.34-13.11-13.11-1.34 1.34zM10.116 22.031l-8.804 8.803c-.765.766-.765 1.914 0 2.68.766.67 1.914.67 2.68 0l8.803-8.804-1.34-1.34-1.34-1.339zm-6.89 10.334c0 .096-.096.096-.096.192-.095.095-.287.191-.382.191-.192 0-.287-.096-.479-.191-.095-.096-.095-.096-.095-.192v-.191c0-.191.095-.287.19-.383 0-.096 0-.191.097-.191.095-.096.191-.096.382 0h.096s.096 0 .096.095l.095.096c.096.096.192.287.192.383 0 0 0 .096-.096.191zM31.55 13.803l-3.062 3.062c-.766.765-1.914.765-2.584 0-.765-.766-.765-1.914 0-2.584l2.201-2.2c.287-.288.287-.67 0-.862-.287-.287-.67-.287-.861 0l-.479.479c-.478.478-1.148.67-1.818.478a1.895 1.895 0 0 1-1.34-1.34c-.19-.67 0-1.34.48-1.818l3.54-3.54L22.364.215c-.287-.287-.67-.287-.861 0L14.518 7.2l13.109 13.11 5.74-5.742-.956-.765c-.192-.287-.574-.287-.861 0z" fill="#296E8B"></path><path d="M34.611 12.463l-6.123-6.124-3.54 3.54c-.192.192-.192.383-.192.574.096.192.191.383.478.479a.46.46 0 0 0 .574-.192l.479-.478a1.822 1.822 0 0 1 1.818-.478c.67.19 1.148.67 1.34 1.34.19.669 0 1.339-.479 1.817l-2.2 2.201a.73.73 0 0 0-.192.478c0 .192.096.288.191.479.287.287.67.287.861 0l3.062-3.062a1.889 1.889 0 0 1 1.34-.574c.478 0 .957.191 1.34.574l.86.861.48-.478c.19-.287.19-.766-.096-.957zM23.224 24.71L10.115 11.601l1.723-1.722 13.204 13.11-1.818 1.721zM25.904 22.127L12.699 8.923l.861-.861L26.67 21.17l-.766.956z" fill="#296E8B"></path></svg><svg width="34" height="34" viewBox="0 0 34 34" fill="none" id="table14" y="2348"><path fill-rule="evenodd" clip-rule="evenodd" d="M16.936 0c9.378 0 16.937 7.56 16.937 16.936 0 9.378-7.56 16.937-16.937 16.937-5.07 0-9.664-2.297-12.822-5.837l1.819-1.053c2.679 2.967 6.602 4.785 10.908 4.785 8.229 0 14.831-6.603 14.831-14.832a14.783 14.783 0 0 0-14.831-14.83c-8.134 0-14.736 6.601-14.736 14.83 0 2.201.479 4.21 1.244 6.029.191.478.478.574.957.287l1.818-1.053 1.148 2.105-2.775 1.627c-1.052.574-1.913.287-2.488-.766-.382-.765-.765-1.53-1.052-2.296C.383 21.051 0 19.041 0 16.936 0 7.56 7.56 0 16.936 0zm6.124 15.884l3.062-1.818c.096-.096.287 0 .383.095l.67 1.245c.095.095 0 .287-.096.382l-3.062 1.818-.957-1.722zM20.381 11.1l3.062-1.818c.096-.096.287 0 .383.095l.67 1.244c.095.096 0 .287-.096.383l-3.062 1.818-.957-1.722zm-6.698.86l4.402-2.487c.191-.096.574-.096.67.191l2.966 5.072 2.966 5.071c.096.191.096.574-.191.67l-4.498 2.488c-.191.095-.478 0-.67-.192-.287-.478-.765-.765-1.243-.574l-6.029 1.244-1.435-2.392-1.34-2.392 4.115-4.689c.383-.383.383-.861.096-1.435-.096-.191-.096-.479.191-.574zm-4.689 7.56l-2.2 1.244c-.096.096-.192.191-.096.383l1.914 3.349c.095.095.191.191.382.095l2.201-1.244-2.2-3.827z" fill="#F1BB51"></path></svg><svg width="35" height="34" viewBox="0 0 35 34" fill="none" id="table15" y="2382"><path d="M.738 0v33.969h33.969V0H.738zm1.244 22.965V1.244h2.392v21.72H1.982zm0 9.76v-8.803h2.392v8.803H1.982zm3.254-22.678V1.244h5.55v8.803h-5.55zm0 22.678V11.004h5.55v21.72h-5.55zm6.506-9.76V1.244h5.55v21.72h-5.55zm0 9.76v-8.803h5.55v8.803h-5.55zm6.411-22.678V1.244h5.55v8.803h-5.55zm0 22.678V11.004h5.55v21.72h-5.55zm6.507-9.76V1.244h5.55v21.72h-5.55zm0 9.76v-8.803h5.55v8.803h-5.55zm6.506-22.678V1.244h2.393v8.803h-2.392zm0 22.678V11.004h2.393v21.72h-2.392z" fill="#B69679"></path></svg><svg width="38" height="34" viewBox="0 0 38 34" fill="none" id="table16" y="2416"><path fill-rule="evenodd" clip-rule="evenodd" d="M36.812 16.267H1.982c-.67 0-1.244.574-1.244 1.244s.574 1.243 1.244 1.243h34.734c.67 0 1.244-.574 1.244-1.244s-.383-1.243-1.148-1.243zM3.61 23.157c0 3.253 1.722 6.028 4.305 7.559.096 0 .096.095.192.191v.287l-.574.957c-.288.574-.096 1.34.478 1.627.574.287 1.34.095 1.627-.479l.86-1.435c.097-.096.192-.191.384-.191.478.095 1.052.095 1.53.095h14.162c.478 0 1.053 0 1.531-.095.096 0 .287 0 .383.191l.86 1.435c.288.574 1.053.766 1.628.479.574-.287.765-1.053.478-1.627l-.574-.957c0-.095-.096-.191 0-.287 0-.096.096-.191.191-.191 2.584-1.531 4.306-4.306 4.306-7.56v-3.731H3.61v3.732zM4.853 4.019a3.328 3.328 0 0 1 3.35-3.35c1.817 0 3.253 1.34 3.348 3.063-.478.095-.956.191-1.435.478-1.148.67-1.818 1.818-1.818 3.158 0 .191.191.287.287.287h6.698c.192 0 .287-.191.287-.287 0-1.34-.67-2.488-1.818-3.158-.478-.287-.957-.383-1.53-.478A3.904 3.904 0 0 0 8.297 0C6.002 0 4.184 1.818 4.184 4.019v11.578h.67V4.019z" fill="#3CADDE"></path><path fill-rule="evenodd" clip-rule="evenodd" d="M10.785 9.473c0-.096 0-.192-.096-.192-.095-.095-.191-.095-.191-.095-.191 0-.287.19-.287.287v1.148c0 .095.096.191.191.287.096.095.192.095.287 0 .096-.096.192-.192.192-.287V9.473h-.096zM10.115 12.535v1.148c0 .096.096.192.192.287.095.096.191.096.287 0 .095-.095.191-.191.191-.287v-1.148c0-.096 0-.191-.096-.191-.095-.096-.191-.096-.191-.096-.191 0-.383.191-.383.287zM13.752 9.473c0-.096 0-.192-.096-.192-.096-.095-.191-.095-.191-.095-.192 0-.287.19-.287.287v1.148c0 .095.095.191.191.287.096.095.191.095.287 0 .096-.096.191-.192.191-.287V9.473h-.095zM13.178 12.535v1.148c0 .096.095.192.191.287.096.096.191.096.287 0 .096-.095.191-.191.191-.287v-1.148c0-.096 0-.191-.095-.191-.096 0-.192-.096-.192-.096-.287 0-.382.191-.382.287z" fill="#3CADDE"></path></svg><svg width="34" height="30" viewBox="0 0 34 30" fill="none" id="table17" y="2450"><path fill-rule="evenodd" clip-rule="evenodd" d="M3.266 0h27.468C32.56 0 34 1.271 34 2.881v24.234c0 1.61-1.44 2.881-3.265 2.881H3.265C1.442 30.081 0 28.726 0 27.116V2.88C0 1.271 1.44 0 3.266 0zm9.412 13.303c1.056 0 1.92.763 1.92 1.695s-.864 1.695-1.92 1.695c-1.057 0-1.92-.763-1.92-1.695s.864-1.695 1.92-1.695zm8.74 0c1.057 0 1.921.763 1.921 1.695s-.864 1.695-1.92 1.695c-1.057 0-1.922-.763-1.922-1.695-.096-.932.768-1.695 1.921-1.695zm-2.593-7.202c4.802.763 8.452 4.49 8.452 8.897 0 4.406-3.65 8.135-8.452 8.897v-2.627H15.27v2.627c-4.802-.678-8.548-4.406-8.548-8.897 0-4.49 3.65-8.134 8.452-8.897v2.627h3.554V6.1h.096zM1.633 10.168V3.39c0-1.101.96-1.948 2.209-1.948h21.322v1.44H3.842c-.288 0-.576.17-.576.508v6.78H1.633z" fill="#F1BB51"></path></svg><svg width="38" height="22" viewBox="0 0 38 22" fill="none" id="table18" y="2480"><path fill-rule="evenodd" clip-rule="evenodd" d="M1.79 2.584h1.915v-.288c0-.478.382-.86.86-.86h3.637c.478 0 .861.382.861.86v.575h1.914v-.575c0-.478.382-.86.86-.86h2.202V0h19.807v2.87c1.913 5.072 3.253 10.335 3.253 15.884.383.287.67.766.67 1.244 0 .862-.67 1.531-1.531 1.531h-6.411c-.861 0-1.531-.67-1.531-1.53 0-.862.67-1.532 1.53-1.532h1.15c0-1.34-.192-2.774-.48-4.114h-2.87V11.96H18.92L15.76 7.655h-4.019a.858.858 0 0 1-.861-.861v-.67H8.967v.765a.755.755 0 0 1-.765.766H4.566a.858.858 0 0 1-.861-.861v-.287H1.79L.738 5.74V3.35l1.053-.765zM26 1.627a.654.654 0 0 0-.67.67c0 .287.287.574.67.574h4.305c.383 0 .67-.287.67-.67a.654.654 0 0 0-.67-.67H26v.096zm1.052 3.444a.654.654 0 0 0-.67.67c0 .383.287.67.67.67h4.306c.383 0 .67-.287.67-.67a.654.654 0 0 0-.67-.67h-4.306zm-.67-1.722a.654.654 0 0 0-.67.67c0 .383.287.67.67.67h4.306c.383 0 .67-.287.67-.67a.654.654 0 0 0-.67-.67h-4.306z" fill="#8A8EAC"></path></svg><svg width="45" height="27" viewBox="0 0 45 27" fill="none" id="table19" y="2502"><path fill-rule="evenodd" clip-rule="evenodd" d="M6.847 17.52l2.277-2.268c.414.103.828.206 1.242.412l-2.588 2.577c0 .515.207.927.621 1.34.415.411.932.617 1.553.617h.104c.621 0 1.242-.206 1.656-.618.415-.412.725-.927.725-1.546v-.103c0-.927-.414-1.752-1.035-2.37a3.436 3.436 0 0 0-2.485-1.03H8.71a4.43 4.43 0 0 0-2.795 1.03c-.725.618-1.14 1.546-1.243 2.576v.206c.207 1.134.725 2.37 1.657 3.195.828.825 2.07 1.443 3.416 1.443h.207a5.364 5.364 0 0 0 3.313-1.134c.31-.309.725-.618 1.036-1.03a5.85 5.85 0 0 0 1.139-2.989v-.206c0-1.649-.622-3.194-1.76-4.225-1.14-1.134-2.692-1.855-4.452-1.855h-.31a7.03 7.03 0 0 0-4.763 1.855l-.104.103a6.755 6.755 0 0 0-2.174 4.534v.31c0 2.06.828 3.813 2.174 5.255 1.346 1.34 3.21 2.164 5.384 2.267H29.52l12.32-12.263H24.654l1.242-1.237h18.842L30.141 27H9.435c-2.485-.103-4.66-1.134-6.212-2.68a8.304 8.304 0 0 1-2.485-5.977v-.309c.104-2.06 1.036-3.916 2.485-5.255l.104-.103L13.576 2.473l.414-.412A8.443 8.443 0 0 1 19.477 0c1.035 0 2.07.206 3.003.515 1.863.722 3.312 2.061 4.037 4.02.31.824.518 1.751.414 2.782 0 1.752-.725 3.607-2.07 4.946l-.415.413-9.11 9.068c-.414.413-.828.825-1.346 1.237a7.092 7.092 0 0 1-4.141 1.34h-.31c-1.657-.103-3.21-.722-4.245-1.855-1.036-1.03-1.76-2.577-1.76-4.226v-.206c.103-1.34.62-2.576 1.656-3.4.932-.825 2.174-1.443 3.624-1.443h.207c1.345 0 2.484.618 3.313 1.443a4.511 4.511 0 0 1 1.346 3.194v.206c0 .928-.518 1.752-1.14 2.37a3.623 3.623 0 0 1-2.484 1.031h-.104c-.931 0-1.76-.412-2.38-1.03a3.19 3.19 0 0 1-.933-2.268v-.103c0-.103 0-.206.104-.309 0-.103.104-.206.104-.206zm.103-6.905c.621-.207 1.346-.207 1.967-.207h.31c2.071.103 3.935.928 5.177 2.268 1.346 1.34 2.174 3.091 2.174 5.152v.31c0 .205 0 .412-.103.72l7.04-7.007c.103-.103.31-.206.414-.412.518-.515 1.035-1.237 1.242-1.958.31-.721.414-1.443.414-2.164 0-.825-.103-1.546-.31-2.267-.621-1.546-1.864-2.68-3.417-3.298-.828-.31-1.656-.515-2.484-.515-1.657 0-3.313.515-4.66 1.648-.103.104-.206.207-.413.31l-7.351 7.42z" fill="#72AC8D"></path></svg><svg width="31" height="34" viewBox="0 0 31 34" fill="none" id="table2" y="2529"><path d="M13.178 13.396h-1.149A10.291 10.291 0 0 0 1.695 23.73v1.436H.738v2.105h8.9v-2.105H8.584V23.73a3.43 3.43 0 0 1 3.444-3.444h1.149v1.148h2.105v-8.899h-2.105v.861zM21.981 6.603v2.105h1.053v1.435a3.43 3.43 0 0 1-3.445 3.445h-1.148v-1.149h-2.105v8.9h2.105v-.862h1.148a10.291 10.291 0 0 0 10.334-10.334V8.708h.957V6.603h-8.899zM30.784 3.54h-.957V0h-6.89v3.54h-.957v2.105h8.804V3.54zM.738 30.333h.957v3.54h6.89v-3.54h.956v-2.105H.738v2.105z" fill="#3CADDE"></path></svg><svg width="31" height="27" viewBox="0 0 31 27" fill="none" id="table20" y="2563"><path d="M10.902 19.344c-.25-.333-.5-.666-.75-.916a2.73 2.73 0 0 0-.665-.499c-.167-.083-.25-.166-.25-.166-.5-.084-.998-.084-1.498.083-.499.083-.998.333-1.414.666-.5.25-.916.665-1.249 1.248-.416.582-.749 1.248-1.082 1.997-.332.666-.665 1.332-1.081 1.914-.416.5-.833.916-1.249 1.332-.416.416-.832.582-1.081.749-.25.083-.5.166-.583.166v.166c.915.333 1.748.583 2.58.75C3.329 27 3.994 27 4.66 27c.5 0 .916 0 1.332-.083 1.331-.25 2.413-.75 3.328-1.665 1.082-1.081 1.831-2.58 2.247-4.577-.166-.499-.416-.998-.665-1.331zM30.208.037c-.084-.083-.167-.166-2.58 1.415-1.415.999-3.329 2.413-5.326 3.911-2.164 1.665-4.244 3.329-5.992 4.827-2.08 1.747-3.578 3.162-4.494 4.16-.166.167-.25.334-.333.5-.083.166-.166.25-.333.5-.083.082-.083.166-.166.332-.083.083-.083.167-.166.25-.083.166-.25.416-.5.749v.083l.084.083c.166.083.25.25.416.333l.499.5c.166.249.416.416.582.665.167.25.333.583.5.916v.083l.083-.084c.25-.166.583-.332.832-.416.167-.083.333-.166.416-.25.083 0 .167-.082.25-.082.166-.084.333-.167.582-.333.167-.083.333-.25.5-.333 1.082-.916 2.496-2.33 4.327-4.328a98.106 98.106 0 0 0 5.076-5.825c1.582-1.914 3.08-3.745 4.162-5.16C30.456.288 30.29.12 30.206.038z" fill="#296E8B"></path></svg><svg width="32" height="31" viewBox="0 0 32 31" fill="none" id="table21" y="2590"><path d="M30.823 26.446l-7.006-7.005c-.525-.526-1.138-.788-1.926-.788h-.175l-1.314-1.314c1.489-2.014 2.19-4.466 2.102-6.918-.088-2.715-1.226-5.254-3.153-7.18A11.006 11.006 0 0 0 11.558 0C8.668 0 5.866 1.138 3.85 3.24 1.837 5.342.611 8.056.611 10.946c0 2.89 1.139 5.692 3.24 7.707 2.015 2.101 4.817 3.24 7.707 3.24 2.277 0 4.553-.7 6.392-2.102l1.314 1.314c-.088.788.175 1.576.788 2.101l7.006 7.006c.525.525 1.138.788 1.926.788.7 0 1.401-.263 1.927-.788a2.726 2.726 0 0 0-.088-3.766zM18.038 16.201l-1.226 1.226c-1.489 1.138-3.328 1.838-5.254 1.838a8.34 8.34 0 0 1-5.955-2.451 8.34 8.34 0 0 1-2.452-5.955 8.34 8.34 0 0 1 2.452-5.955 8.34 8.34 0 0 1 5.955-2.452 8.34 8.34 0 0 1 5.954 2.452c1.49 1.489 2.365 3.415 2.452 5.517.088 2.102-.613 4.116-1.926 5.78.087 0 0 0 0 0z" fill="#D82216"></path></svg><svg width="41" height="41" viewBox="0 0 41 41" fill="none" id="table3" y="2621"><path fill-rule="evenodd" clip-rule="evenodd" d="M28.34 31.04l7.34 1.621c.35.116.583.463.583.81l-.116.696 4.427.926c.116 0 .233.116.116.232l-.35 1.274c0 .116-.116.232-.233.116l-4.426-.811-.467 2.085 4.428.926c.116 0 .232.116.116.232l-.35 1.39c0 .116-.116.231-.233.116l-4.427-.927-.116.695a.876.876 0 0 1-.816.579l-7.34-1.621c-1.28-.348-2.096-1.622-1.863-2.896l.116-.695.583-2.432.116-.463c.35-1.39 1.631-2.2 2.913-1.854zm.234-29.882l10.718 11.814v1.737c-.583.116-1.282.232-1.864.348v11.118c-6.175 1.506-12.466 2.896-18.64 4.401L7.837 24.901V14.825l-1.282-.58V12.74l9.786 3.822L28.574 1.158zM6.555 11.814L16.807 0l10.718 1.042L16.108 15.52l-9.553-3.706zm19.223 15.635V17.72l5.359-.926v9.381l5.01-1.158V13.898c.582-.115 1.281-.231 1.864-.347L28.69 3.243 17.855 17.025l2.213-.347v12.277l5.709-1.506zm-10.602-8.107l-3.728-1.506v4.286l3.728 1.853v-4.633zm8.621 16.446c-.466 0-1.048.116-1.514.348-.932.463-1.864.81-2.796 1.274-4.427 2.084-8.97 2.316-12.582.695-7.69-3.707-8.738-14.13 0-18.068v3.011c-5.36 3.243-4.194 10.076 1.281 12.624 2.796 1.274 6.524 1.043 10.136-.695.932-.463 1.864-.81 2.796-1.274 1.048-.463 2.213-.579 3.262-.579l-.583 2.664z" fill="#F1BB51"></path></svg><svg width="32" height="34" viewBox="0 0 32 34" fill="none" id="table4" y="2662"><path d="M31.836 3.54V0H.738v3.54c0 .574.479 1.053 1.053 1.053H8.2V9.28c0 .096 0 .096.096.192v.096l.288.287.095.095 4.402 2.87c.191.097.382.192.574.192.383 0 .67-.191.861-.478a1.194 1.194 0 0 0-.287-1.531l-3.923-2.488V4.689h12.152v3.827L18.536 11.1c-.479.287-.67.956-.287 1.53.191.287.574.479.861.479.191 0 .383-.096.574-.191l4.402-2.871.095-.096.287-.287V9.57c0-.096 0-.096.096-.192v-.096V4.593h6.124c.67 0 1.148-.479 1.148-1.053zM17.867 24.017c0-.766-1.436-3.349-1.436-3.349s-1.435 2.583-1.435 3.349c0 .765.67 1.435 1.435 1.435.766 0 1.436-.67 1.436-1.435zM8.393 21.816c-.574.574-.574 1.435 0 2.01.575.574 1.436.574 2.01 0 .574-.575 1.34-3.445 1.34-3.445s-2.775.861-3.35 1.435zM24.468 21.816c-.574-.574-3.349-1.435-3.349-1.435s.766 2.87 1.34 3.445c.574.574 1.435.574 2.01 0 .573-.575.573-1.436 0-2.01zM16.431 33.969c.862 0 1.436-.67 1.436-1.435 0-.766-1.436-3.35-1.436-3.35s-1.435 2.584-1.435 3.35c0 .765.67 1.435 1.435 1.435zM8.777 30.811c-.287.765.096 1.531.861 1.818.766.287 1.531-.096 1.818-.861.287-.766-.095-3.636-.095-3.636s-2.297 1.914-2.584 2.679zM1.887 30.045c.478.574 1.34.766 2.01.287.573-.478 1.817-3.253 1.817-3.253s-2.966.479-3.54.957c-.67.574-.766 1.435-.287 2.01zM21.597 28.132s-.383 2.966-.096 3.636c.287.765 1.148 1.053 1.818.861.766-.287 1.053-1.148.861-1.818-.382-.765-2.583-2.68-2.583-2.68zM27.244 27.08s1.148 2.678 1.818 3.253c.574.478 1.531.382 2.01-.287.478-.575.382-1.531-.287-2.01-.67-.478-3.54-.957-3.54-.957z" fill="#197A72"></path><path d="M22.172 16.075c0-.574-.479-1.052-1.053-1.052h-3.54V9.95c0-.574-.479-1.053-1.053-1.053s-1.052.479-1.052 1.053v5.072h-3.54c-.575 0-1.053.478-1.053 1.052v2.105h11.482v-2.105h-.191z" fill="#197A72"></path></svg><svg width="35" height="34" viewBox="0 0 35 34" fill="none" id="table5" y="2696"><path d="M25.617 0h-8.612c-.287 0-.574.287-.574.574v7.08L1.408 2.872c-.096 0-.287 0-.478.095-.096.096-.192.287-.192.383v4.306c0 .287.192.478.383.478l11.77 3.254-6.029 3.253h-.096v-1.244c0-.191-.095-.383-.382-.478a.46.46 0 0 0-.574.191l-.862.957-3.54-1.148c-.191-.096-.383 0-.478.095-.096.096-.192.192-.192.383v4.306c0 .191.192.478.383.478l.191.096-.478.479c-.096.191-.096.382-.096.574a.747.747 0 0 0 .383.382l6.507 1.34h.095c.287 0 .574-.191.574-.574 0-.096 0-.191-.095-.287l-.096-.096 4.784 1.34-6.124 3.253v-1.244c0-.191-.095-.383-.382-.478a.46.46 0 0 0-.574.191L.834 28.897c-.096 0-.096.192-.096.383a.747.747 0 0 0 .383.383l6.411 1.435h.096c.287 0 .574-.191.574-.574 0-.096 0-.191-.096-.287l-.478-1.531 8.803-4.402v9.09c0 .288.287.575.574.575h8.612c.287 0 .574-.287.574-.574V.575C26.095.286 25.904 0 25.617 0zM16.43 17.702l-4.115-1.34 4.115-2.105v3.445zM1.79 7.272V4.115l14.64 4.688v.67l-2.201 1.148L1.79 7.272zm0 10.047v-3.157l2.392.765-2.105 2.488-.287-.096zm4.688 1.244l.383 1.244-4.593-1.052 3.445-3.924v.67c0 .192.096.383.287.479a.61.61 0 0 0 .574 0l9.951-5.263v2.392l-9.76 4.784c-.287.192-.382.383-.287.67zm1.244.287l-.095-.191 3.253-1.627 5.55 1.723v.67l-2.201 1.148-6.507-1.723zm-.957 9.09c-.287.096-.382.383-.287.67l.383 1.244-4.593-1.052 3.445-3.924v.67c0 .192.096.383.287.479a.61.61 0 0 0 .574 0l9.951-5.263v2.392l-9.76 4.785zm18.276 4.976H17.58V1.053h7.463v31.863z" fill="#41527C"></path><path d="M19.875 21.816c.287 0 .574-.287.574-.574v-4.306c0-.287-.287-.574-.574-.574s-.574.287-.574.574v4.306c0 .287.287.574.574.574zM19.875 12.535c.287 0 .574-.287.574-.574V7.655c0-.287-.287-.574-.574-.574s-.574.287-.574.574v4.306c0 .287.287.574.574.574zM19.875 15.406c.287 0 .574-.287.574-.574v-.67c0-.287-.287-.574-.574-.574s-.574.287-.574.574v.67c0 .287.287.574.574.574zM19.875 24.687c.287 0 .574-.287.574-.574v-.67c0-.287-.287-.574-.574-.574s-.574.287-.574.574v.67c0 .287.287.574.574.574zM19.875 31.099c.287 0 .574-.287.574-.575V26.22c0-.287-.287-.575-.574-.575s-.574.288-.574.575v4.305c0 .288.287.575.574.575zM22.746 10.335c.287 0 .574-.287.574-.574v-.67c-.096-.287-.287-.479-.574-.479s-.574.287-.574.574v.67c0 .287.287.479.574.479zM22.746 7.464c.287 0 .574-.287.574-.574V2.68c0-.287-.287-.575-.574-.575s-.574.288-.574.575v4.305c0 .288.287.479.574.479zM22.746 26.122c.287 0 .574-.287.574-.574v-4.306c0-.287-.287-.574-.574-.574s-.574.287-.574.574v4.306c0 .287.287.574.574.574zM22.746 16.745c.287 0 .574-.287.574-.574v-4.306c0-.287-.287-.574-.574-.574s-.574.287-.574.574v4.402c0 .287.287.478.574.478zM22.746 19.616c.287 0 .574-.287.574-.574v-.67c0-.287-.287-.574-.574-.574s-.574.287-.574.574v.765c0 .287.287.479.574.479zM29.826 12.822c-.287 0-.574.287-.574.574v.67c0 .287.287.574.574.574s.574-.287.574-.574v-.67c0-.287-.287-.574-.574-.574zM29.826 19.328c-.287 0-.574.287-.574.574v.67c0 .287.287.574.574.574s.574-.287.574-.574v-.67c0-.383-.287-.574-.574-.574zM29.826 25.74c-.287 0-.574.286-.574.573v.67c0 .287.287.574.574.574s.574-.287.574-.574v-.67c0-.382-.287-.574-.574-.574zM29.826 0c-.287 0-.574.287-.574.574v.67c0 .287.287.574.574.574s.574-.287.574-.574v-.67c0-.287-.287-.574-.574-.574zM29.826 6.411c-.287 0-.574.287-.574.574v.67c0 .287.287.574.574.574s.574-.287.574-.574v-.67c0-.287-.287-.574-.574-.574zM29.826 32.15c-.287 0-.574.288-.574.575v.67c0 .286.287.573.574.573s.574-.287.574-.574v-.67c0-.286-.287-.574-.574-.574zM34.133 12.822c-.287 0-.574.287-.574.574v.67c0 .287.287.574.574.574s.574-.287.574-.574v-.67c0-.287-.287-.574-.574-.574zM34.133 0c-.287 0-.574.287-.574.574v.67c0 .287.287.574.574.574s.574-.287.574-.574v-.67c0-.287-.287-.574-.574-.574zM34.133 19.328c-.287 0-.574.287-.574.574v.67c0 .287.287.574.574.574s.574-.287.574-.574v-.67c0-.383-.287-.574-.574-.574zM34.133 32.15c-.287 0-.574.288-.574.575v.67c0 .286.287.573.574.573s.574-.287.574-.574v-.67c0-.286-.287-.574-.574-.574zM34.133 25.74c-.287 0-.574.286-.574.573v.67c0 .287.287.574.574.574s.574-.287.574-.574v-.67c0-.382-.287-.574-.574-.574zM34.133 6.411c-.287 0-.574.287-.574.574v.67c0 .287.287.574.574.574s.574-.287.574-.574v-.67c0-.287-.287-.574-.574-.574z" fill="#41527C"></path></svg><svg width="25" height="34" viewBox="0 0 25 34" fill="none" id="table6" y="2730"><path d="M22.65 3.636h-2.679v1.913h2.488v26.314H2.652V5.645H5.14V3.731H2.46c-.956-.095-1.722.67-1.722 1.723V32.15c0 .957.766 1.723 1.723 1.723h20.094c.957 0 1.722-.766 1.722-1.723V5.454c.096-1.053-.67-1.818-1.627-1.818z" fill="#D82216"></path><path d="M8.681 6.507h7.75c1.245 0 2.202-.957 2.202-2.201v-.861c0-.383-.287-.574-.575-.574h-2.583c0-1.627-1.34-2.871-2.87-2.871-1.627 0-2.871 1.34-2.871 2.87h-2.68c-.286-.095-.574.192-.574.575v.86c0 1.15.957 2.202 2.201 2.202zm3.923-4.88c.67 0 1.149.574 1.149 1.148s-.575 1.244-1.149 1.244c-.67 0-1.148-.574-1.148-1.148 0-.575.479-1.244 1.148-1.244zM10.88 28.227h9.187v-1.34H10.88v1.34zM9.158 24.688c-.095-.096-.191-.096-.287-.096-.095 0-.191 0-.287.096l-2.01 2.009-.86-.861c-.096-.096-.192-.096-.287-.096-.096 0-.192 0-.287.096l-.287.287c-.192.191-.192.383 0 .574l1.53 1.53c.096.097.192.097.288.097.095 0 .19 0 .287-.096l2.583-2.584c.096-.095.096-.191.096-.287 0-.095 0-.191-.096-.287l-.383-.383zM20.067 21.53H10.88v1.339h9.186v-1.34zM9.445 19.71l-.287-.286c-.095-.096-.191-.096-.287-.096-.095 0-.191 0-.287.096l-2.01 2.01-.86-.862c-.096-.096-.192-.096-.287-.096-.096 0-.192 0-.287.096l-.287.287c-.192.191-.192.383 0 .574l1.435 1.436c.095.095.191.095.287.095.096 0 .191 0 .287-.095l2.583-2.584c.096-.096.096-.191.096-.287 0-.096 0-.191-.096-.287zM20.067 16.17H10.88v1.34h9.186v-1.34zM9.445 14.354l-.287-.288c-.095-.095-.191-.095-.287-.095-.095 0-.191 0-.287.095l-2.01 2.01-.86-.861c-.096-.096-.192-.096-.287-.096-.096 0-.192 0-.287.096l-.287.287c-.192.191-.192.382 0 .574l1.53 1.53c.096.097.192.097.288.097.095 0 .19 0 .287-.096l2.583-2.584c.096-.095.096-.191.096-.287-.096-.191-.096-.287-.192-.383zM20.067 10.908H10.88v1.244h9.186v-1.244zM4.757 10.142c-.192.192-.192.383 0 .575l1.53 1.53c.096 0 .192.096.288.096.096 0 .191 0 .287-.095l2.583-2.584c.096-.191.096-.287.096-.383 0-.096 0-.191-.096-.287l-.287-.287c-.095-.096-.191-.191-.287-.191-.095 0-.191 0-.287.095l-2.01 2.01-.86-.861c-.096-.096-.192-.096-.287-.096-.096 0-.192 0-.287.096l-.383.382z" fill="#D82216"></path></svg><svg width="30" height="35" viewBox="0 0 30 35" fill="none" id="table7" y="2764"><path d="M29.922 0H.738v2.01h.383v32.054H29.54V2.01h.383V0zM3.13 2.01h6.698v15.5C8.01 18.66 5.81 19.52 3.13 20.095V2.01zm8.804 14.065V2.01h7.463v5.455c-2.296 2.774-4.306 6.028-7.463 8.611zm9.473-10.812V2.009h5.836c-2.392.67-4.21 1.818-5.836 3.254z" fill="#899DA1"></path></svg><svg width="37" height="34" viewBox="0 0 37 34" fill="none" id="table8" y="2799"><path d="M31.645 7.942L26.478 0 13.656 9.951.738 19.998l6.411 6.985L31.645 7.942zM32.601 27.366c-.957-1.723-5.55-2.87-6.028-5.263l10.238-7.942-4.21-5.454-12.44 9.664-12.438 9.665 4.21 5.454 10.238-7.942c2.201 1.148 2.201 5.74 3.636 7.176 2.201 2.201 5.263-.287 5.263-.287s3.062-2.392 1.531-5.071zm-4.21 3.253c-.287-.383-.191-.957.191-1.244.383-.287.957-.191 1.244.192.287.382.191.956-.191 1.244-.383.287-.957.19-1.244-.192z" fill="#BD3AA8"></path></svg><svg width="35" height="34" viewBox="0 0 35 34" fill="none" id="table9" y="2833"><path d="M33.846 29.471l-8.708-8.707-3.636 3.636 8.708 8.707c.956.957 2.583.957 3.636 0 1.052-.956 1.052-2.583 0-3.636zm-11.004-8.42L21.31 19.52c-1.148-1.148-3.253-.861-4.689.574L8.106 28.61a2.253 2.253 0 0 1-3.158 0l-1.243-1.244a2.184 2.184 0 0 1-.288-2.775L2.365 23.54a3.667 3.667 0 0 0 .287 4.88l1.34 1.244c1.435 1.435 3.827 1.435 5.262 0l8.516-8.516c.957-.957 2.105-1.053 2.584-.574l1.53 1.53.958-1.052zm3.062-19.042L24.85.957l-.67.67 1.053 1.052.67-.67zM8.202 25.644l18.18-18.18c.766-.766.766-1.914 0-2.68l-1.722-1.53L23.607 2.2 21.981.574c-.766-.765-1.914-.765-2.68 0L1.312 18.66c-.765.765-.765 1.914 0 2.679l4.306 4.306c.766.67 1.914.67 2.584 0z" fill="#296E8B"></path></svg><svg width="26" height="22" viewBox="0 0 26 22" fill="none" id="twitter" y="2867"><path d="M.077 18.704c2.903.286 5.51-.425 7.818-2.192-1.126-.046-2.146-.389-3.048-1.062-.902-.673-1.524-1.547-1.887-2.628.8.142 1.581.12 2.356-.09-1.226-.288-2.249-.9-3.04-1.88-.793-.984-1.174-2.113-1.179-3.39.747.408 1.534.63 2.399.661-1.153-.809-1.907-1.87-2.216-3.227-.308-1.354-.1-2.636.574-3.845C4.73 4.431 8.361 6.291 12.8 6.596c-.03-.173-.06-.323-.08-.476-.153-1.131.025-2.208.56-3.216A5.222 5.222 0 0 1 15.633.62c.784-.39 1.62-.571 2.496-.544a5.258 5.258 0 0 1 3.334 1.295c.123.105.233.222.353.33.023.02.068.035.098.03a10.461 10.461 0 0 0 3.28-1.249c.006-.003.011-.003.031-.005-.421 1.247-1.193 2.205-2.296 2.906a11.155 11.155 0 0 0 2.998-.798c-.098.135-.19.273-.29.408a10.497 10.497 0 0 1-2.29 2.265c-.04.03-.057.058-.054.108.035.708.007 1.414-.068 2.12a15.65 15.65 0 0 1-1.64 5.472 15.22 15.22 0 0 1-1.982 2.98 14.348 14.348 0 0 1-4.108 3.351 14.394 14.394 0 0 1-4.436 1.537c-1.143.2-2.294.278-3.454.233a14.969 14.969 0 0 1-5.772-1.392A15.36 15.36 0 0 1 .13 18.74c-.01-.005-.023-.015-.053-.035z" fill="#fff"></path></svg><svg width="27" height="27" viewBox="0 0 27 27" fill="none" id="whatsapp" y="2889"><path d="M.692 26.692c.216-.644.424-1.25.627-1.856.538-1.588 1.08-3.177 1.61-4.77.03-.085 0-.208-.046-.288-.678-1.17-1.178-2.406-1.445-3.732-.707-3.576-.06-6.885 2.055-9.863 1.915-2.694 4.524-4.376 7.752-5.063 4.91-1.046 10.028.954 12.943 5.038 1.356 1.898 2.169 4.011 2.292 6.346.267 4.965-1.716 8.837-5.855 11.557-2.461 1.618-5.215 2.186-8.147 1.885a12.367 12.367 0 0 1-4.507-1.36.63.63 0 0 0-.517-.046c-2.173.699-4.343 1.385-6.516 2.076a7.313 7.313 0 0 1-.246.076zm3.19-3.127c.115-.03.183-.046.246-.068 1.212-.385 2.42-.766 3.627-1.156a.443.443 0 0 1 .41.047c2.432 1.49 5.055 1.99 7.842 1.402 2.991-.627 5.313-2.27 6.935-4.872 1.348-2.16 1.814-4.516 1.445-7.024-.39-2.686-1.686-4.89-3.77-6.613-1.555-1.284-3.347-2.076-5.364-2.33-2.427-.305-4.707.13-6.82 1.372A10.515 10.515 0 0 0 4.14 9.038c-.907 1.966-1.16 4.025-.814 6.147a10.133 10.133 0 0 0 1.746 4.25.435.435 0 0 1 .063.445c-.237.669-.461 1.347-.69 2.02-.186.543-.364 1.085-.564 1.665z" fill="#fff"></path><path d="M9.966 7.591c.572-.046.797.352.988.843.254.665.525 1.322.83 1.966.182.39.114.707-.127 1.02-.195.25-.399.492-.606.734-.208.241-.242.377-.08.644.855 1.419 1.982 2.559 3.486 3.296.258.127.525.245.792.356.288.118.437.08.636-.157.3-.356.593-.72.881-1.085.263-.334.415-.39.8-.212.818.378 1.632.771 2.45 1.157.207.098.283.254.275.475-.055 1.283-.432 1.919-1.852 2.512a2.981 2.981 0 0 1-2.012.106c-.983-.284-1.953-.606-2.872-1.06-1.043-.512-1.945-1.224-2.75-2.054-1.08-1.114-2.05-2.318-2.72-3.728-.466-.979-.58-2-.194-3.042a3.451 3.451 0 0 1 1.025-1.428c.288-.241.64-.309 1.05-.343z" fill="#fff"></path></svg></svg>