<svg width="62" height="36" viewBox="0 0 62 36" fill="none" xmlns="http://www.w3.org/2000/svg">
<path d="M48.4389 5.05859L45.6445 6.05658L50.7675 19.0304L53.0962 18.1655" stroke="#616D7B" stroke-miterlimit="10" stroke-linecap="round" stroke-linejoin="round"/>
<path d="M60.7469 18.2985C60.7469 18.2985 54.0937 20.6936 54.0937 20.5606C54.0937 20.4275 47.9727 3.52824 47.9727 3.52824L55.0251 1L60.7469 18.2985Z" stroke="#616D7B" stroke-miterlimit="10" stroke-linecap="round" stroke-linejoin="round"/>
<path d="M13.3096 5.05859L16.104 6.05658L10.981 19.0304L8.65234 18.1655" stroke="#616D7B" stroke-miterlimit="10" stroke-linecap="round" stroke-linejoin="round"/>
<path d="M1 18.2985C1 18.2985 7.65326 20.6936 7.65326 20.5606C7.65326 20.4275 13.8408 3.59477 13.8408 3.59477L6.78833 1L1 18.2985Z" stroke="#616D7B" stroke-miterlimit="10" stroke-linecap="round" stroke-linejoin="round"/>
<path d="M45.8447 6.78821C43.5826 7.52007 36.8628 3.79425 34.9999 3.92731C33.0705 3.99385 26.883 5.72369 25.8184 6.98781C24.7539 8.25193 22.1592 12.3104 22.4253 12.8427C22.6914 13.3749 24.2882 14.7721 25.9515 14.4395C27.5483 14.1068 29.012 10.7136 29.8104 10.7802C30.6088 10.8467 34.6007 10.2479 34.6007 10.7802C34.6007 11.3124 36.2641 15.4374 38.8588 16.3024C41.4536 17.1673 49.3044 21.758 49.7036 22.5564C50.1028 23.3548 50.7016 27.5464 47.5081 26.6815C44.3145 25.8165 40.8548 23.4879 40.8548 23.4879C40.8548 23.4879 44.7137 25.2843 44.5806 26.8145C44.4476 28.3448 43.7822 30.1411 41.9859 29.875C40.1895 29.6089 35.9314 26.881 36.2641 27.0141C36.5967 27.1472 39.7903 29.0101 39.7903 29.875C39.7903 30.7399 39.4576 32.8024 37.5282 32.7359C35.5987 32.6694 33.137 30.6734 33.4032 31.0061C33.7358 31.3387 34.0685 32.4698 33.8024 33.2016C33.5362 33.9335 32.2721 35.1976 30.9415 34.865C29.6108 34.5323 28.8789 33.6674 28.8789 33.6674" stroke="#616D7B" stroke-miterlimit="10" stroke-linecap="round" stroke-linejoin="round"/>
<path d="M15.7031 6.98668C18.4975 6.92015 24.7516 8.31733 24.8846 8.18427" stroke="#616D7B" stroke-miterlimit="10" stroke-linecap="round" stroke-linejoin="round"/>
<path d="M11.8453 21.159C12.178 20.0944 13.7082 18.6973 14.9723 18.6973C16.2365 18.6973 17.6336 19.0965 17.6336 20.5602C17.6336 22.0239 16.1034 24.3525 14.8393 24.4191C13.5752 24.4191 11.313 22.7558 11.8453 21.159Z" stroke="#616D7B" stroke-miterlimit="10" stroke-linecap="round" stroke-linejoin="round"/>
<path d="M14.7711 25.3503C15.1037 24.2858 17.4324 21.8906 18.6965 21.8906C19.9606 21.8906 21.3578 22.2898 21.3578 23.7535C21.3578 25.2173 19.0292 28.4774 17.7651 28.5439C16.5009 28.6104 14.2388 26.9471 14.7711 25.3503Z" stroke="#616D7B" stroke-miterlimit="10" stroke-linecap="round" stroke-linejoin="round"/>
<path d="M19.4938 28.7449C19.8265 27.6803 21.7559 25.2852 22.9535 25.2852C24.2176 25.2852 25.6148 25.6844 25.6148 27.1481C25.6148 28.6118 23.6854 31.8719 22.4212 31.9384C21.2237 32.0715 18.9616 30.4082 19.4938 28.7449Z" stroke="#616D7B" stroke-miterlimit="10" stroke-linecap="round" stroke-linejoin="round"/>
<path d="M24.0192 31.7371C24.3519 30.6726 25.8822 29.2754 27.1463 29.2754C28.4104 29.2754 29.8076 29.6746 29.8076 31.1383C29.8076 32.602 28.2773 34.9307 27.0132 34.9972C25.8156 35.0637 23.487 33.3339 24.0192 31.7371Z" stroke="#616D7B" stroke-miterlimit="10" stroke-linecap="round" stroke-linejoin="round"/>
<path d="M11.7773 18.2324L13.2411 19.43" stroke="#616D7B" stroke-miterlimit="10" stroke-linecap="round" stroke-linejoin="round"/>
<path d="M49.9669 18.2324C49.3015 19.0973 48.9023 21.9582 48.9023 21.9582" stroke="#616D7B" stroke-miterlimit="10" stroke-linecap="round" stroke-linejoin="round"/>
</svg>
