<svg width="22" height="41" viewBox="0 0 22 41" fill="none" xmlns="http://www.w3.org/2000/svg">
<path d="M21.7891 27.552C21.7891 30.0453 20.9825 32.084 19.3691 33.668C17.7851 35.2227 15.7025 36.1613 13.1211 36.484V40.4H10.2611V36.528C7.82646 36.3813 5.74379 35.7213 4.01313 34.548C2.28246 33.3747 1.03579 31.776 0.273125 29.752L4.62913 27.244C5.65579 29.8253 7.53313 31.2627 10.2611 31.556V22.404C8.94113 21.9053 7.87046 21.4653 7.04913 21.084C6.22779 20.6733 5.34779 20.116 4.40913 19.412C3.49979 18.708 2.81046 17.8573 2.34113 16.86C1.90113 15.8333 1.68113 14.6453 1.68113 13.296C1.68113 10.832 2.50246 8.83733 4.14513 7.312C5.78779 5.78666 7.82646 4.90666 10.2611 4.672V0.799999H13.1211V4.716C17.0518 5.244 19.7798 7.25333 21.3051 10.744L17.0371 13.208C16.2745 11.3013 14.9691 10.1427 13.1211 9.732V18.444C14.0598 18.796 14.7638 19.0747 15.2331 19.28C15.7318 19.4853 16.3771 19.7933 17.1691 20.204C17.9905 20.6147 18.6211 21.0253 19.0611 21.436C19.5011 21.8467 19.9558 22.3453 20.4251 22.932C20.9238 23.5187 21.2758 24.208 21.4811 25C21.6865 25.7627 21.7891 26.6133 21.7891 27.552ZM6.74113 13.296C6.74113 14.2053 7.00513 14.9533 7.53313 15.54C8.09046 16.1267 8.99979 16.7133 10.2611 17.3V9.644C9.17579 9.82 8.31046 10.2307 7.66513 10.876C7.04913 11.5213 6.74113 12.328 6.74113 13.296ZM13.1211 31.512C14.2945 31.2773 15.1891 30.808 15.8051 30.104C16.4211 29.4 16.7291 28.564 16.7291 27.596C16.7291 26.628 16.4358 25.8507 15.8491 25.264C15.2625 24.648 14.3531 24.0613 13.1211 23.504V31.512Z" fill="#616D7B"/>
</svg>
