<svg width="31" height="35" viewBox="0 0 31 35" fill="none" xmlns="http://www.w3.org/2000/svg">
<path d="M11.13 11.4391C11.7551 10.1959 8.78615 5.74117 7.22355 3.66918C5.66099 2.11519 0.973153 4.44618 0.191853 6.77716C-0.589446 9.10814 0.973573 16.1011 5.66137 23.094C10.3492 30.087 16.5991 33.195 18.943 33.972C21.2869 34.749 23.6308 31.641 25.1934 29.31C26.756 26.979 21.2869 23.871 18.943 22.317C16.5991 20.7631 17.0509 26.8151 14.2557 25.425C9.56829 23.094 6.44267 17.6551 6.44267 13.7701C6.44267 12.2161 10.3487 12.9931 11.13 11.4391Z" fill="#616D7B"/>
<path d="M16.6438 6.63984C22.2533 9.04144 24.2845 12.5661 24.5532 17.1063M18.1911 1.9921C26.5248 4.23242 29.679 11.3355 30.0015 16.7838" stroke="#616D7B" stroke-linecap="round" stroke-linejoin="round"/>
</svg>
