<svg width="21" height="33" viewBox="0 0 21 33" fill="none" xmlns="http://www.w3.org/2000/svg">
<path d="M7.29023 22.32C7.29023 21.1173 7.55423 20.0027 8.08223 18.976C8.61023 17.9493 9.25557 17.0693 10.0182 16.336C10.7809 15.5733 11.5436 14.8547 12.3062 14.18C13.0689 13.476 13.7142 12.728 14.2422 11.936C14.7702 11.1147 15.0342 10.264 15.0342 9.384C15.0342 8.152 14.6089 7.21333 13.7582 6.568C12.9076 5.89333 11.7636 5.556 10.3262 5.556C8.94757 5.556 7.75957 5.908 6.76223 6.612C5.7649 7.316 5.04623 8.31333 4.60623 9.604L0.250234 7.14C1.07157 5.05733 2.39157 3.45867 4.21023 2.344C6.05823 1.2 8.1409 0.627997 10.4582 0.627997C13.0689 0.627997 15.3276 1.376 17.2342 2.872C19.1409 4.368 20.0942 6.436 20.0942 9.076C20.0942 10.308 19.8302 11.4667 19.3022 12.552C18.7742 13.608 18.1289 14.5173 17.3662 15.28C16.6036 16.0427 15.8409 16.7907 15.0782 17.524C14.3156 18.228 13.6702 18.9907 13.1422 19.812C12.6142 20.6333 12.3502 21.4693 12.3502 22.32H7.29023ZM12.1742 31.56C11.5289 32.2053 10.7516 32.528 9.84224 32.528C8.9329 32.528 8.15557 32.2053 7.51023 31.56C6.8649 30.9147 6.54223 30.1373 6.54223 29.228C6.54223 28.3187 6.85023 27.5413 7.46623 26.896C8.11157 26.2507 8.90357 25.928 9.84224 25.928C10.7516 25.928 11.5289 26.2507 12.1742 26.896C12.8196 27.5413 13.1422 28.3187 13.1422 29.228C13.1422 30.1373 12.8196 30.9147 12.1742 31.56Z" fill="#616D7B"/>
</svg>
