<svg width="35" height="31" viewBox="0 0 35 31" fill="none" xmlns="http://www.w3.org/2000/svg">
<path d="M8.98967 0H1.99555C1.07417 0 0.320312 0.753857 0.320312 1.67524V7.56369C0.320312 8.48507 1.07417 9.23893 1.99555 9.23893H8.98967C9.91105 9.23893 10.6649 8.48507 10.6649 7.56369V1.67524C10.6649 0.74548 9.91942 0 8.98967 0ZM8.98967 7.55532H1.99555V1.66686H8.98967V7.55532Z" fill="#616D7B"/>
<path d="M20.9584 0H13.9643C13.0429 0 12.2891 0.753857 12.2891 1.67524V7.56369C12.2891 8.48507 13.0429 9.23893 13.9643 9.23893H20.9584C21.8798 9.23893 22.6336 8.48507 22.6336 7.56369V1.67524C22.6336 0.74548 21.8798 0 20.9584 0ZM20.9584 7.55532H13.9643V1.66686H20.9584V7.55532Z" fill="#616D7B"/>
<path d="M32.9272 0H25.933C25.0117 0 24.2578 0.753857 24.2578 1.67524V7.56369C24.2578 8.48507 25.0117 9.23893 25.933 9.23893H32.9272C33.8485 9.23893 34.6024 8.48507 34.6024 7.56369V1.67524C34.6024 0.74548 33.8485 0 32.9272 0ZM32.9272 7.55532H25.933V1.66686H32.9272V7.55532Z" fill="#616D7B"/>
<path d="M8.98967 10.8555H1.99555C1.07417 10.8555 0.320312 11.6093 0.320312 12.5307V18.4192C0.320312 19.3405 1.07417 20.0944 1.99555 20.0944H8.98967C9.91105 20.0944 10.6649 19.3405 10.6649 18.4192V12.5307C10.6649 11.6009 9.91942 10.8555 8.98967 10.8555ZM8.98967 18.4108H1.99555V12.5223H8.98967V18.4108Z" fill="#616D7B"/>
<path d="M20.9584 10.8555H13.9643C13.0429 10.8555 12.2891 11.6093 12.2891 12.5307V18.4192C12.2891 19.3405 13.0429 20.0944 13.9643 20.0944H20.9584C21.8798 20.0944 22.6336 19.3405 22.6336 18.4192V12.5307C22.6336 11.6009 21.8798 10.8555 20.9584 10.8555ZM20.9584 18.4108H13.9643V12.5223H20.9584V18.4108Z" fill="#616D7B"/>
<path d="M32.9272 10.8555H25.933C25.0117 10.8555 24.2578 11.6093 24.2578 12.5307V18.4192C24.2578 19.3405 25.0117 20.0944 25.933 20.0944H32.9272C33.8485 20.0944 34.6024 19.3405 34.6024 18.4192V12.5307C34.6024 11.6009 33.8485 10.8555 32.9272 10.8555ZM32.9272 18.4108H25.933V12.5223H32.9272V18.4108Z" fill="#616D7B"/>
<path d="M8.98967 21.7109H1.99555C1.07417 21.7109 0.320312 22.4648 0.320312 23.3862V29.2746C0.320312 30.196 1.07417 30.9499 1.99555 30.9499H8.98967C9.91105 30.9499 10.6649 30.196 10.6649 29.2746V23.3862C10.6649 22.4564 9.91942 21.7109 8.98967 21.7109ZM8.98967 29.2663H1.99555V23.3778H8.98967V29.2663Z" fill="#616D7B"/>
<path d="M20.9584 21.7109H13.9643C13.0429 21.7109 12.2891 22.4648 12.2891 23.3862V29.2746C12.2891 30.196 13.0429 30.9499 13.9643 30.9499H20.9584C21.8798 30.9499 22.6336 30.196 22.6336 29.2746V23.3862C22.6336 22.4564 21.8798 21.7109 20.9584 21.7109ZM20.9584 29.2663H13.9643V23.3778H20.9584V29.2663Z" fill="#616D7B"/>
<path d="M32.9272 21.7109H25.933C25.0117 21.7109 24.2578 22.4648 24.2578 23.3862V29.2746C24.2578 30.196 25.0117 30.9499 25.933 30.9499H32.9272C33.8485 30.9499 34.6024 30.196 34.6024 29.2746V23.3862C34.6024 22.4564 33.8485 21.7109 32.9272 21.7109ZM32.9272 29.2663H25.933V23.3778H32.9272V29.2663Z" fill="#616D7B"/>
</svg>
