<svg width="69" height="32" viewBox="0 0 69 32" fill="none" xmlns="http://www.w3.org/2000/svg">
<path d="M31.5938 23.6295H13.38C13.1666 23.6295 12.9531 23.4161 12.9531 23.2026V15.9455C12.9531 14.9495 13.7358 14.0957 14.803 14.0957H31.0246C31.5938 14.0957 32.0207 14.5226 32.0207 15.0918V23.2026C31.9496 23.4872 31.8073 23.6295 31.5938 23.6295Z" stroke="#616D7B" stroke-width="1.3" stroke-miterlimit="10" stroke-linejoin="round"/>
<path d="M31.5938 26.6171H13.38C13.1666 26.6171 12.9531 26.4037 12.9531 26.1902V24.0558C12.9531 23.8424 13.1666 23.6289 13.38 23.6289H31.5938C31.8073 23.6289 32.0207 23.8424 32.0207 24.0558V26.1902C31.9496 26.4037 31.8073 26.6171 31.5938 26.6171Z" stroke="#616D7B" stroke-width="1.3" stroke-miterlimit="10" stroke-linejoin="round"/>
<path d="M32.3775 23.6295H50.5913C50.8048 23.6295 51.0182 23.4161 51.0182 23.2026V15.9455C51.0182 14.9495 50.2356 14.0957 49.1684 14.0957H33.0178C32.4487 14.0957 32.0218 14.5226 32.0218 15.0918V23.2026C31.9506 23.4872 32.1641 23.6295 32.3775 23.6295Z" stroke="#616D7B" stroke-width="1.3" stroke-miterlimit="10" stroke-linejoin="round"/>
<path d="M32.3761 26.6171H50.5899C50.8034 26.6171 51.0168 26.4037 51.0168 26.1902V24.0558C51.0168 23.8424 50.8034 23.6289 50.5899 23.6289H32.3761C32.1627 23.6289 31.9492 23.8424 31.9492 24.0558V26.1902C31.9492 26.4037 32.1627 26.6171 32.3761 26.6171Z" stroke="#616D7B" stroke-width="1.3" stroke-miterlimit="10" stroke-linejoin="round"/>
<path d="M51.0154 19.4308C51.0154 18.6481 51.5846 18.0078 52.3672 18.0078H53.5056C54.217 18.0078 54.8574 18.6481 54.8574 19.4308V28.5377C54.8574 29.3203 54.2882 29.9606 53.5056 29.9606H31.9478H10.4612C9.74971 29.9606 9.10938 29.3203 9.10938 28.5377V19.4308C9.10938 18.6481 9.67856 18.0078 10.4612 18.0078H11.5995C12.311 18.0078 12.9514 18.6481 12.9514 19.4308" stroke="#616D7B" stroke-width="1.3" stroke-miterlimit="10" stroke-linejoin="round"/>
<path d="M26.1159 10.3249C26.187 10.3249 26.3293 10.3249 26.4004 10.3249C26.4716 9.96917 26.5427 9.61344 26.5427 9.2577C26.5427 6.76753 24.5506 4.77539 22.0604 4.77539C19.5703 4.77539 17.5781 6.76753 17.5781 9.2577C17.5781 9.61344 17.6493 9.96917 17.7204 10.3249H26.1159Z" stroke="#616D7B" stroke-width="1.3" stroke-miterlimit="10" stroke-linecap="round" stroke-linejoin="round"/>
<path d="M1 30.8164H6.76297" stroke="#616D7B" stroke-width="1.3" stroke-miterlimit="10" stroke-linecap="round" stroke-linejoin="round"/>
<path d="M59.6996 2.07227H40.7031V9.75622H59.6996V2.07227Z" stroke="#616D7B" stroke-width="1.3" stroke-miterlimit="10" stroke-linecap="round" stroke-linejoin="round"/>
<path d="M56.6367 22.2773H68.1627" stroke="#616D7B" stroke-width="1.3" stroke-miterlimit="10" stroke-linecap="round" stroke-linejoin="round"/>
<path d="M57.3477 30.8854V22.3477" stroke="#616D7B" stroke-width="1.3" stroke-miterlimit="10" stroke-linecap="round" stroke-linejoin="round"/>
<path d="M67.3086 31.0299V22.4922" stroke="#616D7B" stroke-width="1.3" stroke-miterlimit="10" stroke-linecap="round" stroke-linejoin="round"/>
<path d="M57.4219 24.1973H67.1691" stroke="#616D7B" stroke-width="1.3" stroke-miterlimit="10" stroke-linecap="round" stroke-linejoin="round"/>
<path d="M61.193 19.5723H59.0586V22.2759H61.193V19.5723Z" stroke="#616D7B" stroke-width="1.3" stroke-miterlimit="10" stroke-linecap="round" stroke-linejoin="round"/>
<path d="M3.91797 30.8152C3.91797 30.8152 3.91797 24.1984 3.91797 15.5895C3.91797 -1.9128 21.278 -1.13017 22.0606 4.84624" stroke="#616D7B" stroke-width="1.3" stroke-miterlimit="10" stroke-linecap="round" stroke-linejoin="round"/>
</svg>
