<svg width="509" height="252" viewBox="0 0 509 252" fill="none" xmlns="http://www.w3.org/2000/svg">
<path d="M38 4.5C38.2762 4.5 38.5 4.72386 38.5 5C38.5 5.27614 38.2762 5.5 38 5.5V4.5ZM465.5 4.5H467.969V5.5H465.5V4.5ZM472.906 4.5H477.844V5.5H472.906V4.5ZM482.781 4.5H487.719V5.5H482.781V4.5ZM492.656 4.5H497.594V5.5H492.656V4.5ZM502.531 4.5H505V5.5H502.531V4.5ZM505 4.5C505.474 4.5 505.927 4.59436 506.34 4.76578L505.957 5.6895C505.663 5.56756 505.34 5.5 505 5.5V4.5ZM508.234 6.66011C508.406 7.07348 508.5 7.52635 508.5 8H507.5C507.5 7.6601 507.432 7.33724 507.31 7.04316L508.234 6.66011ZM508.5 8V10.5H507.5V8H508.5ZM508.5 15.5V20.5H507.5V15.5H508.5ZM508.5 25.5V30.5H507.5V25.5H508.5ZM508.5 35.5V40.5H507.5V35.5H508.5ZM508.5 45.5V50.5H507.5V45.5H508.5ZM508.5 55.5V60.5H507.5V55.5H508.5ZM508.5 65.5V70.5H507.5V65.5H508.5ZM508.5 75.5V80.5H507.5V75.5H508.5ZM508.5 85.5V90.5H507.5V85.5H508.5ZM508.5 95.5V100.5H507.5V95.5H508.5ZM508.5 105.5V110.5H507.5V105.5H508.5ZM508.5 115.5V120.5H507.5V115.5H508.5ZM508.5 125.5V130.5H507.5V125.5H508.5ZM508.5 135.5V140.5H507.5V135.5H508.5ZM508.5 145.5V150.5H507.5V145.5H508.5ZM508.5 155.5V160.5H507.5V155.5H508.5ZM508.5 165.5V170.5H507.5V165.5H508.5ZM508.5 175.5V180.5H507.5V175.5H508.5ZM508.5 185.5V190.5H507.5V185.5H508.5ZM508.5 195.5V200.5H507.5V195.5H508.5ZM508.5 205.5V210.5H507.5V205.5H508.5ZM508.5 215.5V220.5H507.5V215.5H508.5ZM508.5 225.5V230.5H507.5V225.5H508.5ZM508.5 235.5V240.5H507.5V235.5H508.5ZM508.5 245.5V248H507.5V245.5H508.5ZM508.5 248C508.5 248.474 508.406 248.927 508.234 249.34L507.31 248.957C507.432 248.663 507.5 248.34 507.5 248H508.5ZM506.34 251.234C505.927 251.406 505.474 251.5 505 251.5V250.5C505.34 250.5 505.663 250.432 505.957 250.311L506.34 251.234ZM505 251.5H502.495V250.5H505V251.5ZM497.485 251.5H492.475V250.5H497.485V251.5ZM487.465 251.5H482.455V250.5H487.465V251.5ZM477.445 251.5H472.435V250.5H477.445V251.5ZM467.425 251.5H462.415V250.5H467.425V251.5ZM457.405 251.5H452.395V250.5H457.405V251.5ZM447.385 251.5H442.375V250.5H447.385V251.5ZM437.365 251.5H432.355V250.5H437.365V251.5ZM427.345 251.5H422.335V250.5H427.345V251.5ZM417.325 251.5H412.315V250.5H417.325V251.5ZM407.305 251.5H402.295V250.5H407.305V251.5ZM397.285 251.5H392.275V250.5H397.285V251.5ZM387.265 251.5H382.255V250.5H387.265V251.5ZM377.245 251.5H372.235V250.5H377.245V251.5ZM367.225 251.5H362.215V250.5H367.225V251.5ZM357.205 251.5H352.195V250.5H357.205V251.5ZM347.185 251.5H342.175V250.5H347.185V251.5ZM337.165 251.5H332.155V250.5H337.165V251.5ZM327.145 251.5H322.135V250.5H327.145V251.5ZM317.125 251.5H312.115V250.5H317.125V251.5ZM307.105 251.5H302.095V250.5H307.105V251.5ZM297.085 251.5H292.075V250.5H297.085V251.5ZM287.065 251.5H282.055V250.5H287.065V251.5ZM277.045 251.5H272.035V250.5H277.045V251.5ZM267.025 251.5H262.015V250.5H267.025V251.5ZM257.005 251.5H251.995V250.5H257.005V251.5ZM246.985 251.5H241.975V250.5H246.985V251.5ZM236.965 251.5H231.955V250.5H236.965V251.5ZM226.945 251.5H221.935V250.5H226.945V251.5ZM216.925 251.5H211.915V250.5H216.925V251.5ZM206.905 251.5H201.895V250.5H206.905V251.5ZM196.885 251.5H191.875V250.5H196.885V251.5ZM186.865 251.5H181.855V250.5H186.865V251.5ZM176.845 251.5H171.835V250.5H176.845V251.5ZM166.825 251.5H161.815V250.5H166.825V251.5ZM156.805 251.5H151.795V250.5H156.805V251.5ZM146.785 251.5H141.775V250.5H146.785V251.5ZM136.765 251.5H131.755V250.5H136.765V251.5ZM126.745 251.5H121.735V250.5H126.745V251.5ZM116.725 251.5H111.715V250.5H116.725V251.5ZM106.705 251.5H101.695V250.5H106.705V251.5ZM96.6848 251.5H91.6748V250.5H96.6848V251.5ZM86.6648 251.5H81.6548V250.5H86.6648V251.5ZM76.6448 251.5H71.6347V250.5H76.6448V251.5ZM66.6248 251.5H61.6147V250.5H66.6248V251.5ZM56.6047 251.5H51.5947V250.5H56.6047V251.5ZM46.5847 251.5H41.5747V250.5H46.5847V251.5ZM36.5647 251.5H31.5547V250.5H36.5647V251.5ZM26.5447 251.5H21.5346V250.5H26.5447V251.5ZM16.5247 251.5H11.5146V250.5H16.5247V251.5ZM6.50464 251.5H4.00003V250.5H6.50464V251.5ZM4.00003 251.5C3.52637 251.5 3.07349 251.406 2.66013 251.234L3.04318 250.311C3.33725 250.432 3.66013 250.5 4.00003 250.5V251.5ZM0.765808 249.34C0.594391 248.927 0.500031 248.474 0.500031 248H1.50003C1.50003 248.34 1.5676 248.663 1.68954 248.957L0.765808 249.34ZM0.500031 248V245.5H1.50003V248H0.500031ZM0.500031 240.5V235.5H1.50003V240.5H0.500031ZM0.500031 230.5V225.5H1.50003V230.5H0.500031ZM0.500031 220.5V215.5H1.50003V220.5H0.500031ZM0.500031 210.5V205.5H1.50003V210.5H0.500031ZM0.500031 200.5V195.5H1.50003V200.5H0.500031ZM0.500031 190.5V185.5H1.50003V190.5H0.500031ZM0.500031 180.5V175.5H1.50003V180.5H0.500031ZM0.500031 170.5V165.5H1.50003V170.5H0.500031ZM0.500031 160.5V155.5H1.50003V160.5H0.500031ZM0.500031 150.5V145.5H1.50003V150.5H0.500031ZM0.500031 140.5V135.5H1.50003V140.5H0.500031ZM0.500031 130.5V125.5H1.50003V130.5H0.500031ZM0.500031 120.5V115.5H1.50003V120.5H0.500031ZM0.500031 110.5V105.5H1.50003V110.5H0.500031ZM0.500031 100.5V95.5H1.50003V100.5H0.500031ZM0.500031 90.5V85.5H1.50003V90.5H0.500031ZM0.500031 80.5V75.5H1.50003V80.5H0.500031ZM0.500031 70.5V65.5H1.50003V70.5H0.500031ZM0.500031 60.5V55.5H1.50003V60.5H0.500031ZM0.500031 50.5V45.5H1.50003V50.5H0.500031ZM0.500031 40.5V35.5H1.50003V40.5H0.500031ZM0.500031 30.5V25.5H1.50003V30.5H0.500031ZM0.500031 20.5V15.5H1.50003V20.5H0.500031ZM0.500031 10.5V8H1.50003V10.5H0.500031ZM0.500031 8C0.500031 7.52635 0.594391 7.07348 0.765808 6.66011L1.68954 7.04316C1.5676 7.33724 1.50003 7.6601 1.50003 8H0.500031ZM2.66016 4.76578C3.07352 4.59436 3.52637 4.5 4.00003 4.5V5.5C3.66013 5.5 3.33728 5.56756 3.04318 5.6895L2.66016 4.76578ZM4.00003 4.5H6.83337V5.5H4.00003V4.5ZM12.5 4.5H18.1667V5.5H12.5V4.5ZM23.8333 4.5H29.5V5.5H23.8333V4.5ZM35.1667 4.5H38V5.5H35.1667V4.5Z" fill="#616D7B"/>
<path d="M44 5H33" stroke="#616D7B"/>
<path d="M40 9L44 5L40 1" stroke="#616D7B" stroke-linecap="square"/>
</svg>
