<svg width="20" height="20" viewBox="0 0 20 20" fill="none" xmlns="http://www.w3.org/2000/svg">
<path d="M3.46539 2.55277C3.93947 2.55277 4.30415 2.18809 4.30415 1.714V0.838768C4.30415 0.364682 3.93947 0 3.46539 0C3.02777 0 2.66309 0.364682 2.66309 0.838768V1.714C2.66309 2.18809 3.02777 2.55277 3.46539 2.55277Z" fill="#212C30"/>
<path d="M7.51245 13.6756H1.13051C0.984641 13.6756 0.875236 13.5662 0.875236 13.4203V4.26682H13.2015V7.8407C13.3474 7.8407 13.5297 7.8407 13.6756 7.8407C13.8214 7.8407 13.9308 7.8407 14.0767 7.8407V2.18813C14.0767 1.56817 13.5662 1.05762 12.9462 1.05762H11.6698C11.7792 1.23996 11.8522 1.45877 11.8522 1.67758C11.8522 2.37047 11.3051 2.91749 10.6122 2.91749C9.91935 2.91749 9.37232 2.37047 9.37232 1.67758C9.37232 1.45877 9.44526 1.23996 9.55466 1.05762H4.55852C4.66793 1.27643 4.74086 1.49524 4.74086 1.71404C4.74086 2.40694 4.19384 2.95396 3.50095 2.95396C2.80805 2.95396 2.26103 2.40694 2.26103 1.71404C2.26103 1.49524 2.33396 1.27643 2.44337 1.09409H1.13051C0.510555 1.09409 0 1.56817 0 2.18813V13.4203C0 14.0403 0.510555 14.5508 1.13051 14.5508H7.51245C7.51245 14.3685 7.47598 14.1862 7.47598 13.9674C7.47598 13.8944 7.47598 13.785 7.51245 13.6756Z" fill="#212C30"/>
<path d="M10.5761 2.55277C11.0502 2.55277 11.4148 2.18809 11.4148 1.714V0.838768C11.4148 0.364682 11.0137 0 10.5761 0C10.102 0 9.7373 0.364682 9.7373 0.838768V1.714C9.7373 2.18809 10.102 2.55277 10.5761 2.55277Z" fill="#212C30"/>
<path d="M6.27246 12.837H7.58531L7.76766 12.0712V11.3418H6.27246V12.837Z" fill="#212C30"/>
<path d="M5.68889 11.3418H4.15723V12.8735H5.68889V11.3418Z" fill="#212C30"/>
<path d="M3.60979 11.3418H2.07812V12.8735H3.60979V11.3418Z" fill="#212C30"/>
<path d="M10.4668 8.7162C10.9409 8.42446 11.4514 8.20565 11.9985 8.05978V7.29395H10.4668V8.7162Z" fill="#212C30"/>
<path d="M9.88323 7.29395H8.35156V8.82561H9.88323V7.29395Z" fill="#212C30"/>
<path d="M7.80412 7.29395H6.27246V8.82561H7.80412V7.29395Z" fill="#212C30"/>
<path d="M5.68889 7.29395H4.15723V8.82561H5.68889V7.29395Z" fill="#212C30"/>
<path d="M3.60979 7.29395H2.07812V8.82561H3.60979V7.29395Z" fill="#212C30"/>
<path d="M11.9985 5.25098H10.4668V6.78264H11.9985V5.25098Z" fill="#212C30"/>
<path d="M9.88323 5.25098H8.35156V6.78264H9.88323V5.25098Z" fill="#212C30"/>
<path d="M7.80412 5.25098H6.27246V6.78264H7.80412V5.25098Z" fill="#212C30"/>
<path d="M5.68889 5.25098H4.15723V6.78264H5.68889V5.25098Z" fill="#212C30"/>
<path d="M9.59148 9.33594H8.35156V10.7947C8.67978 10.2476 9.11739 9.77356 9.59148 9.33594Z" fill="#212C30"/>
<path d="M7.80412 9.33594H6.27246V10.8676H7.80412V9.33594Z" fill="#212C30"/>
<path d="M5.68889 9.33594H4.15723V10.8676H5.68889V9.33594Z" fill="#212C30"/>
<path d="M3.60979 9.33594H2.07812V10.8676H3.60979V9.33594Z" fill="#212C30"/>
<path d="M17.5407 10.0288C16.4831 8.97119 15.0973 8.3877 13.6021 8.3877C12.1069 8.3877 10.7211 8.97119 9.66353 10.0288C8.60595 11.0863 8.02246 12.4721 8.02246 13.9673C8.02246 15.4625 8.60595 16.8483 9.66353 17.9059C10.7211 18.9635 12.1069 19.547 13.6021 19.547C15.0973 19.547 16.4831 18.9635 17.5407 17.9059C18.5982 16.8483 19.1817 15.4625 19.1817 13.9673C19.1817 12.4721 18.5982 11.0863 17.5407 10.0288ZM13.6386 18.6717C11.0129 18.6717 8.8977 16.5566 8.8977 13.9309C8.8977 11.3052 11.0129 9.19 13.6386 9.19C16.2643 9.19 18.3794 11.3052 18.3794 13.9309C18.3794 16.5566 16.2278 18.6717 13.6386 18.6717Z" fill="#212C30"/>
<path d="M14.0403 13.4203C14.0403 12.3991 14.0038 11.0863 13.7485 9.84637C13.7485 9.80991 13.712 9.77344 13.6391 9.77344C13.6026 9.77344 13.5662 9.80991 13.5297 9.84637C13.2744 11.0498 13.238 12.3262 13.238 13.4203C13.0921 13.5297 13.0191 13.6755 12.9827 13.8579C12.1074 14.332 11.451 14.7696 10.8675 15.2437C10.8311 15.2801 10.8311 15.3166 10.8311 15.3531C10.8311 15.3895 10.8675 15.3895 10.904 15.3895C10.904 15.3895 10.904 15.3895 10.9405 15.3895C11.8157 15.1707 12.618 14.806 13.3109 14.4778C13.4203 14.5508 13.5297 14.5508 13.6756 14.5508C14.0038 14.5143 14.2591 14.259 14.2591 13.9673C14.2955 13.7849 14.1861 13.5661 14.0403 13.4203Z" fill="#212C30"/>
</svg>
