<svg width="21" height="20" viewBox="0 0 21 20" fill="none" xmlns="http://www.w3.org/2000/svg">
<path d="M19.3644 15.7993V12.736H19.9115V12.3349C16.8481 10.4385 16.7023 10.3291 14.6236 9.05273L9.33569 12.3349V12.736H9.88271V15.7993H9.04395V16.6016H20.1667V15.7993H19.3644ZM10.3933 12.2255L12.1437 11.1314L14.1495 12.2984H10.3933V12.2255ZM11.7061 15.7993H10.3933V12.736H11.7061C11.7061 13.7207 11.7061 14.7782 11.7061 15.7993ZM14.4048 15.7993H12.0708V14.4865H14.4048V15.7993ZM14.4048 14.0853H12.0708V12.6996H14.4048V14.0853ZM14.4048 12.0067L12.5084 10.9126L14.4048 9.70916V12.0067ZM14.8424 9.70916L16.7387 10.9126L14.8424 12.0067V9.70916ZM17.541 15.7993H16.2646V13.5383H17.541V15.7993ZM18.8539 15.7993H17.9422V13.1372C17.2493 13.1372 16.5564 13.1372 15.8635 13.1372V15.7993H14.8424V12.736H18.8904V15.7993H18.8539ZM18.8539 12.2984H15.1341L17.1399 11.1314L18.8904 12.2255V12.2984H18.8539Z" fill="#212C30"/>
<path d="M9.77442 7.5944L11.0873 6.24508L9.37327 5.66159L9.00859 5.9898C8.71684 5.84393 7.6228 5.1875 7.33105 5.1875C7.25812 5.1875 7.25812 5.22397 7.25812 5.2969C7.54986 5.84393 7.76867 6.57329 7.7322 7.485C6.85697 7.485 5.98173 7.485 5.07003 7.485L4.85122 8.72491L3.79364 8.87079L3.7207 9.3084V10.0742H7.76867C7.80514 9.41781 7.80514 8.72491 7.80514 7.95908C7.80514 7.77674 7.80514 7.55793 7.80514 7.37559L8.68038 7.74027C9.08153 7.84968 9.51914 7.84968 9.77442 7.5944ZM6.0182 8.25083H5.47118V7.88615H6.0182V8.25083ZM7.54986 8.25083H7.00284V7.88615H7.54986V8.25083Z" fill="#212C30"/>
<path d="M7.51199 2.85352C7.51199 3.14526 7.51199 3.25467 7.36611 3.58288C7.22024 3.91109 6.96496 4.16637 6.63675 4.34871L6.52734 4.42165L13.3104 6.79208L13.9304 5.11454L12.3623 4.56752C12.3623 4.45812 12.3623 4.34871 12.2893 4.27577C12.1799 4.05697 11.3776 3.72875 11.1223 3.76522C11.0494 3.76522 10.9765 3.83816 10.9035 3.87462C10.7212 4.1299 10.5753 4.42165 10.5024 4.74986C10.4659 4.85927 10.2471 4.78633 10.2836 4.67692C10.3565 4.42165 10.4659 4.16637 10.6118 3.91109C9.59067 3.58288 8.56956 3.2182 7.51199 2.85352Z" fill="#212C30"/>
<path d="M5.98021 7.11985H7.29307C7.2566 6.13521 6.85545 5.36938 6.5637 4.96823C6.08962 5.40585 5.14144 4.67648 4.52148 4.49414C5.10498 4.93176 5.83434 5.73406 5.98021 7.11985Z" fill="#212C30"/>
<path d="M3.82868 12.7366C3.86514 12.4813 3.86514 12.226 3.90161 11.9343C3.90161 11.8614 3.90161 11.8249 3.82868 11.7884C3.75574 11.752 3.64634 11.7155 3.53693 11.679V9.23565L3.90161 7.26636L4.15689 7.30283L3.93808 8.46981L4.59451 8.36041L4.81332 7.08402H5.50621C5.32387 5.44295 4.19336 4.75006 3.75574 4.53125C3.42753 4.64065 3.17225 4.85946 2.95344 5.11474C2.18761 6.06291 2.29701 7.99573 2.11467 9.19918C2.15114 10.1109 2.18761 10.9132 2.22408 11.7884C1.71352 11.679 1.49471 11.6425 0.801817 11.5331C0.765349 11.5331 0.692412 11.5696 0.692412 11.6061C0.655944 11.7884 0.619476 11.9708 0.583008 12.1531C0.583008 12.1896 0.619476 12.2625 0.655944 12.2625C1.2759 12.3719 1.78646 12.4448 2.26054 12.4813C2.26054 12.8095 2.51582 12.8095 2.7711 12.846C3.02638 12.8825 3.31812 12.9189 3.50046 12.9189C3.6828 12.9189 3.82868 12.8825 3.82868 12.7366Z" fill="#212C30"/>
<path d="M3.42801 2.3791C3.28214 1.83208 3.2092 1.64974 3.28214 1.39446L0.547023 0.446289L0 2.16029C0.765832 2.41557 2.95392 3.1814 3.75622 3.47315C3.64682 3.14493 3.50095 2.67085 3.42801 2.3791Z" fill="#212C30"/>
<path d="M8.78862 9.92779C8.78862 9.81839 8.71569 9.74545 8.64275 9.74545L8.20513 9.70898C8.09573 9.70898 8.02279 9.78192 8.02279 9.85486L7.98632 10.256H3.79248V11.4959C3.86542 11.5324 3.93835 11.5689 4.01129 11.6053C4.19363 11.7147 4.15716 11.8606 4.15716 12.0794V12.1159L4.74065 12.2253L4.77712 12.0794C4.77712 12.0429 4.81359 12.0065 4.85006 12.0065H4.88653V11.97C4.92299 11.7877 4.88653 11.5689 4.77712 11.3865C4.66772 11.2406 4.55831 11.1677 4.41244 11.0948L4.44891 10.9854C4.52184 10.9854 4.55831 10.9854 4.63125 10.9854C5.21474 11.0948 5.43355 11.7512 5.32414 12.2618L5.17827 13.0641C5.17827 13.1005 5.1418 13.137 5.10534 13.137C5.0324 13.2464 5.0324 13.2829 5.06887 13.3923H5.17827C5.21474 13.3923 5.25121 13.4287 5.21474 13.4652L5.1418 13.8299C5.1418 13.8664 5.10534 13.9028 5.06887 13.8664L4.48538 13.757C4.44891 13.757 4.41244 13.7205 4.44891 13.684L4.52184 13.3193C4.52184 13.2829 4.55831 13.2464 4.59478 13.2829H4.66772C4.74065 13.1735 4.74065 13.137 4.70419 13.0276H4.66772C4.63125 13.0276 4.59478 12.9911 4.59478 12.9547L4.63125 12.8088C4.44891 12.7723 4.30304 12.7358 4.12069 12.7358C4.08423 13.0276 3.82895 13.137 3.57367 13.1735C3.5372 13.1735 3.46427 13.1735 3.39133 13.1735L3.09958 18.826C3.09958 19.1178 3.06312 19.5189 3.17252 19.5189H5.25121C5.36061 19.5189 5.36061 18.7896 5.17827 18.6802L4.95946 18.6072L5.57942 13.757H5.68883L5.57942 18.826C5.57942 19.1178 5.61589 19.5189 5.72529 19.5189H8.20513C8.351 19.5189 8.38747 18.7896 8.09573 18.6802L7.4393 18.4978L7.5487 15.2157C7.58517 14.3769 7.62164 13.6111 7.65811 12.8817H8.02279V13.2829C8.02279 13.3193 8.05926 13.3558 8.09573 13.3558H8.27807C8.31454 13.3558 8.351 13.3193 8.351 13.2829L8.38747 12.8452C8.60628 12.8088 8.71569 12.6264 8.78862 12.3712L8.93449 10.2195H8.75215L8.78862 9.92779Z" fill="#212C30"/>
<path d="M8.20566 1.79593C8.35153 1.79593 8.42447 1.75946 8.46094 1.68652C8.53387 1.54065 8.64328 1.28537 8.42447 1.28537H7.40336C7.36689 1.28537 7.33042 1.28537 7.33042 1.24891C7.07514 0.884223 7.07514 0.483073 6.71046 0.227796C6.16344 -0.136886 5.1788 -0.0274813 4.59531 0.300732C3.93888 0.665414 3.61067 1.35831 3.86594 2.27001L8.20566 1.79593Z" fill="#212C30"/>
<path d="M5.90809 4.20302C6.38218 4.09361 6.8198 3.7654 6.96567 3.40072C7.07508 3.14544 7.14801 2.63488 7.14801 2.19727C6.05397 2.30667 4.99639 2.45254 3.90234 2.56195C3.97528 2.89016 4.04822 3.21837 4.15762 3.40072C4.37643 3.7654 4.81405 4.09361 5.3246 4.20302C5.61635 4.23948 5.68928 4.23948 5.90809 4.20302Z" fill="#212C30"/>
</svg>
