<svg width="19" height="20" viewBox="0 0 19 20" fill="none" xmlns="http://www.w3.org/2000/svg">
<path d="M13.7685 15.9734L11.9816 14.2229L11.5439 14.6605L13.9508 17.0674L16.2483 12.4724L15.6648 12.1807L13.7685 15.9734Z" fill="#212C30"/>
<path d="M8.91666 10.2842H2.89941V11.0865H8.91666V10.2842Z" fill="#212C30"/>
<path d="M9.75543 8.75293H2.89941V9.55523H9.75543V8.75293Z" fill="#212C30"/>
<path d="M11.0683 7.2207H2.89941V8.023H11.0683V7.2207Z" fill="#212C30"/>
<path d="M2.89941 16.3379V17.1402H9.71896C9.57309 16.8849 9.42722 16.6296 9.31781 16.3379H2.89941Z" fill="#212C30"/>
<path d="M15.5183 10.0288V2.5163C15.5183 2.00575 15.1171 1.6046 14.6066 1.6046H4.9425V0.875236C4.9425 0.838768 4.97897 0.8023 5.01544 0.8023H16.2476C16.2841 0.8023 16.3206 0.838768 16.3206 0.875236V10.3934C16.6123 10.5758 16.8676 10.7581 17.1229 10.9769V0.911705C17.1229 0.40115 16.7217 0 16.2112 0H5.0519C4.54135 0 4.1402 0.40115 4.1402 0.911705V1.64107H3.41084C2.90028 1.64107 2.49913 2.04222 2.49913 2.55277V3.28214H1.76977C1.29568 3.24567 0.894531 3.64682 0.894531 4.15737V18.5988C0.894531 19.1093 1.29568 19.5105 1.80624 19.5105H13.0384C13.1478 19.5105 13.2208 19.5105 13.2937 19.474C13.5125 19.5105 13.6949 19.5105 13.9137 19.5105C16.6123 19.5105 18.8004 17.3224 18.8004 14.6237C18.7639 12.5086 17.4146 10.6852 15.5183 10.0288ZM3.3379 2.5163C3.3379 2.47984 3.37437 2.44337 3.41084 2.44337H14.643C14.6795 2.44337 14.716 2.47984 14.716 2.5163V9.80994C14.4607 9.77347 14.169 9.73701 13.9137 9.73701C13.8772 9.73701 13.8407 9.73701 13.8043 9.73701C13.8407 9.73701 13.8772 9.73701 13.9137 9.73701V4.15737C13.9137 3.64682 13.5125 3.24567 13.002 3.24567H3.3379V2.5163ZM13.7313 9.73701H13.6949C13.6949 9.77347 13.6949 9.77347 13.7313 9.73701ZM1.80624 18.7082C1.76977 18.7082 1.7333 18.6717 1.7333 18.6352V4.15737C1.7333 4.1209 1.76977 4.08444 1.80624 4.08444H13.0384C13.0749 4.08444 13.1114 4.1209 13.1114 4.15737V9.84641C11.5432 10.1017 10.2304 11.1228 9.53749 12.5086C9.53749 12.5086 9.53749 12.4721 9.57396 12.4721V11.8157H2.90028V12.618H9.46455V12.5815C9.35515 12.8003 9.24575 13.0556 9.17281 13.3109H2.90028V14.1132H9.0634C9.0634 14.2955 9.02694 14.4414 9.02694 14.6237C9.02694 14.6967 9.02694 14.7331 9.02694 14.8061H2.90028V15.6084H9.0634V15.2437C9.28221 16.9577 10.4492 18.4164 11.9809 19.0729C11.7256 18.9635 11.4338 18.8176 11.215 18.6717H1.80624V18.7082ZM12.1632 19.1823H12.1997C12.1632 19.1823 12.1632 19.1823 12.1632 19.1823ZM12.0173 19.1093C12.0538 19.1093 12.0538 19.1093 12.0903 19.1458C12.0538 19.1458 12.0538 19.1458 12.0173 19.1093ZM13.9137 18.5258C11.7621 18.5258 10.0116 16.7754 10.0116 14.6237C10.0116 12.4721 11.7621 10.7216 13.9137 10.7216C16.0653 10.7216 17.8158 12.4721 17.8158 14.6237C17.8158 16.7754 16.0653 18.5258 13.9137 18.5258Z" fill="#212C30"/>
</svg>
