<svg width="35" height="35" viewBox="0 0 35 35" fill="none" xmlns="http://www.w3.org/2000/svg">
<path d="M7.17659 13.8025C6.60247 14.3766 6.21973 15.1421 6.21973 16.0033C6.21973 16.8645 6.50678 17.6299 7.17659 18.2041L11.5781 22.6056L13.3005 24.328L15.884 26.9115C17.1279 28.1554 19.0417 28.1554 20.2856 26.9115L21.6252 25.5719L8.51619 12.4629L7.17659 13.8025Z" fill="#296E8B"/>
<path d="M9.37724 22.0312L0.574116 30.8344C-0.191372 31.5999 -0.191372 32.7481 0.574116 33.5136C1.33961 34.1834 2.48784 34.1834 3.25333 33.5136L12.0564 24.7105L10.7168 23.3709L9.37724 22.0312ZM2.48784 32.3653C2.48784 32.461 2.39215 32.461 2.39215 32.5567C2.29647 32.6524 2.10509 32.7481 2.00941 32.7481C1.81804 32.7481 1.72235 32.6524 1.53098 32.5567C1.43529 32.461 1.43529 32.461 1.43529 32.3653C1.43529 32.2697 1.43529 32.174 1.43529 32.174C1.43529 31.9826 1.53098 31.8869 1.62666 31.7912C1.62666 31.6955 1.62666 31.5999 1.72235 31.5999C1.81804 31.5042 1.91372 31.5042 2.10509 31.5999H2.20078C2.20078 31.5999 2.29647 31.5999 2.29647 31.6955L2.39215 31.7912C2.48784 31.8869 2.58352 32.0783 2.58352 32.174C2.58352 32.174 2.58352 32.2697 2.48784 32.3653Z" fill="#296E8B"/>
<path d="M30.8104 13.8027L27.7485 16.8647C26.983 17.6302 25.8348 17.6302 25.165 16.8647C24.3995 16.0992 24.3995 14.9509 25.165 14.2811L27.3657 12.0804C27.6528 11.7933 27.6528 11.4106 27.3657 11.2192C27.0787 10.9321 26.6959 10.9321 26.5046 11.2192L26.0261 11.6976C25.5477 12.1761 24.8779 12.3674 24.2081 12.1761C23.5383 11.9847 23.0599 11.5063 22.8685 10.8364C22.6771 10.1666 22.8685 9.49684 23.3469 9.01841L26.8873 5.47803L21.6246 0.215294C21.3375 -0.0717646 20.9548 -0.0717646 20.7634 0.215294L13.7783 7.20038L26.8873 20.3094L32.6285 14.5682L31.6716 13.8027C31.4802 13.5157 31.0975 13.5157 30.8104 13.8027Z" fill="#296E8B"/>
<path d="M33.8732 12.4628L27.7493 6.33887L24.209 9.87925C24.0176 10.0706 24.0176 10.262 24.0176 10.4534C24.1133 10.6447 24.209 10.8361 24.496 10.9318C24.6874 11.0275 24.9744 10.9318 25.0701 10.7404L25.5486 10.262C26.027 9.78357 26.6968 9.59219 27.3666 9.78357C28.0364 9.97494 28.5148 10.4534 28.7062 11.1232C28.8976 11.793 28.7062 12.4628 28.2278 12.9412L26.027 15.142C25.9313 15.2377 25.8356 15.429 25.8356 15.6204C25.8356 15.8118 25.9313 15.9075 26.027 16.0988C26.314 16.3859 26.6968 16.3859 26.8882 16.0988L29.9501 13.0369C30.3329 12.6541 30.8113 12.4628 31.2897 12.4628C31.7681 12.4628 32.2466 12.6541 32.6293 13.0369L33.4905 13.8981L33.9689 13.4196C34.1603 13.1326 34.1603 12.6541 33.8732 12.4628Z" fill="#296E8B"/>
<path d="M22.4859 24.7104L9.37695 11.6013L11.0993 9.87891L24.304 22.9881L22.4859 24.7104Z" fill="#296E8B"/>
<path d="M25.1656 22.1274L11.9609 8.9227L12.8221 8.06152L25.9311 21.1705L25.1656 22.1274Z" fill="#296E8B"/>
</svg>
