<svg width="758" height="518" viewBox="0 0 758 518" fill="none" xmlns="http://www.w3.org/2000/svg">
<path d="M119 0V165" stroke="#D5D5D5" stroke-dasharray="5 5"/>
<path d="M81 0V143" stroke="#D5D5D5" stroke-dasharray="5 5"/>
<path d="M43 0V121" stroke="#D5D5D5" stroke-dasharray="5 5"/>
<path d="M1 0V99" stroke="#D5D5D5" stroke-dasharray="5 5"/>
<path d="M199 0L199 210" stroke="#D5D5D5" stroke-dasharray="5 5"/>
<path d="M160 0L160 188" stroke="#D5D5D5" stroke-dasharray="5 5"/>
<path d="M239 0L239 232" stroke="#D5D5D5" stroke-dasharray="5 5"/>
<path d="M278 0L278 254" stroke="#D5D5D5" stroke-dasharray="5 5"/>
<path d="M319 0L319 276" stroke="#D5D5D5" stroke-dasharray="5 5"/>
<path d="M360 0L360 298" stroke="#D5D5D5" stroke-dasharray="5 5"/>
<path d="M399 0L399 320" stroke="#D5D5D5" stroke-dasharray="5 5"/>
<path d="M439 0L439 342" stroke="#D5D5D5" stroke-dasharray="5 5"/>
<path d="M479 0L479 364" stroke="#D5D5D5" stroke-dasharray="5 5"/>
<path d="M519 0L519 386" stroke="#D5D5D5" stroke-dasharray="5 5"/>
<path d="M559 0L559 408" stroke="#D5D5D5" stroke-dasharray="5 5"/>
<path d="M598 0L598 430" stroke="#D5D5D5" stroke-dasharray="5 5"/>
<path d="M638 0L638 452" stroke="#D5D5D5" stroke-dasharray="5 5"/>
<path d="M677 0L677 474" stroke="#D5D5D5" stroke-dasharray="5 5"/>
<path d="M718 0L718 496" stroke="#D5D5D5" stroke-dasharray="5 5"/>
<path d="M757 0L757 518" stroke="#D5D5D5" stroke-dasharray="5 5"/>
</svg>
