<svg width="32" height="31" viewBox="0 0 32 31" fill="none" xmlns="http://www.w3.org/2000/svg">
<path d="M30.2119 26.4463L23.2062 19.4407C22.6808 18.9153 22.0678 18.6525 21.2797 18.6525C21.1921 18.6525 21.1045 18.6525 21.1045 18.6525L19.791 17.339C21.2797 15.3249 21.9802 12.8729 21.8927 10.4209C21.8051 7.70621 20.6667 5.16667 18.7401 3.24011C16.6384 1.13842 13.8362 0 10.9463 0C8.0565 0 5.25424 1.13842 3.24011 3.24011C1.22599 5.34181 0 8.0565 0 10.9463C0 13.8362 1.13842 16.6384 3.24011 18.6525C5.25424 20.7542 8.0565 21.8927 10.9463 21.8927C13.2232 21.8927 15.5 21.1921 17.339 19.791L18.6525 21.1045C18.565 21.8927 18.8277 22.6808 19.4407 23.2062L26.4463 30.2119C26.9718 30.7373 27.5847 31 28.3729 31C29.0734 31 29.774 30.7373 30.2994 30.2119C31.2627 29.161 31.2627 27.4972 30.2119 26.4463ZM17.4266 16.2006L16.2006 17.4266C14.7119 18.565 12.8729 19.2655 10.9463 19.2655C8.66949 19.2655 6.5678 18.3898 4.99153 16.8136C3.41525 15.2373 2.53955 13.1356 2.53955 10.8588C2.53955 8.58192 3.41525 6.48023 4.99153 4.90395C6.5678 3.32768 8.66949 2.45198 10.9463 2.45198C13.2232 2.45198 15.3249 3.32768 16.9011 4.90395C18.3898 6.39266 19.2655 8.31921 19.3531 10.4209C19.4407 12.5226 18.7401 14.5367 17.4266 16.2006C17.5141 16.2006 17.4266 16.2006 17.4266 16.2006Z" fill="#D82216"/>
<path d="M15.1499 7.18034C15.0623 7.09277 14.9748 7.09277 14.8872 7.09277C14.7996 7.09277 14.712 7.09277 14.6245 7.18034L9.45781 12.2594L7.0934 9.89503C7.00583 9.80746 6.91826 9.80746 6.83069 9.80746C6.74312 9.80746 6.65555 9.80746 6.56798 9.89503L4.99171 11.3837C4.81657 11.5589 4.81657 11.8216 4.99171 11.9092L9.28267 16.2001C9.37024 16.2877 9.45781 16.2877 9.54538 16.2877C9.63295 16.2877 9.72052 16.2877 9.80809 16.2001L16.7262 9.28204C16.9013 9.1069 16.9013 8.84419 16.7262 8.75661L15.1499 7.18034Z" fill="#D82216"/>
</svg>
