<svg width="39" height="59" viewBox="0 0 39 59" fill="none" xmlns="http://www.w3.org/2000/svg">
<path d="M16.9004 20.1836H27.1031" stroke="#212C30" stroke-miterlimit="10" stroke-linecap="round"/>
<path d="M16.9004 16.7617H34.19" stroke="#212C30" stroke-miterlimit="10" stroke-linecap="round"/>
<path d="M12.3792 29.5303H5.47559V36.4339H12.3792V29.5303Z" stroke="#212C30" stroke-miterlimit="10" stroke-linecap="round" stroke-linejoin="round"/>
<path d="M16.9004 34.7842H27.1031" stroke="#212C30" stroke-miterlimit="10" stroke-linecap="round"/>
<path d="M16.9004 31.3643H34.19" stroke="#212C30" stroke-miterlimit="10" stroke-linecap="round"/>
<path d="M16.9004 49.3252H27.1031" stroke="#212C30" stroke-miterlimit="10" stroke-linecap="round"/>
<path d="M16.9004 45.9043H34.19" stroke="#212C30" stroke-miterlimit="10" stroke-linecap="round"/>
<path d="M7.36975 5.27637H0.649414V58.0004H38.4055V5.27637H31.6851" stroke="#212C30" stroke-miterlimit="10" stroke-linejoin="round"/>
<path d="M30.4626 1H8.59102C7.91899 1 7.36914 1.54985 7.36914 2.22188V5.33767V7.23158H31.6845V5.27657V2.22188C31.6845 1.54985 31.1347 1 30.4626 1Z" stroke="#212C30" stroke-miterlimit="10" stroke-linecap="round" stroke-linejoin="round"/>
<path d="M7.24707 31.3027L10.6072 34.6018" stroke="#212C30" stroke-miterlimit="10" stroke-linecap="round" stroke-linejoin="round"/>
<path d="M7.24707 34.6018L10.6072 31.3027" stroke="#212C30" stroke-miterlimit="10" stroke-linecap="round" stroke-linejoin="round"/>
<path d="M7.125 17.4958L9.20219 19.573L14.5174 14.2578" stroke="#212C30" stroke-miterlimit="10" stroke-linecap="round" stroke-linejoin="round"/>
<path d="M7.125 46.6374L9.20219 48.7146L14.5174 43.3994" stroke="#212C30" stroke-miterlimit="10" stroke-linecap="round" stroke-linejoin="round"/>
<path d="M12.3792 44.0713H5.47559V50.9749H12.3792V44.0713Z" stroke="#212C30" stroke-miterlimit="10" stroke-linecap="round" stroke-linejoin="round"/>
<path d="M7.125 46.6374L9.20219 48.7146L14.5174 43.3994" stroke="#212C30" stroke-miterlimit="10" stroke-linecap="round" stroke-linejoin="round"/>
<path d="M12.3792 14.9287H5.47559V21.8323H12.3792V14.9287Z" stroke="#212C30" stroke-miterlimit="10" stroke-linecap="round" stroke-linejoin="round"/>
<path d="M7.125 17.4958L9.20219 19.573L14.5174 14.2578" stroke="#212C30" stroke-miterlimit="10" stroke-linecap="round" stroke-linejoin="round"/>
</svg>
