<svg width="40" height="41" viewBox="0 0 40 41" fill="none" xmlns="http://www.w3.org/2000/svg">
<path fill-rule="evenodd" clip-rule="evenodd" d="M27.6026 31.0395L34.9422 32.661C35.2917 32.7768 35.5247 33.1243 35.5247 33.4718L35.4082 34.1667L39.8352 35.0932C39.9517 35.0932 40.0682 35.209 39.9517 35.3249L39.6022 36.5989C39.6022 36.7147 39.4857 36.8305 39.3692 36.7147L34.9422 35.904L34.4762 37.9887L38.9032 38.9153C39.0197 38.9153 39.1362 39.0311 39.0197 39.1469L38.6702 40.5367C38.6702 40.6525 38.5537 40.7684 38.4372 40.6525L34.0102 39.726L33.8937 40.4209C33.7772 40.7684 33.4277 41 33.0781 41L25.7385 39.3785C24.457 39.0311 23.6415 37.7571 23.8745 36.4831L23.991 35.7881L24.5735 33.3559L24.69 32.8927C25.0395 31.5028 26.3211 30.6921 27.6026 31.0395ZM27.8356 1.15819L38.5537 12.9718C38.5537 13.5508 38.5537 14.1299 38.5537 14.709C37.9712 14.8249 37.2722 14.9407 36.6897 15.0565C36.6897 18.7627 36.6897 22.4689 36.6897 26.1751C30.5151 27.6808 24.224 29.0706 18.0494 30.5763L7.09829 24.9011V14.8249L5.81678 14.2458V12.7401L15.6029 16.5621L27.8356 1.15819ZM5.81678 11.8136L16.0689 0L26.7871 1.04237L15.3699 15.5198L5.81678 11.8136ZM25.0395 27.4492V17.7203L30.3986 16.7938V26.1751L35.4082 25.0169C35.4082 21.3107 35.4082 17.6045 35.4082 13.8983C35.9907 13.7825 36.6897 13.6667 37.2722 13.5508L27.9521 3.24294L17.1174 17.0254L19.331 16.678V28.9548L25.0395 27.4492ZM14.4379 19.3418L10.7098 17.8362V22.1215L14.4379 23.9746V19.3418ZM23.059 35.7881C22.593 35.7881 22.0105 35.904 21.5445 36.1356C20.6125 36.5989 19.6805 36.9463 18.7485 37.4096C14.3214 39.4944 9.77783 39.726 6.16628 38.1045C-1.52282 34.3983 -2.57134 23.9746 6.16628 20.0367V23.048C0.80721 26.291 1.97223 33.1243 7.4478 35.6723C10.2438 36.9463 13.9719 36.7147 17.5834 34.9774C18.5154 34.5141 19.4475 34.1667 20.3795 33.7034C21.428 33.2401 22.593 33.1243 23.6415 33.1243L23.059 35.7881Z" fill="#F1BB51"/>
</svg>
