<svg width="34" height="34" viewBox="0 0 34 34" fill="none" xmlns="http://www.w3.org/2000/svg">
<path d="M24.8784 0H16.2666C15.9796 0 15.6925 0.28706 15.6925 0.57412V7.65493L0.669802 2.8706C0.574116 2.8706 0.382744 2.8706 0.191372 2.96629C0.095686 3.06197 0 3.25335 0 3.34903V7.65493C0 7.94199 0.191372 8.13336 0.382744 8.13336L12.1521 11.3867L6.12391 14.6401H6.02822V13.3961C6.02822 13.2048 5.93253 13.0134 5.64548 12.9177C5.4541 12.822 5.16705 12.9177 5.07136 13.1091L4.21019 14.0659L0.669802 12.9177C0.47843 12.822 0.287058 12.9177 0.191372 13.0134C0.095686 13.1091 0 13.2048 0 13.3961V17.702C0 17.8934 0.191372 18.1805 0.382744 18.1805L0.574116 18.2761L0.095686 18.7546C0 18.946 0 19.1373 0 19.3287C0.095686 19.5201 0.191372 19.6158 0.382744 19.7114L6.88939 21.0511H6.98508C7.27214 21.0511 7.5592 20.8597 7.5592 20.4769C7.5592 20.3813 7.5592 20.2856 7.46351 20.1899L7.36782 20.0942L12.1521 21.4338L6.02822 24.6871V23.4432C6.02822 23.2518 5.93253 23.0605 5.64548 22.9648C5.4541 22.8691 5.16705 22.9648 5.07136 23.1562L0.095686 28.8974C0 28.8974 0 29.0887 0 29.2801C0.095686 29.4715 0.191372 29.5672 0.382744 29.6629L6.79371 31.0982H6.88939C7.17645 31.0982 7.46351 30.9068 7.46351 30.524C7.46351 30.4283 7.46351 30.3327 7.36782 30.237L6.88939 28.706L15.6925 24.3044V33.3946C15.6925 33.6817 15.9796 33.9688 16.2666 33.9688H24.8784C25.1654 33.9688 25.4525 33.6817 25.4525 33.3946V0.57412C25.3568 0.28706 25.1654 0 24.8784 0ZM15.6925 17.702L11.578 16.3624L15.6925 14.2573V17.702ZM1.05255 7.27218V4.11452L15.6925 8.80317V9.47297L13.4917 10.6212L1.05255 7.27218ZM1.05255 17.3193V14.1616L3.4447 14.9271L1.3396 17.415L1.05255 17.3193ZM5.74116 18.5632L6.12391 19.8071L1.53098 18.7546L4.97567 14.8314V15.5012C4.97567 15.6926 5.07136 15.884 5.26273 15.9797C5.4541 16.0754 5.64548 16.0754 5.83685 15.9797L15.7882 10.7169V11.291V13.1091L6.02822 17.8934C5.74116 18.0848 5.64548 18.2761 5.74116 18.5632ZM6.98508 18.8503L6.88939 18.6589L10.1427 17.0322L15.6925 18.7546V19.4244L13.4917 20.5726L6.98508 18.8503ZM6.02822 27.9405C5.74116 28.0362 5.64548 28.3232 5.74116 28.6103L6.12391 29.8542L1.53098 28.8017L4.97567 24.8785V25.5483C4.97567 25.7397 5.07136 25.9311 5.26273 26.0268C5.4541 26.1224 5.64548 26.1224 5.83685 26.0268L15.7882 20.764V21.3381V23.1562L6.02822 27.9405ZM24.3043 32.9162H16.8407V23.4432V22.0079V19.9028V18.4675V13.3961V11.9608V9.85572V8.42042V1.05255H24.3043V32.9162Z" fill="#41527C"/>
<path d="M19.1376 21.8164C19.4247 21.8164 19.7117 21.5294 19.7117 21.2423V16.9364C19.7117 16.6494 19.4247 16.3623 19.1376 16.3623C18.8505 16.3623 18.5635 16.6494 18.5635 16.9364V21.2423C18.5635 21.5294 18.8505 21.8164 19.1376 21.8164Z" fill="#41527C"/>
<path d="M19.1376 12.5352C19.4247 12.5352 19.7117 12.2481 19.7117 11.961V7.65517C19.7117 7.36811 19.4247 7.08105 19.1376 7.08105C18.8505 7.08105 18.5635 7.36811 18.5635 7.65517V11.961C18.5635 12.2481 18.8505 12.5352 19.1376 12.5352Z" fill="#41527C"/>
<path d="M19.1376 15.4059C19.4247 15.4059 19.7117 15.1189 19.7117 14.8318V14.162C19.7117 13.8749 19.4247 13.5879 19.1376 13.5879C18.8505 13.5879 18.5635 13.8749 18.5635 14.162V14.8318C18.5635 15.1189 18.8505 15.4059 19.1376 15.4059Z" fill="#41527C"/>
<path d="M19.1376 24.687C19.4246 24.687 19.7117 24.4 19.7117 24.1129V23.4432C19.7117 23.1562 19.4246 22.8691 19.1376 22.8691C18.8505 22.8691 18.5635 23.1562 18.5635 23.4432V24.1129C18.5635 24.4 18.8505 24.687 19.1376 24.687Z" fill="#41527C"/>
<path d="M19.1376 31.0986C19.4247 31.0986 19.7117 30.8116 19.7117 30.5245V26.2186C19.7117 25.9316 19.4247 25.6445 19.1376 25.6445C18.8505 25.6445 18.5635 25.9316 18.5635 26.2186V30.5245C18.5635 30.8116 18.8505 31.0986 19.1376 31.0986Z" fill="#41527C"/>
<path d="M22.0077 10.3347C22.2948 10.3347 22.5818 10.0476 22.5818 9.76054V9.09074C22.4861 8.80368 22.2948 8.6123 22.0077 8.6123C21.7207 8.6123 21.4336 8.89936 21.4336 9.18642V9.85622C21.4336 10.1433 21.7207 10.3347 22.0077 10.3347Z" fill="#41527C"/>
<path d="M22.0077 7.46389C22.2948 7.46389 22.5818 7.17683 22.5818 6.88977V2.67959C22.5818 2.39253 22.2948 2.10547 22.0077 2.10547C21.7207 2.10547 21.4336 2.39253 21.4336 2.67959V6.98546C21.4336 7.27252 21.7207 7.46389 22.0077 7.46389Z" fill="#41527C"/>
<path d="M22.0077 26.1221C22.2948 26.1221 22.5818 25.835 22.5818 25.548V21.2421C22.5818 20.955 22.2948 20.668 22.0077 20.668C21.7207 20.668 21.4336 20.955 21.4336 21.2421V25.548C21.4336 25.835 21.7207 26.1221 22.0077 26.1221Z" fill="#41527C"/>
<path d="M22.0077 16.7451C22.2948 16.7451 22.5818 16.4581 22.5818 16.171V11.8651C22.5818 11.5781 22.2948 11.291 22.0077 11.291C21.7207 11.291 21.4336 11.5781 21.4336 11.8651V16.2667C21.4336 16.5537 21.7207 16.7451 22.0077 16.7451Z" fill="#41527C"/>
<path d="M22.0077 19.6157C22.2948 19.6157 22.5818 19.3287 22.5818 19.0417V18.3719C22.5818 18.0849 22.2948 17.7979 22.0077 17.7979C21.7206 17.7979 21.4336 18.0849 21.4336 18.3719V19.1373C21.4336 19.4244 21.7206 19.6157 22.0077 19.6157Z" fill="#41527C"/>
<path d="M29.0888 12.8223C28.8017 12.8223 28.5146 13.1093 28.5146 13.3963V14.0661C28.5146 14.3531 28.8017 14.6401 29.0888 14.6401C29.3758 14.6401 29.6629 14.3531 29.6629 14.0661V13.3963C29.6629 13.1093 29.3758 12.8223 29.0888 12.8223Z" fill="#41527C"/>
<path d="M29.0888 19.3281C28.8017 19.3281 28.5146 19.6152 28.5146 19.9022V20.5719C28.5146 20.859 28.8017 21.146 29.0888 21.146C29.3758 21.146 29.6629 20.859 29.6629 20.5719V19.9022C29.6629 19.5195 29.3758 19.3281 29.0888 19.3281Z" fill="#41527C"/>
<path d="M29.0888 25.7393C28.8017 25.7393 28.5146 26.0263 28.5146 26.3134V26.9832C28.5146 27.2702 28.8017 27.5573 29.0888 27.5573C29.3758 27.5573 29.6629 27.2702 29.6629 26.9832V26.3134C29.6629 25.9306 29.3758 25.7393 29.0888 25.7393Z" fill="#41527C"/>
<path d="M29.0888 0C28.8017 0 28.5146 0.287058 28.5146 0.574116V1.24392C28.5146 1.53098 28.8017 1.81804 29.0888 1.81804C29.3758 1.81804 29.6629 1.53098 29.6629 1.24392V0.574116C29.6629 0.287058 29.3758 0 29.0888 0Z" fill="#41527C"/>
<path d="M29.0888 6.41113C28.8017 6.41113 28.5146 6.69819 28.5146 6.98525V7.65505C28.5146 7.94211 28.8017 8.22917 29.0888 8.22917C29.3758 8.22917 29.6629 7.94211 29.6629 7.65505V6.98525C29.6629 6.69819 29.3758 6.41113 29.0888 6.41113Z" fill="#41527C"/>
<path d="M29.0888 32.1504C28.8017 32.1504 28.5146 32.4375 28.5146 32.7245V33.3943C28.5146 33.6814 28.8017 33.9684 29.0888 33.9684C29.3758 33.9684 29.6629 33.6814 29.6629 33.3943V32.7245C29.6629 32.4375 29.3758 32.1504 29.0888 32.1504Z" fill="#41527C"/>
<path d="M33.3944 12.8223C33.1074 12.8223 32.8203 13.1093 32.8203 13.3963V14.0661C32.8203 14.3531 33.1074 14.6401 33.3944 14.6401C33.6815 14.6401 33.9685 14.3531 33.9685 14.0661V13.3963C33.9685 13.1093 33.6815 12.8223 33.3944 12.8223Z" fill="#41527C"/>
<path d="M33.3944 0C33.1074 0 32.8203 0.287058 32.8203 0.574116V1.24392C32.8203 1.53098 33.1074 1.81804 33.3944 1.81804C33.6815 1.81804 33.9685 1.53098 33.9685 1.24392V0.574116C33.9685 0.287058 33.6815 0 33.3944 0Z" fill="#41527C"/>
<path d="M33.3944 19.3281C33.1074 19.3281 32.8203 19.6152 32.8203 19.9022V20.5719C32.8203 20.859 33.1074 21.146 33.3944 21.146C33.6815 21.146 33.9685 20.859 33.9685 20.5719V19.9022C33.9685 19.5195 33.6815 19.3281 33.3944 19.3281Z" fill="#41527C"/>
<path d="M33.3944 32.1504C33.1074 32.1504 32.8203 32.4375 32.8203 32.7245V33.3943C32.8203 33.6814 33.1074 33.9684 33.3944 33.9684C33.6815 33.9684 33.9685 33.6814 33.9685 33.3943V32.7245C33.9685 32.4375 33.6815 32.1504 33.3944 32.1504Z" fill="#41527C"/>
<path d="M33.3944 25.7393C33.1074 25.7393 32.8203 26.0263 32.8203 26.3134V26.9832C32.8203 27.2702 33.1074 27.5573 33.3944 27.5573C33.6815 27.5573 33.9685 27.2702 33.9685 26.9832V26.3134C33.9685 25.9306 33.6815 25.7393 33.3944 25.7393Z" fill="#41527C"/>
<path d="M33.3944 6.41113C33.1074 6.41113 32.8203 6.69819 32.8203 6.98525V7.65505C32.8203 7.94211 33.1074 8.22917 33.3944 8.22917C33.6815 8.22917 33.9685 7.94211 33.9685 7.65505V6.98525C33.9685 6.69819 33.6815 6.41113 33.3944 6.41113Z" fill="#41527C"/>
</svg>
