<svg width="38" height="22" viewBox="0 0 38 22" fill="none" xmlns="http://www.w3.org/2000/svg">
<path fill-rule="evenodd" clip-rule="evenodd" d="M1.05255 2.58352H2.96627V2.29647C2.96627 1.81804 3.34901 1.43529 3.82744 1.43529H7.46351C7.94194 1.43529 8.32469 1.81804 8.32469 2.29647V2.87058H10.2384V2.29647C10.2384 1.81804 10.6212 1.43529 11.0996 1.43529H13.3004V0H33.1074V2.87058C35.0211 7.94194 36.3607 13.2047 36.3607 18.7545C36.7435 19.0415 37.0305 19.52 37.0305 19.9984C37.0305 20.8596 36.3607 21.5294 35.4995 21.5294H29.0886C28.2274 21.5294 27.5576 20.8596 27.5576 19.9984C27.5576 19.1372 28.2274 18.4674 29.0886 18.4674H30.2368C30.2368 17.1278 30.0454 15.6925 29.7584 14.3529H26.8878V11.9608H18.1804L15.0227 7.65489C14.927 7.65489 14.7357 7.65489 14.64 7.65489H11.0039C10.5255 7.65489 10.1427 7.27214 10.1427 6.79371V6.12391H8.229V6.8894C8.229 7.27214 7.94194 7.65489 7.46351 7.65489H3.82744C3.34901 7.65489 2.96627 7.27214 2.96627 6.79371V6.50665H1.05255L0 5.74116V3.34901L1.05255 2.58352ZM25.2611 1.62666C24.8784 1.62666 24.5913 1.91372 24.5913 2.29647C24.5913 2.58352 24.8784 2.87058 25.2611 2.87058H29.567C29.9497 2.87058 30.2368 2.58352 30.2368 2.20078C30.2368 1.81804 29.9497 1.53098 29.567 1.53098H25.2611V1.62666ZM26.3137 5.07136C25.9309 5.07136 25.6439 5.35842 25.6439 5.74116C25.6439 6.12391 25.9309 6.41097 26.3137 6.41097H30.6195C31.0023 6.41097 31.2893 6.12391 31.2893 5.74116C31.2893 5.35842 31.0023 5.07136 30.6195 5.07136H26.3137ZM25.6439 3.34901C25.2611 3.34901 24.9741 3.63607 24.9741 4.01882C24.9741 4.40156 25.2611 4.68862 25.6439 4.68862H29.9497C30.3325 4.68862 30.6195 4.40156 30.6195 4.01882C30.6195 3.63607 30.3325 3.34901 29.9497 3.34901H25.6439Z" fill="#8A8EAC"/>
</svg>
