<svg width="44" height="27" viewBox="0 0 44 27" fill="none" xmlns="http://www.w3.org/2000/svg">
<path fill-rule="evenodd" clip-rule="evenodd" d="M6.10824 17.5191L8.38588 15.2519C8.8 15.355 9.21412 15.458 9.62824 15.6641L7.04 18.2405C7.04 18.7557 7.24706 19.1679 7.66118 19.5802C8.07529 19.9924 8.59294 20.1985 9.21412 20.1985H9.31765C9.93882 20.1985 10.56 19.9924 10.9741 19.5802C11.3882 19.1679 11.6988 18.6527 11.6988 18.0344V17.9313C11.6988 17.0038 11.2847 16.1794 10.6635 15.5611C10.0424 14.9427 9.21412 14.5305 8.17882 14.5305H7.97177C6.93647 14.5305 5.90118 14.9427 5.17647 15.5611C4.45177 16.1794 4.03765 17.1069 3.93412 18.1374V18.3435C4.14118 19.4771 4.65882 20.7137 5.59059 21.5382C6.41882 22.3626 7.66118 22.9809 9.00706 22.9809C9.00706 22.9809 9.11059 22.9809 9.21412 22.9809C10.4565 22.9809 11.5953 22.5687 12.5271 21.8473C12.8376 21.5382 13.2518 21.229 13.5624 20.8168C14.1835 19.9924 14.5976 18.9618 14.7012 17.8282C14.7012 17.8282 14.7012 17.7252 14.7012 17.6221C14.7012 15.9733 14.08 14.4275 12.9412 13.3969C11.8024 12.2634 10.2494 11.542 8.48941 11.542C8.38588 11.542 8.38588 11.542 8.17882 11.542C6.31529 11.542 4.65882 12.2634 3.41647 13.3969C3.41647 13.3969 3.41647 13.3969 3.31294 13.5C2.07059 14.6336 1.24235 16.2824 1.13882 18.0344C1.13882 18.1374 1.13882 18.2405 1.13882 18.3435C1.13882 20.4046 1.96706 22.1565 3.31294 23.5992C4.65882 24.9389 6.52235 25.7634 8.69647 25.8664C8.8 25.8664 8.90353 25.8664 9.00706 25.8664H28.7812L41.1012 13.6031C35.4071 13.6031 29.7129 13.6031 23.9153 13.6031L25.1576 12.3664H44L29.4024 27H9.11059C9.00706 27 8.90353 27 8.69647 27C6.21176 26.8969 4.03765 25.8664 2.48471 24.3206C0.931765 22.7748 0 20.7137 0 18.3435C0 18.2405 0 18.1374 0 18.0344C0.103529 15.9733 1.03529 14.1183 2.48471 12.7786L2.58824 12.6756L12.8376 2.47328C12.9412 2.37023 13.1482 2.16412 13.2518 2.06107C14.8047 0.721374 16.7718 0 18.7388 0C19.7741 0 20.8094 0.206107 21.7412 0.515267C23.6047 1.23664 25.0541 2.57634 25.7788 4.53435C26.0894 5.35878 26.2965 6.28626 26.1929 7.31679C26.1929 9.0687 25.4682 10.9237 24.1224 12.2634C24.0188 12.3664 23.8118 12.5725 23.7082 12.6756L14.5976 21.7443C14.1835 22.1565 13.7694 22.5687 13.2518 22.9809C12.1129 23.8053 10.6635 24.3206 9.11059 24.3206C9.00706 24.3206 9.00706 24.3206 8.8 24.3206C7.14353 24.2176 5.59059 23.5992 4.55529 22.4656C3.52 21.4351 2.79529 19.8893 2.79529 18.2405C2.79529 18.2405 2.79529 18.1374 2.79529 18.0344C2.89882 16.6947 3.41647 15.458 4.45177 14.6336C5.38353 13.8092 6.62588 13.1908 8.07529 13.1908H8.28235C9.62824 13.1908 10.7671 13.8092 11.5953 14.6336C12.4235 15.458 12.9412 16.5916 12.9412 17.8282V18.0344C12.9412 18.9618 12.4235 19.7863 11.8024 20.4046C11.1812 21.0229 10.2494 21.4351 9.31765 21.4351H9.21412C8.28235 21.4351 7.45412 21.0229 6.83294 20.4046C6.21176 19.7863 5.90118 18.9618 5.90118 18.1374V18.0344C5.90118 17.9313 5.90118 17.8282 6.00471 17.7252C6.00471 17.6221 6.10824 17.5191 6.10824 17.5191ZM6.21177 10.6145C6.83294 10.4084 7.55765 10.4084 8.17882 10.4084C8.28235 10.4084 8.38588 10.4084 8.48941 10.4084C10.56 10.5114 12.4235 11.3359 13.6659 12.6756C15.0118 14.0153 15.84 15.7672 15.84 17.8282C15.84 17.9313 15.84 18.0344 15.84 18.1374C15.84 18.3435 15.84 18.5496 15.7365 18.8588L22.7765 11.8511C22.88 11.7481 23.0871 11.645 23.1906 11.4389C23.7082 10.9237 24.2259 10.2023 24.4329 9.48092C24.7435 8.75954 24.8471 8.03817 24.8471 7.31679C24.8471 6.49237 24.7435 5.77099 24.5365 5.04962C23.9153 3.50382 22.6729 2.37023 21.12 1.75191C20.2918 1.44275 19.4635 1.23664 18.6353 1.23664C16.9788 1.23664 15.3224 1.75191 13.9765 2.8855C13.8729 2.98855 13.7694 3.0916 13.5624 3.19466L6.21177 10.6145Z" fill="#72AC8D"/>
</svg>
