<svg width="302" height="266" viewBox="0 0 302 266" fill="none" xmlns="http://www.w3.org/2000/svg">
<path d="M273.748 1L103.484 1.46602L98.8247 4.90058L97.1957 9.62136L98.8247 11.7184L94.6335 13.8155L92.5373 12.6505L91.8385 18.7087L88.8106 17.5537H87.413L85.3168 25L77.1937 29.6567L76.4658 26.165L80.4255 20.6711L76.4658 21.9709L74.1367 25L72.0404 36.8835L69.7112 39.6796L66.9162 45.5049L69.1279 46.2039L65.2783 57.7135L64.9117 63.2149L63.2619 68.8996L62.162 66.9417V65.232L61.612 60.6505L55.9689 69.2664H53.1739V66.2427L48.7801 68.8996L49.2143 71.1359L47.3509 73.932L46.7636 75.3301L49.2143 76.7282L53.1739 78.3592L48.7801 83.3865L47.8168 89.0777L44.5639 92.0053L45.4876 94.9029L43.6242 96.767L41.528 101.194L40.3477 104.658L38.0342 110.981L36.6814 113.827V114.942L33.1429 111.81L29.8988 113.094L24.766 119.512L19.8166 121.713L17.0714 120.767V124.961L18.9348 125.747L18.3501 128.689L21.0311 130.553L25.9224 129.854L22.6615 133.583L18.9348 135.447L17.8001 137.544L18.9348 138.476L18.3501 142.068H15.967L14.0435 140.806L9.15217 145.466L6.12422 152.704L3.32919 153.854L1 158.282L11.7508 159.447L12.1174 164.806L18.3501 165.971L20.7981 169.233V172.508H13.8322L13.3447 177.388L15.967 179.485L10.7826 186.01L12.646 195.796L21.264 198.825L25.4565 197.893L26.854 202.32L30.5807 206.748L29.4161 209.544L31.5486 212.012L31.0466 214.903L29.8988 218.655L35.0062 222.359L37.5683 215.835L42.4596 212.668L45.7205 216.336H50.6118V220.029L48.2826 221.893L51.7764 225.388H56.9006L58.2981 230.282H62.0248L63.8882 233.311L66.4503 231.447L68.3137 234.01L70.8758 231.447V234.476L72.5062 236.806H74.8354L77.6304 238.437L79.7267 244.495V249.388L86.4814 251.485L89.7422 250.077L92.1253 252.645L95.3323 254.662L96.0311 258.709L99.2919 260.107L102.32 259.408V262.903L111.404 265L117.925 264.564V261.272L114.898 258.01L114.406 255.214L112.568 246.592L114.406 236.806L119.09 230.748L120.022 226.553L122.351 225.155L123.205 219.453L130.503 213.505L142.149 209.777L138.888 204.417L141.217 202.087L147.273 199.99L148.671 203.019L153.329 212.118L158.117 206.983L160.317 206.067L161.947 203.654H166.284L169.4 202.553L175.457 207.167L180.115 206.067L191.994 210.476L193.624 214.869L195.431 222.387L202.763 227.522L208.996 227.951L208.065 220.262L208.996 215.969V212.118L206.796 209.001L207.53 206.067L206.796 200.922L214.587 193.699L215.286 188.34L219.012 192.068H223.671L227.144 189.196L226.411 185.528L228.794 184.428L234.152 179.252L237.413 172.961L236.31 167.136L230.658 167.835L237.413 162.709V158.515L240.441 158.981L243.445 152.337L242.176 146.398L246.759 143.136L251.621 137.777L246.759 130.087L247.196 124.728L245.842 114.243L239.243 107.485L235.943 108.876L231.59 103.291L234.843 101.724L244.192 103.291L250.922 96.534L249.325 93.5049L253.717 86.0485L252.553 83.2524L256.512 81.6214L267.46 83.2524L273.516 73.6674H276.078L287.724 62.9806L301 54.3592L299.37 48.301L292.382 45.7379L297.739 35.7184L293.78 28.2621L287.724 20.8058L285.394 14.5146L279.106 9.38835L274.68 5.66019L273.748 1Z" stroke="#57A7D7" stroke-linejoin="round"/>
</svg>
