<svg width="320" height="613" viewBox="0 0 320 613" fill="none" xmlns="http://www.w3.org/2000/svg">
<mask id="mask0" mask-type="alpha" maskUnits="userSpaceOnUse" x="0" y="0" width="321" height="613">
<rect x="0.000976562" width="320" height="613" fill="url(#paint0_linear)"/>
</mask>
<g mask="url(#mask0)">
<path fill-rule="evenodd" clip-rule="evenodd" d="M320.001 0H0.000976562V613H320.001V0ZM111.175 327.999L281.288 327.532L282.218 332.197L286.64 335.929L292.923 341.061L295.25 347.359L301.301 354.823L305.257 362.287L299.904 372.317L306.886 374.882L308.515 380.947L295.25 389.577L283.615 400.275H281.055L275.004 409.87L264.067 408.237L260.111 409.87L261.274 412.669L256.886 420.133L258.482 423.166L251.758 429.93L242.417 428.361L239.167 429.93L243.516 435.521L246.813 434.128L253.406 440.893L254.758 451.389L254.322 456.754L259.18 464.451L254.322 469.816L249.743 473.082L251.011 479.027L248.01 485.677L244.985 485.211V489.409L238.236 494.541L243.882 493.841L244.985 499.672L241.727 505.97L236.373 511.151L233.992 512.253L234.725 515.924L231.255 518.799H226.6L222.877 515.067L222.179 520.432L214.395 527.663L215.128 532.812L214.395 535.75L216.593 538.87V542.725L215.663 547.023L216.593 554.72L210.366 554.29L203.04 549.15L201.235 541.624L199.606 537.226L187.737 532.812L183.083 533.914L177.032 529.296L173.919 530.397H169.586L167.957 532.812L165.759 533.73L160.976 538.87L156.321 529.762L154.925 526.73L148.875 528.829L146.548 531.162L149.806 536.526L138.17 540.258L130.879 546.213L130.025 551.921L127.698 553.321L126.767 557.519L122.087 563.584L120.251 573.38L122.087 582.011L122.578 584.81L125.604 588.075V591.371L119.088 591.807L110.012 589.708V586.209L106.987 586.909L103.729 585.509L103.03 581.458L99.8264 579.439L97.4454 576.869L94.1875 578.279L87.4388 576.179V571.281L85.3444 565.216L82.5519 563.584H80.2248L78.5958 561.251V558.219L76.0359 560.785L74.1743 558.219L71.6144 560.085L69.7527 557.053H66.0294L64.6331 552.154H59.5134L56.0228 548.656L58.3499 546.789V543.092H53.4629L50.205 539.421L45.318 542.591L42.7582 549.122L37.6553 545.414L38.8021 541.658L39.3037 538.764L37.1731 536.293L38.3367 533.494L34.6133 529.062L33.217 524.63L29.0282 525.563L20.4179 522.531L18.5562 512.735L23.7359 506.204L21.116 504.104L21.6031 499.219H28.5628V495.94L26.1169 492.675L19.8898 491.509L19.5235 486.144L8.78231 484.978L11.1094 480.546L13.902 479.394L16.9272 472.149L21.8142 467.484L23.7359 468.747H26.1169L26.7011 465.151L25.5674 464.218L26.7011 462.119L30.4245 460.253L33.6824 456.521L28.7955 457.22L26.1169 455.354L26.7011 452.409L24.8394 451.622V447.424L27.5821 448.37L32.5271 446.168L37.6553 439.743L40.8965 438.458L44.4319 441.593V440.477L45.7834 437.627L48.0949 431.298L49.2741 427.831L51.3685 423.399L53.2302 421.533L52.3073 418.632L55.5573 415.702L56.5198 410.004L60.9097 404.972L56.9536 403.339L54.5051 401.94L55.0919 400.54L56.9536 397.741L56.5198 395.502L60.9097 392.843V395.87H63.7022L69.3403 387.245L69.8897 391.831V393.543L70.9886 395.502L72.637 389.812L73.0033 384.305L76.8494 372.783L74.6397 372.083L77.4322 366.252L79.7593 363.453L81.8537 351.557L84.1809 348.525L88.1369 347.224L84.1809 352.723L84.908 356.219L93.0239 351.557L95.1183 344.103H96.5146L99.5398 345.259L100.238 339.195L102.332 340.361L106.52 338.262L104.892 336.162L106.52 331.437L111.175 327.999Z" fill="white"/>
</g>
<defs>
<linearGradient id="paint0_linear" x1="160.001" y1="232.048" x2="160.001" y2="613" gradientUnits="userSpaceOnUse">
<stop stop-color="white"/>
<stop offset="0.296875" stop-color="white" stop-opacity="0.7"/>
<stop offset="1" stop-color="white"/>
</linearGradient>
</defs>
</svg>
