<svg width="484" height="426" viewBox="0 0 484 426" fill="none" xmlns="http://www.w3.org/2000/svg">
<path d="M439.218 1L165.66 1.74846L158.174 7.26456L155.556 14.8464L158.174 18.2145L151.44 21.5825L148.072 19.7114L146.949 29.4413L142.084 27.5862H139.839L136.471 39.5455L123.42 47.0243L122.25 41.4166L128.612 32.593L122.25 34.6805L118.508 39.5455L115.14 58.6311L111.398 63.1218L106.907 72.4775L110.461 73.6002L104.276 92.0854L103.687 100.921L101.036 110.051L99.2688 106.906V104.161L98.3853 96.8023L89.3187 110.64H84.828V105.784L77.7686 110.051L78.4662 113.643L75.4725 118.133L74.5289 120.379L78.4662 122.624L84.828 125.244L77.7686 133.318L76.2209 142.458L70.9946 147.16L72.4787 151.814L69.4849 154.808L66.1169 161.918L64.2205 167.482L60.5035 177.635L58.3301 182.207V183.997L52.6448 178.968L47.4327 181.029L39.186 191.337L31.2339 194.872L26.8234 193.353V200.089L29.8172 201.351L28.8777 206.077L33.1852 209.071L41.0439 207.948L35.8047 213.936L29.8172 216.929L27.9941 220.297L29.8172 221.794L28.8777 227.563H25.0489L21.9585 225.537L14.0998 233.021L9.23487 244.645L4.74419 246.493L1.00195 253.604L18.2749 255.475L18.8639 264.082L28.8777 265.953L32.811 271.192V276.453H21.6191L20.8358 284.29L25.0489 287.658L16.7193 298.137L19.7131 313.854L33.5594 318.719L40.2954 317.222L42.5408 324.333L48.5284 331.443L46.6572 335.934L50.0834 339.898L49.2768 344.541L47.4327 350.566L55.6386 356.516L59.7551 346.038L67.6138 340.952L72.8529 346.842H80.7116V352.774L76.9693 355.768L82.5827 361.381H90.8156L93.061 369.24H99.0485L102.042 374.105L106.159 371.111L109.153 375.228L113.269 371.111V375.976L115.889 379.718H119.631L124.122 382.338L127.49 392.068V399.927L138.342 403.295L143.581 401.033L147.41 405.157L152.562 408.396L153.685 414.896L158.924 417.141L163.789 416.019V421.632L178.384 425L188.862 424.3V419.012L183.997 413.773L183.208 409.282L180.255 395.436L183.208 379.718L190.733 369.989L192.23 363.252L195.972 361.007L197.345 351.849L209.07 342.296L227.781 336.308L222.542 327.701L226.285 323.958L236.014 320.59L238.26 325.455L245.744 340.068L253.437 331.822L256.971 330.349L259.59 326.474H266.558L271.565 324.707L281.295 332.116L288.78 330.349L307.865 337.431L310.485 344.486L313.387 356.561L325.168 364.808L335.182 365.498L333.687 353.148L335.182 346.253V340.068L331.648 335.062L332.826 330.349L331.648 322.087L344.165 310.486L345.288 301.879L351.275 307.867H358.76L364.34 303.254L363.162 297.363L366.991 295.596L375.6 287.284L380.839 277.18L379.066 267.824L369.986 268.947L380.839 260.714V253.978L385.704 254.726L390.53 244.056L388.491 234.518L395.854 229.279L403.667 220.672L395.854 208.322L396.556 199.715L394.381 182.875L383.779 172.022L378.477 174.256L371.483 165.286L376.71 162.769L391.731 165.286L402.544 154.433L399.977 149.568L407.035 137.593L405.163 133.102L411.525 130.483L429.114 133.102L438.844 117.708H442.96L461.671 100.545L483.002 86.6981L480.382 76.9682L469.156 72.8517L477.763 56.7599L471.401 44.7846L461.671 32.8094L457.929 22.7052L447.825 14.4722L440.715 8.48455L439.218 1Z" stroke="#57A7D7" stroke-linejoin="round"/>
</svg>
