<svg width="702" height="481" viewBox="0 0 702 481" fill="none" xmlns="http://www.w3.org/2000/svg">
<path d="M110.167 0.818359V153.629" stroke="#D5D5D5" stroke-dasharray="5 5"/>
<path d="M74.9746 0.818359V133.254" stroke="#D5D5D5" stroke-dasharray="5 5"/>
<path d="M39.7812 0.818359V112.88" stroke="#D5D5D5" stroke-dasharray="5 5"/>
<path d="M0.884766 0.818359V92.5048" stroke="#D5D5D5" stroke-dasharray="5 5"/>
<path d="M184.258 0.818359L184.258 195.305" stroke="#D5D5D5" stroke-dasharray="5 5"/>
<path d="M148.139 0.818359L148.139 174.93" stroke="#D5D5D5" stroke-dasharray="5 5"/>
<path d="M221.302 0.818359L221.302 215.68" stroke="#D5D5D5" stroke-dasharray="5 5"/>
<path d="M257.423 0.818359L257.423 236.054" stroke="#D5D5D5" stroke-dasharray="5 5"/>
<path d="M295.393 0.818359L295.393 256.429" stroke="#D5D5D5" stroke-dasharray="5 5"/>
<path d="M333.364 0.818359L333.364 276.804" stroke="#D5D5D5" stroke-dasharray="5 5"/>
<path d="M369.483 0.818359L369.483 297.179" stroke="#D5D5D5" stroke-dasharray="5 5"/>
<path d="M406.527 0.818359L406.527 317.554" stroke="#D5D5D5" stroke-dasharray="5 5"/>
<path d="M443.573 0.818359L443.573 337.928" stroke="#D5D5D5" stroke-dasharray="5 5"/>
<path d="M480.617 0.818359L480.617 358.303" stroke="#D5D5D5" stroke-dasharray="5 5"/>
<path d="M517.663 0.818359L517.663 378.678" stroke="#D5D5D5" stroke-dasharray="5 5"/>
<path d="M553.782 0.818359L553.782 399.053" stroke="#D5D5D5" stroke-dasharray="5 5"/>
<path d="M590.826 0.818359L590.826 419.427" stroke="#D5D5D5" stroke-dasharray="5 5"/>
<path d="M626.946 0.818359L626.946 439.802" stroke="#D5D5D5" stroke-dasharray="5 5"/>
<path d="M664.918 0.818359L664.918 460.177" stroke="#D5D5D5" stroke-dasharray="5 5"/>
<path d="M701.036 0.818359L701.036 480.552" stroke="#D5D5D5" stroke-dasharray="5 5"/>
</svg>
