<svg width="271" height="140" viewBox="0 0 271 140" fill="none" xmlns="http://www.w3.org/2000/svg">
<path d="M270 139.5V140H270.5V139.5H270ZM270 5H270.5V4.5H270V5ZM0 140H2.5V139H0V140ZM7.5 140H12.5V139H7.5V140ZM17.5 140H22.5V139H17.5V140ZM27.5 140H32.5V139H27.5V140ZM37.5 140H42.5V139H37.5V140ZM47.5 140H52.5V139H47.5V140ZM57.5 140H62.5V139H57.5V140ZM67.5 140H72.5V139H67.5V140ZM77.5 140H82.5V139H77.5V140ZM87.5 140H92.5V139H87.5V140ZM97.5 140H102.5V139H97.5V140ZM107.5 140H112.5V139H107.5V140ZM117.5 140H122.5V139H117.5V140ZM127.5 140H132.5V139H127.5V140ZM137.5 140H142.5V139H137.5V140ZM147.5 140H152.5V139H147.5V140ZM157.5 140H162.5V139H157.5V140ZM167.5 140H172.5V139H167.5V140ZM177.5 140H182.5V139H177.5V140ZM187.5 140H192.5V139H187.5V140ZM197.5 140H202.5V139H197.5V140ZM207.5 140H212.5V139H207.5V140ZM217.5 140H222.5V139H217.5V140ZM227.5 140H232.5V139H227.5V140ZM237.5 140H242.5V139H237.5V140ZM247.5 140H252.5V139H247.5V140ZM257.5 140H262.5V139H257.5V140ZM267.5 140H270V139H267.5V140ZM270.5 139.5V136.913H269.5V139.5H270.5ZM270.5 131.74V126.567H269.5V131.74H270.5ZM270.5 121.394V116.221H269.5V121.394H270.5ZM270.5 111.048V105.875H269.5V111.048H270.5ZM270.5 100.702V95.5288H269.5V100.702H270.5ZM270.5 90.3557V85.1827H269.5V90.3557H270.5ZM270.5 80.0096V74.8365H269.5V80.0096H270.5ZM270.5 69.6634V64.4904H269.5V69.6634H270.5ZM270.5 59.3173V54.1442H269.5V59.3173H270.5ZM270.5 48.9711V43.7981H269.5V48.9711H270.5ZM270.5 38.625V33.4519H269.5V38.625H270.5ZM270.5 28.2789V23.1058H269.5V28.2789H270.5ZM270.5 17.9327V12.7596H269.5V17.9327H270.5ZM270.5 7.58656V5H269.5V7.58656H270.5ZM270 4.5H267.573V5.5H270V4.5ZM262.719 4.5H257.865V5.5H262.719V4.5ZM253.01 4.5H248.156V5.5H253.01V4.5ZM243.302 4.5H238.448V5.5H243.302V4.5ZM233.594 4.5H228.74V5.5H233.594V4.5ZM223.885 4.5H219.031V5.5H223.885V4.5ZM214.177 4.5H209.323V5.5H214.177V4.5ZM204.469 4.5H199.615V5.5H204.469V4.5ZM194.76 4.5H189.906V5.5H194.76V4.5ZM185.052 4.5H180.198V5.5H185.052V4.5ZM175.344 4.5H170.49V5.5H175.344V4.5ZM165.635 4.5H160.781V5.5H165.635V4.5ZM155.927 4.5H153.5V5.5H155.927V4.5Z" fill="#616D7B"/>
<path d="M143 5L154 5" stroke="#616D7B"/>
<path d="M147 9L143 5L147 1" stroke="#616D7B" stroke-linecap="square"/>
</svg>
