<svg width="738" height="825" viewBox="0 0 738 825" fill="none" xmlns="http://www.w3.org/2000/svg">
<path d="M1 5V4.5H0.5V5H1ZM1 824H0.5V824.5H1V824ZM736.5 824V824.5H736.999L737 824.001L736.5 824ZM737.5 5L738 5.00061L738.001 4.5H737.5V5ZM605 4.5C604.724 4.5 604.5 4.72386 604.5 5C604.5 5.27614 604.724 5.5 605 5.5V4.5ZM13.5 4.5H10.375V5.5H13.5V4.5ZM4.125 4.5H1V5.5H4.125V4.5ZM0.5 5V7.49695H1.5V5H0.5ZM0.5 12.4909V17.4848H1.5V12.4909H0.5ZM0.5 22.4787V27.4726H1.5V22.4787H0.5ZM0.5 32.4665V37.4604H1.5V32.4665H0.5ZM0.5 42.4543V47.4482H1.5V42.4543H0.5ZM0.5 52.4421V57.436H1.5V52.4421H0.5ZM0.5 62.4299V67.4238H1.5V62.4299H0.5ZM0.5 72.4177V77.4116H1.5V72.4177H0.5ZM0.5 82.4055V87.3994H1.5V82.4055H0.5ZM0.5 92.3933V97.3872H1.5V92.3933H0.5ZM0.5 102.381V107.375H1.5V102.381H0.5ZM0.5 112.369V117.363H1.5V112.369H0.5ZM0.5 122.357V127.351H1.5V122.357H0.5ZM0.5 132.345V137.338H1.5V132.345H0.5ZM0.5 142.332V147.326H1.5V142.332H0.5ZM0.5 152.32V157.314H1.5V152.32H0.5ZM0.5 162.308V167.302H1.5V162.308H0.5ZM0.5 172.296V177.29H1.5V172.296H0.5ZM0.5 182.284V187.277H1.5V182.284H0.5ZM0.5 192.271V197.265H1.5V192.271H0.5ZM0.5 202.259V207.253H1.5V202.259H0.5ZM0.5 212.247V217.241H1.5V212.247H0.5ZM0.5 222.235V227.229H1.5V222.235H0.5ZM0.5 232.222V237.216H1.5V232.222H0.5ZM0.5 242.21V247.204H1.5V242.21H0.5ZM0.5 252.198V257.192H1.5V252.198H0.5ZM0.5 262.186V267.18H1.5V262.186H0.5ZM0.5 272.174V277.168H1.5V272.174H0.5ZM0.5 282.161V287.155H1.5V282.161H0.5ZM0.5 292.149V297.143H1.5V292.149H0.5ZM0.5 302.137V307.131H1.5V302.137H0.5ZM0.5 312.125V317.119H1.5V312.125H0.5ZM0.5 322.113V327.107H1.5V322.113H0.5ZM0.5 332.1V337.094H1.5V332.1H0.5ZM0.5 342.088V347.082H1.5V342.088H0.5ZM0.5 352.076V357.07H1.5V352.076H0.5ZM0.5 362.064V367.058H1.5V362.064H0.5ZM0.5 372.052V377.045H1.5V372.052H0.5ZM0.5 382.039V387.033H1.5V382.039H0.5ZM0.5 392.027V397.021H1.5V392.027H0.5ZM0.5 402.015V407.009H1.5V402.015H0.5ZM0.5 412.003V416.997H1.5V412.003H0.5ZM0.5 421.991V426.984H1.5V421.991H0.5ZM0.5 431.978V436.972H1.5V431.978H0.5ZM0.5 441.966V446.96H1.5V441.966H0.5ZM0.5 451.954V456.948H1.5V451.954H0.5ZM0.5 461.942V466.936H1.5V461.942H0.5ZM0.5 471.929V476.923H1.5V471.929H0.5ZM0.5 481.917V486.911H1.5V481.917H0.5ZM0.5 491.905V496.899H1.5V491.905H0.5ZM0.5 501.893V506.887H1.5V501.893H0.5ZM0.5 511.881V516.875H1.5V511.881H0.5ZM0.5 521.868V526.862H1.5V521.868H0.5ZM0.5 531.856V536.85H1.5V531.856H0.5ZM0.5 541.844V546.838H1.5V541.844H0.5ZM0.5 551.832V556.826H1.5V551.832H0.5ZM0.5 561.82V566.814H1.5V561.82H0.5ZM0.5 571.807V576.801H1.5V571.807H0.5ZM0.5 581.795V586.789H1.5V581.795H0.5ZM0.5 591.783V596.777H1.5V591.783H0.5ZM0.5 601.771V606.765H1.5V601.771H0.5ZM0.5 611.759V616.753H1.5V611.759H0.5ZM0.5 621.746V626.74H1.5V621.746H0.5ZM0.5 631.734V636.728H1.5V631.734H0.5ZM0.5 641.722V646.716H1.5V641.722H0.5ZM0.5 651.71V656.704H1.5V651.71H0.5ZM0.5 661.698V666.691H1.5V661.698H0.5ZM0.5 671.685V676.679H1.5V671.685H0.5ZM0.5 681.673V686.667H1.5V681.673H0.5ZM0.5 691.661V696.655H1.5V691.661H0.5ZM0.5 701.649V706.643H1.5V701.649H0.5ZM0.5 711.637V716.63H1.5V711.637H0.5ZM0.5 721.624V726.618H1.5V721.624H0.5ZM0.5 731.612V736.606H1.5V731.612H0.5ZM0.5 741.6V746.594H1.5V741.6H0.5ZM0.5 751.588V756.582H1.5V751.588H0.5ZM0.5 761.576V766.569H1.5V761.576H0.5ZM0.5 771.563V776.557H1.5V771.563H0.5ZM0.5 781.551V786.545H1.5V781.551H0.5ZM0.5 791.539V796.533H1.5V791.539H0.5ZM0.5 801.527V806.521H1.5V801.527H0.5ZM0.5 811.514V816.508H1.5V811.514H0.5ZM0.5 821.502V824H1.5V821.502H0.5ZM1 824.5H3.4848V823.5H1V824.5ZM8.45439 824.5H13.424V823.5H8.45439V824.5ZM18.3936 824.5H23.3632V823.5H18.3936V824.5ZM28.3328 824.5H33.3024V823.5H28.3328V824.5ZM38.272 824.5H43.2416V823.5H38.272V824.5ZM48.2111 824.5H53.1807V823.5H48.2111V824.5ZM58.1503 824.5H63.1199V823.5H58.1503V824.5ZM68.0895 824.5H73.0591V823.5H68.0895V824.5ZM78.0287 824.5H82.9983V823.5H78.0287V824.5ZM87.9679 824.5H92.9375V823.5H87.9679V824.5ZM97.9071 824.5H102.877V823.5H97.9071V824.5ZM107.846 824.5H112.816V823.5H107.846V824.5ZM117.785 824.5H122.755V823.5H117.785V824.5ZM127.725 824.5H132.694V823.5H127.725V824.5ZM137.664 824.5H142.633V823.5H137.664V824.5ZM147.603 824.5H152.573V823.5H147.603V824.5ZM157.542 824.5H162.512V823.5H157.542V824.5ZM167.481 824.5H172.451V823.5H167.481V824.5ZM177.421 824.5H182.39V823.5H177.421V824.5ZM187.36 824.5H192.329V823.5H187.36V824.5ZM197.299 824.5H202.269V823.5H197.299V824.5ZM207.238 824.5H212.208V823.5H207.238V824.5ZM217.177 824.5H222.147V823.5H217.177V824.5ZM227.116 824.5H232.086V823.5H227.116V824.5ZM237.056 824.5H242.025V823.5H237.056V824.5ZM246.995 824.5H251.964V823.5H246.995V824.5ZM256.934 824.5H261.904V823.5H256.934V824.5ZM266.873 824.5H271.843V823.5H266.873V824.5ZM276.812 824.5H281.782V823.5H276.812V824.5ZM286.752 824.5H291.721V823.5H286.752V824.5ZM296.691 824.5H301.66V823.5H296.691V824.5ZM306.63 824.5H311.6V823.5H306.63V824.5ZM316.569 824.5H321.539V823.5H316.569V824.5ZM326.508 824.5H331.478V823.5H326.508V824.5ZM336.448 824.5H341.417V823.5H336.448V824.5ZM346.387 824.5H351.356V823.5H346.387V824.5ZM356.326 824.5H361.296V823.5H356.326V824.5ZM366.265 824.5H371.235V823.5H366.265V824.5ZM376.204 824.5H381.174V823.5H376.204V824.5ZM386.144 824.5H391.113V823.5H386.144V824.5ZM396.083 824.5H401.053V823.5H396.083V824.5ZM406.022 824.5H410.992V823.5H406.022V824.5ZM415.961 824.5H420.931V823.5H415.961V824.5ZM425.901 824.5H430.87V823.5H425.901V824.5ZM435.84 824.5H440.809V823.5H435.84V824.5ZM445.779 824.5H450.749V823.5H445.779V824.5ZM455.718 824.5H460.688V823.5H455.718V824.5ZM465.657 824.5H470.627V823.5H465.657V824.5ZM475.597 824.5H480.566V823.5H475.597V824.5ZM485.536 824.5H490.505V823.5H485.536V824.5ZM495.475 824.5H500.445V823.5H495.475V824.5ZM505.414 824.5H510.384V823.5H505.414V824.5ZM515.353 824.5H520.323V823.5H515.353V824.5ZM525.293 824.5H530.262V823.5H525.293V824.5ZM535.232 824.5H540.201V823.5H535.232V824.5ZM545.171 824.5H550.141V823.5H545.171V824.5ZM555.11 824.5H560.08V823.5H555.11V824.5ZM565.049 824.5H570.019V823.5H565.049V824.5ZM574.989 824.5H579.958V823.5H574.989V824.5ZM584.928 824.5H589.897V823.5H584.928V824.5ZM594.867 824.5H599.837V823.5H594.867V824.5ZM604.806 824.5H609.776V823.5H604.806V824.5ZM614.745 824.5H619.715V823.5H614.745V824.5ZM624.685 824.5H629.654V823.5H624.685V824.5ZM634.624 824.5H639.594V823.5H634.624V824.5ZM644.563 824.5H649.533V823.5H644.563V824.5ZM654.502 824.5H659.472V823.5H654.502V824.5ZM664.442 824.5H669.411V823.5H664.442V824.5ZM674.381 824.5H679.35V823.5H674.381V824.5ZM684.32 824.5H689.29V823.5H684.32V824.5ZM694.259 824.5H699.229V823.5H694.259V824.5ZM704.198 824.5H709.168V823.5H704.198V824.5ZM714.138 824.5H719.107V823.5H714.138V824.5ZM724.077 824.5H729.046V823.5H724.077V824.5ZM734.016 824.5H736.5V823.5H734.016V824.5ZM737 824.001L737.003 821.504L736.003 821.502L736 823.999L737 824.001ZM737.009 816.51L737.015 811.516L736.015 811.515L736.009 816.509L737.009 816.51ZM737.021 806.522L737.027 801.528L736.027 801.527L736.021 806.521L737.021 806.522ZM737.034 796.534L737.04 791.54L736.04 791.539L736.034 796.533L737.034 796.534ZM737.046 786.546L737.052 781.552L736.052 781.551L736.046 786.545L737.046 786.546ZM737.058 776.559L737.064 771.565L736.064 771.563L736.058 776.557L737.058 776.559ZM737.07 766.571L737.076 761.577L736.076 761.576L736.07 766.57L737.07 766.571ZM737.082 756.583L737.088 751.589L736.088 751.588L736.082 756.582L737.082 756.583ZM737.094 746.595L737.101 741.601L736.101 741.6L736.094 746.594L737.094 746.595ZM737.107 736.607L737.113 731.613L736.113 731.612L736.107 736.606L737.107 736.607ZM737.119 726.62L737.125 721.626L736.125 721.624L736.119 726.618L737.119 726.62ZM737.131 716.632L737.137 711.638L736.137 711.637L736.131 716.63L737.131 716.632ZM737.143 706.644L737.149 701.65L736.149 701.649L736.143 706.643L737.143 706.644ZM737.156 696.656L737.162 691.662L736.162 691.661L736.156 696.655L737.156 696.656ZM737.168 686.668L737.174 681.674L736.174 681.673L736.168 686.667L737.168 686.668ZM737.18 676.681L737.186 671.687L736.186 671.685L736.18 676.679L737.18 676.681ZM737.192 666.693L737.198 661.699L736.198 661.698L736.192 666.691L737.192 666.693ZM737.204 656.705L737.21 651.711L736.21 651.71L736.204 656.704L737.204 656.705ZM737.216 646.717L737.223 641.723L736.223 641.722L736.216 646.716L737.216 646.717ZM737.229 636.729L737.235 631.735L736.235 631.734L736.229 636.728L737.229 636.729ZM737.241 626.741L737.247 621.747L736.247 621.746L736.241 626.74L737.241 626.741ZM737.253 616.754L737.259 611.76L736.259 611.758L736.253 616.752L737.253 616.754ZM737.265 606.766L737.271 601.772L736.271 601.771L736.265 606.765L737.265 606.766ZM737.277 596.778L737.284 591.784L736.284 591.783L736.277 596.777L737.277 596.778ZM737.29 586.79L737.296 581.796L736.296 581.795L736.29 586.789L737.29 586.79ZM737.302 576.802L737.308 571.808L736.308 571.807L736.302 576.801L737.302 576.802ZM737.314 566.815L737.32 561.821L736.32 561.819L736.314 566.813L737.314 566.815ZM737.326 556.827L737.332 551.833L736.332 551.832L736.326 556.826L737.326 556.827ZM737.338 546.839L737.344 541.845L736.344 541.844L736.338 546.838L737.338 546.839ZM737.351 536.851L737.357 531.857L736.357 531.856L736.351 536.85L737.351 536.851ZM737.363 526.863L737.369 521.87L736.369 521.868L736.363 526.862L737.363 526.863ZM737.375 516.876L737.381 511.882L736.381 511.881L736.375 516.874L737.375 516.876ZM737.387 506.888L737.393 501.894L736.393 501.893L736.387 506.887L737.387 506.888ZM737.399 496.9L737.406 491.906L736.406 491.905L736.399 496.899L737.399 496.9ZM737.412 486.912L737.418 481.918L736.418 481.917L736.412 486.911L737.412 486.912ZM737.424 476.924L737.43 471.931L736.43 471.929L736.424 476.923L737.424 476.924ZM737.436 466.937L737.442 461.943L736.442 461.942L736.436 466.935L737.436 466.937ZM737.448 456.949L737.454 451.955L736.454 451.954L736.448 456.948L737.448 456.949ZM737.46 446.961L737.466 441.967L736.466 441.966L736.46 446.96L737.46 446.961ZM737.473 436.973L737.479 431.979L736.479 431.978L736.473 436.972L737.473 436.973ZM737.485 426.986L737.491 421.992L736.491 421.99L736.485 426.984L737.485 426.986ZM737.497 416.998L737.503 412.004L736.503 412.003L736.497 416.997L737.497 416.998ZM737.509 407.01L737.515 402.016L736.515 402.015L736.509 407.009L737.509 407.01ZM737.521 397.022L737.527 392.028L736.527 392.027L736.521 397.021L737.521 397.022ZM737.534 387.034L737.54 382.041L736.54 382.039L736.534 387.033L737.534 387.034ZM737.546 377.047L737.552 372.053L736.552 372.052L736.546 377.045L737.546 377.047ZM737.558 367.059L737.564 362.065L736.564 362.064L736.558 367.058L737.558 367.059ZM737.57 357.071L737.576 352.077L736.576 352.076L736.57 357.07L737.57 357.071ZM737.582 347.083L737.588 342.089L736.588 342.088L736.582 347.082L737.582 347.083ZM737.594 337.095L737.601 332.102L736.601 332.1L736.594 337.094L737.594 337.095ZM737.607 327.108L737.613 322.114L736.613 322.113L736.607 327.106L737.607 327.108ZM737.619 317.12L737.625 312.126L736.625 312.125L736.619 317.119L737.619 317.12ZM737.631 307.132L737.637 302.138L736.637 302.137L736.631 307.131L737.631 307.132ZM737.643 297.144L737.649 292.15L736.649 292.149L736.643 297.143L737.643 297.144ZM737.655 287.157L737.662 282.163L736.662 282.161L736.656 287.155L737.655 287.157ZM737.668 277.169L737.674 272.175L736.674 272.174L736.668 277.168L737.668 277.169ZM737.68 267.181L737.686 262.187L736.686 262.186L736.68 267.18L737.68 267.181ZM737.692 257.193L737.698 252.199L736.698 252.198L736.692 257.192L737.692 257.193ZM737.704 247.205L737.71 242.211L736.71 242.21L736.704 247.204L737.704 247.205ZM737.716 237.218L737.723 232.224L736.723 232.222L736.716 237.216L737.716 237.218ZM737.729 227.23L737.735 222.236L736.735 222.235L736.729 227.229L737.729 227.23ZM737.741 217.242L737.747 212.248L736.747 212.247L736.741 217.241L737.741 217.242ZM737.753 207.254L737.759 202.26L736.759 202.259L736.753 207.253L737.753 207.254ZM737.765 197.266L737.771 192.273L736.771 192.271L736.765 197.265L737.765 197.266ZM737.777 187.279L737.784 182.285L736.784 182.284L736.777 187.277L737.777 187.279ZM737.79 177.291L737.796 172.297L736.796 172.296L736.79 177.29L737.79 177.291ZM737.802 167.303L737.808 162.309L736.808 162.308L736.802 167.302L737.802 167.303ZM737.814 157.315L737.82 152.321L736.82 152.32L736.814 157.314L737.814 157.315ZM737.826 147.328L737.832 142.334L736.832 142.332L736.826 147.326L737.826 147.328ZM737.838 137.34L737.844 132.346L736.844 132.345L736.838 137.339L737.838 137.34ZM737.851 127.352L737.857 122.358L736.857 122.357L736.851 127.351L737.851 127.352ZM737.863 117.364L737.869 112.37L736.869 112.369L736.863 117.363L737.863 117.364ZM737.875 107.376L737.881 102.382L736.881 102.381L736.875 107.375L737.875 107.376ZM737.887 97.3886L737.893 92.3947L736.893 92.3935L736.887 97.3874L737.887 97.3886ZM737.899 87.4008L737.905 82.4069L736.906 82.4057L736.899 87.3996L737.899 87.4008ZM737.912 77.4131L737.918 72.4192L736.918 72.4179L736.912 77.4118L737.912 77.4131ZM737.924 67.4253L737.93 62.4314L736.93 62.4301L736.924 67.424L737.924 67.4253ZM737.936 57.4375L737.942 52.4436L736.942 52.4423L736.936 57.4362L737.936 57.4375ZM737.948 47.4497L737.954 42.4558L736.954 42.4545L736.948 47.4484L737.948 47.4497ZM737.96 37.4619L737.966 32.468L736.966 32.4668L736.96 37.4607L737.96 37.4619ZM737.973 27.4741L737.979 22.4802L736.979 22.479L736.973 27.4729L737.973 27.4741ZM737.985 17.4863L737.991 12.4924L736.991 12.4912L736.985 17.4851L737.985 17.4863ZM737.997 7.49854L738 5.00061L737 4.99939L736.997 7.49731L737.997 7.49854ZM737.5 4.5H734.952V5.5H737.5V4.5ZM729.856 4.5H724.76V5.5H729.856V4.5ZM719.663 4.5H714.567V5.5H719.663V4.5ZM709.471 4.5H704.375V5.5H709.471V4.5ZM699.279 4.5H694.183V5.5H699.279V4.5ZM689.087 4.5H683.99V5.5H689.087V4.5ZM678.894 4.5H673.798V5.5H678.894V4.5ZM668.702 4.5H663.606V5.5H668.702V4.5ZM658.51 4.5H653.413V5.5H658.51V4.5ZM648.317 4.5H643.221V5.5H648.317V4.5ZM638.125 4.5H633.029V5.5H638.125V4.5ZM627.933 4.5H622.837V5.5H627.933V4.5ZM617.74 4.5H612.644V5.5H617.74V4.5ZM607.548 4.5H605V5.5H607.548V4.5Z" fill="#616D7B"/>
<path d="M595 5H606" stroke="#616D7B"/>
<path d="M599 9L595 5L599 1" stroke="#616D7B" stroke-linecap="square"/>
</svg>
