<svg width="1014" height="798" viewBox="0 0 1014 798" fill="none" xmlns="http://www.w3.org/2000/svg">
<path d="M1 5V4.5H0.5V5H1ZM1 797H0.5V797.5H1V797ZM1013 797V797.5H1013.5V797H1013ZM1013 5H1013.5V4.5H1013V5ZM848.5 4.5C848.224 4.5 848 4.72386 848 5C848 5.27614 848.224 5.5 848.5 5.5V4.5ZM24.4421 4.5H21.5118V5.5H24.4421V4.5ZM15.6513 4.5H9.79078V5.5H15.6513V4.5ZM3.93026 4.5H1V5.5H3.93026V4.5ZM0.5 5V7.50633H1.5V5H0.5ZM0.5 12.519V17.5316H1.5V12.519H0.5ZM0.5 22.5443V27.557H1.5V22.5443H0.5ZM0.5 32.5696V37.5823H1.5V32.5696H0.5ZM0.5 42.5949V47.6076H1.5V42.5949H0.5ZM0.5 52.6202V57.6329H1.5V52.6202H0.5ZM0.5 62.6456V67.6582H1.5V62.6456H0.5ZM0.5 72.6709V77.6835H1.5V72.6709H0.5ZM0.5 82.6962V87.7088H1.5V82.6962H0.5ZM0.5 92.7215V97.7342H1.5V92.7215H0.5ZM0.5 102.747V107.759H1.5V102.747H0.5ZM0.5 112.772V117.785H1.5V112.772H0.5ZM0.5 122.797V127.81H1.5V122.797H0.5ZM0.5 132.823V137.835H1.5V132.823H0.5ZM0.5 142.848V147.861H1.5V142.848H0.5ZM0.5 152.873V157.886H1.5V152.873H0.5ZM0.5 162.899V167.911H1.5V162.899H0.5ZM0.5 172.924V177.937H1.5V172.924H0.5ZM0.5 182.949V187.962H1.5V182.949H0.5ZM0.5 192.975V197.987H1.5V192.975H0.5ZM0.5 203V208.013H1.5V203H0.5ZM0.5 213.025V218.038H1.5V213.025H0.5ZM0.5 223.051V228.063H1.5V223.051H0.5ZM0.5 233.076V238.089H1.5V233.076H0.5ZM0.5 243.101V248.114H1.5V243.101H0.5ZM0.5 253.127V258.139H1.5V253.127H0.5ZM0.5 263.152V268.165H1.5V263.152H0.5ZM0.5 273.177V278.19H1.5V273.177H0.5ZM0.5 283.203V288.215H1.5V283.203H0.5ZM0.5 293.228V298.241H1.5V293.228H0.5ZM0.5 303.253V308.266H1.5V303.253H0.5ZM0.5 313.279V318.291H1.5V313.279H0.5ZM0.5 323.304V328.317H1.5V323.304H0.5ZM0.5 333.329V338.342H1.5V333.329H0.5ZM0.5 343.355V348.367H1.5V343.355H0.5ZM0.5 353.38V358.393H1.5V353.38H0.5ZM0.5 363.405V368.418H1.5V363.405H0.5ZM0.5 373.431V378.443H1.5V373.431H0.5ZM0.5 383.456V388.469H1.5V383.456H0.5ZM0.5 393.481V398.494H1.5V393.481H0.5ZM0.5 403.507V408.519H1.5V403.507H0.5ZM0.5 413.532V418.545H1.5V413.532H0.5ZM0.5 423.557V428.57H1.5V423.557H0.5ZM0.5 433.583V438.595H1.5V433.583H0.5ZM0.5 443.608V448.621H1.5V443.608H0.5ZM0.5 453.633V458.646H1.5V453.633H0.5ZM0.5 463.659V468.671H1.5V463.659H0.5ZM0.5 473.684V478.697H1.5V473.684H0.5ZM0.5 483.709V488.722H1.5V483.709H0.5ZM0.5 493.735V498.747H1.5V493.735H0.5ZM0.5 503.76V508.773H1.5V503.76H0.5ZM0.5 513.785V518.798H1.5V513.785H0.5ZM0.5 523.811V528.823H1.5V523.811H0.5ZM0.5 533.836V538.848H1.5V533.836H0.5ZM0.5 543.861V548.874H1.5V543.861H0.5ZM0.5 553.886V558.899H1.5V553.886H0.5ZM0.5 563.912V568.924H1.5V563.912H0.5ZM0.5 573.937V578.95H1.5V573.937H0.5ZM0.5 583.962V588.975H1.5V583.962H0.5ZM0.5 593.987V599H1.5V593.987H0.5ZM0.5 604.013V609.025H1.5V604.013H0.5ZM0.5 614.038V619.051H1.5V614.038H0.5ZM0.5 624.063V629.076H1.5V624.063H0.5ZM0.5 634.089V639.101H1.5V634.089H0.5ZM0.5 644.114V649.126H1.5V644.114H0.5ZM0.5 654.139V659.152H1.5V654.139H0.5ZM0.5 664.164V669.177H1.5V664.164H0.5ZM0.5 674.19V679.202H1.5V674.19H0.5ZM0.5 684.215V689.227H1.5V684.215H0.5ZM0.5 694.24V699.253H1.5V694.24H0.5ZM0.5 704.265V709.278H1.5V704.265H0.5ZM0.5 714.291V719.303H1.5V714.291H0.5ZM0.5 724.316V729.329H1.5V724.316H0.5ZM0.5 734.341V739.354H1.5V734.341H0.5ZM0.5 744.366V749.379H1.5V744.366H0.5ZM0.5 754.392V759.404H1.5V754.392H0.5ZM0.5 764.417V769.43H1.5V764.417H0.5ZM0.5 774.442V779.455H1.5V774.442H0.5ZM0.5 784.468V789.48H1.5V784.468H0.5ZM0.5 794.493V797H1.5V794.493H0.5ZM1 797.5H3.50495V796.5H1V797.5ZM8.51485 797.5H13.5248V796.5H8.51485V797.5ZM18.5347 797.5H23.5446V796.5H18.5347V797.5ZM28.5545 797.5H33.5644V796.5H28.5545V797.5ZM38.5743 797.5H43.5842V796.5H38.5743V797.5ZM48.5941 797.5H53.604V796.5H48.5941V797.5ZM58.6139 797.5H63.6238V796.5H58.6139V797.5ZM68.6337 797.5H73.6436V796.5H68.6337V797.5ZM78.6535 797.5H83.6634V796.5H78.6535V797.5ZM88.6733 797.5H93.6832V796.5H88.6733V797.5ZM98.6931 797.5H103.703V796.5H98.6931V797.5ZM108.713 797.5H113.723V796.5H108.713V797.5ZM118.733 797.5H123.743V796.5H118.733V797.5ZM128.753 797.5H133.762V796.5H128.753V797.5ZM138.772 797.5H143.782V796.5H138.772V797.5ZM148.792 797.5H153.802V796.5H148.792V797.5ZM158.812 797.5H163.822V796.5H158.812V797.5ZM168.832 797.5H173.842V796.5H168.832V797.5ZM178.852 797.5H183.861V796.5H178.852V797.5ZM188.871 797.5H193.881V796.5H188.871V797.5ZM198.891 797.5H203.901V796.5H198.891V797.5ZM208.911 797.5H213.921V796.5H208.911V797.5ZM218.931 797.5H223.941V796.5H218.931V797.5ZM228.951 797.5H233.96V796.5H228.951V797.5ZM238.97 797.5H243.98V796.5H238.97V797.5ZM248.99 797.5H254V796.5H248.99V797.5ZM259.01 797.5H264.02V796.5H259.01V797.5ZM269.03 797.5H274.04V796.5H269.03V797.5ZM279.05 797.5H284.059V796.5H279.05V797.5ZM289.069 797.5H294.079V796.5H289.069V797.5ZM299.089 797.5H304.099V796.5H299.089V797.5ZM309.109 797.5H314.119V796.5H309.109V797.5ZM319.129 797.5H324.139V796.5H319.129V797.5ZM329.148 797.5H334.158V796.5H329.148V797.5ZM339.168 797.5H344.178V796.5H339.168V797.5ZM349.188 797.5H354.198V796.5H349.188V797.5ZM359.208 797.5H364.218V796.5H359.208V797.5ZM369.228 797.5H374.237V796.5H369.228V797.5ZM379.247 797.5H384.257V796.5H379.247V797.5ZM389.267 797.5H394.277V796.5H389.267V797.5ZM399.287 797.5H404.297V796.5H399.287V797.5ZM409.307 797.5H414.316V796.5H409.307V797.5ZM419.326 797.5H424.336V796.5H419.326V797.5ZM429.346 797.5H434.356V796.5H429.346V797.5ZM439.366 797.5H444.376V796.5H439.366V797.5ZM449.386 797.5H454.396V796.5H449.386V797.5ZM459.405 797.5H464.415V796.5H459.405V797.5ZM469.425 797.5H474.435V796.5H469.425V797.5ZM479.445 797.5H484.455V796.5H479.445V797.5ZM489.465 797.5H494.475V796.5H489.465V797.5ZM499.485 797.5H504.494V796.5H499.485V797.5ZM509.504 797.5H514.514V796.5H509.504V797.5ZM519.524 797.5H524.534V796.5H519.524V797.5ZM529.544 797.5H534.554V796.5H529.544V797.5ZM539.564 797.5H544.574V796.5H539.564V797.5ZM549.583 797.5H554.593V796.5H549.583V797.5ZM559.603 797.5H564.613V796.5H559.603V797.5ZM569.623 797.5H574.633V796.5H569.623V797.5ZM579.643 797.5H584.653V796.5H579.643V797.5ZM589.663 797.5H594.672V796.5H589.663V797.5ZM599.682 797.5H604.692V796.5H599.682V797.5ZM609.702 797.5H614.712V796.5H609.702V797.5ZM619.722 797.5H624.732V796.5H619.722V797.5ZM629.742 797.5H634.752V796.5H629.742V797.5ZM639.761 797.5H644.771V796.5H639.761V797.5ZM649.781 797.5H654.791V796.5H649.781V797.5ZM659.801 797.5H664.811V796.5H659.801V797.5ZM669.821 797.5H674.831V796.5H669.821V797.5ZM679.841 797.5H684.85V796.5H679.841V797.5ZM689.86 797.5H694.87V796.5H689.86V797.5ZM699.88 797.5H704.89V796.5H699.88V797.5ZM709.9 797.5H714.91V796.5H709.9V797.5ZM719.92 797.5H724.93V796.5H719.92V797.5ZM729.939 797.5H734.949V796.5H729.939V797.5ZM739.959 797.5H744.969V796.5H739.959V797.5ZM749.979 797.5H754.989V796.5H749.979V797.5ZM759.999 797.5H765.009V796.5H759.999V797.5ZM770.019 797.5H775.028V796.5H770.019V797.5ZM780.038 797.5H785.048V796.5H780.038V797.5ZM790.058 797.5H795.068V796.5H790.058V797.5ZM800.078 797.5H805.088V796.5H800.078V797.5ZM810.098 797.5H815.108V796.5H810.098V797.5ZM820.117 797.5H825.127V796.5H820.117V797.5ZM830.137 797.5H835.147V796.5H830.137V797.5ZM840.157 797.5H845.167V796.5H840.157V797.5ZM850.177 797.5H855.187V796.5H850.177V797.5ZM860.197 797.5H865.206V796.5H860.197V797.5ZM870.216 797.5H875.226V796.5H870.216V797.5ZM880.236 797.5H885.246V796.5H880.236V797.5ZM890.256 797.5H895.266V796.5H890.256V797.5ZM900.276 797.5H905.286V796.5H900.276V797.5ZM910.295 797.5H915.305V796.5H910.295V797.5ZM920.315 797.5H925.325V796.5H920.315V797.5ZM930.335 797.5H935.345V796.5H930.335V797.5ZM940.355 797.5H945.365V796.5H940.355V797.5ZM950.375 797.5H955.384V796.5H950.375V797.5ZM960.394 797.5H965.404V796.5H960.394V797.5ZM970.414 797.5H975.424V796.5H970.414V797.5ZM980.434 797.5H985.444V796.5H980.434V797.5ZM990.454 797.5H995.464V796.5H990.454V797.5ZM1000.47 797.5H1005.48V796.5H1000.47V797.5ZM1010.49 797.5H1013V796.5H1010.49V797.5ZM1013.5 797V794.494H1012.5V797H1013.5ZM1013.5 789.481V784.468H1012.5V789.481H1013.5ZM1013.5 779.456V774.443H1012.5V779.456H1013.5ZM1013.5 769.43V764.418H1012.5V769.43H1013.5ZM1013.5 759.405V754.392H1012.5V759.405H1013.5ZM1013.5 749.38V744.367H1012.5V749.38H1013.5ZM1013.5 739.354V734.342H1012.5V739.354H1013.5ZM1013.5 729.329V724.316H1012.5V729.329H1013.5ZM1013.5 719.304V714.291H1012.5V719.304H1013.5ZM1013.5 709.279V704.266H1012.5V709.279H1013.5ZM1013.5 699.253V694.241H1012.5V699.253H1013.5ZM1013.5 689.228V684.215H1012.5V689.228H1013.5ZM1013.5 679.203V674.19H1012.5V679.203H1013.5ZM1013.5 669.177V664.165H1012.5V669.177H1013.5ZM1013.5 659.152V654.139H1012.5V659.152H1013.5ZM1013.5 649.127V644.114H1012.5V649.127H1013.5ZM1013.5 639.101V634.089H1012.5V639.101H1013.5ZM1013.5 629.076V624.063H1012.5V629.076H1013.5ZM1013.5 619.051V614.038H1012.5V619.051H1013.5ZM1013.5 609.025V604.013H1012.5V609.025H1013.5ZM1013.5 599V593.987H1012.5V599H1013.5ZM1013.5 588.975V583.962H1012.5V588.975H1013.5ZM1013.5 578.949V573.937H1012.5V578.949H1013.5ZM1013.5 568.924V563.911H1012.5V568.924H1013.5ZM1013.5 558.899V553.886H1012.5V558.899H1013.5ZM1013.5 548.873V543.861H1012.5V548.873H1013.5ZM1013.5 538.848V533.835H1012.5V538.848H1013.5ZM1013.5 528.823V523.81H1012.5V528.823H1013.5ZM1013.5 518.797V513.785H1012.5V518.797H1013.5ZM1013.5 508.772V503.759H1012.5V508.772H1013.5ZM1013.5 498.747V493.734H1012.5V498.747H1013.5ZM1013.5 488.721V483.709H1012.5V488.721H1013.5ZM1013.5 478.696V473.683H1012.5V478.696H1013.5ZM1013.5 468.671V463.658H1012.5V468.671H1013.5ZM1013.5 458.645V453.633H1012.5V458.645H1013.5ZM1013.5 448.62V443.607H1012.5V448.62H1013.5ZM1013.5 438.595V433.582H1012.5V438.595H1013.5ZM1013.5 428.569V423.557H1012.5V428.569H1013.5ZM1013.5 418.544V413.531H1012.5V418.544H1013.5ZM1013.5 408.519V403.506H1012.5V408.519H1013.5ZM1013.5 398.493V393.481H1012.5V398.493H1013.5ZM1013.5 388.468V383.455H1012.5V388.468H1013.5ZM1013.5 378.443V373.43H1012.5V378.443H1013.5ZM1013.5 368.417V363.405H1012.5V368.417H1013.5ZM1013.5 358.392V353.379H1012.5V358.392H1013.5ZM1013.5 348.367V343.354H1012.5V348.367H1013.5ZM1013.5 338.341V333.329H1012.5V338.341H1013.5ZM1013.5 328.316V323.303H1012.5V328.316H1013.5ZM1013.5 318.291V313.278H1012.5V318.291H1013.5ZM1013.5 308.265V303.253H1012.5V308.265H1013.5ZM1013.5 298.24V293.227H1012.5V298.24H1013.5ZM1013.5 288.215V283.202H1012.5V288.215H1013.5ZM1013.5 278.189V273.177H1012.5V278.189H1013.5ZM1013.5 268.164V263.152H1012.5V268.164H1013.5ZM1013.5 258.139V253.126H1012.5V258.139H1013.5ZM1013.5 248.114V243.101H1012.5V248.114H1013.5ZM1013.5 238.088V233.076H1012.5V238.088H1013.5ZM1013.5 228.063V223.05H1012.5V228.063H1013.5ZM1013.5 218.038V213.025H1012.5V218.038H1013.5ZM1013.5 208.013V203H1012.5V208.013H1013.5ZM1013.5 197.987V192.975H1012.5V197.987H1013.5ZM1013.5 187.962V182.949H1012.5V187.962H1013.5ZM1013.5 177.937V172.924H1012.5V177.937H1013.5ZM1013.5 167.911V162.899H1012.5V167.911H1013.5ZM1013.5 157.886V152.874H1012.5V157.886H1013.5ZM1013.5 147.861V142.848H1012.5V147.861H1013.5ZM1013.5 137.836V132.823H1012.5V137.836H1013.5ZM1013.5 127.81V122.798H1012.5V127.81H1013.5ZM1013.5 117.785V112.772H1012.5V117.785H1013.5ZM1013.5 107.76V102.747H1012.5V107.76H1013.5ZM1013.5 97.7346V92.722H1012.5V97.7346H1013.5ZM1013.5 87.7093V82.6967H1012.5V87.7093H1013.5ZM1013.5 77.6841V72.6714H1012.5V77.6841H1013.5ZM1013.5 67.6588V62.6462H1012.5V67.6588H1013.5ZM1013.5 57.6335V52.6209H1012.5V57.6335H1013.5ZM1013.5 47.6083V42.5957H1012.5V47.6083H1013.5ZM1013.5 37.583V32.5704H1012.5V37.583H1013.5ZM1013.5 27.5578V22.5451H1012.5V27.5578H1013.5ZM1013.5 17.5325V12.5198H1012.5V17.5325H1013.5ZM1013.5 7.5072V5H1012.5V7.5072H1013.5ZM1013 4.5H1010.43V5.5H1013V4.5ZM1005.29 4.5H1000.15V5.5H1005.29V4.5ZM995.008 4.5H989.867V5.5H995.008V4.5ZM984.727 4.5H979.586V5.5H984.727V4.5ZM974.445 4.5H969.305V5.5H974.445V4.5ZM964.164 4.5H959.023V5.5H964.164V4.5ZM953.883 4.5H948.742V5.5H953.883V4.5ZM943.602 4.5H938.461V5.5H943.602V4.5ZM933.32 4.5H928.18V5.5H933.32V4.5ZM923.039 4.5H917.898V5.5H923.039V4.5ZM912.758 4.5H907.617V5.5H912.758V4.5ZM902.477 4.5H897.336V5.5H902.477V4.5ZM892.195 4.5H887.055V5.5H892.195V4.5ZM881.914 4.5H876.773V5.5H881.914V4.5ZM871.633 4.5H866.492V5.5H871.633V4.5ZM861.352 4.5H856.211V5.5H861.352V4.5ZM851.07 4.5H848.5V5.5H851.07V4.5Z" fill="#616D7B"/>
<path d="M839 5H850" stroke="#616D7B"/>
<path d="M843 9L839 5L843 1" stroke="#616D7B" stroke-linecap="square"/>
</svg>
