<svg width="452" height="399" viewBox="0 0 452 399" fill="none" xmlns="http://www.w3.org/2000/svg">
<path d="M410.123 1.22656L154.727 1.92736L147.737 7.0922L145.293 14.1913L147.737 17.3448L141.45 20.4984L138.306 18.7464L137.258 27.8567L132.716 26.1198H130.62L127.475 37.3175L115.291 44.3201L114.199 39.0695L120.138 30.8077L114.199 32.7623L110.705 37.3175L107.561 55.1877L104.067 59.3925L99.8742 68.1524L103.192 69.2036L97.4174 86.5117L96.8675 94.7846L94.3928 103.333L92.743 100.389V97.8179L91.9181 90.9282L83.4534 103.885H79.2609V99.3378L72.6701 103.333L73.3214 106.696L70.5264 110.901L69.6455 113.003L73.3214 115.106L79.2609 117.558L72.6701 125.118L71.2252 133.677L66.3458 138.079L67.7314 142.437L64.9363 145.24L61.7919 151.897L60.0215 157.107L56.5512 166.614L54.5221 170.895V172.571L49.2143 167.861L44.3482 169.792L36.649 179.444L29.2249 182.753L25.1071 181.331V187.638L27.9022 188.819L27.0251 193.244L31.0466 196.047L38.3835 194.996L33.4922 200.603L27.9022 203.406L26.2002 206.559L27.9022 207.961L27.0251 213.362H23.4505L20.5652 211.465L13.2283 218.473L8.68634 229.356L4.49379 231.087L1 237.745L17.1262 239.497L17.6761 247.556L27.0251 249.308L30.6972 254.213V259.139H20.2483L19.5171 266.477L23.4505 269.631L15.6739 279.442L18.4689 294.159L31.396 298.714L37.6848 297.312L39.7811 303.97L45.3711 310.627L43.6242 314.832L46.8229 318.543L46.0699 322.891L44.3482 328.533L52.0093 334.104L55.8525 324.293L63.1894 319.531L68.0807 325.046H75.4177V330.6L71.9239 333.403L77.1646 338.659H84.8509L86.9472 346.017H92.5373L95.3323 350.573L99.1755 347.769L101.97 351.624L105.814 347.769V352.325L108.259 355.828H111.753L115.946 358.281L119.09 367.392V374.75L129.222 377.904L134.113 375.786L137.688 379.647L142.498 382.68L143.547 388.766L148.438 390.868L152.98 389.817V395.073L166.606 398.227L176.388 397.571V392.62L171.846 387.715L171.109 383.51L168.352 370.545L171.109 355.828L178.135 346.718L179.533 340.411L183.026 338.309L184.308 329.734L195.255 320.789L212.724 315.182L207.832 307.123L211.326 303.619L220.41 300.466L222.506 305.021L229.494 318.703L236.676 310.982L239.975 309.603L242.421 305.975H248.926L253.601 304.32L262.685 311.258L269.672 309.603L287.491 316.234L289.936 322.84L292.646 334.146L303.645 341.867L312.994 342.513L311.598 330.95L312.994 324.494V318.703L309.694 314.015L310.794 309.603L309.694 301.867L321.38 291.005L322.429 282.946L328.019 288.552H335.006L340.216 284.233L339.116 278.718L342.691 277.063L350.728 269.28L355.62 259.82L353.965 251.06L345.488 252.111L355.62 244.402V238.095L360.161 238.796L364.667 228.805L362.764 219.874L369.638 214.969L376.932 206.91L369.638 195.347L370.293 187.287L368.263 171.52L358.364 161.358L353.415 163.449L346.885 155.051L351.765 152.695L365.788 155.051L375.884 144.889L373.487 140.334L380.076 129.122L378.329 124.917L384.269 122.464L400.689 124.917L409.773 110.503H413.616L431.085 94.4322L451 81.4675L448.554 72.3572L438.073 68.5028L446.109 53.4357L440.169 42.223L431.085 31.0103L427.592 21.5496L418.158 13.8409L411.52 8.23451L410.123 1.22656Z" stroke="#57A7D7" stroke-linejoin="round"/>
</svg>
