<svg width="21" height="21" viewBox="0 0 21 21" fill="none" xmlns="http://www.w3.org/2000/svg">
<mask id="mask0" mask-type="alpha" maskUnits="userSpaceOnUse" x="0" y="0" width="21" height="21">
<circle cx="10.5" cy="10.5" r="10.5" fill="#A1ABB5"/>
</mask>
<g mask="url(#mask0)">
<path fill-rule="evenodd" clip-rule="evenodd" d="M10.2795 11.9006C12.2228 11.9006 13.7982 10.3252 13.7982 8.38194C13.7982 6.43864 12.2228 4.86328 10.2795 4.86328C8.33621 4.86328 6.76085 6.43864 6.76085 8.38194C6.76085 10.3252 8.33621 11.9006 10.2795 11.9006ZM10.2795 26.3063C14.0518 26.3063 17.1099 23.2482 17.1099 19.4759C17.1099 15.7037 14.0518 12.6456 10.2795 12.6456C6.50726 12.6456 3.44922 15.7037 3.44922 19.4759C3.44922 23.2482 6.50726 26.3063 10.2795 26.3063Z" fill="white"/>
</g>
<circle cx="10.5" cy="10.5" r="10" stroke="white"/>
</svg>
