<svg width="14" height="14" viewBox="0 0 14 14" fill="none" xmlns="http://www.w3.org/2000/svg">
    <path d="M6.55134 0.564796C6.69552 0.0929562 7.3635 0.092958 7.50768 0.564797L8.71764 4.52433C8.78189 4.73459 8.97595 4.87821 9.19581 4.87821H13.1735C13.6504 4.87821 13.8566 5.48234 13.4792 5.77389L10.2094 8.29986C10.0448 8.42701 9.97615 8.64276 10.0369 8.84166L11.2733 12.8875C11.4157 13.3536 10.8751 13.7272 10.4894 13.4293L7.33518 10.9926C7.15513 10.8535 6.90388 10.8535 6.72384 10.9926L3.56961 13.4293C3.18391 13.7272 2.64333 13.3536 2.78576 12.8875L4.02209 8.84166C4.08287 8.64276 4.01417 8.42701 3.84959 8.29986L0.579816 5.77389C0.202412 5.48234 0.408585 4.87821 0.885489 4.87821H4.86321C5.08307 4.87821 5.27713 4.73459 5.34138 4.52433L6.55134 0.564796Z" fill="#FAC04B"/>
</svg>
