<svg width="50" height="54" viewBox="0 0 50 54" fill="none" xmlns="http://www.w3.org/2000/svg">
<path d="M35.2992 43.8004L30.3992 39.0004L29.1992 40.2004L35.7992 46.8004L42.0992 34.2004L40.4992 33.4004L35.2992 43.8004Z" fill="#212C30"/>
<path d="M22 28.2002H5.5V30.4002H22V28.2002Z" fill="#212C30"/>
<path d="M24.3 24H5.5V26.2H24.3V24Z" fill="#212C30"/>
<path d="M27.9 19.7998H5.5V21.9998H27.9V19.7998Z" fill="#212C30"/>
<path d="M5.5 44.7998V46.9998H24.2C23.8 46.2998 23.4 45.5998 23.1 44.7998H5.5Z" fill="#212C30"/>
<path d="M40.1 27.5V6.9C40.1 5.5 39 4.4 37.6 4.4H11.1V2.4C11.1 2.3 11.2 2.2 11.3 2.2H42.1C42.2 2.2 42.3 2.3 42.3 2.4V28.5C43.1 29 43.8 29.5 44.5 30.1V2.5C44.5 1.1 43.4 0 42 0H11.4C10 0 8.9 1.1 8.9 2.5V4.5H6.9C5.5 4.5 4.4 5.6 4.4 7V9H2.4C1.1 8.9 0 10 0 11.4V51C0 52.4 1.1 53.5 2.5 53.5H33.3C33.6 53.5 33.8 53.5 34 53.4C34.6 53.5 35.1 53.5 35.7 53.5C43.1 53.5 49.1 47.5 49.1 40.1C49 34.3 45.3 29.3 40.1 27.5ZM6.7 6.9C6.7 6.8 6.8 6.7 6.9 6.7H37.7C37.8 6.7 37.9 6.8 37.9 6.9V26.9C37.2 26.8 36.4 26.7 35.7 26.7C35.6 26.7 35.5 26.7 35.4 26.7C35.5 26.7 35.6 26.7 35.7 26.7V11.4C35.7 10 34.6 8.9 33.2 8.9H6.7V6.9ZM35.2 26.7H35.1C35.1 26.8 35.1 26.8 35.2 26.7ZM2.5 51.3C2.4 51.3 2.3 51.2 2.3 51.1V11.4C2.3 11.3 2.4 11.2 2.5 11.2H33.3C33.4 11.2 33.5 11.3 33.5 11.4V27C29.2 27.7 25.6 30.5 23.7 34.3C23.7 34.3 23.7 34.2 23.8 34.2V32.4H5.5V34.6H23.5V34.5C23.2 35.1 22.9 35.8 22.7 36.5H5.5V38.7H22.4C22.4 39.2 22.3 39.6 22.3 40.1C22.3 40.3 22.3 40.4 22.3 40.6H5.5V42.8H22.4V41.8C23 46.5 26.2 50.5 30.4 52.3C29.7 52 28.9 51.6 28.3 51.2H2.5V51.3ZM30.9 52.6H31C30.9 52.6 30.9 52.6 30.9 52.6ZM30.5 52.4C30.6 52.4 30.6 52.4 30.7 52.5C30.6 52.5 30.6 52.5 30.5 52.4ZM35.7 50.8C29.8 50.8 25 46 25 40.1C25 34.2 29.8 29.4 35.7 29.4C41.6 29.4 46.4 34.2 46.4 40.1C46.4 46 41.6 50.8 35.7 50.8Z" fill="#212C30"/>
</svg>
