<svg width="47" height="54" viewBox="0 0 47 54" fill="none" xmlns="http://www.w3.org/2000/svg">
<path d="M45.7 4.5H38.9V7H44.5V51H14V50.2C13.3 50 12.5 49.7 11.5 49.3V52.2C11.5 52.9 12.1 53.4 12.7 53.4H45.6C46.3 53.4 46.8 52.8 46.8 52.2V5.8C47 5.1 46.4 4.5 45.7 4.5Z" fill="#212C30"/>
<path d="M13.9996 7H19.5996V4.5H12.7996C12.0996 4.5 11.5996 5.1 11.5996 5.7V13.6C12.4996 13.1 13.2996 12.4 14.0996 11.6V7H13.9996Z" fill="#212C30"/>
<path d="M22.8 8.1C23.3 8.5 23.9 8.7 24.6 8.7H33.9C34.6 8.7 35.2 8.5 35.7 8.1C36.4 7.5 36.9 6.7 36.9 5.7V4.7C36.9 4.2 36.6 3.7 36.2 3.5C36 3.4 35.7 3.3 35.4 3.3H32.5C32.5 1.5 31 0 29.2 0C27.4 0 25.9 1.5 25.9 3.3H23C22.7 3.3 22.5 3.4 22.2 3.5C21.8 3.8 21.5 4.2 21.5 4.7V5.6C21.6 6.6 22.1 7.5 22.8 8.1ZM29.3 2C30.1 2 30.7 2.6 30.7 3.4C30.7 4.2 30 4.7 29.3 4.7C28.5 4.7 27.9 4.1 27.9 3.3C27.9 2.5 28.5 2 29.3 2Z" fill="#212C30"/>
<path d="M42.3 40.2998H29.7C29.5 40.6998 29.3 41.0998 29 41.3998H42.3V40.2998Z" fill="#212C30"/>
<path d="M24.1004 46.9C24.0004 47 23.9004 47 23.9004 47.1H42.2004V46H25.3004C24.9004 46.3 24.5004 46.6 24.1004 46.9Z" fill="#212C30"/>
<path d="M42.4996 17.7998H42.2996H33.0996C33.0996 18.1998 33.0996 18.5998 33.0996 18.8998H42.2996H42.4996V17.7998Z" fill="#212C30"/>
<path d="M42.5004 23.4004H33.0004C33.0004 23.8004 33.0004 24.2004 32.9004 24.5004H42.5004V23.4004Z" fill="#212C30"/>
<path d="M42.4004 29.0996H32.5004C32.5004 29.4996 32.4004 29.8996 32.4004 30.1996H42.4004V29.0996Z" fill="#212C30"/>
<path d="M42.3 35.8002V34.7002H31.8C31.7 35.1002 31.6 35.5002 31.5 35.8002H42.3Z" fill="#212C30"/>
<path d="M19.3004 13.3002H42.4004V12.2002H17.9004C18.4004 12.6002 18.8004 13.0002 19.3004 13.3002Z" fill="#212C30"/>
<path d="M14.1 48.5002C14.3 48.6002 14.4 48.6002 14.6 48.6002H14.7C14.8 48.6002 14.9 48.7002 15 48.7002C15.1 48.7002 15.1 48.7002 15.2 48.7002C15.4 48.8002 15.7 48.8002 15.8 48.8002C15.9 48.8002 16 48.8002 16.1 48.7002C16.2 48.7002 16.4 48.6002 16.5 48.6002C16.6 48.6002 16.7 48.5002 16.8 48.5002C17 48.4002 17.2 48.4002 17.4 48.3002C17.6 48.2002 17.8 48.2002 18.1 48.1002C18.9 47.8002 19.8 47.4002 20.8 46.9002C21.4 46.6002 22 46.2002 22.6 45.8002C22.8 45.7002 22.9 45.6002 23.1 45.4002C24.3 44.5002 25.2 43.5002 26 42.6002C26 42.6002 26 42.6002 26 42.5002C26.1 42.3002 26.3 42.2002 26.4 42.0002L26.5 41.9002C26.7 41.7002 26.8 41.5002 27 41.3002C27.4 40.7002 27.7 40.2002 28 39.7002C28.1 39.6002 28.1 39.5002 28.2 39.4002C28.3 39.3002 28.4 39.1002 28.4 39.0002C28.5 38.8002 28.6 38.6002 28.7 38.5002C28.8 38.3002 28.8 38.2002 28.9 38.1002C28.9 38.0002 29 38.0002 29 37.9002C29 37.9002 29 37.8002 29.1 37.8002C29.1 37.8002 29.1 37.7002 29.2 37.7002C29.2 37.7002 29.2 37.7002 29.2 37.6002C29.2 37.6002 29.2 37.5002 29.3 37.5002C29.3 37.4002 29.4 37.3002 29.4 37.2002C29.5 36.9002 29.7 36.5002 29.8 36.2002C29.8 36.1002 29.9 35.9002 29.9 35.8002C29.9 35.8002 29.9 35.8002 29.9 35.7002C30 35.3002 30.1 35.0002 30.2 34.6002C30.3 34.3002 30.3 33.9002 30.4 33.6002C30.6 32.6002 30.7 31.4002 30.9 30.1002C30.9 29.7002 31 29.4002 31 29.0002C31 28.9002 31 28.7002 31 28.5002C31 28.2002 31.1 27.9002 31.1 27.6002C31.1 27.3002 31.2 26.9002 31.2 26.6002C31.2 26.4002 31.2 26.3002 31.2 26.1002C31.2 25.6002 31.3 25.2002 31.3 24.7002C31.4 23.8002 31.4 22.9002 31.5 22.0002C31.5 21.8002 31.5 21.6002 31.5 21.3002C31.6 19.4002 31.6 17.6002 31.6 15.9002C31.6 15.9002 31.6 15.9002 31.5 15.9002C31.5 15.9002 31.5 15.9002 31.4 15.9002C31.4 15.9002 31.4 15.9002 31.3 15.9002C31.3 15.9002 31.3 15.9002 31.2 15.9002C31.2 15.9002 31.2 15.9002 31.1 15.9002H31H30.9H30.8H30.7H30.6H30.5H30.4C30.3 15.9002 30.2 16.0002 30.1 16.0002H30C30 16.0002 30 16.0002 29.9 16.0002H29.8C29.8 16.0002 29.8 16.0002 29.7 16.0002H29.6C29.6 16.0002 29.6 16.0002 29.5 16.0002H29.4C29.4 16.0002 29.4 16.0002 29.3 16.0002C29.2 16.0002 29.2 16.0002 29.1 16.0002C29 16.0002 29 16.0002 28.9 16.0002C28.8 16.0002 28.8 16.0002 28.7 16.0002C28.7 16.0002 28.7 16.0002 28.6 16.0002H28.5C28.5 16.0002 28.5 16.0002 28.4 16.0002H28.3H28.2H28.1C28.1 16.0002 28.1 16.0002 28 16.0002C28 16.0002 27.9 16.0002 27.8 16.0002C27.8 16.0002 27.8 16.0002 27.7 16.0002C27.6 16.0002 27.6 16.0002 27.5 16.0002C27.4 16.0002 27.4 16.0002 27.3 16.0002C27.3 16.0002 27.3 16.0002 27.2 16.0002C27.1 16.0002 27.1 16.0002 27 16.0002H26.9H26.8H26.7H26.6H26.5C26.5 16.0002 26.4 16.0002 26.3 16.0002H26.2C26.1 16.0002 26.1 16.0002 26 16.0002C25.9 16.0002 25.9 16.0002 25.8 16.0002C25.8 16.0002 25.8 16.0002 25.7 16.0002H25.6H25.5H25.4H25.3H25.2C25.2 16.0002 25.2 16.0002 25.1 16.0002C25 16.0002 25 16.0002 24.9 16.0002C24.8 16.0002 24.8 16.0002 24.7 16.0002C24.7 16.0002 24.7 16.0002 24.6 16.0002C24.5 16.0002 24.5 16.0002 24.4 16.0002H24.3H24.2H24.1H24C24 16.0002 24 16.0002 23.9 16.0002C23.8 16.0002 23.8 16.0002 23.7 16.0002C23.6 16.0002 23.5 16.0002 23.5 16.0002C23.4 16.0002 23.4 16.0002 23.3 16.0002C23.3 16.0002 23.3 16.0002 23.2 16.0002C23.1 16.0002 23.1 16.0002 23 16.0002H22.9C22.8 16.0002 22.8 16.0002 22.7 16.0002H22.6C22.5 16.0002 22.5 16.0002 22.4 16.0002C22.4 16.0002 22.4 16.0002 22.3 16.0002C22.1 16.0002 22 15.9002 21.8 15.9002C21.8 15.9002 21.8 15.9002 21.7 15.9002C21.6 15.9002 21.6 15.9002 21.5 15.8002H21.4C21.3 15.8002 21.3 15.8002 21.2 15.7002H21.1C21 15.7002 21 15.7002 20.9 15.6002H20.8C20.7 15.6002 20.7 15.6002 20.6 15.5002C20.6 15.5002 20.6 15.5002 20.5 15.5002C20.4 15.5002 20.3 15.4002 20.3 15.4002C20.3 15.4002 20.3 15.4002 20.2 15.4002C20.1 15.4002 20.1 15.3002 20 15.3002H19.9C19.8 15.3002 19.8 15.3002 19.7 15.2002H19.6C19.6 15.2002 19.5 15.2002 19.5 15.1002H19.4C19.3 15.1002 19.3 15.0002 19.2 15.0002H19.1C19 15.0002 18.9 14.9002 18.9 14.9002C18.8 14.8002 18.7 14.8002 18.6 14.7002C18.5 14.6002 18.4 14.6002 18.3 14.5002C18 14.3002 17.7 14.1002 17.5 13.9002C17.3 13.8002 17.2 13.6002 17 13.5002C16.8 13.4002 16.7 13.2002 16.5 13.1002C16.3 12.9002 16.1 12.7002 15.9 12.5002C15.8 12.4002 15.8 12.4002 15.7 12.3002C15.5 12.1002 15.3 11.9002 15.2 11.7002C15 11.9002 14.9 12.1002 14.7 12.3002C14.6 12.4002 14.6 12.4002 14.5 12.5002C14.3 12.7002 14.1 12.9002 13.9 13.1002C13.8 13.2002 13.6 13.3002 13.5 13.4002C13.5 13.4002 13.4 13.4002 13.4 13.5002C13.2 13.6002 13.1 13.8002 12.9 13.9002C12.6 14.1002 12.4 14.3002 12.1 14.5002C12 14.6002 11.9 14.6002 11.8 14.7002C11.7 14.8002 11.6 14.8002 11.5 14.9002C11.3 15.0002 11.2 15.1002 11 15.1002H10.9C10.9 15.1002 10.8 15.1002 10.8 15.2002H10.7C10.7 15.2002 10.6 15.2002 10.6 15.3002H10.5C10.4 15.3002 10.4 15.3002 10.3 15.4002C10.3 15.4002 10.3 15.4002 10.2 15.4002C10.1 15.4002 10 15.5002 10 15.5002C10 15.5002 10 15.5002 9.9 15.5002C9.8 15.5002 9.8 15.5002 9.7 15.6002H9.6C9.6 15.6002 9.5 15.6002 9.5 15.7002H9.4H9.3H9.2C9.1 15.7002 9.1 15.7002 9 15.7002H8.9C8.8 15.7002 8.8 15.7002 8.7 15.8002C8.6 15.8002 8.6 15.8002 8.5 15.9002H8.4H8.3H8.2H8.1H8H7.9H7.8C7.7 15.9002 7.7 15.9002 7.6 15.9002C7.6 15.9002 7.6 15.9002 7.5 15.9002C7.4 15.9002 7.4 15.9002 7.3 15.9002C7.3 15.9002 7.3 15.9002 7.2 15.9002C7.1 15.9002 7.1 15.9002 7 15.9002H6.9H6.8H6.7H6.6H6.5H6.4C6.4 15.9002 6.4 15.9002 6.3 15.9002C6.2 15.9002 6.2 15.9002 6.1 15.9002C6 15.9002 6 15.9002 5.9 15.9002C5.9 15.9002 5.9 15.9002 5.8 15.9002H5.7H5.6H5.5C6 17.0002 6 17.0002 6 17.0002H5.9C5.9 17.0002 5.9 17.0002 5.8 17.0002C5.7 17.0002 5.7 17.0002 5.6 17.0002C5.5 17.0002 5.5 17.0002 5.4 17.0002H5.3C5.2 17.0002 5.2 17.0002 5.2 17.0002C5 17.0002 5 17.0002 5 17.0002H4.9H4.8H4.7H4.6H4.5H4.4C4.3 17.0002 4.3 17.0002 4.2 17.0002C4.1 17.0002 4.1 17.0002 4 17.0002C4 17.0002 4 17.0002 3.9 17.0002H3.8H3.7H3.6H3.5H3.4H3.3H3.2H3.1H3C3 17.0002 3 17.0002 2.9 17.0002C2.8 17.0002 2.8 17.0002 2.7 17.0002C2.7 17.0002 2.7 17.0002 2.6 17.0002H2.5C2.5 17.0002 2.5 17.0002 2.4 17.0002H2.3C2.3 17.0002 2.3 17.0002 2.2 17.0002H2.1C2.1 17.0002 2.1 17.0002 2 17.0002H1.9C1.9 17.0002 1.9 17.0002 1.8 17.0002H1.7C1.7 17.0002 1.7 17.0002 1.6 17.0002H1.5H1.4C1.4 17.0002 1.4 17.0002 1.3 17.0002H1.2C1.2 17.0002 1.2 17.0002 1.1 17.0002H1C1 17.0002 1 17.0002 0.9 17.0002H0.8C0.8 17.0002 0.8 17.0002 0.7 17.0002H0.6H0.5H0.4C0.4 17.0002 0.4 17.0002 0.3 17.0002C0.3 17.0002 0.3 17.0002 0.2 17.0002C0.2 17.0002 0.2 17.0002 0.1 17.0002C0.1 17.0002 0.1 17.0002 0 17.0002C0 17.7002 0 18.5002 0 19.3002C0 19.7002 0 20.1002 0 20.5002C0 20.9002 0 21.3002 0 21.7002C0 22.1002 0 22.5002 0.1 23.0002C0.1 23.2002 0.1 23.5002 0.1 23.7002C0.1 24.3002 0.2 25.0002 0.2 25.7002C0.2 25.9002 0.2 26.2002 0.2 26.4002C0.2 26.6002 0.2 26.9002 0.3 27.1002C0.4 28.3002 0.5 29.4002 0.6 30.4002C0.6 30.4002 0.6 30.4002 0.6 30.5002C0.6 30.9002 0.7 31.3002 0.7 31.7002C0.7 31.9002 0.7 32.0002 0.8 32.2002C0.8 32.6002 0.9 32.9002 0.9 33.2002C0.9 33.4002 0.9 33.5002 1 33.7002C1 33.9002 1.1 34.1002 1.1 34.3002C1.1 34.4002 1.1 34.6002 1.2 34.7002C1.2 34.8002 1.2 35.0002 1.3 35.1002C1.4 35.6002 1.5 36.0002 1.6 36.5002C1.6 36.6002 1.6 36.6002 1.6 36.7002C1.6 36.8002 1.7 37.0002 1.7 37.1002C1.7 37.3002 1.8 37.4002 1.9 37.6002C1.9 37.7002 2 37.8002 2 38.0002C2.1 38.3002 2.2 38.6002 2.4 38.9002C2.5 39.1002 2.6 39.4002 2.8 39.8002C2.8 39.9002 2.9 40.0002 3 40.1002C3 39.0002 3 39.1002 3.1 39.2002C3.2 39.4002 3.3 39.5002 3.4 39.7002C3.4 39.8002 3.5 39.8002 3.5 39.9002C3.8 40.5002 4.3 41.1002 4.7 41.8002C4.8 42.0002 4.9 42.1002 5.1 42.3002C5.2 42.4002 5.3 42.6002 5.4 42.7002L5.5 42.8002C6.3 43.7002 7.2 44.7002 8.4 45.6002C9.5 46.4002 10.6 47.1002 11.6 47.5002C12.5 48.0002 13.4 48.3002 14.1 48.5002ZM4.7 36.6002C3.7 34.4002 3 29.4002 2.6 19.1002C4.2 19.5002 8.7 20.3002 13 17.9002C14.1 17.3002 15 16.6002 15.7 15.9002C16.4 16.6002 17.3 17.3002 18.4 17.9002C22.7 20.3002 27.2 19.5002 28.8 19.1002C28.5 29.4002 27.7 34.4002 26.7 36.6002C23.4 44.2002 17 45.6002 15.7 45.9002C14.4 45.6002 8 44.2002 4.7 36.6002Z" fill="#212C30"/>
<path d="M18.5 37.1V33.6H22C22.5 33.6 23 33.2 23 32.6V29C23 28.5 22.6 28 22 28H18.5V24.5C18.5 24 18.1 23.5 17.5 23.5H13.9C13.4 23.5 12.9 23.9 12.9 24.5V28H9.5C9 28 8.5 28.4 8.5 29V32.6C8.5 33.1 8.9 33.6 9.5 33.6H13V37.1C13 37.6 13.4 38.1 14 38.1H17.6C18.1 38.1 18.5 37.7 18.5 37.1Z" fill="#212C30"/>
</svg>
