<svg width="56" height="55" viewBox="0 0 56 55" fill="none" xmlns="http://www.w3.org/2000/svg">
<path d="M53.1008 44.2998V35.8998H54.6008V34.7998C46.2008 29.5998 45.8008 29.2998 40.1008 25.7998L25.6008 34.7998V35.8998H27.1008V44.2998H24.8008V46.4998H55.3008V44.2998H53.1008ZM28.5008 34.4998L33.3008 31.4998L38.8008 34.6998H28.5008V34.4998ZM32.1008 44.2998H28.5008V35.8998H32.1008C32.1008 38.5998 32.1008 41.4998 32.1008 44.2998ZM39.5008 44.2998H33.1008V40.6998H39.5008V44.2998ZM39.5008 39.5998H33.1008V35.7998H39.5008V39.5998ZM39.5008 33.8998L34.3008 30.8998L39.5008 27.5998V33.8998ZM40.7008 27.5998L45.9008 30.8998L40.7008 33.8998V27.5998ZM48.1008 44.2998H44.6008V38.0998H48.1008V44.2998ZM51.7008 44.2998H49.2008V36.9998C47.3008 36.9998 45.4008 36.9998 43.5008 36.9998V44.2998H40.7008V35.8998H51.8008V44.2998H51.7008ZM51.7008 34.6998H41.5008L47.0008 31.4998L51.8008 34.4998V34.6998H51.7008Z" fill="#212C30"/>
<path d="M26.7992 21.8002L30.3992 18.1002L25.6992 16.5002L24.6992 17.4002C23.8992 17.0002 20.8992 15.2002 20.0992 15.2002C19.8992 15.2002 19.8992 15.3002 19.8992 15.5002C20.6992 17.0002 21.2992 19.0002 21.1992 21.5002C18.7992 21.5002 16.3992 21.5002 13.8992 21.5002L13.2992 24.9002L10.3992 25.3002L10.1992 26.5002V28.6002H21.2992C21.3992 26.8002 21.3992 24.9002 21.3992 22.8002C21.3992 22.3002 21.3992 21.7002 21.3992 21.2002L23.7992 22.2002C24.8992 22.5002 26.0992 22.5002 26.7992 21.8002ZM16.4992 23.6002H14.9992V22.6002H16.4992V23.6002ZM20.6992 23.6002H19.1992V22.6002H20.6992V23.6002Z" fill="#212C30"/>
<path d="M20.6004 8.7998C20.6004 9.5998 20.6004 9.8998 20.2004 10.7998C19.8004 11.6998 19.1004 12.3998 18.2004 12.8998L17.9004 13.0998L36.5004 19.5998L38.2004 14.9998L33.9004 13.4998C33.9004 13.1998 33.9004 12.8998 33.7004 12.6998C33.4004 12.0998 31.2004 11.1998 30.5004 11.2998C30.3004 11.2998 30.1004 11.4998 29.9004 11.5998C29.4004 12.2998 29.0004 13.0998 28.8004 13.9998C28.7004 14.2998 28.1004 14.0998 28.2004 13.7998C28.4004 13.0998 28.7004 12.3998 29.1004 11.6998C26.3004 10.7998 23.5004 9.7998 20.6004 8.7998Z" fill="#212C30"/>
<path d="M16.4004 20.4998H20.0004C19.9004 17.7998 18.8004 15.6998 18.0004 14.5998C16.7004 15.7998 14.1004 13.7998 12.4004 13.2998C14.0004 14.4998 16.0004 16.6998 16.4004 20.4998Z" fill="#212C30"/>
<path d="M10.4996 35.9004C10.5996 35.2004 10.5996 34.5004 10.6996 33.7004C10.6996 33.5004 10.6996 33.4004 10.4996 33.3004C10.2996 33.2004 9.99961 33.1004 9.69961 33.0004V26.3004L10.6996 20.9004L11.3996 21.0004L10.7996 24.2004L12.5996 23.9004L13.1996 20.4004H15.0996C14.5996 15.9004 11.4996 14.0004 10.2996 13.4004C9.39961 13.7004 8.69961 14.3004 8.09961 15.0004C5.99961 17.6004 6.29961 22.9004 5.79961 26.2004C5.89961 28.7004 5.99961 30.9004 6.09961 33.3004C4.69961 33.0004 4.09961 32.9004 2.19961 32.6004C2.09961 32.6004 1.89961 32.7004 1.89961 32.8004C1.79961 33.3004 1.69961 33.8004 1.59961 34.3004C1.59961 34.4004 1.69961 34.6004 1.79961 34.6004C3.49961 34.9004 4.89961 35.1004 6.19961 35.2004C6.19961 36.1004 6.89961 36.1004 7.59961 36.2004C8.29961 36.3004 9.09961 36.4004 9.59961 36.4004C10.0996 36.4004 10.4996 36.3004 10.4996 35.9004Z" fill="#212C30"/>
<path d="M9.4 7.5002C9 6.0002 8.8 5.5002 9 4.8002L1.5 2.2002L0 6.9002C2.1 7.60019 8.1 9.7002 10.3 10.5002C10 9.6002 9.6 8.3002 9.4 7.5002Z" fill="#212C30"/>
<path d="M24.1004 28.2006C24.1004 27.9006 23.9004 27.7006 23.7004 27.7006L22.5004 27.6006C22.2004 27.6006 22.0004 27.8006 22.0004 28.0006L21.9004 29.1006H10.4004V32.5006C10.6004 32.6006 10.8004 32.7006 11.0004 32.8006C11.5004 33.1006 11.4004 33.5006 11.4004 34.1006V34.2006L13.0004 34.5006L13.1004 34.1006C13.1004 34.0006 13.2004 33.9006 13.3004 33.9006H13.4004V33.8006C13.5004 33.3006 13.4004 32.7006 13.1004 32.2006C12.8004 31.8006 12.5004 31.6006 12.1004 31.4006L12.2004 31.1006C12.4004 31.1006 12.5004 31.1006 12.7004 31.1006C14.3004 31.4006 14.9004 33.2006 14.6004 34.6006L14.2004 36.8006C14.2004 36.9006 14.1004 37.0006 14.0004 37.0006C13.8004 37.3006 13.8004 37.4006 13.9004 37.7006H14.2004C14.3004 37.7006 14.4004 37.8006 14.3004 37.9006L14.1004 38.9006C14.1004 39.0006 14.0004 39.1006 13.9004 39.0006L12.3004 38.7006C12.2004 38.7006 12.1004 38.6006 12.2004 38.5006L12.4004 37.5006C12.4004 37.4006 12.5004 37.3006 12.6004 37.4006H12.8004C13.0004 37.1006 13.0004 37.0006 12.9004 36.7006H12.8004C12.7004 36.7006 12.6004 36.6006 12.6004 36.5006L12.7004 36.1006C12.2004 36.0006 11.8004 35.9006 11.3004 35.9006C11.2004 36.7006 10.5004 37.0006 9.80038 37.1006C9.70038 37.1006 9.50038 37.1006 9.30038 37.1006L8.50038 52.6006C8.50038 53.4006 8.40037 54.5006 8.70037 54.5006H14.4004C14.7004 54.5006 14.7004 52.5006 14.2004 52.2006L13.6004 52.0006L15.3004 38.7006H15.6004L15.3004 52.6006C15.3004 53.4006 15.4004 54.5006 15.7004 54.5006H22.5004C22.9004 54.5006 23.0004 52.5006 22.2004 52.2006L20.4004 51.7006L20.7004 42.7006C20.8004 40.4006 20.9004 38.3006 21.0004 36.3006H22.0004V37.4006C22.0004 37.5006 22.1004 37.6006 22.2004 37.6006H22.7004C22.8004 37.6006 22.9004 37.5006 22.9004 37.4006L23.0004 36.2006C23.6004 36.1006 23.9004 35.6006 24.1004 34.9006L24.5004 29.0006H24.0004L24.1004 28.2006Z" fill="#212C30"/>
<path d="M22.5009 5.90023C22.9009 5.90023 23.1009 5.80023 23.2009 5.60023C23.4009 5.20023 23.7009 4.50023 23.1009 4.50023H20.3009C20.2009 4.50023 20.1009 4.50023 20.1009 4.40023C19.4009 3.40023 19.4009 2.30023 18.4009 1.60023C16.9009 0.600229 14.2009 0.900229 12.6009 1.80023C10.8009 2.80023 9.90088 4.70023 10.6009 7.20023L22.5009 5.90023Z" fill="#212C30"/>
<path d="M16.1992 12.5C17.4992 12.2 18.6992 11.3 19.0992 10.3C19.3992 9.6 19.5992 8.2 19.5992 7C16.5992 7.3 13.6992 7.7 10.6992 8C10.8992 8.9 11.0992 9.8 11.3992 10.3C11.9992 11.3 13.1992 12.2 14.5992 12.5C15.3992 12.6 15.5992 12.6 16.1992 12.5Z" fill="#212C30"/>
</svg>
