<svg width="53" height="54" viewBox="0 0 53 54" fill="none" xmlns="http://www.w3.org/2000/svg">
<path d="M9.50078 7C10.8008 7 11.8008 6 11.8008 4.7V2.3C11.8008 1 10.8008 0 9.50078 0C8.30078 0 7.30078 1 7.30078 2.3V4.7C7.30078 6 8.30078 7 9.50078 7Z" fill="#212C30"/>
<path d="M20.6 37.5004H3.1C2.7 37.5004 2.4 37.2004 2.4 36.8004V11.7004H36.2V21.5004C36.6 21.5004 37.1 21.5004 37.5 21.5004C37.9 21.5004 38.2 21.5004 38.6 21.5004V6.00039C38.6 4.30039 37.2 2.90039 35.5 2.90039H32C32.3 3.40039 32.5 4.00039 32.5 4.60039C32.5 6.50039 31 8.00039 29.1 8.00039C27.2 8.00039 25.7 6.50039 25.7 4.60039C25.7 4.00039 25.9 3.40039 26.2 2.90039H12.5C12.8 3.50039 13 4.10039 13 4.70039C13 6.60039 11.5 8.10039 9.6 8.10039C7.7 8.10039 6.2 6.60039 6.2 4.70039C6.2 4.10039 6.4 3.50039 6.7 3.00039H3.1C1.4 3.00039 0 4.30039 0 6.00039V36.8004C0 38.5004 1.4 39.9004 3.1 39.9004H20.6C20.6 39.4004 20.5 38.9004 20.5 38.3004C20.5 38.1004 20.5 37.8004 20.6 37.5004Z" fill="#212C30"/>
<path d="M28.9992 7C30.2992 7 31.2992 6 31.2992 4.7V2.3C31.2992 1 30.1992 0 28.9992 0C27.6992 0 26.6992 1 26.6992 2.3V4.7C26.6992 6 27.6992 7 28.9992 7Z" fill="#212C30"/>
<path d="M17.1992 35.1996H20.7992L21.2992 33.0996V31.0996H17.1992V35.1996Z" fill="#212C30"/>
<path d="M15.6004 31.0996H11.4004V35.2996H15.6004V31.0996Z" fill="#212C30"/>
<path d="M9.89922 31.0996H5.69922V35.2996H9.89922V31.0996Z" fill="#212C30"/>
<path d="M28.6992 23.9C29.9992 23.1 31.3992 22.5 32.8992 22.1V20H28.6992V23.9Z" fill="#212C30"/>
<path d="M27.1004 20H22.9004V24.2H27.1004V20Z" fill="#212C30"/>
<path d="M21.3992 20H17.1992V24.2H21.3992V20Z" fill="#212C30"/>
<path d="M15.6004 20H11.4004V24.2H15.6004V20Z" fill="#212C30"/>
<path d="M9.89922 20H5.69922V24.2H9.89922V20Z" fill="#212C30"/>
<path d="M32.8992 14.4004H28.6992V18.6004H32.8992V14.4004Z" fill="#212C30"/>
<path d="M27.1004 14.4004H22.9004V18.6004H27.1004V14.4004Z" fill="#212C30"/>
<path d="M21.3992 14.4004H17.1992V18.6004H21.3992V14.4004Z" fill="#212C30"/>
<path d="M15.6004 14.4004H11.4004V18.6004H15.6004V14.4004Z" fill="#212C30"/>
<path d="M26.3004 25.5996H22.9004V29.5996C23.8004 28.0996 25.0004 26.7996 26.3004 25.5996Z" fill="#212C30"/>
<path d="M21.3992 25.5996H17.1992V29.7996H21.3992V25.5996Z" fill="#212C30"/>
<path d="M15.6004 25.5996H11.4004V29.7996H15.6004V25.5996Z" fill="#212C30"/>
<path d="M9.89922 25.5996H5.69922V29.7996H9.89922V25.5996Z" fill="#212C30"/>
<path d="M48.1 27.5C45.2 24.6 41.4 23 37.3 23C33.2 23 29.4 24.6 26.5 27.5C23.6 30.4 22 34.2 22 38.3C22 42.4 23.6 46.2 26.5 49.1C29.4 52 33.2 53.6 37.3 53.6C41.4 53.6 45.2 52 48.1 49.1C51 46.2 52.6 42.4 52.6 38.3C52.6 34.2 51 30.4 48.1 27.5ZM37.4 51.2C30.2 51.2 24.4 45.4 24.4 38.2C24.4 31 30.2 25.2 37.4 25.2C44.6 25.2 50.4 31 50.4 38.2C50.4 45.4 44.5 51.2 37.4 51.2Z" fill="#212C30"/>
<path d="M38.4992 36.7998C38.4992 33.9998 38.3992 30.3998 37.6992 26.9998C37.6992 26.8998 37.5992 26.7998 37.3992 26.7998C37.2992 26.7998 37.1992 26.8998 37.0992 26.9998C36.3992 30.2998 36.2992 33.7998 36.2992 36.7998C35.8992 37.0998 35.6992 37.4998 35.5992 37.9998C33.1992 39.2998 31.3992 40.4998 29.7992 41.7998C29.6992 41.8998 29.6992 41.9998 29.6992 42.0998C29.6992 42.1998 29.7992 42.1998 29.8992 42.1998C29.8992 42.1998 29.8992 42.1998 29.9992 42.1998C32.3992 41.5998 34.5992 40.5998 36.4992 39.6998C36.7992 39.8998 37.0992 39.8998 37.4992 39.8998C38.3992 39.7998 39.0992 39.0998 39.0992 38.2998C39.1992 37.7998 38.8992 37.1998 38.4992 36.7998Z" fill="#212C30"/>
</svg>
