<svg width="40" height="54" viewBox="0 0 40 54" fill="none" xmlns="http://www.w3.org/2000/svg">
<path d="M27 30.6V46.8H1.8V7.2H27V13H28.8V3.3C28.8 1.5 27.3 0 25.5 0H3.3C1.5 0 0 1.5 0 3.3V50.3C0 52.1 1.5 53.6 3.3 53.6H25.6C27.4 53.6 28.9 52.1 28.9 50.3V30.6H27ZM10.3 2.7C10.3 2.2 10.7 1.8 11.2 1.8H17.6C18.1 1.8 18.5 2.2 18.5 2.7C18.5 3.2 18.1 3.6 17.6 3.6H11.2C10.7 3.6 10.3 3.2 10.3 2.7ZM14.6 52C13.5 52.1 12.6 51.1 12.6 50C12.6 49.1 13.4 48.3 14.4 48.2C15.5 48.1 16.4 49.1 16.4 50.2C16.3 51.2 15.5 52 14.6 52Z" fill="#212C30"/>
<path d="M19.1996 35.6998V29.1998C17.4996 29.0998 16.0996 27.5998 16.0996 25.7998V17.6998C16.0996 15.7998 17.5996 14.2998 19.4996 14.2998H36.4996C38.3996 14.2998 39.8996 15.7998 39.8996 17.6998V25.7998C39.8996 27.6998 38.3996 29.1998 36.4996 29.1998H26.2996L19.1996 35.6998ZM19.3996 15.8998C18.3996 15.8998 17.5996 16.6998 17.5996 17.6998V25.7998C17.5996 26.7998 18.3996 27.5998 19.3996 27.5998H20.6996V32.0998L25.5996 27.5998H36.3996C37.3996 27.5998 38.1996 26.7998 38.1996 25.7998V17.6998C38.1996 16.6998 37.3996 15.8998 36.3996 15.8998H19.3996Z" fill="#212C30"/>
</svg>
