<svg width="18" height="17" viewBox="0 0 18 17" fill="none" xmlns="http://www.w3.org/2000/svg">
<path d="M17.4062 8.42639C17.4062 3.74954 13.6567 0 9.02014 0C4.38361 0 0.59375 3.74954 0.59375 8.42639C0.59375 12.821 3.98043 16.4496 8.29442 16.8125C8.09283 16.8125 7.89125 16.7721 7.68966 16.7318V10.9664H5.47219V8.42639H7.68966C7.68966 8.30544 7.68966 7.82163 7.68966 6.32987C7.68966 4.03177 9.383 3.1851 10.8344 3.1851C12.0843 3.1851 12.931 3.26573 12.931 3.26573V5.56384C12.931 5.56384 12.5681 5.56384 11.6005 5.56384C10.6328 5.56384 10.3506 6.04765 10.3506 6.81368C10.3506 7.62004 10.3506 8.38607 10.3506 8.38607H12.931L12.5278 10.9261H10.3506V16.6915C10.149 16.7318 9.94745 16.7318 9.74586 16.7721C14.0195 16.4496 17.4062 12.821 17.4062 8.42639Z" fill="white"/>
</svg>
