<svg width="54" height="59" viewBox="0 0 54 59" fill="none" xmlns="http://www.w3.org/2000/svg">
<path d="M24.2354 9.04004C12.9554 9.04004 3.77539 18.22 3.77539 29.5C3.77539 40.78 12.9554 49.96 24.2354 49.96C35.5154 49.96 44.6954 40.79 44.6954 29.51C44.6954 18.23 35.5154 9.04004 24.2354 9.04004ZM24.2354 47.97C14.0354 47.97 5.77539 39.7 5.77539 29.51C5.77539 19.32 14.0454 11.05 24.2354 11.05C34.4254 11.05 42.6954 19.31 42.6954 29.51C42.6954 39.71 34.4254 47.97 24.2354 47.97Z" fill="#2B2B2D"/>
<path d="M20.2159 1.29005C23.8159 0.780047 27.5659 0.970047 31.0859 1.84005C31.1259 1.85005 31.1659 1.85005 31.2059 1.85005C31.4259 1.85005 31.6359 1.70005 31.6859 1.47005C31.7559 1.20005 31.5859 0.930047 31.3159 0.860047C27.6659 -0.0399526 23.7959 -0.239953 20.0659 0.290047C19.7959 0.330047 19.6059 0.580047 19.6359 0.860047C19.6859 1.14005 19.9459 1.32005 20.2159 1.29005Z" fill="#2B2B2D"/>
<path d="M33.7162 2.62007C42.4862 5.72007 49.2062 12.9101 51.6962 21.8601C51.7562 22.0801 51.9562 22.2301 52.1762 22.2301C52.2162 22.2301 52.2662 22.2201 52.3062 22.2101C52.5762 22.1401 52.7262 21.8601 52.6562 21.5901C50.0762 12.3201 43.1262 4.88007 34.0462 1.68007C33.7862 1.59007 33.4962 1.72007 33.4062 1.99007C33.3162 2.25007 33.4562 2.53007 33.7162 2.62007Z" fill="#2B2B2D"/>
<path d="M28.3869 57.7101C24.7869 58.2301 21.0369 58.0701 17.5169 57.2101C17.2569 57.1501 16.9769 57.3101 16.9169 57.5801C16.8569 57.8501 17.0169 58.1201 17.2869 58.1801C19.5469 58.7301 21.8869 59.0001 24.2369 59.0001C25.6769 59.0001 27.1169 58.9001 28.5369 58.6901C28.8069 58.6501 28.9969 58.4001 28.9569 58.1201C28.9169 57.8601 28.6569 57.6701 28.3869 57.7101Z" fill="#2B2B2D"/>
<path d="M53.4359 25.2901C53.3959 25.0201 53.1459 24.8301 52.8659 24.8701C52.5959 24.9101 52.4059 25.1601 52.4459 25.4401C52.6359 26.7801 52.7359 28.1501 52.7359 29.5201C52.7359 31.8201 52.4659 34.1001 51.9259 36.3101C51.8559 36.5801 52.0259 36.8501 52.2959 36.9101C52.3359 36.9201 52.3759 36.9201 52.4159 36.9201C52.6459 36.9201 52.8459 36.7701 52.9059 36.5401C53.4659 34.2501 53.7459 31.8901 53.7459 29.5101C53.7359 28.1001 53.6259 26.6801 53.4359 25.2901Z" fill="#2B2B2D"/>
<path d="M51.7753 38.6101C51.5153 38.5201 51.2253 38.6601 51.1353 38.9201C48.0653 47.7001 40.8953 54.4401 31.9453 56.9501C31.6753 57.0201 31.5253 57.3001 31.5953 57.5701C31.6553 57.7901 31.8553 57.9401 32.0753 57.9401C32.1153 57.9401 32.1653 57.9301 32.2153 57.9201C41.4753 55.3201 48.9053 48.3401 52.0753 39.2601C52.1753 38.9901 52.0353 38.7001 51.7753 38.6101Z" fill="#2B2B2D"/>
<path d="M14.8355 56.4201C10.1855 54.8001 6.01547 51.9701 2.75547 48.2401C2.57547 48.0301 2.25547 48.0101 2.04547 48.1901C1.83547 48.3701 1.81547 48.6901 1.99547 48.9001C5.36547 52.7601 9.68547 55.6801 14.4955 57.3601C14.5455 57.3801 14.6055 57.3901 14.6655 57.3901C14.8755 57.3901 15.0655 57.2601 15.1355 57.0601C15.2255 56.8001 15.0955 56.5101 14.8355 56.4201Z" fill="#2B2B2D"/>
<path d="M24.2363 17.95C24.3763 17.95 24.4863 17.84 24.4863 17.7V14C24.4863 13.86 24.3763 13.75 24.2363 13.75C24.0963 13.75 23.9863 13.86 23.9863 14V17.7C23.9863 17.84 24.0963 17.95 24.2363 17.95Z" fill="#2B2B2D"/>
<path d="M24.2363 41.0601C24.0963 41.0601 23.9863 41.1701 23.9863 41.3101V45.0101C23.9863 45.1501 24.0963 45.2601 24.2363 45.2601C24.3763 45.2601 24.4863 45.1501 24.4863 45.0101V41.3101C24.4863 41.1801 24.3663 41.0601 24.2363 41.0601Z" fill="#2B2B2D"/>
<path d="M35.7852 29.51C35.7852 29.65 35.8952 29.76 36.0352 29.76H39.7352C39.8752 29.76 39.9852 29.65 39.9852 29.51C39.9852 29.37 39.8752 29.26 39.7352 29.26H36.0352C35.8952 29.26 35.7852 29.37 35.7852 29.51Z" fill="#2B2B2D"/>
<path d="M12.4266 29.26H8.72656C8.58656 29.26 8.47656 29.37 8.47656 29.51C8.47656 29.65 8.58656 29.76 8.72656 29.76H12.4266C12.5666 29.76 12.6766 29.65 12.6766 29.51C12.6766 29.37 12.5666 29.26 12.4266 29.26Z" fill="#2B2B2D"/>
<path d="M31.0363 21.4601L25.2963 27.6301C24.9763 27.4501 24.6163 27.3401 24.2263 27.3401C23.7663 27.3401 23.3363 27.4901 22.9863 27.7301L14.0263 19.6901C13.8263 19.5101 13.5063 19.5201 13.3163 19.7301C13.1363 19.9401 13.1463 20.2501 13.3563 20.4401L22.3163 28.4901C22.1463 28.8001 22.0463 29.1501 22.0463 29.5201C22.0463 30.7201 23.0163 31.6901 24.2163 31.6901C25.4163 31.6901 26.3863 30.7201 26.3863 29.5201C26.3863 29.0701 26.2463 28.6601 26.0163 28.3101L31.7463 22.1501C31.9363 21.9501 31.9263 21.6301 31.7163 21.4401C31.5463 21.2401 31.2263 21.2601 31.0363 21.4601Z" fill="#2B2B2D"/>
<path d="M6.75608 10.8201C6.77608 10.7301 6.74608 10.6501 6.67608 10.5901L4.68608 8.7901C8.06608 5.6001 12.1861 3.2601 16.6461 2.0301C16.9061 1.9601 17.0661 1.6801 16.9961 1.4101C16.9261 1.1401 16.6461 0.9901 16.3861 1.0601C11.7261 2.3501 7.44608 4.7901 3.93608 8.1201L2.08608 6.4501C2.03608 6.4001 1.97608 6.3801 1.91608 6.3801C1.89608 6.3801 1.86608 6.3801 1.84608 6.3901C1.75608 6.4201 1.69608 6.4801 1.67608 6.5701L0.0960825 12.7001L0.0060825 13.0501C-0.0139175 13.1401 0.0160825 13.2401 0.0860825 13.3001C0.136083 13.3401 0.196083 13.3601 0.256083 13.3601C0.286083 13.3601 0.316083 13.3501 0.346083 13.3401L0.676082 13.2201L6.59608 11.0101C6.67608 10.9801 6.73608 10.9101 6.75608 10.8201Z" fill="#2B2B2D"/>
</svg>
