<svg width="41" height="41" viewBox="0 0 41 41" fill="none" xmlns="http://www.w3.org/2000/svg">
<path d="M16.2305 11H24.5505C25.6505 11 26.5505 10.1 26.5505 9V2C26.5505 0.9 25.6505 0 24.5505 0H16.2305C15.1305 0 14.2305 0.9 14.2305 2V9C14.2305 10.11 15.1305 11 16.2305 11ZM16.2305 2H24.5505V9H16.2305V2Z" fill="#2B2B2D"/>
<path d="M24.5505 29.8H16.2305C15.1305 29.8 14.2305 30.7 14.2305 31.8V38.8C14.2305 39.9 15.1305 40.8 16.2305 40.8H24.5505C25.6505 40.8 26.5505 39.9 26.5505 38.8V31.8C26.5505 30.7 25.6605 29.8 24.5505 29.8ZM24.5505 38.8H16.2305V31.8H24.5505V38.8Z" fill="#2B2B2D"/>
<path d="M38.9294 29.8H30.6094C29.5094 29.8 28.6094 30.7 28.6094 31.8V38.8C28.6094 39.9 29.5094 40.8 30.6094 40.8H38.9294C40.0294 40.8 40.9294 39.9 40.9294 38.8V31.8C40.9294 30.7 40.0394 29.8 38.9294 29.8ZM38.9294 38.8H30.6094V31.8H38.9294V38.8Z" fill="#2B2B2D"/>
<path d="M10.32 29.8H2C0.9 29.8 0 30.7 0 31.8V38.8C0 39.9 0.9 40.8 2 40.8H10.32C11.42 40.8 12.32 39.9 12.32 38.8V31.8C12.32 30.7 11.43 29.8 10.32 29.8ZM10.32 38.8H2V31.8H10.32V38.8Z" fill="#2B2B2D"/>
<path d="M6.66016 20.9H19.8902V28.14H20.8902V20.9H33.9602V28.14H34.9602V19.9H20.8902V12.59H19.8902V19.9H5.66016V27.95H6.66016V20.9Z" fill="#2B2B2D"/>
</svg>
