<svg width="42" height="26" viewBox="0 0 42 26" fill="none" xmlns="http://www.w3.org/2000/svg">
<path d="M9.91609 11.135L9.30609 7.585C9.28609 7.465 9.32609 7.355 9.40609 7.265L11.9861 4.755C12.1961 4.545 12.0761 4.185 11.7861 4.145L8.2261 3.625C8.1061 3.605 8.0061 3.535 7.9561 3.425L6.3661 0.195C6.2361 -0.065 5.8561 -0.065 5.7261 0.195L4.13609 3.425C4.08609 3.535 3.9861 3.605 3.8661 3.625L0.306088 4.145C0.0160882 4.185 -0.103909 4.545 0.106091 4.755L2.68609 7.265C2.76609 7.345 2.8061 7.465 2.7861 7.585L2.1761 11.135C2.1261 11.425 2.43609 11.645 2.69609 11.515L5.88609 9.835C5.98609 9.785 6.11609 9.785 6.21609 9.835L9.40609 11.515C9.65609 11.655 9.96609 11.425 9.91609 11.135Z" fill="#2B2B2D"/>
<path d="M24.377 11.135L23.767 7.585C23.747 7.465 23.787 7.355 23.867 7.265L26.447 4.755C26.657 4.545 26.537 4.185 26.247 4.145L22.687 3.625C22.567 3.605 22.467 3.535 22.417 3.425L20.827 0.195C20.697 -0.065 20.317 -0.065 20.187 0.195L18.597 3.425C18.547 3.535 18.447 3.605 18.327 3.625L14.767 4.145C14.477 4.185 14.357 4.545 14.567 4.755L17.147 7.265C17.227 7.345 17.267 7.465 17.247 7.585L16.637 11.135C16.587 11.425 16.897 11.645 17.157 11.515L20.347 9.835C20.447 9.785 20.577 9.785 20.677 9.835L23.867 11.515C24.117 11.655 24.427 11.425 24.377 11.135Z" fill="#2B2B2D"/>
<path d="M40.8963 4.76501C41.1063 4.55501 40.9862 4.19501 40.6962 4.15501L37.1362 3.63501C37.0162 3.61501 36.9163 3.54501 36.8663 3.43501L35.2762 0.20501C35.1462 -0.0549902 34.7662 -0.0549902 34.6362 0.20501L33.0462 3.43501C32.9962 3.54501 32.8962 3.61501 32.7762 3.63501L29.2162 4.15501C28.9262 4.19501 28.8062 4.55501 29.0162 4.76501L31.5962 7.27501C31.6762 7.35501 31.7162 7.47501 31.6962 7.59501L31.0863 11.145C31.0363 11.435 31.3462 11.655 31.6062 11.525L34.7962 9.84501C34.8962 9.79501 35.0262 9.79501 35.1262 9.84501L38.3163 11.525C38.5763 11.665 38.8863 11.445 38.8363 11.145L38.2263 7.59501C38.2063 7.47501 38.2462 7.36501 38.3262 7.27501L40.8963 4.76501Z" fill="#2B2B2D"/>
<path d="M19.0166 18.425L15.4566 17.905C15.3366 17.885 15.2366 17.815 15.1866 17.705L13.5966 14.475C13.4666 14.215 13.0866 14.215 12.9566 14.475L11.3666 17.705C11.3166 17.815 11.2166 17.885 11.0966 17.905L7.53656 18.425C7.24656 18.465 7.12656 18.825 7.33656 19.035L9.91655 21.545C9.99655 21.625 10.0366 21.745 10.0166 21.865L9.40655 25.415C9.35655 25.705 9.66656 25.925 9.92656 25.795L13.1166 24.115C13.2166 24.065 13.3465 24.065 13.4465 24.115L16.6365 25.795C16.8965 25.935 17.2066 25.715 17.1566 25.415L16.5466 21.865C16.5266 21.745 16.5666 21.635 16.6466 21.545L19.2266 19.035C19.4266 18.825 19.3066 18.465 19.0166 18.425Z" fill="#2B2B2D"/>
<path d="M33.4756 18.425L29.9155 17.905C29.7955 17.885 29.6955 17.815 29.6456 17.705L28.0555 14.475C27.9255 14.215 27.5455 14.215 27.4155 14.475L25.8255 17.705C25.7755 17.815 25.6755 17.885 25.5555 17.905L21.9955 18.425C21.7055 18.465 21.5855 18.825 21.7955 19.035L24.3755 21.545C24.4555 21.625 24.4956 21.745 24.4756 21.865L23.8656 25.415C23.8156 25.705 24.1255 25.925 24.3855 25.795L27.5755 24.115C27.6755 24.065 27.8055 24.065 27.9055 24.115L31.0955 25.795C31.3555 25.935 31.6656 25.715 31.6156 25.415L31.0056 21.865C30.9856 21.745 31.0255 21.635 31.1055 21.545L33.6855 19.035C33.8855 18.825 33.7656 18.465 33.4756 18.425Z" fill="#2B2B2D"/>
</svg>
