<svg width="49" height="43" viewBox="0 0 49 43" fill="none" xmlns="http://www.w3.org/2000/svg">
<path d="M13.2265 2L22.2365 6.59H26.6465L14.1365 0.219999C13.8565 0.0799993 13.5465 0 13.2265 0C13.0165 0 12.8065 0.0299994 12.6065 0.0999994C12.1065 0.259999 11.6865 0.62 11.4465 1.09L8.64648 6.58H10.8865L13.2265 2Z" fill="#2B2B2D"/>
<path d="M34.9065 40.81L30.0565 38.34H25.6465L33.9965 42.59C34.2865 42.74 34.5965 42.81 34.9065 42.81C35.6365 42.81 36.3365 42.41 36.6865 41.72L38.4065 38.35H36.1665L34.9065 40.81Z" fill="#2B2B2D"/>
<path d="M48.0371 18.12C47.8771 17.62 47.5171 17.2 47.0471 16.96L46.0371 16.44V18.68L46.1471 18.73L46.0371 18.94V23.35L47.9271 19.64C48.1571 19.18 48.2071 18.63 48.0371 18.12Z" fill="#2B2B2D"/>
<path d="M0.0966441 24.68C0.256644 25.18 0.616665 25.6 1.08666 25.84L2.09664 26.36V24.12L1.98666 24.07L2.09664 23.86V19.45L0.20666 23.16C-0.02334 23.63 -0.0633559 24.17 0.0966441 24.68Z" fill="#2B2B2D"/>
<path d="M42.5372 8.08002H5.61719C4.51719 8.08002 3.61719 8.98002 3.61719 10.08V34.83C3.61719 35.93 4.51719 36.83 5.61719 36.83H42.5372C43.6372 36.83 44.5372 35.93 44.5372 34.83V10.08C44.5372 8.98002 43.6372 8.08002 42.5372 8.08002ZM42.5372 34.84H5.61719V10.08H42.5372V34.84Z" fill="#2B2B2D"/>
<path d="M38.8169 18.25H23.7969V18.75H38.8169V18.25Z" fill="#2B2B2D"/>
<path d="M38.8169 22.21H23.7969V22.71H38.8169V22.21Z" fill="#2B2B2D"/>
<path d="M38.8169 26.17H23.7969V26.67H38.8169V26.17Z" fill="#2B2B2D"/>
<path d="M14.7764 21.34C16.5464 21.34 17.9864 19.9 17.9864 18.13C17.9864 16.36 16.5464 14.92 14.7764 14.92C13.0064 14.92 11.5664 16.36 11.5664 18.13C11.5664 19.9 13.0064 21.34 14.7764 21.34Z" fill="#2B2B2D"/>
<path d="M14.7771 30.3C16.8071 30.3 19.207 30.11 20.537 29.42C21.107 29.12 19.997 25.71 19.347 24.78C18.357 23.36 17.2871 22.19 14.7771 22.19C12.2671 22.19 11.1971 23.36 10.2071 24.78C9.55706 25.71 8.44706 29.12 9.01706 29.42C10.3471 30.11 12.7471 30.3 14.7771 30.3Z" fill="#2B2B2D"/>
</svg>
