<svg width="41" height="57" viewBox="0 0 41 57" fill="none" xmlns="http://www.w3.org/2000/svg">
<path d="M38.88 0H2C0.9 0 0 0.9 0 2V54.24C0 55.34 0.9 56.24 2 56.24H38.88C39.98 56.24 40.88 55.34 40.88 54.24V2C40.88 0.89 39.99 0 38.88 0ZM38.88 54.24H2V2H38.88V54.24Z" fill="#2B2B2D"/>
<path d="M34.4392 10.86H6.44922V11.36H34.4392V10.86Z" fill="#2B2B2D"/>
<path d="M34.4392 15.44H6.44922V15.94H34.4392V15.44Z" fill="#2B2B2D"/>
<path d="M34.4392 20.02H6.44922V20.52H34.4392V20.02Z" fill="#2B2B2D"/>
<path d="M34.4392 24.8H6.44922V25.3H34.4392V24.8Z" fill="#2B2B2D"/>
<path d="M34.4392 29.58H6.44922V30.08H34.4392V29.58Z" fill="#2B2B2D"/>
<path d="M19.1492 38.8H6.44922V39.3H19.1492V38.8Z" fill="#2B2B2D"/>
<path d="M28.6091 37.99C24.9891 37.99 22.0391 40.94 22.0391 44.56C22.0391 48.18 24.9891 51.13 28.6091 51.13C32.2391 51.13 35.1791 48.18 35.1791 44.56C35.1791 40.94 32.2391 37.99 28.6091 37.99ZM28.6091 50.39C25.3891 50.39 22.7891 47.78 22.7891 44.57C22.7891 41.36 25.3991 38.75 28.6091 38.75C31.8291 38.75 34.4291 41.36 34.4291 44.57C34.4291 47.78 31.8291 50.39 28.6091 50.39Z" fill="#2B2B2D"/>
<path d="M31.2804 42.51L28.2404 45.55L26.5104 43.82C26.3104 43.62 26.0004 43.62 25.8004 43.82C25.6004 44.02 25.6004 44.33 25.8004 44.53L27.8804 46.61C27.9704 46.7 28.1004 46.76 28.2304 46.76C28.3604 46.76 28.4904 46.71 28.5804 46.61L31.9804 43.21C32.1804 43.01 32.1804 42.7 31.9804 42.5C31.7804 42.3 31.4704 42.31 31.2804 42.51Z" fill="#2B2B2D"/>
</svg>
