<svg width="59" height="50" viewBox="0 0 59 50" fill="none" xmlns="http://www.w3.org/2000/svg">
<path d="M49.843 11.86V1.45H44.173V7.81L33.243 0L17.543 11.25C17.843 11.41 18.133 11.6 18.383 11.85C18.973 12.45 19.593 12.92 20.263 13.28L33.243 4.02L57.093 21.03L58.953 18.37L49.843 11.86Z" fill="#2B2B2D"/>
<path d="M33.2528 6.28998L22.3828 14.04C22.9928 14.16 23.6328 14.23 24.3328 14.23C25.5628 14.23 26.9928 14.04 28.5628 13.67C28.8328 13.61 29.1028 13.58 29.3728 13.58C30.1028 13.58 30.8128 13.81 31.4128 14.24C32.2328 14.83 32.7628 15.75 32.8528 16.76L32.9128 17.39C33.0228 18.5 33.1728 20.05 33.2428 21.87H34.1028H39.5828V31.92H36.5228H32.5628C32.4628 32.43 32.3528 32.93 32.2228 33.44C31.5628 36.07 30.5828 38.47 29.3128 40.6H42.0528H50.5528V18.63L33.2528 6.28998Z" fill="#2B2B2D"/>
<path d="M31.4321 17.53L31.3721 16.89C31.3221 16.31 31.0221 15.79 30.5521 15.45C30.2121 15.2 29.8021 15.07 29.3821 15.07C29.2321 15.07 29.0721 15.09 28.9221 15.12C27.2121 15.53 25.7121 15.72 24.3421 15.72C21.4721 15.72 19.2421 14.82 17.3221 12.9C16.9421 12.52 16.4321 12.31 15.9021 12.31C15.3721 12.31 14.8621 12.52 14.4821 12.9C12.5721 14.82 10.3421 15.72 7.46208 15.72C6.09208 15.72 4.59209 15.52 2.88209 15.12C2.73209 15.08 2.5721 15.07 2.4221 15.07C2.0021 15.07 1.60209 15.2 1.25209 15.45C0.782088 15.79 0.482081 16.31 0.432081 16.89L0.372083 17.55C-0.237917 23.78 -2.08791 42.75 15.1921 49.18C15.4221 49.26 15.6521 49.31 15.8921 49.31C16.1321 49.31 16.3621 49.27 16.5921 49.18C33.8821 42.75 32.0321 23.77 31.4321 17.53ZM15.8821 47.32C-0.587906 41.19 1.9321 22.44 2.4221 17.08C4.2521 17.51 5.92208 17.74 7.46208 17.74C10.8521 17.74 13.5921 16.65 15.9021 14.33C18.2121 16.65 20.9421 17.74 24.3421 17.74C25.8821 17.74 27.5521 17.52 29.3821 17.08C29.8721 22.43 32.3521 41.18 15.8821 47.32Z" fill="#2B2B2D"/>
<path d="M21.143 30.93C20.833 30.6 20.543 30.32 20.283 30.1C20.013 29.88 19.613 29.66 19.093 29.44C18.563 29.22 18.153 29.06 17.863 28.96C17.573 28.86 17.113 28.7 16.483 28.5C15.223 28.11 14.353 27.73 13.873 27.38C13.393 27.03 13.153 26.54 13.153 25.93C13.153 25.3 13.393 24.8 13.863 24.43C14.333 24.06 14.963 23.87 15.753 23.87C17.253 23.87 18.353 24.53 19.063 25.85C19.163 26.03 19.383 26.1 19.553 26L21.223 25.03C21.383 24.94 21.453 24.73 21.363 24.56C20.843 23.57 20.123 22.78 19.223 22.19C18.583 21.78 17.883 21.51 17.113 21.36V19.73C17.113 19.54 16.953 19.38 16.763 19.38H14.983C14.783 19.38 14.633 19.54 14.633 19.73V21.31C13.643 21.48 12.763 21.87 12.003 22.5C10.963 23.36 10.443 24.52 10.443 25.99C10.443 26.73 10.573 27.38 10.843 27.93C11.113 28.48 11.513 28.94 12.063 29.31C12.603 29.68 13.123 29.97 13.613 30.17C14.103 30.37 14.743 30.59 15.523 30.83C16.923 31.26 17.903 31.65 18.453 32C19.003 32.35 19.283 32.87 19.283 33.55C19.283 34.2 19.023 34.72 18.513 35.12C18.003 35.52 17.233 35.72 16.213 35.72C14.283 35.72 12.963 34.92 12.253 33.31C12.163 33.11 11.933 33.03 11.753 33.14L10.023 34.15C9.87297 34.24 9.80298 34.43 9.87298 34.59C10.323 35.72 11.073 36.62 12.093 37.28C12.833 37.76 13.693 38.07 14.643 38.23V39.62C14.643 39.81 14.803 39.97 14.993 39.97H16.773C16.963 39.97 17.123 39.81 17.123 39.62V38.31C18.423 38.17 19.513 37.76 20.383 37.06C21.463 36.18 22.003 35 22.003 33.5C22.003 32.96 21.943 32.48 21.813 32.06C21.663 31.64 21.453 31.26 21.143 30.93Z" fill="#2B2B2D"/>
</svg>
