<svg width="48" height="41" viewBox="0 0 48 41" fill="none" xmlns="http://www.w3.org/2000/svg">
<path d="M23.6284 2C30.4384 2 36.3684 5.69 39.5684 11.18L41.6483 10.78C38.1883 4.37 31.4084 0 23.6284 0C13.1484 0 4.49836 7.92 3.31836 18.09L5.39832 17.69C6.73832 8.82 14.3784 2 23.6284 2Z" fill="#2B2B2D"/>
<path d="M23.6274 38.93C17.2974 38.93 11.7074 35.74 8.37738 30.88L6.27734 31.28C9.89734 37.07 16.3074 40.93 23.6174 40.93C33.6474 40.93 41.9974 33.67 43.7374 24.13L41.6174 24.53C39.7674 32.78 32.4274 38.93 23.6274 38.93Z" fill="#2B2B2D"/>
<path d="M45.4583 12.09C45.4083 11.85 45.1983 11.68 44.9683 11.68C44.9383 11.68 44.9083 11.68 44.8783 11.69L0.408306 20.17C0.138306 20.22 -0.0416572 20.48 0.00834281 20.75L1.78831 30.09C1.80831 30.22 1.88833 30.34 1.99833 30.41C2.07833 30.47 2.1783 30.5 2.2783 30.5C2.3083 30.5 2.33833 30.5 2.36833 30.49L46.8383 22.01C46.9683 21.99 47.0883 21.91 47.1583 21.8C47.2283 21.69 47.2583 21.56 47.2383 21.43L45.4583 12.09ZM9.70829 26.56L8.74833 26.74L6.97831 23.25L6.60832 27.15L5.6483 27.33L3.24833 22.54L4.12834 22.37L5.94835 26.12L6.34831 21.95L7.11833 21.8L9.01829 25.54L9.32829 21.38L10.2083 21.21L9.70829 26.56ZM15.1583 25.52L14.6083 24.57L12.4583 24.98L12.2983 26.07L11.3983 26.24L12.2683 20.83L13.2683 20.64L16.0583 25.35L15.1583 25.52ZM19.8483 24.62L18.4283 22.98L17.4483 23.17L17.7983 25.01L16.9683 25.17L16.0083 20.11L18.0283 19.72C18.4783 19.63 18.8983 19.72 19.2683 19.97C19.6483 20.22 19.8783 20.58 19.9583 21.03C20.0183 21.35 19.9783 21.67 19.8483 21.97C19.7183 22.27 19.5083 22.51 19.2283 22.69L20.7483 24.44L19.8483 24.62ZM24.6383 23.71L23.2183 22.07L22.2383 22.26L22.5883 24.1L21.7583 24.26L20.7983 19.2L22.8183 18.81C23.2683 18.72 23.6883 18.81 24.0583 19.06C24.4283 19.31 24.6683 19.67 24.7483 20.12C24.8083 20.44 24.7683 20.76 24.6383 21.06C24.4983 21.36 24.2983 21.6 24.0183 21.78L25.5483 23.53L24.6383 23.71ZM29.8483 22.72L29.2983 21.77L27.1483 22.18L26.9883 23.27L26.0883 23.44L26.9583 18.03L27.9583 17.84L30.7483 22.55L29.8483 22.72ZM34.8583 21.76L31.8183 18.78L32.4683 22.21L31.6383 22.37L30.6783 17.31L31.3283 17.19L34.3683 20.17L33.7083 16.74L34.5383 16.58L35.4983 21.64L34.8583 21.76ZM38.7483 21.02L37.9183 21.18L37.1083 16.91L35.6783 17.18L35.5283 16.39L39.2183 15.69L39.3683 16.48L37.9483 16.75L38.7483 21.02ZM43.2783 20.15L42.4483 20.31L42.0683 18.3L39.7183 15.59L40.6683 15.41L42.3283 17.42L43.1283 14.94L44.0783 14.76L42.8983 18.15L43.2783 20.15Z" fill="#2B2B2D"/>
<path d="M27.2676 21.34L28.8676 21.04L27.6376 18.91L27.2676 21.34Z" fill="#2B2B2D"/>
<path d="M18.7785 20.65C18.5885 20.52 18.3885 20.47 18.1685 20.51L16.9785 20.74L17.2985 22.43L18.4885 22.2C18.7085 22.16 18.8785 22.04 19.0085 21.85C19.1285 21.66 19.1685 21.44 19.1285 21.21C19.0785 20.97 18.9685 20.78 18.7785 20.65Z" fill="#2B2B2D"/>
<path d="M23.5676 19.73C23.3776 19.6 23.1776 19.55 22.9576 19.59L21.7676 19.82L22.0876 21.51L23.2776 21.28C23.4976 21.24 23.6676 21.12 23.7976 20.93C23.9176 20.74 23.9576 20.52 23.9176 20.29C23.8776 20.05 23.7576 19.87 23.5676 19.73Z" fill="#2B2B2D"/>
<path d="M12.5879 24.14L14.1879 23.84L12.9479 21.71L12.5879 24.14Z" fill="#2B2B2D"/>
<path d="M35.809 25.65L14.209 29.77C16.609 32.2 19.939 33.71 23.619 33.71C29.099 33.7 33.799 30.38 35.809 25.65Z" fill="#2B2B2D"/>
<path d="M10.959 16.64L33.989 12.25C31.569 9.2 27.829 7.24 23.629 7.24C17.659 7.23 12.609 11.2 10.959 16.64Z" fill="#2B2B2D"/>
</svg>
