<svg width="42" height="55" viewBox="0 0 42 55" fill="none" xmlns="http://www.w3.org/2000/svg">
<path d="M30.3693 40.1205C30.0493 40.1205 29.7293 40.0605 29.4493 39.9605L25.4693 38.5905L23.0293 41.3705L27.1293 54.2005C27.2693 54.6105 27.8693 54.7406 28.1493 54.4006L31.1293 50.6105C31.2693 50.4105 31.5393 50.3405 31.7393 50.4105L36.3393 51.7605C36.8093 51.9005 37.2193 51.4905 37.0193 51.0205L32.9093 38.3105C32.5293 39.3805 31.5193 40.1205 30.3693 40.1205Z" fill="#2B2B2D"/>
<path d="M11.789 39.9601L11.739 39.9801L11.689 39.9901C11.429 40.0601 11.169 40.0901 10.909 40.0901C9.81903 40.0901 8.88903 39.4901 8.43903 38.5801L4.37904 50.9601C4.10904 51.4301 4.51904 51.8401 4.98904 51.7001L9.58903 50.3501C9.78903 50.2801 10.059 50.3501 10.199 50.5501L13.179 54.3401C13.449 54.6801 14.059 54.6101 14.199 54.1401L18.279 41.4601L15.759 38.5901L11.789 39.9601Z" fill="#2B2B2D"/>
<path d="M40.81 19.64L37.57 16.8C37.16 16.46 37.03 15.92 37.23 15.45L38.65 11.33C38.79 10.96 38.73 10.59 38.56 10.29C38.38 9.99 38.08 9.78001 37.71 9.71001L33.39 8.9C32.92 8.83 32.51 8.43 32.44 7.95L31.63 3.63C31.6 3.49 31.55 3.37 31.49 3.26C31.48 3.24 31.47 3.22 31.45 3.2C31.38 3.1 31.3 3.01 31.21 2.93C31.19 2.92 31.17 2.90001 31.15 2.89001C31.05 2.82001 30.95 2.76 30.83 2.72C30.82 2.72 30.82 2.71001 30.81 2.71001C30.69 2.67001 30.56 2.65 30.43 2.65C30.4 2.65 30.37 2.65 30.35 2.65C30.24 2.65 30.12 2.67 30.01 2.7L25.82 4.05C25.7 4.08 25.58 4.10001 25.45 4.10001C25.45 4.10001 25.45 4.10001 25.44 4.10001C25.43 4.10001 25.43 4.10001 25.42 4.10001C25.27 4.10001 25.12 4.06 24.97 4.02C24.93 4.01 24.9 3.99 24.86 3.98C24.71 3.92 24.58 3.83 24.46 3.72L24.1 3.31001L21.55 0.410004C21.31 0.140004 20.98 0 20.63 0C20.28 0 19.93 0.140004 19.66 0.410004L16.76 3.72C16.66 3.85 16.53 3.93 16.39 4.01C16.35 4.03 16.31 4.04001 16.27 4.06001C16.16 4.10001 16.05 4.13001 15.93 4.14001C15.9 4.14001 15.88 4.16 15.85 4.16C15.84 4.16 15.83 4.15 15.81 4.15C15.67 4.15 15.53 4.12001 15.4 4.06001L11.28 2.64001C11.15 2.59001 11.02 2.58001 10.9 2.57001C10.87 2.57001 10.84 2.57001 10.82 2.57001C10.69 2.57001 10.57 2.59001 10.46 2.64001C10.44 2.65001 10.43 2.66 10.41 2.66C10.31 2.7 10.21 2.76 10.12 2.83C10.1 2.84 10.09 2.85 10.07 2.87C9.98001 2.95 9.9 3.04 9.84 3.15C9.83 3.17 9.81 3.2 9.8 3.22C9.74 3.33 9.69 3.46 9.66 3.59L8.85001 7.91C8.83001 8.03 8.80001 8.14 8.74001 8.25C8.63001 8.46 8.45001 8.64 8.24001 8.75C8.13001 8.8 8.02 8.84 7.9 8.86L3.58 9.67001C3.3 9.72001 3.07 9.86 2.9 10.05C2.79 10.18 2.7 10.33 2.65 10.49C2.62 10.57 2.6 10.66 2.59 10.75C2.57 10.93 2.58 11.11 2.63 11.3L4.05 15.42C4.15 15.77 4.1 16.17 3.93 16.48C3.87 16.59 3.8 16.68 3.72 16.77L0.410004 19.67C0.140004 19.91 0 20.24 0 20.59C0 20.94 0.140004 21.29 0.410004 21.56L3.72 24.46C3.73 24.47 3.74 24.48 3.75 24.49C3.88 24.6 3.97001 24.74 4.03001 24.89C4.11001 25.06 4.15001 25.23 4.14001 25.42C4.14001 25.43 4.14001 25.44 4.14001 25.45C4.13001 25.57 4.1 25.69 4.05 25.81L2.63 29.93C2.53 30.21 2.53 30.49 2.61 30.73C2.75 31.14 3.11001 31.46 3.57001 31.55L7.89001 32.36C8.36001 32.43 8.77 32.83 8.84 33.31L9.65 37.63C9.76 38.24 10.29 38.63 10.89 38.63C11.02 38.63 11.14 38.61 11.27 38.58L15.39 37.16C15.51 37.13 15.64 37.11 15.77 37.11C16.13 37.11 16.49 37.25 16.75 37.5L19.65 40.81C19.89 41.08 20.22 41.22 20.57 41.22C20.92 41.22 21.27 41.08 21.54 40.81L22.47 39.75L24.44 37.5C24.67 37.22 25 37.07 25.34 37.07C25.49 37.07 25.64 37.1 25.79 37.16L29.91 38.58C30.05 38.63 30.2 38.66 30.34 38.66C30.92 38.66 31.42 38.24 31.53 37.64L32.34 33.32C32.41 32.85 32.81 32.44 33.29 32.37L37.61 31.56C38.35 31.42 38.76 30.68 38.56 29.94L37.14 25.82C37.11 25.7 37.09 25.58 37.09 25.46C37.09 25.09 37.23 24.73 37.48 24.47L40.79 21.57C40.93 21.45 41.03 21.31 41.09 21.15C41.16 20.99 41.19 20.82 41.19 20.65C41.22 20.26 41.08 19.91 40.81 19.64ZM33.62 20.59C33.62 21.04 33.6 21.48 33.55 21.92C33.54 22.05 33.51 22.18 33.49 22.3C33.45 22.6 33.41 22.91 33.35 23.2C33.31 23.42 33.24 23.63 33.18 23.84C33.13 24.04 33.09 24.24 33.02 24.44C32.15 27.24 30.35 29.63 27.98 31.26C27.94 31.29 27.9 31.32 27.86 31.35C27.59 31.53 27.31 31.69 27.03 31.85C26.95 31.9 26.87 31.95 26.78 32C26.5 32.15 26.2 32.29 25.91 32.42C25.82 32.46 25.74 32.51 25.65 32.55C25.4 32.66 25.14 32.74 24.88 32.83C24.74 32.88 24.6 32.94 24.45 32.99C24.23 33.06 24 33.11 23.77 33.17C23.58 33.22 23.4 33.28 23.21 33.31C23 33.35 22.78 33.38 22.57 33.41C22.35 33.44 22.14 33.49 21.92 33.51C21.73 33.53 21.53 33.53 21.33 33.54C21.09 33.55 20.84 33.58 20.6 33.58C20.6 33.58 20.6 33.58 20.59 33.58C18.8 33.58 17.09 33.21 15.54 32.55C15.15 32.39 14.77 32.2 14.4 32C13.66 31.6 12.97 31.13 12.33 30.6C9.44 28.21 7.60001 24.6 7.60001 20.57C7.60001 20.12 7.62001 19.68 7.67001 19.24C8.20001 14.02 11.84 9.72 16.69 8.18C16.71 8.17 16.72 8.17 16.74 8.16C17.08 8.05 17.43 7.97001 17.78 7.89001C17.85 7.87001 17.92 7.85 17.99 7.84C18.3 7.78 18.61 7.74 18.92 7.7C19.04 7.68 19.16 7.66 19.28 7.65C19.54 7.62 19.81 7.62 20.08 7.61C20.25 7.6 20.43 7.58 20.6 7.58C20.6 7.58 20.6 7.58 20.61 7.58C21.51 7.58 22.38 7.67001 23.23 7.85001C24.08 8.02001 24.89 8.28 25.67 8.61C26.45 8.94 27.19 9.34 27.88 9.81001C28.57 10.28 29.22 10.81 29.8 11.4C30.98 12.58 31.93 13.98 32.59 15.53C33.25 17.08 33.62 18.8 33.62 20.59Z" fill="#2B2B2D"/>
<path d="M23.0699 11.9492L16.4199 14.1592V17.3892L19.5399 16.4692V29.6192H23.0699V11.9492Z" fill="#2B2B2D"/>
</svg>
