<svg width="41" height="37" viewBox="0 0 41 37" fill="none" xmlns="http://www.w3.org/2000/svg">
<path d="M10.35 0H2C0.9 0 0 0.9 0 2V9.03C0 10.13 0.9 11.03 2 11.03H10.35C11.45 11.03 12.35 10.13 12.35 9.03V2C12.35 0.89 11.46 0 10.35 0ZM10.35 9.02H2V1.99H10.35V9.02Z" fill="#2B2B2D"/>
<path d="M24.6391 0H16.2891C15.1891 0 14.2891 0.9 14.2891 2V9.03C14.2891 10.13 15.1891 11.03 16.2891 11.03H24.6391C25.7391 11.03 26.6391 10.13 26.6391 9.03V2C26.6391 0.89 25.7391 0 24.6391 0ZM24.6391 9.02H16.2891V1.99H24.6391V9.02Z" fill="#2B2B2D"/>
<path d="M38.9301 0H30.5801C29.4801 0 28.5801 0.9 28.5801 2V9.03C28.5801 10.13 29.4801 11.03 30.5801 11.03H38.9301C40.0301 11.03 40.9301 10.13 40.9301 9.03V2C40.9301 0.89 40.0301 0 38.9301 0ZM38.9301 9.02H30.5801V1.99H38.9301V9.02Z" fill="#2B2B2D"/>
<path d="M10.35 12.96H2C0.9 12.96 0 13.86 0 14.96V21.99C0 23.09 0.9 23.99 2 23.99H10.35C11.45 23.99 12.35 23.09 12.35 21.99V14.96C12.35 13.85 11.46 12.96 10.35 12.96ZM10.35 21.98H2V14.95H10.35V21.98Z" fill="#2B2B2D"/>
<path d="M24.6391 12.96H16.2891C15.1891 12.96 14.2891 13.86 14.2891 14.96V21.99C14.2891 23.09 15.1891 23.99 16.2891 23.99H24.6391C25.7391 23.99 26.6391 23.09 26.6391 21.99V14.96C26.6391 13.85 25.7391 12.96 24.6391 12.96ZM24.6391 21.98H16.2891V14.95H24.6391V21.98Z" fill="#2B2B2D"/>
<path d="M38.9301 12.96H30.5801C29.4801 12.96 28.5801 13.86 28.5801 14.96V21.99C28.5801 23.09 29.4801 23.99 30.5801 23.99H38.9301C40.0301 23.99 40.9301 23.09 40.9301 21.99V14.96C40.9301 13.85 40.0301 12.96 38.9301 12.96ZM38.9301 21.98H30.5801V14.95H38.9301V21.98Z" fill="#2B2B2D"/>
<path d="M10.35 25.92H2C0.9 25.92 0 26.82 0 27.92V34.95C0 36.05 0.9 36.95 2 36.95H10.35C11.45 36.95 12.35 36.05 12.35 34.95V27.92C12.35 26.81 11.46 25.92 10.35 25.92ZM10.35 34.94H2V27.91H10.35V34.94Z" fill="#2B2B2D"/>
<path d="M24.6391 25.92H16.2891C15.1891 25.92 14.2891 26.82 14.2891 27.92V34.95C14.2891 36.05 15.1891 36.95 16.2891 36.95H24.6391C25.7391 36.95 26.6391 36.05 26.6391 34.95V27.92C26.6391 26.81 25.7391 25.92 24.6391 25.92ZM24.6391 34.94H16.2891V27.91H24.6391V34.94Z" fill="#2B2B2D"/>
<path d="M38.9301 25.92H30.5801C29.4801 25.92 28.5801 26.82 28.5801 27.92V34.95C28.5801 36.05 29.4801 36.95 30.5801 36.95H38.9301C40.0301 36.95 40.9301 36.05 40.9301 34.95V27.92C40.9301 26.81 40.0301 25.92 38.9301 25.92ZM38.9301 34.94H30.5801V27.91H38.9301V34.94Z" fill="#2B2B2D"/>
</svg>
