<svg width="41" height="60" viewBox="0 0 41 60" fill="none" xmlns="http://www.w3.org/2000/svg">
<path d="M38.93 0H2C0.9 0 0 0.9 0 2V54.31C0 55.41 0.9 56.31 2 56.31H24.94V54.31H2V2H38.93V54.31H35.16V56.31H38.93C40.03 56.31 40.93 55.41 40.93 54.31V2C40.93 0.89 40.04 0 38.93 0Z" fill="#2B2B2D"/>
<path d="M34.4792 10.87H6.44922V11.37H34.4792V10.87Z" fill="#2B2B2D"/>
<path d="M34.4792 15.45H6.44922V15.95H34.4792V15.45Z" fill="#2B2B2D"/>
<path d="M34.4792 20.04H6.44922V20.54H34.4792V20.04Z" fill="#2B2B2D"/>
<path d="M34.4792 24.83H6.44922V25.33H34.4792V24.83Z" fill="#2B2B2D"/>
<path d="M34.4792 29.62H6.44922V30.12H34.4792V29.62Z" fill="#2B2B2D"/>
<path d="M19.1592 38.85H6.44922V39.35H19.1592V38.85Z" fill="#2B2B2D"/>
<path d="M36.5995 44.74C36.5995 41.11 33.6495 38.16 30.0195 38.16C26.3895 38.16 23.4395 41.11 23.4395 44.74C23.4395 46.33 24.0094 47.79 24.9494 48.93C25.3094 49.37 25.7394 49.76 26.1994 50.09V58.31C26.1994 58.61 26.3794 58.88 26.6494 59C26.7494 59.04 26.8494 59.06 26.9494 59.06C27.1294 59.06 27.3195 58.99 27.4595 58.86L30.0294 56.49L32.6694 58.87C32.8094 59 32.9894 59.06 33.1694 59.06C33.2694 59.06 33.3795 59.04 33.4695 59C33.7395 58.88 33.9095 58.61 33.9095 58.31V50.04C34.3795 49.7 34.7995 49.29 35.1595 48.84C36.0595 47.71 36.5995 46.29 36.5995 44.74ZM33.1595 58.3L30.0094 55.47L29.0995 56.31L26.9294 58.3V50.55C27.8494 51.04 28.8994 51.32 30.0094 51.32C31.1494 51.32 32.2195 51.03 33.1595 50.52V58.3ZM34.5195 48.45C34.3395 48.67 34.1294 48.88 33.9194 49.07C33.6894 49.28 33.4394 49.47 33.1694 49.64C32.2594 50.22 31.1795 50.57 30.0195 50.57C28.8895 50.57 27.8395 50.24 26.9395 49.69C26.6795 49.52 26.4195 49.34 26.1895 49.14C25.9495 48.93 25.7195 48.7 25.5195 48.46C25.3995 48.32 25.2894 48.17 25.1794 48.01C25.0894 47.88 25.0195 47.75 24.9395 47.61C24.8295 47.42 24.7295 47.22 24.6395 47.01C24.5695 46.84 24.4995 46.66 24.4395 46.47C24.2695 45.92 24.1794 45.34 24.1794 44.74C24.1794 44.14 24.2695 43.55 24.4395 43.01C24.4995 42.83 24.5595 42.65 24.6395 42.47C24.7895 42.12 24.9694 41.79 25.1794 41.48C25.2794 41.32 25.3995 41.18 25.5195 41.03C26.5895 39.73 28.2095 38.91 30.0195 38.91C31.8295 38.91 33.4495 39.74 34.5195 41.03C34.6395 41.17 34.7495 41.32 34.8595 41.48C35.0695 41.79 35.2494 42.12 35.3994 42.47C35.4694 42.64 35.5395 42.82 35.5995 43.01C35.7695 43.56 35.8595 44.14 35.8595 44.74C35.8595 45.34 35.7695 45.93 35.5995 46.47C35.5395 46.65 35.4794 46.83 35.3994 47.01C35.3294 47.17 35.2494 47.33 35.1694 47.48C35.0694 47.66 34.9695 47.83 34.8595 48C34.7495 48.16 34.6295 48.31 34.5195 48.45Z" fill="#2B2B2D"/>
<path d="M30.0207 40.44C27.6507 40.44 25.7207 42.37 25.7207 44.74C25.7207 47.11 27.6507 49.04 30.0207 49.04C32.3907 49.04 34.3207 47.11 34.3207 44.74C34.3207 42.37 32.3907 40.44 30.0207 40.44ZM30.0207 48.55C27.9207 48.55 26.2207 46.84 26.2207 44.75C26.2207 42.66 27.9307 40.95 30.0207 40.95C32.1107 40.95 33.8207 42.66 33.8207 44.75C33.8207 46.84 32.1107 48.55 30.0207 48.55Z" fill="#2B2B2D"/>
</svg>
