<svg width="54" height="33" viewBox="0 0 54 33" fill="none" xmlns="http://www.w3.org/2000/svg">
<path d="M36.0904 24.3125C34.0504 23.3225 31.0504 20.8025 30.4904 20.3225C30.4304 20.2725 30.3904 20.2325 30.3904 20.2325V18.8125C31.4804 17.6425 32.5404 15.1925 32.9204 14.7325C33.3104 14.2825 33.8904 12.3425 33.8904 11.8225C33.8904 11.3025 33.2404 10.8525 33.2404 10.8525V9.1725H33.6904C34.1804 9.1725 34.5704 8.7825 34.5704 8.2925V7.3725C34.5704 6.8825 34.1804 6.4925 33.6904 6.4925H33.1504C32.5204 2.5425 29.7404 1.5225 29.7404 1.5225V5.9625H28.5504V0.542498L27.9404 0.2325C27.3304 -0.0775 26.6104 -0.0775 25.9904 0.2325L25.3804 0.542498V5.9625H24.1904V1.5225C24.1904 1.5225 21.4204 2.5525 20.7804 6.4925H20.2404C19.7504 6.4925 19.3604 6.8825 19.3604 7.3725V8.2925C19.3604 8.7825 19.7504 9.1725 20.2404 9.1725H20.5104V10.8525C20.5104 10.8525 19.8604 11.3025 19.8604 11.8225C19.8604 12.3425 20.4404 14.2825 20.8304 14.7325C21.2204 15.1825 22.2804 17.6425 23.3604 18.8125V20.2325C23.3604 20.2325 23.3204 20.2725 23.2604 20.3225C22.6904 20.8025 19.7004 23.3225 17.6604 24.3125C15.4004 25.4125 12.3504 26.7025 12.2204 27.4225L11.6504 32.4825H17.0804H26.7804H26.8704H36.5704H42.0904L41.5204 27.4225C41.4004 26.7125 38.3604 25.4125 36.0904 24.3125ZM23.3904 17.1625C23.2504 16.9425 23.1104 16.7125 22.9804 16.4825C22.8004 16.1525 22.6304 15.7925 22.4604 15.4325C22.3404 15.1725 22.2204 14.9225 22.0904 14.6725C21.6304 13.7625 21.5504 11.1225 21.5704 9.1825H26.9704H32.2504V10.8625V10.8725C32.2104 12.4325 32.0704 14.0125 31.7404 14.6725C31.6204 14.9025 31.5104 15.1325 31.4004 15.3725C31.4004 15.3725 31.4004 15.3825 31.3904 15.3825C31.0204 16.0825 30.5304 16.9725 30.0504 17.6425C29.7504 17.9625 29.4004 18.2025 28.9704 18.3225C27.5904 18.7125 27.4504 18.7125 27.1104 18.7025H26.9204H26.7304C26.3904 18.7125 26.2404 18.7125 24.8704 18.3225C24.2304 18.1425 23.7804 17.7225 23.3904 17.1625ZM23.9204 21.0925L24.0304 21.0025C24.2504 20.8125 24.3804 20.5325 24.3804 20.2425V19.1125C24.4604 19.1425 24.5304 19.1825 24.6204 19.2025C26.0604 19.6125 26.2804 19.6225 26.7504 19.6225H26.9304H27.1104C27.1604 19.6225 27.2004 19.6225 27.2404 19.6225C27.6304 19.6225 27.9404 19.5725 29.2304 19.2025C29.2904 19.1825 29.3404 19.1525 29.4004 19.1325V20.2325C29.4004 20.5225 29.5304 20.8025 29.7504 20.9925L29.8604 21.0825C30.3704 21.5125 31.6304 22.5725 33.0204 23.5625L32.1904 28.0625H28.0104H26.9004H26.8304H25.5304H21.5404L20.7204 23.6225C22.1004 22.6125 23.4004 21.5325 23.9204 21.0925ZM12.7804 31.4825L13.2004 27.7525C13.7004 27.3025 15.6404 26.3825 16.8304 25.8225C17.0204 25.7325 17.2004 25.6425 17.3904 25.5525L17.1404 31.4725H12.7804V31.4825ZM36.5404 31.4825L36.2904 25.5225C36.5104 25.6225 36.7204 25.7325 36.9404 25.8325C38.1304 26.3925 40.0704 27.3125 40.5704 27.7625L40.9904 31.4925H36.5404V31.4825Z" fill="#2B2B2D"/>
<path d="M53.3091 28.3825C53.2091 27.8125 50.7691 26.7725 48.9491 25.8925C47.3091 25.0925 44.9091 23.0825 44.4591 22.6925C44.4091 22.6525 44.3791 22.6225 44.3791 22.6225V21.4825C45.2491 20.5525 46.0991 18.5725 46.4091 18.2125C46.7191 17.8525 47.1891 16.2925 47.1891 15.8725C47.1891 15.4525 46.6691 15.0925 46.6691 15.0925V13.7425H47.0291C47.4191 13.7425 47.7391 13.4225 47.7391 13.0325V12.2925C47.7391 11.9025 47.4191 11.5825 47.0291 11.5825H46.5891C46.0791 8.41252 43.8591 7.59252 43.8591 7.59252V11.1525H42.9091V6.82252L42.4191 6.58252C41.9291 6.33252 41.3491 6.33252 40.8591 6.58252L40.3691 6.82252V11.1725H39.4191V7.61252C39.4191 7.61252 37.1891 8.43252 36.6891 11.6025H36.2491C35.8591 11.6025 35.5391 11.9225 35.5391 12.3125V13.0525C35.5391 13.4425 35.8591 13.7625 36.2491 13.7625H36.4691V15.1125C36.4691 15.1125 35.9491 15.4725 35.9491 15.8925C35.9491 16.3125 36.4191 17.8625 36.7291 18.2325C37.0391 18.5925 37.8891 20.5725 38.7591 21.5025V22.6225C38.7591 22.6225 38.7291 22.6525 38.6791 22.6925C38.4991 22.8425 38.0091 23.2625 37.3791 23.7525C37.5391 23.8325 37.7091 23.9125 37.8691 23.9825C41.1491 25.5325 42.4091 26.2125 42.5891 27.2025L42.5991 27.2325V27.2625L43.1691 32.3225L43.1791 32.4325H49.3391H53.7691L53.3091 28.3825Z" fill="#2B2B2D"/>
<path d="M16.4 23.7525C15.77 23.2625 15.28 22.8525 15.1 22.6925C15.05 22.6525 15.02 22.6225 15.02 22.6225V21.4825C15.89 20.5525 16.74 18.5725 17.05 18.2125C17.36 17.8525 17.83 16.2925 17.83 15.8725C17.83 15.4525 17.31 15.0925 17.31 15.0925V13.7425H17.53C17.92 13.7425 18.24 13.4225 18.24 13.0325V12.2925C18.24 11.9025 17.92 11.5825 17.53 11.5825H17.09C16.58 8.41252 14.36 7.59252 14.36 7.59252V11.1525H13.41V6.82252L12.92 6.58252C12.43 6.33252 11.85 6.33252 11.36 6.58252L10.87 6.82252V11.1725H9.91998V7.61252C9.91998 7.61252 7.68997 8.43252 7.18997 11.6025H6.75C6.36 11.6025 6.03998 11.9225 6.03998 12.3125V13.0525C6.03998 13.4425 6.36 13.7625 6.75 13.7625H7.10999V15.1125C7.10999 15.1125 6.59 15.4725 6.59 15.8925C6.59 16.3125 7.06 17.8625 7.37 18.2325C7.68 18.5925 8.52999 20.5725 9.39999 21.5025V22.6225C9.39999 22.6225 9.36998 22.6525 9.31998 22.6925C8.86998 23.0825 6.45998 25.0925 4.81998 25.8925C2.99998 26.7725 0.559991 27.8125 0.459991 28.3825L0 32.4425H4.42999H10.59L10.6 32.3325L11.17 27.2725V27.2425L11.18 27.2125C11.36 26.2225 12.62 25.5425 15.9 23.9925C16.07 23.9025 16.23 23.8225 16.4 23.7525Z" fill="#2B2B2D"/>
</svg>
