<svg width="42" height="42" viewBox="0 0 42 42" fill="none" xmlns="http://www.w3.org/2000/svg">
<path d="M2.57001 1.57H0V2.07H2.57001V3.75H0V4.25H2.57001V5.93H0V6.43H2.57001V8.11H0V8.61H2.57001V10.29H0V10.79H2.57001V12.47H0V12.97H2.57001V14.65H0V15.15H2.57001V16.83H0V17.33H2.57001V19.01H0V19.51H2.57001V21.19H0V21.69H2.57001V23.37H0V23.87H2.57001V25.55H0V26.05H2.57001V27.73H0V28.23H2.57001V29.91H0V30.41H2.57001V32.09H0V32.59H2.57001V34.27H0V34.77H2.57001V36.45H0V36.95H2.57001V38.63H0V39.13H2.57001V41.02H3.57001V0H2.57001V1.57Z" fill="#2B2B2D"/>
<path d="M10.4095 6.17999H5.26953V8.35999H10.4095V6.17999Z" fill="#2B2B2D"/>
<path d="M20.6795 23.62H15.5495H10.4095H5.26953V25.8H10.4095H15.5495H20.6795H25.8195V23.62H20.6795Z" fill="#2B2B2D"/>
<path d="M30.9603 25.8H25.8203V27.98H30.9603V25.8Z" fill="#2B2B2D"/>
<path d="M30.9609 27.98V30.16H36.1009H41.2409V27.98H36.1009H30.9609Z" fill="#2B2B2D"/>
<path d="M10.4095 14.9H5.26953V17.08H10.4095H15.5495V14.9H10.4095Z" fill="#2B2B2D"/>
<path d="M30.9708 17.08H15.5508V19.26H30.9708V17.08Z" fill="#2B2B2D"/>
<path d="M36.1009 19.26H30.9609V21.44H36.1009H41.2409V19.26H36.1009Z" fill="#2B2B2D"/>
<path d="M15.5502 10.54H20.6802V8.35999H15.5502H10.4102V10.54H15.5502Z" fill="#2B2B2D"/>
<path d="M25.8197 12.72H30.9597H36.0997V10.54H30.9597H25.8197H20.6797V12.72H25.8197Z" fill="#2B2B2D"/>
<path d="M10.4095 30.16H5.26953V32.34H10.4095H15.5495V30.16H10.4095Z" fill="#2B2B2D"/>
<path d="M25.8208 32.34H20.6808H15.5508V34.52H20.6808H25.8208H30.9608V32.34H25.8208Z" fill="#2B2B2D"/>
<path d="M36.1009 34.52H30.9609V36.7H36.1009V34.52Z" fill="#2B2B2D"/>
</svg>
