<svg width="51" height="48" viewBox="0 0 51 48" fill="none" xmlns="http://www.w3.org/2000/svg">
<path d="M35.7498 18.9301C27.7998 18.9301 21.3398 25.4 21.3398 33.34C21.3398 41.2801 27.7998 47.7501 35.7498 47.7501C43.6998 47.7501 50.1598 41.2801 50.1598 33.34C50.1598 25.4 43.6898 18.9301 35.7498 18.9301ZM35.7498 45.7501C28.8998 45.7501 23.3398 40.1901 23.3398 33.34C23.3398 26.49 28.8998 20.9301 35.7498 20.9301C42.5998 20.9301 48.1598 26.49 48.1598 33.34C48.1598 40.2001 42.5998 45.7501 35.7498 45.7501Z" fill="#2B2B2D"/>
<path d="M35.75 25.66C35.89 25.66 36 25.55 36 25.41V22.92C36 22.78 35.89 22.67 35.75 22.67C35.61 22.67 35.5 22.78 35.5 22.92V25.41C35.5 25.54 35.61 25.66 35.75 25.66Z" fill="#2B2B2D"/>
<path d="M35.75 41.03C35.61 41.03 35.5 41.14 35.5 41.28V43.77C35.5 43.91 35.61 44.02 35.75 44.02C35.89 44.02 36 43.91 36 43.77V41.28C36 41.14 35.89 41.03 35.75 41.03Z" fill="#2B2B2D"/>
<path d="M46.1697 33.09H43.6797C43.5397 33.09 43.4297 33.2 43.4297 33.34C43.4297 33.48 43.5397 33.59 43.6797 33.59H46.1697C46.3097 33.59 46.4197 33.48 46.4197 33.34C46.4197 33.2 46.3097 33.09 46.1697 33.09Z" fill="#2B2B2D"/>
<path d="M27.8103 33.09H25.3203C25.1803 33.09 25.0703 33.2 25.0703 33.34C25.0703 33.48 25.1803 33.59 25.3203 33.59H27.8103C27.9503 33.59 28.0603 33.48 28.0603 33.34C28.0603 33.2 27.9503 33.09 27.8103 33.09Z" fill="#2B2B2D"/>
<path d="M40.2009 27.82L36.3109 32C36.1409 31.93 35.9409 31.88 35.7409 31.88C35.4909 31.88 35.2609 31.95 35.0609 32.06L29.0009 26.62C28.8009 26.44 28.4809 26.45 28.2909 26.66C28.1109 26.87 28.1209 27.18 28.3309 27.37L34.3909 32.81C34.3209 32.98 34.2809 33.16 34.2809 33.35C34.2809 34.16 34.9309 34.81 35.7409 34.81C36.5509 34.81 37.2009 34.16 37.2009 33.35C37.2009 33.11 37.1409 32.89 37.0409 32.69L40.9309 28.51C41.1209 28.31 41.1109 27.99 40.9009 27.8C40.7109 27.61 40.3909 27.62 40.2009 27.82Z" fill="#2B2B2D"/>
<path d="M0.51001 7.24H36.78V17.48C36.95 17.49 37.12 17.49 37.28 17.51V3.87C37.28 3.59 37.06 3.37 36.78 3.37H31.89V4.68999C31.89 5.23999 31.44 5.68999 30.89 5.68999H29.18C28.63 5.68999 28.18 5.23999 28.18 4.68999V3.37H7.72V4.68999C7.72 5.23999 7.27 5.68999 6.72 5.68999H5.01001C4.46001 5.68999 4.01001 5.23999 4.01001 4.68999V3.37H0.5C0.22 3.37 0 3.59 0 3.87V32.16C0 32.44 0.22 32.66 0.5 32.66H19.86C19.87 32.49 19.87 32.33 19.89 32.16H0.5V7.24H0.51001Z" fill="#2B2B2D"/>
<path d="M13.7895 11.45C13.7895 11.17 13.5695 10.95 13.2895 10.95H10.5195C10.2395 10.95 10.0195 11.17 10.0195 11.45V14.22C10.0195 14.5 10.2395 14.72 10.5195 14.72H13.2895C13.5695 14.72 13.7895 14.5 13.7895 14.22V11.45Z" fill="#2B2B2D"/>
<path d="M20.0298 10.95H17.2598C16.9798 10.95 16.7598 11.17 16.7598 11.45V14.22C16.7598 14.5 16.9798 14.72 17.2598 14.72H20.0298C20.3098 14.72 20.5298 14.5 20.5298 14.22V11.45C20.5298 11.17 20.2998 10.95 20.0298 10.95Z" fill="#2B2B2D"/>
<path d="M27.2602 11.45C27.2602 11.17 27.0402 10.95 26.7602 10.95H23.9902C23.7102 10.95 23.4902 11.17 23.4902 11.45V14.22C23.4902 14.5 23.7102 14.72 23.9902 14.72H26.7602C27.0402 14.72 27.2602 14.5 27.2602 14.22V11.45Z" fill="#2B2B2D"/>
<path d="M30.7305 10.95C30.4505 10.95 30.2305 11.17 30.2305 11.45V14.22C30.2305 14.5 30.4505 14.72 30.7305 14.72H33.5005C33.7805 14.72 34.0005 14.5 34.0005 14.22V11.45C34.0005 11.17 33.7805 10.95 33.5005 10.95H30.7305Z" fill="#2B2B2D"/>
<path d="M7.05908 18.4399C7.05908 18.1599 6.83908 17.9399 6.55908 17.9399H3.78906C3.50906 17.9399 3.28906 18.1599 3.28906 18.4399V21.2099C3.28906 21.4899 3.50906 21.7099 3.78906 21.7099H6.55908C6.83908 21.7099 7.05908 21.4899 7.05908 21.2099V18.4399Z" fill="#2B2B2D"/>
<path d="M13.7895 18.4399C13.7895 18.1599 13.5695 17.9399 13.2895 17.9399H10.5195C10.2395 17.9399 10.0195 18.1599 10.0195 18.4399V21.2099C10.0195 21.4899 10.2395 21.7099 10.5195 21.7099H13.2895C13.5695 21.7099 13.7895 21.4899 13.7895 21.2099V18.4399Z" fill="#2B2B2D"/>
<path d="M20.0298 17.9399H17.2598C16.9798 17.9399 16.7598 18.1599 16.7598 18.4399V21.2099C16.7598 21.4899 16.9798 21.7099 17.2598 21.7099H20.0298C20.3098 21.7099 20.5298 21.4899 20.5298 21.2099V18.4399C20.5298 18.1599 20.2998 17.9399 20.0298 17.9399Z" fill="#2B2B2D"/>
<path d="M26.7602 17.9399H23.9902C23.7102 17.9399 23.4902 18.1599 23.4902 18.4399V21.2099C23.4902 21.4899 23.7102 21.7099 23.9902 21.7099H24.9202C25.6402 21.0399 26.4202 20.4299 27.2602 19.9099V18.4399C27.2602 18.1599 27.0402 17.9399 26.7602 17.9399Z" fill="#2B2B2D"/>
<path d="M6.55908 24.78H3.78906C3.50906 24.78 3.28906 25 3.28906 25.28V28.05C3.28906 28.33 3.50906 28.55 3.78906 28.55H6.55908C6.83908 28.55 7.05908 28.33 7.05908 28.05V25.28C7.05908 25 6.83908 24.78 6.55908 24.78Z" fill="#2B2B2D"/>
<path d="M13.2895 24.78H10.5195C10.2395 24.78 10.0195 25 10.0195 25.28V28.05C10.0195 28.33 10.2395 28.55 10.5195 28.55H13.2895C13.5695 28.55 13.7895 28.33 13.7895 28.05V25.28C13.7895 25 13.5695 24.78 13.2895 24.78Z" fill="#2B2B2D"/>
<path d="M20.0298 24.78H17.2598C16.9798 24.78 16.7598 25 16.7598 25.28V28.05C16.7598 28.33 16.9798 28.55 17.2598 28.55H20.0298C20.3098 28.55 20.5298 28.33 20.5298 28.05V25.28C20.5298 25 20.2998 24.78 20.0298 24.78Z" fill="#2B2B2D"/>
<path d="M5.00977 5.18999H6.71976C6.99976 5.18999 7.21976 4.97 7.21976 4.68999V0.5C7.21976 0.22 6.99976 0 6.71976 0H5.00977C4.72977 0 4.50977 0.22 4.50977 0.5V4.68999C4.50977 4.97 4.73977 5.18999 5.00977 5.18999Z" fill="#2B2B2D"/>
<path d="M29.1797 5.18999H30.8897C31.1697 5.18999 31.3897 4.97 31.3897 4.68999V0.5C31.3897 0.22 31.1697 0 30.8897 0H29.1797C28.8997 0 28.6797 0.22 28.6797 0.5V4.68999C28.6797 4.97 28.8997 5.18999 29.1797 5.18999Z" fill="#2B2B2D"/>
</svg>
