<svg width="50" height="57" viewBox="0 0 50 57" fill="none" xmlns="http://www.w3.org/2000/svg">
<path d="M34.4992 10.87H6.44922V11.37H34.4992V10.87Z" fill="#2B2B2D"/>
<path d="M34.4992 15.46H6.44922V15.96H34.4992V15.46Z" fill="#2B2B2D"/>
<path d="M34.4992 20.05H6.44922V20.55H34.4992V20.05Z" fill="#2B2B2D"/>
<path d="M34.4992 24.85H6.44922V25.35H34.4992V24.85Z" fill="#2B2B2D"/>
<path d="M34.5109 29.64H6.46094V30.14H34.5109V29.64Z" fill="#2B2B2D"/>
<path d="M19.181 38.87H6.46094V39.37H19.181V38.87Z" fill="#2B2B2D"/>
<path d="M24.8396 46.35C24.2896 46.76 23.6596 47.03 22.9996 47.31C22.4396 47.55 21.8596 47.8 21.3296 48.14C21.1596 48.25 20.9496 48.47 20.9296 48.72C20.9196 48.86 20.9696 48.99 21.0696 49.09C21.2696 49.28 21.5396 49.22 21.6596 49.19C22.0296 49.11 22.3996 49.02 22.7696 48.94C24.4296 48.56 26.1396 48.17 27.8496 48.13C27.8796 48.31 27.8896 48.49 27.8796 48.68L28.3796 48.72C28.3996 48.42 28.3696 48.11 28.2996 47.82C28.2696 47.71 28.1696 47.63 28.0596 47.63C26.2296 47.65 24.4196 48.06 22.6796 48.46C22.3096 48.54 21.9396 48.63 21.5696 48.71C21.5196 48.72 21.4796 48.73 21.4596 48.73C21.4896 48.69 21.5396 48.62 21.6196 48.57C22.1096 48.25 22.6696 48.01 23.2196 47.78C23.8796 47.5 24.5596 47.2 25.1596 46.76C25.7196 46.35 26.0396 45.89 26.1096 45.39C26.1196 45.3 26.0896 45.21 26.0196 45.16C25.9496 45.1 25.8596 45.09 25.7696 45.12C23.6996 45.93 21.6296 46.74 19.5496 47.53C18.4996 47.93 17.1896 48.43 15.8996 48.8C15.3696 48.95 14.8096 49.09 14.2396 49.1C14.1496 49.1 14.0096 49.1 13.9496 49.04C13.8796 48.97 13.8996 48.79 13.9896 48.55C14.2596 47.9 14.6096 47.28 15.0396 46.7C16.1496 46.21 17.2596 45.71 18.3596 45.2C18.7996 45 19.2996 44.77 19.6796 44.36C19.7796 44.26 19.9096 44.1 19.9196 43.88C19.9496 43.52 19.6396 43.25 19.3196 43.2C19.0496 43.16 18.7996 43.24 18.5796 43.33C17.0696 43.94 15.7196 44.98 14.7096 46.29C13.0796 47.01 11.4496 47.71 9.84961 48.39L10.0496 48.85C11.4096 48.27 12.7896 47.68 14.1696 47.07C13.9196 47.48 13.6996 47.91 13.5196 48.35C13.2896 48.93 13.4296 49.23 13.5996 49.39C13.7796 49.56 14.0096 49.59 14.2096 49.59C14.2196 49.59 14.2396 49.59 14.2496 49.59C14.8796 49.58 15.4796 49.43 16.0396 49.27C17.3496 48.9 18.6696 48.39 19.7296 47.99C21.6296 47.26 23.5296 46.53 25.4296 45.79C25.2696 45.98 25.0896 46.17 24.8396 46.35ZM18.7496 43.8C18.8896 43.75 19.0296 43.69 19.1596 43.69C19.1796 43.69 19.1996 43.69 19.2296 43.7C19.3196 43.71 19.4096 43.79 19.4096 43.85C19.4096 43.89 19.3696 43.95 19.2996 44.02C18.9896 44.35 18.5296 44.56 18.1296 44.75C17.3496 45.11 16.5596 45.47 15.7696 45.82C16.6096 44.95 17.6396 44.25 18.7496 43.8Z" fill="#2B2B2D"/>
<path d="M38.96 54.34H2V2H38.96V23.11C39.66 22.03 40.32 21.04 40.96 20.12V2C40.96 0.9 40.06 0 38.96 0H2C0.9 0 0 0.9 0 2V54.35C0 55.45 0.9 56.35 2 56.35H38.96C40.06 56.35 40.96 55.45 40.96 54.35V38.01C40.28 39.08 39.61 40.11 38.96 41.07V54.34Z" fill="#2B2B2D"/>
<path d="M37.2398 29.75C34.9698 33.66 33.0098 37.43 31.7098 40.38C30.8398 42.36 30.0398 45.87 30.5798 46.14C31.6698 46.68 33.8698 44.73 35.4698 42.57C37.3798 39.98 39.6998 36.41 41.9698 32.5C42.6998 31.25 43.3798 30.02 44.0398 28.82L39.4198 26.13C38.6898 27.29 37.9598 28.5 37.2398 29.75Z" fill="#2B2B2D"/>
<path d="M48.4608 15.8699C47.6208 15.3799 46.5808 15.8499 43.7308 19.6699C42.6808 21.0899 41.5108 22.7999 40.3008 24.6999L44.8207 27.3299C45.8707 25.3399 46.7808 23.4699 47.4908 21.8599C49.4208 17.4999 49.3008 16.3599 48.4608 15.8699Z" fill="#2B2B2D"/>
</svg>
