<svg width="41" height="40" viewBox="0 0 41 40" fill="none" xmlns="http://www.w3.org/2000/svg">
<path d="M8.16034 24.2V26.33H17.8303V23.58H12.4003L15.2303 20.75C16.8103 19.17 17.6104 17.62 17.6104 16.12C17.6104 14.73 17.1403 13.62 16.2103 12.81C15.2803 12 14.1503 11.58 12.8403 11.58C11.8203 11.58 10.8803 11.84 10.0303 12.36C9.18033 12.88 8.52031 13.64 8.07031 14.63L10.4703 16.03C10.9903 14.9 11.8003 14.34 12.8903 14.34C13.4403 14.34 13.8904 14.51 14.2404 14.86C14.5904 15.2 14.7703 15.66 14.7703 16.22C14.7703 16.99 14.2204 17.96 13.1204 19.11L8.16034 24.2Z" fill="#2B2B2D"/>
<path d="M22.2896 23.29C21.8296 22.86 21.6096 22.29 21.6096 21.58C21.6096 20.87 21.8396 20.3 22.2896 19.88C22.7396 19.46 23.3195 19.25 23.9995 19.25C24.6795 19.25 25.2595 19.46 25.7195 19.89C26.1795 20.32 26.4095 20.88 26.4095 21.58C26.4095 21.59 26.4095 21.59 26.4095 21.6C27.2395 21.06 28.1395 20.64 29.0995 20.34C28.8995 19.44 28.4895 18.66 27.8395 18.01C26.8995 17.08 25.6796 16.59 24.1796 16.55L27.3795 11.86H24.1196L19.6196 18.65C19.0496 19.49 18.7695 20.46 18.7695 21.56C18.7695 23.05 19.2596 24.26 20.2296 25.19C20.8296 25.77 21.5595 26.15 22.3795 26.37C22.7595 25.48 23.2596 24.65 23.8596 23.9C23.2396 23.89 22.7096 23.69 22.2896 23.29Z" fill="#2B2B2D"/>
<path d="M0.700012 32.24V7.37003H36.63V20.86C36.86 20.97 37.1 21.08 37.32 21.2V4.22002C37.32 3.84002 37.01 3.53003 36.63 3.53003H32.17V4.84003C32.17 5.60003 31.55 6.22002 30.79 6.22002H29.1C28.34 6.22002 27.72 5.60003 27.72 4.84003V3.53003H8.23004V4.84003C8.23004 5.60003 7.61004 6.22002 6.85004 6.22002H5.16003C4.40003 6.22002 3.78003 5.60003 3.78003 4.84003V3.53003H0.690002C0.310002 3.53003 0 3.84002 0 4.22002V32.24C0 32.62 0.310002 32.93 0.690002 32.93H21.82C21.77 32.7 21.72 32.47 21.69 32.24H0.700012Z" fill="#2B2B2D"/>
<path d="M5.16071 5.53H6.85071C7.23071 5.53 7.54071 5.22 7.54071 4.84V0.689995C7.54071 0.309995 7.23071 0 6.85071 0H5.16071C4.78071 0 4.4707 0.309995 4.4707 0.689995V4.84C4.4707 5.23 4.78071 5.53 5.16071 5.53Z" fill="#2B2B2D"/>
<path d="M29.1002 5.53H30.7902C31.1702 5.53 31.4802 5.22 31.4802 4.84V0.689995C31.4802 0.309995 31.1702 0 30.7902 0H29.1002C28.7202 0 28.4102 0.309995 28.4102 0.689995V4.84C28.4102 5.23 28.7202 5.53 29.1002 5.53Z" fill="#2B2B2D"/>
<path d="M40.7001 29.43C40.4101 27.16 39.2502 25.13 37.4302 23.73C35.6102 22.33 33.3601 21.72 31.0901 22.01C28.8201 22.3 26.7901 23.46 25.3901 25.28C23.9901 27.09 23.3802 29.34 23.6702 31.62C23.9602 33.89 25.1201 35.92 26.9401 37.32C28.4601 38.49 30.2802 39.11 32.1602 39.11C32.5302 39.11 32.9001 39.09 33.2801 39.04C35.5501 38.75 37.5701 37.59 38.9701 35.77C40.3901 33.95 40.9901 31.7 40.7001 29.43ZM33.1102 37.67C31.2002 37.91 29.3102 37.4 27.7902 36.23C26.2702 35.05 25.2902 33.36 25.0502 31.45C24.8002 29.54 25.3202 27.65 26.4902 26.13C27.6702 24.61 29.3601 23.63 31.2701 23.39C31.5801 23.35 31.9001 23.33 32.2101 23.33C33.7901 23.33 35.3201 23.85 36.5901 24.83C38.1101 26.01 39.0901 27.7 39.3301 29.61C39.8401 33.54 37.0502 37.16 33.1102 37.67Z" fill="#2B2B2D"/>
<path d="M34.9194 31C34.7494 30.82 34.5993 30.67 34.4493 30.55C34.2993 30.43 34.0894 30.31 33.7994 30.19C33.5094 30.07 33.2893 29.98 33.1293 29.93C32.9693 29.87 32.7193 29.79 32.3793 29.68C31.6893 29.47 31.2194 29.26 30.9594 29.07C30.6994 28.88 30.5693 28.61 30.5693 28.28C30.5693 27.94 30.6994 27.66 30.9594 27.46C31.2194 27.26 31.5594 27.16 31.9894 27.16C32.8094 27.16 33.4094 27.52 33.7894 28.24C33.8394 28.34 33.9594 28.38 34.0594 28.32L34.9694 27.79C35.0594 27.74 35.0894 27.62 35.0494 27.53C34.7594 26.99 34.3793 26.56 33.8793 26.24C33.5293 26.02 33.1494 25.87 32.7294 25.79V24.9C32.7294 24.79 32.6394 24.71 32.5394 24.71H31.5693C31.4593 24.71 31.3793 24.8 31.3793 24.9V25.76C30.8393 25.85 30.3593 26.07 29.9493 26.41C29.3793 26.88 29.0994 27.51 29.0994 28.31C29.0994 28.71 29.1693 29.07 29.3193 29.37C29.4693 29.67 29.6894 29.92 29.9794 30.12C30.2794 30.32 30.5593 30.48 30.8193 30.59C31.0893 30.7 31.4294 30.82 31.8594 30.95C32.6194 31.18 33.1594 31.39 33.4594 31.59C33.7594 31.78 33.9094 32.06 33.9094 32.43C33.9094 32.78 33.7694 33.07 33.4894 33.29C33.2094 33.51 32.7894 33.62 32.2294 33.62C31.1794 33.62 30.4593 33.18 30.0693 32.31C30.0193 32.2 29.8994 32.16 29.7994 32.21L28.8594 32.76C28.7794 32.81 28.7394 32.91 28.7794 33C29.0294 33.61 29.4294 34.1 29.9894 34.47C30.3894 34.73 30.8593 34.9 31.3793 34.99V35.75C31.3793 35.86 31.4693 35.94 31.5693 35.94H32.5394C32.6494 35.94 32.7294 35.85 32.7294 35.75V35.03C33.4394 34.95 34.0293 34.73 34.5093 34.35C35.0993 33.87 35.3893 33.23 35.3893 32.41C35.3893 32.12 35.3594 31.86 35.2894 31.62C35.1994 31.39 35.0794 31.18 34.9194 31Z" fill="#2B2B2D"/>
</svg>
