<svg width="21" height="17" viewBox="0 0 21 17" fill="none" xmlns="http://www.w3.org/2000/svg">
<path d="M19.809 1.22208H10.2361L9.72685 0.45828C9.52317 0.15276 9.21765 0 8.86121 0H2.75082C2.1907 0 1.73242 0.45828 1.73242 1.0184V2.13864H2.75082V1.0184H8.86121L9.67593 2.24048H19.809V13.6465H18.7906V14.6649H19.809C20.3691 14.6649 20.8274 14.2067 20.8274 13.6465V2.24048C20.8274 1.68036 20.42 1.22208 19.809 1.22208Z" fill="#212C30"/>
<path d="M17.5165 4.17533H7.63799L6.97603 3.20785C6.87419 3.05509 6.72143 2.95325 6.56867 2.95325H0.5092C0.20368 2.95325 0 3.15693 0 3.46245V4.68453V5.44832V16.0906C0 16.3961 0.20368 16.5998 0.5092 16.5998H17.5165C17.822 16.5998 18.0257 16.3961 18.0257 16.0906V4.68453C18.0257 4.37901 17.822 4.17533 17.5165 4.17533Z" fill="#212C30"/>
</svg>
