<svg width="17" height="17" viewBox="0 0 17 17" fill="none" xmlns="http://www.w3.org/2000/svg">
<path d="M11.65 4.113C11.3275 3.95173 11.0049 3.91141 10.6421 3.91141C9.91637 3.87109 9.15034 3.87109 8.42462 3.87109C7.98112 3.87109 7.57795 3.87109 7.13445 3.87109C6.65064 3.87109 6.16683 3.87109 5.68302 3.95173C4.91698 4.113 4.43317 4.55649 4.19127 5.28221C4.11063 5.60475 4.07031 5.92729 4.07031 6.29015C4.07031 7.33841 4.07031 8.42699 4.07031 9.47525C4.07031 9.95906 4.07031 10.4429 4.15095 10.8864C4.31222 11.6524 4.75571 12.1362 5.52175 12.3781C5.84429 12.4588 6.16683 12.4991 6.52969 12.4991C7.77954 12.4991 9.02938 12.4991 10.3195 12.4991C10.6018 12.4991 10.884 12.4588 11.1662 12.4184C11.9323 12.2572 12.4564 11.8137 12.658 11.0476C12.7386 10.7251 12.7789 10.3622 12.7789 9.99938C12.7789 8.74953 12.7789 7.54 12.7789 6.29015C12.7789 5.96761 12.7386 5.64507 12.6983 5.36285C12.4967 4.7984 12.2145 4.35491 11.65 4.113ZM8.42462 10.8864C6.93287 10.8864 5.72334 9.67684 5.72334 8.18508C5.72334 6.69333 6.93287 5.4838 8.42462 5.4838C9.91637 5.4838 11.1259 6.69333 11.1259 8.18508C11.1259 9.67684 9.91637 10.8864 8.42462 10.8864ZM11.2469 6.00793C10.884 6.00793 10.6018 5.72571 10.6018 5.36285C10.6018 4.99999 10.884 4.71776 11.2469 4.71776C11.6097 4.71776 11.8919 4.99999 11.8919 5.36285C11.8919 5.72571 11.6097 6.00793 11.2469 6.00793Z" fill="white"/>
<path d="M8.42632 6.41016C7.4587 6.41016 6.65234 7.21651 6.65234 8.18413C6.65234 9.15176 7.4587 9.95811 8.42632 9.95811C9.39394 9.95811 10.2003 9.15176 10.2003 8.18413C10.2003 7.21651 9.39394 6.41016 8.42632 6.41016Z" fill="white"/>
<path d="M8.42639 0C3.74954 0 0 3.74954 0 8.42639C0 13.1032 3.74954 16.8528 8.42639 16.8528C13.1032 16.8528 16.8528 13.1032 16.8528 8.42639C16.8528 3.74954 13.0629 0 8.42639 0ZM13.708 9.67624C13.708 10.16 13.708 10.6842 13.587 11.168C13.3048 12.3775 12.5791 13.1032 11.3696 13.3451C10.9261 13.4661 10.4423 13.4661 9.95846 13.4661C9.43433 13.4661 8.95052 13.4661 8.42639 13.4661C7.74099 13.4661 7.05559 13.4661 6.37019 13.4258C5.88638 13.4258 5.40257 13.3451 4.95907 13.1839C4.1124 12.821 3.58827 12.2162 3.34637 11.3293C3.26573 11.0067 3.22541 10.6842 3.18509 10.3616C3.14478 9.03115 3.14478 7.70067 3.18509 6.37019C3.18509 5.92669 3.22541 5.44288 3.34637 4.99939C3.66891 3.91081 4.39462 3.26573 5.4832 3.02382C5.92669 2.94319 6.32987 2.90287 6.77337 2.90287C7.86194 2.90287 8.99084 2.90287 10.0794 2.90287C10.5229 2.90287 10.9664 2.94319 11.4099 3.02382C12.5791 3.30605 13.3855 4.15272 13.587 5.32193C13.6677 5.76542 13.6677 6.20892 13.6677 6.65241C13.708 7.70067 13.708 8.70861 13.708 9.67624Z" fill="white"/>
</svg>
