<svg width="14" height="15" viewBox="0 0 14 15" fill="none" xmlns="http://www.w3.org/2000/svg">
<path d="M4.75833 5.31427C5.02554 4.78278 3.75626 2.87827 3.08822 1.99246C2.42019 1.3281 0.416043 2.32464 0.0820212 3.32118C-0.252001 4.31773 0.416222 7.30736 2.42035 10.297C4.42448 13.2866 7.09648 14.6153 8.09854 14.9475C9.10061 15.2797 10.1027 13.951 10.7707 12.9544C11.4388 11.9579 9.10061 10.6292 8.09854 9.9648C7.09648 9.30044 7.2896 11.8878 6.09459 11.2935C4.09064 10.297 2.75437 7.97172 2.75437 6.31081C2.75437 5.64645 4.4243 5.97863 4.75833 5.31427Z" fill="#FAC04B"/>
<path d="M7.11491 3.26331C9.51311 4.29004 10.3815 5.79691 10.4964 7.73795M7.77642 1.2763C11.3392 2.23409 12.6877 5.27081 12.8256 7.60006" stroke="#FAC04B" stroke-linecap="round" stroke-linejoin="round"/>
</svg>
