<svg width="22" height="29" viewBox="0 0 22 29" fill="none" xmlns="http://www.w3.org/2000/svg">
<path d="M3.28857 16.2894C1.56023 15.035 0.686961 13.0979 0.97805 9.31594C1.26914 5.53402 5.47174 1.58605 9.56518 1.01415C13.9133 0.423802 18.8437 1.19864 21.1178 6.36419C23.3919 11.5298 20.3901 17.7469 17.7885 19.3334C15.1868 20.92 13.2402 20.9016 12.0576 20.4957C10.8751 20.0898 9.76531 19.1305 9.69254 18.7984C9.63796 18.5771 8.69192 22.894 8.50999 23.4474C8.32806 24.0009 6.19946 28.5208 5.59909 28.2994C4.99872 28.078 5.23523 23.3183 5.3262 22.8017C5.41716 22.2852 7.43659 13.8358 7.43659 13.5222C7.43659 13.2086 6.47236 11.622 7.25466 9.1868C7.946 7.02834 10.3111 6.47489 11.2571 7.36041C12.0576 8.09835 12.4579 9.16836 11.4209 12.1939C10.5112 14.8689 10.2929 16.4739 11.8939 17.6731C13.4949 18.8722 15.9873 16.8982 16.8424 15.1825C17.6975 13.4668 18.5708 9.03922 17.5701 6.9361C16.5695 4.83298 14.6229 3.54159 12.1668 3.54159C9.71073 3.54159 6.45417 3.9659 4.65305 7.82162C2.9429 11.4929 4.87137 14.0756 5.0533 14.297C5.23523 14.5184 5.3262 14.6844 5.23523 14.9796C5.14427 15.2932 4.96234 16.1234 4.87137 16.4186C4.7804 16.7138 4.47112 17.1565 3.28857 16.2894Z" fill="white"/>
</svg>
