<svg width="51" height="96" viewBox="0 0 51 96" fill="none" xmlns="http://www.w3.org/2000/svg">
<path d="M16.7 22.2998H6V32.9998H16.7V22.2998Z" stroke="#212C30" stroke-miterlimit="10" stroke-linecap="round" stroke-linejoin="round"/>
<path d="M16.7 45.8999H6V56.5999H16.7V45.8999Z" stroke="#212C30" stroke-miterlimit="10" stroke-linecap="round" stroke-linejoin="round"/>
<path d="M23.6992 54H35.7992" stroke="#212C30" stroke-miterlimit="10" stroke-linecap="round"/>
<path d="M23.6992 48.7002H44.0992" stroke="#212C30" stroke-miterlimit="10" stroke-linecap="round"/>
<path d="M22.8008 90.7998H27.4008" stroke="#212C30" stroke-miterlimit="10" stroke-linecap="round" stroke-linejoin="round"/>
<path d="M23.6992 30.5H35.7992" stroke="#212C30" stroke-miterlimit="10" stroke-linecap="round"/>
<path d="M23.6992 25.2002H44.0992" stroke="#212C30" stroke-miterlimit="10" stroke-linecap="round"/>
<path d="M35.7992 81.7C40.2727 81.7 43.8992 78.0735 43.8992 73.6C43.8992 69.1265 40.2727 65.5 35.7992 65.5C31.3257 65.5 27.6992 69.1265 27.6992 73.6C27.6992 78.0735 31.3257 81.7 35.7992 81.7Z" stroke="#212C30" stroke-miterlimit="10" stroke-linecap="round"/>
<path d="M38.1996 70.5001C37.1996 68.7001 33.4996 69 33.4996 71.2C33.4996 73.7 38.4996 72.9 38.4996 75.1C38.4996 77.5 34.2996 78.3001 33.0996 75.8001" stroke="#212C30" stroke-miterlimit="10" stroke-linecap="round"/>
<path d="M35.9004 68.2002V69.2002" stroke="#212C30" stroke-miterlimit="10" stroke-linecap="round"/>
<path d="M35.9004 77.5V78.7" stroke="#212C30" stroke-miterlimit="10" stroke-linecap="round"/>
<path d="M6 74.7998H17.1" stroke="#212C30" stroke-miterlimit="10" stroke-linecap="round"/>
<path d="M6 69.3999H22.9" stroke="#212C30" stroke-miterlimit="10" stroke-linecap="round"/>
<path d="M47.7 94.6H2.5C1.4 94.6 0.5 93.7 0.5 92.6V3C0.5 1.9 1.4 1 2.5 1H47.7C48.8 1 49.7 1.9 49.7 3V92.6C49.7 93.7 48.8 94.6 47.7 94.6Z" stroke="#212C30" stroke-miterlimit="10" stroke-linejoin="round"/>
<path d="M8.59961 26.2998L11.7996 29.4998L19.9996 21.2998" stroke="#212C30" stroke-miterlimit="10" stroke-linecap="round" stroke-linejoin="round"/>
<path d="M8.59961 49.7998L11.7996 52.9998L19.9996 44.7998" stroke="#212C30" stroke-miterlimit="10" stroke-linecap="round" stroke-linejoin="round"/>
<path d="M8.59961 26.2998L11.7996 29.4998L19.9996 21.2998" stroke="#212C30" stroke-miterlimit="10" stroke-linecap="round" stroke-linejoin="round"/>
<path d="M8.59961 49.7998L11.7996 52.9998L19.9996 44.7998" stroke="#212C30" stroke-miterlimit="10" stroke-linecap="round" stroke-linejoin="round"/>
<path d="M0.5 9.5H49.7" stroke="#212C30" stroke-miterlimit="10" stroke-linejoin="round"/>
<path d="M0.5 87.6001H49.7" stroke="#212C30" stroke-miterlimit="10" stroke-linejoin="round"/>
</svg>
