<svg width="63" height="95" viewBox="0 0 63 95" fill="none" xmlns="http://www.w3.org/2000/svg">
<path d="M27.0996 32.3999H43.7996" stroke="#212C30" stroke-miterlimit="10" stroke-linecap="round"/>
<path d="M27.0996 26.8H55.3996" stroke="#212C30" stroke-miterlimit="10" stroke-linecap="round"/>
<path d="M19.7004 47.7H8.40039V59H19.7004V47.7Z" stroke="#212C30" stroke-miterlimit="10" stroke-linecap="round" stroke-linejoin="round"/>
<path d="M27.0996 56.3H43.7996" stroke="#212C30" stroke-miterlimit="10" stroke-linecap="round"/>
<path d="M27.0996 50.7H55.3996" stroke="#212C30" stroke-miterlimit="10" stroke-linecap="round"/>
<path d="M27.0996 80.1001H43.7996" stroke="#212C30" stroke-miterlimit="10" stroke-linecap="round"/>
<path d="M27.0996 74.5H55.3996" stroke="#212C30" stroke-miterlimit="10" stroke-linecap="round"/>
<path d="M11.5 8H0.5V94.3H62.3V8H51.3" stroke="#212C30" stroke-miterlimit="10" stroke-linejoin="round"/>
<path d="M49.3 1H13.5C12.4 1 11.5 1.9 11.5 3V8.1V11.2H51.3V8V3C51.3 1.9 50.4 1 49.3 1Z" stroke="#212C30" stroke-miterlimit="10" stroke-linecap="round" stroke-linejoin="round"/>
<path d="M11.3008 50.6001L16.8008 56.0001" stroke="#212C30" stroke-miterlimit="10" stroke-linecap="round" stroke-linejoin="round"/>
<path d="M11.3008 56.0001L16.8008 50.6001" stroke="#212C30" stroke-miterlimit="10" stroke-linecap="round" stroke-linejoin="round"/>
<path d="M11.0996 28.0002L14.4996 31.4002L23.1996 22.7002" stroke="#212C30" stroke-miterlimit="10" stroke-linecap="round" stroke-linejoin="round"/>
<path d="M11.0996 75.6999L14.4996 79.0999L23.1996 70.3999" stroke="#212C30" stroke-miterlimit="10" stroke-linecap="round" stroke-linejoin="round"/>
<path d="M19.7004 71.5H8.40039V82.8H19.7004V71.5Z" stroke="#212C30" stroke-miterlimit="10" stroke-linecap="round" stroke-linejoin="round"/>
<path d="M11.0996 75.6999L14.4996 79.0999L23.1996 70.3999" stroke="#212C30" stroke-miterlimit="10" stroke-linecap="round" stroke-linejoin="round"/>
<path d="M19.7004 23.7998H8.40039V35.0998H19.7004V23.7998Z" stroke="#212C30" stroke-miterlimit="10" stroke-linecap="round" stroke-linejoin="round"/>
<path d="M11.0996 28.0002L14.4996 31.4002L23.1996 22.7002" stroke="#212C30" stroke-miterlimit="10" stroke-linecap="round" stroke-linejoin="round"/>
</svg>
