<svg width="95" height="56" viewBox="0 0 95 56" fill="none" xmlns="http://www.w3.org/2000/svg">
<path d="M11.1008 48.9C11.1008 48.9 11.1008 42.9 11.1008 41.7C11.1008 40.5 10.7008 38.2 8.70078 38.2C6.70078 38.2 6.30078 40.5 6.30078 41.7C6.30078 42.9 6.30078 48.9 6.30078 48.9H11.1008Z" stroke="#212C30" stroke-miterlimit="10" stroke-linecap="round" stroke-linejoin="round"/>
<path d="M21.9992 48.9C21.9992 48.9 21.9992 42.9 21.9992 41.7C21.9992 40.5 21.5992 38.2 19.5992 38.2C17.5992 38.2 17.1992 40.5 17.1992 41.7C17.1992 42.9 17.1992 48.9 17.1992 48.9H21.9992Z" stroke="#212C30" stroke-miterlimit="10" stroke-linecap="round" stroke-linejoin="round"/>
<path d="M11.1008 24.6001H6.30078V32.8001H11.1008V24.6001Z" stroke="#212C30" stroke-miterlimit="10" stroke-linecap="round" stroke-linejoin="round"/>
<path d="M21.9992 24.6001H17.1992V32.8001H21.9992V24.6001Z" stroke="#212C30" stroke-miterlimit="10" stroke-linecap="round" stroke-linejoin="round"/>
<path d="M83.9004 48.9C83.9004 48.9 83.9004 42.9 83.9004 41.7C83.9004 40.5 84.3004 38.2 86.3004 38.2C88.3004 38.2 88.7004 40.5 88.7004 41.7C88.7004 42.9 88.7004 48.9 88.7004 48.9H83.9004Z" stroke="#212C30" stroke-miterlimit="10" stroke-linecap="round" stroke-linejoin="round"/>
<path d="M73 48.9C73 48.9 73 42.9 73 41.7C73 40.5 73.4 38.2 75.4 38.2C77.4 38.2 77.8 40.5 77.8 41.7C77.8 42.9 77.8 48.9 77.8 48.9H73Z" stroke="#212C30" stroke-miterlimit="10" stroke-linecap="round" stroke-linejoin="round"/>
<path d="M83.827 32.8037L88.627 32.8037L88.627 24.6037L83.827 24.6037L83.827 32.8037Z" stroke="#212C30" stroke-miterlimit="10" stroke-linecap="round" stroke-linejoin="round"/>
<path d="M72.9676 32.8037L77.7676 32.8037L77.7676 24.6037L72.9676 24.6037L72.9676 32.8037Z" stroke="#212C30" stroke-miterlimit="10" stroke-linecap="round" stroke-linejoin="round"/>
<path d="M68.3004 21.7V54.9H64.8004C64.8004 54.9 64.8004 54.5 64.8004 53.9C64.8004 49.7 64.8004 33.8 64.8004 31.9C64.8004 29.8 64.1004 25.6 60.3004 25.6C56.5004 25.6 55.8004 29.8 55.8004 31.9C55.8004 33.9999 55.8004 54.9 55.8004 54.9H52.3004C52.3004 54.9 52.3004 34.1 52.3004 31.9C52.3004 29.6999 51.6004 25.6 47.8004 25.6H47.4004C43.5004 25.6 42.9004 29.8 42.9004 31.9C42.9004 33.9999 42.9004 54.9 42.9004 54.9H39.4004C39.4004 54.9 39.4004 34.1 39.4004 31.9C39.4004 29.6999 38.7004 25.6 34.9004 25.6C31.1004 25.6 30.4004 29.8 30.4004 31.9C30.4004 33.8 30.4004 49.7 30.4004 53.9C30.4004 54.5 30.4004 54.9 30.4004 54.9H26.9004V21.7" stroke="#212C30" stroke-miterlimit="10" stroke-linejoin="round"/>
<path d="M92.2004 19.6001V54.9001H2.40039V19.6001" stroke="#212C30" stroke-miterlimit="10" stroke-linejoin="round"/>
<path d="M43.4 4.6001H30.5L0.5 19.6001H26.3" stroke="#212C30" stroke-miterlimit="10" stroke-linejoin="round"/>
<path d="M68.6 19.6001H94.2L64.1 4.6001H51.5" stroke="#212C30" stroke-miterlimit="10" stroke-linejoin="round"/>
<path d="M68.6004 19.6L51.5004 4.6L47.5004 1L43.4004 4.6L26.3004 19.6L23.9004 21.7H71.1004L68.6004 19.6Z" stroke="#212C30" stroke-miterlimit="10" stroke-linejoin="round"/>
<path d="M47.5008 15.5001C49.5442 15.5001 51.2008 13.8436 51.2008 11.8001C51.2008 9.75664 49.5442 8.1001 47.5008 8.1001C45.4573 8.1001 43.8008 9.75664 43.8008 11.8001C43.8008 13.8436 45.4573 15.5001 47.5008 15.5001Z" stroke="#212C30" stroke-miterlimit="10" stroke-linecap="round" stroke-linejoin="round"/>
</svg>
