<svg width="80" height="80" viewBox="0 0 80 80" fill="none" xmlns="http://www.w3.org/2000/svg">
<path d="M28.3008 33.3H78.7008" stroke="#212C30" stroke-miterlimit="10" stroke-linecap="round" stroke-linejoin="round"/>
<path d="M28.3008 78.9001V55.8H41.3008" stroke="#212C30" stroke-miterlimit="10" stroke-linecap="round" stroke-linejoin="round"/>
<path d="M55.8008 44.2V57.2999" stroke="#212C30" stroke-miterlimit="10" stroke-linecap="round" stroke-linejoin="round"/>
<path d="M53.5 78.9H78.9V0.5H0.5V78.9H41.3L50.3 73" stroke="#212C30" stroke-miterlimit="10" stroke-linecap="round" stroke-linejoin="round"/>
<path d="M59.6008 59.6001L55.8008 71.0001V78.9001" stroke="#212C30" stroke-miterlimit="10" stroke-linecap="round" stroke-linejoin="round"/>
<path d="M0.5 68.2H28.3" stroke="#212C30" stroke-miterlimit="10" stroke-linecap="round" stroke-linejoin="round"/>
<path d="M64.1992 0.899902V5.0999H74.8992V29.0999H64.1992V33.2999" stroke="#212C30" stroke-miterlimit="10" stroke-linecap="round" stroke-linejoin="round"/>
<path d="M64.1992 5.1001V29.1001" stroke="#212C30" stroke-miterlimit="10" stroke-linecap="round" stroke-linejoin="round"/>
<path d="M56.9004 7.30005H42.9004V27H56.9004V7.30005Z" stroke="#212C30" stroke-miterlimit="10" stroke-linecap="round" stroke-linejoin="round"/>
<path d="M0.5 74.8H28.3" stroke="#212C30" stroke-miterlimit="10" stroke-linecap="round" stroke-linejoin="round"/>
<path d="M78.9008 33.3H27.8008V44.2001H78.9008V33.3Z" stroke="#212C30" stroke-miterlimit="10" stroke-linecap="round" stroke-linejoin="round"/>
<path d="M33.1016 33.3V44.2001" stroke="#212C30" stroke-miterlimit="10" stroke-linecap="round" stroke-linejoin="round"/>
<path d="M38.2012 33.3V44.2001" stroke="#212C30" stroke-miterlimit="10" stroke-linecap="round" stroke-linejoin="round"/>
<path d="M43.3008 33.3V44.2001" stroke="#212C30" stroke-miterlimit="10" stroke-linecap="round" stroke-linejoin="round"/>
<path d="M48.4004 33.3V44.2001" stroke="#212C30" stroke-miterlimit="10" stroke-linecap="round" stroke-linejoin="round"/>
<path d="M53.5 33.3V44.2001" stroke="#212C30" stroke-miterlimit="10" stroke-linecap="round" stroke-linejoin="round"/>
<path d="M58.6016 33.3V44.2001" stroke="#212C30" stroke-miterlimit="10" stroke-linecap="round" stroke-linejoin="round"/>
<path d="M63.7012 33.3V44.2001" stroke="#212C30" stroke-miterlimit="10" stroke-linecap="round" stroke-linejoin="round"/>
<path d="M68.8008 33.3V44.2001" stroke="#212C30" stroke-miterlimit="10" stroke-linecap="round" stroke-linejoin="round"/>
<path d="M73.9004 33.3V44.2001" stroke="#212C30" stroke-miterlimit="10" stroke-linecap="round" stroke-linejoin="round"/>
<path d="M8.80078 65.8L14.4008 68.2" stroke="#212C30" stroke-miterlimit="10" stroke-linecap="round" stroke-linejoin="round"/>
<path d="M6.1 65.8L0.5 68.2" stroke="#212C30" stroke-miterlimit="10" stroke-linecap="round" stroke-linejoin="round"/>
<path d="M22.6992 65.8L28.2992 68.2" stroke="#212C30" stroke-miterlimit="10" stroke-linecap="round" stroke-linejoin="round"/>
<path d="M20.0004 65.8L14.4004 68.2" stroke="#212C30" stroke-miterlimit="10" stroke-linecap="round" stroke-linejoin="round"/>
<path d="M37.9004 78.9001V55.8" stroke="#212C30" stroke-miterlimit="10" stroke-linecap="round" stroke-linejoin="round"/>
<path d="M56 53.7H78.7" stroke="#212C30" stroke-miterlimit="10" stroke-linecap="round" stroke-linejoin="round"/>
<path d="M56 71H78.7" stroke="#212C30" stroke-miterlimit="10" stroke-linecap="round" stroke-linejoin="round"/>
<path d="M0.5 32.4H5.2V5.1H23.7V0.5" stroke="#212C30" stroke-miterlimit="10" stroke-linecap="round" stroke-linejoin="round"/>
<path d="M23.6992 5.1001V13.7001H14.3992V32.4001H5.19922" stroke="#212C30" stroke-miterlimit="10" stroke-linecap="round" stroke-linejoin="round"/>
</svg>
