<svg width="91" height="53" viewBox="0 0 91 53" fill="none" xmlns="http://www.w3.org/2000/svg">
<path d="M71.7996 6.6001L67.5996 8.1001L75.2996 27.6001L78.7996 26.3001" stroke="#212C30" stroke-miterlimit="10" stroke-linecap="round" stroke-linejoin="round"/>
<path d="M90.2996 26.5C90.2996 26.5 80.2996 30.1 80.2996 29.9C80.2996 29.7 71.0996 4.3 71.0996 4.3L81.6996 0.5L90.2996 26.5Z" stroke="#212C30" stroke-miterlimit="10" stroke-linecap="round" stroke-linejoin="round"/>
<path d="M19 6.6001L23.2 8.1001L15.5 27.6001L12 26.3001" stroke="#212C30" stroke-miterlimit="10" stroke-linecap="round" stroke-linejoin="round"/>
<path d="M0.5 26.5C0.5 26.5 10.5 30.1 10.5 29.9C10.5 29.7 19.8 4.4 19.8 4.4L9.2 0.5L0.5 26.5Z" stroke="#212C30" stroke-miterlimit="10" stroke-linecap="round" stroke-linejoin="round"/>
<path d="M67.9005 9.20001C64.5005 10.3 54.4005 4.70001 51.6005 4.90001C48.7005 5.00001 39.4005 7.60001 37.8005 9.50001C36.2005 11.4 32.3005 17.5 32.7005 18.3C33.1005 19.1 35.5005 21.2 38.0005 20.7C40.4005 20.2 42.6005 15.1 43.8005 15.2C45.0005 15.3 51.0005 14.4 51.0005 15.2C51.0005 16 53.5005 22.2 57.4005 23.5C61.3005 24.8 73.1005 31.7 73.7005 32.9C74.3005 34.1 75.2005 40.4 70.4005 39.1C65.6005 37.8 60.4005 34.3 60.4005 34.3C60.4005 34.3 66.2005 37 66.0005 39.3C65.8005 41.6 64.8005 44.3 62.1005 43.9C59.4005 43.5 53.0005 39.4 53.5005 39.6C54.0005 39.8 58.8005 42.6 58.8005 43.9C58.8005 45.2 58.3005 48.3 55.4005 48.2C52.5005 48.1 48.8005 45.1 49.2005 45.6C49.7005 46.1 50.2005 47.8 49.8005 48.9C49.4005 50 47.5005 51.9 45.5005 51.4C43.5005 50.9 42.4005 49.6 42.4005 49.6" stroke="#212C30" stroke-miterlimit="10" stroke-linecap="round" stroke-linejoin="round"/>
<path d="M22.5996 9.50005C26.7996 9.40005 36.1996 11.5 36.3996 11.3" stroke="#212C30" stroke-miterlimit="10" stroke-linecap="round" stroke-linejoin="round"/>
<path d="M16.7994 30.8001C17.2994 29.2001 19.5994 27.1001 21.4994 27.1001C23.3994 27.1001 25.4994 27.7001 25.4994 29.9001C25.4994 32.1001 23.1994 35.6001 21.2994 35.7001C19.3994 35.7001 15.9994 33.2001 16.7994 30.8001Z" stroke="#212C30" stroke-miterlimit="10" stroke-linecap="round" stroke-linejoin="round"/>
<path d="M21.1998 37.0999C21.6998 35.4999 25.1998 31.8999 27.0998 31.8999C28.9998 31.8999 31.0998 32.4999 31.0998 34.6999C31.0998 36.8999 27.5998 41.7999 25.6998 41.8999C23.7998 41.9999 20.3998 39.4999 21.1998 37.0999Z" stroke="#212C30" stroke-miterlimit="10" stroke-linecap="round" stroke-linejoin="round"/>
<path d="M28.2996 42.2C28.7996 40.6 31.6996 37 33.4996 37C35.3996 37 37.4996 37.6 37.4996 39.8C37.4996 42 34.5996 46.9 32.6996 47C30.8996 47.2 27.4996 44.7 28.2996 42.2Z" stroke="#212C30" stroke-miterlimit="10" stroke-linecap="round" stroke-linejoin="round"/>
<path d="M35.0994 46.7C35.5994 45.1 37.8994 43 39.7994 43C41.6994 43 43.7994 43.6 43.7994 45.8C43.7994 48 41.4994 51.5 39.5994 51.6C37.7994 51.7 34.2994 49.1 35.0994 46.7Z" stroke="#212C30" stroke-miterlimit="10" stroke-linecap="round" stroke-linejoin="round"/>
<path d="M16.6992 26.3999L18.8992 28.1999" stroke="#212C30" stroke-miterlimit="10" stroke-linecap="round" stroke-linejoin="round"/>
<path d="M74.1 26.3999C73.1 27.6999 72.5 31.9999 72.5 31.9999" stroke="#212C30" stroke-miterlimit="10" stroke-linecap="round" stroke-linejoin="round"/>
</svg>
