<svg width="92" height="82" viewBox="0 0 92 82" fill="none" xmlns="http://www.w3.org/2000/svg">
<path d="M39.3988 40.7998L9.79883 76.0998L14.8988 80.8998L15.1988 77.3998H18.6988L19.7988 74.1998L23.6988 74.5998L24.1988 70.1998H27.8988L28.8988 65.9998L33.0988 66.3998L33.2988 62.3998L38.1988 62.8998V58.4998L43.0988 58.9998L43.4988 54.2998L48.2988 55.2998V54.8998" stroke="#212C30" stroke-miterlimit="10" stroke-linecap="round" stroke-linejoin="round"/>
<path d="M57.1992 47.0999H58.4992L58.3992 43.0999L62.9992 43.9999V39.9999L67.7992 40.3999L68.6992 35.9999L72.4992 36.7999L73.4992 31.9999L77.2992 32.4999V30.2999L57.8992 18.5999L43.1992 36.0999" stroke="#212C30" stroke-miterlimit="10" stroke-linecap="round" stroke-linejoin="round"/>
<path d="M57.8984 18.5998L72.3984 1.8998C72.9984 1.0998 74.1984 0.999802 74.9984 1.6998L90.6984 14.8998C91.4984 15.5998 91.5984 16.7998 90.8984 17.5998L79.5984 30.6998L77.2984 30.2998" stroke="#212C30" stroke-miterlimit="10" stroke-linecap="round" stroke-linejoin="round"/>
<path d="M74.5986 6.89987L85.2986 15.4999C86.0986 16.1999 86.1986 17.2999 85.5986 18.0999L82.6986 21.6999C82.1986 22.2999 81.3986 22.4999 80.6986 22.2999L68.7986 18.5999C68.5986 18.4999 68.2986 18.3999 68.0986 18.1999L66.3986 16.6999C65.5986 15.9999 65.4986 14.8999 66.1986 14.0999L71.9986 7.19987C72.5986 6.39987 73.7986 6.29987 74.5986 6.89987Z" stroke="#212C30" stroke-miterlimit="10" stroke-linecap="round" stroke-linejoin="round"/>
<path d="M28.8238 19.7939L24.334 23.7737L47.5495 49.9642L52.0393 45.9844L28.8238 19.7939Z" stroke="#212C30" stroke-miterlimit="10" stroke-linecap="round" stroke-linejoin="round"/>
<path d="M76.9997 71.5999L70.3997 77.4999C69.7997 77.9999 68.8997 77.9999 68.3997 77.3999L46.5997 52.6999C46.0997 52.0999 46.0997 51.1999 46.6997 50.6999L53.2997 44.7999C53.8997 44.2999 54.7997 44.2999 55.2997 44.8999L77.0997 69.4999C77.6997 70.1999 77.5997 71.0999 76.9997 71.5999Z" stroke="#212C30" stroke-miterlimit="10" stroke-linecap="round" stroke-linejoin="round"/>
<path d="M46.0992 1.39992C40.3992 0.0999156 32.1992 -0.700084 24.7992 5.89992L11.4992 17.6999C11.1992 17.9999 11.1992 18.3999 11.3992 18.7999L12.5992 20.1999L6.9992 25.0999L6.2992 24.3999C6.1992 23.9999 5.6992 23.9999 5.3992 24.2999L1.9992 27.2999C1.3992 27.7999 1.2992 28.7999 1.8992 29.3999L7.9992 36.2999C8.4992 36.8999 9.4992 36.9999 10.0992 36.3999L13.4992 33.3999C13.7992 33.0999 13.7992 32.6999 13.5992 32.2999L12.4992 31.0999L18.0992 26.1999L19.1992 27.3999C19.4992 27.6999 19.8992 27.6999 20.2992 27.4999L33.5992 15.6999C33.8992 15.3999 33.8992 14.9999 33.6992 14.5999L32.5992 13.2999C31.4992 11.9999 32.6992 9.89992 38.5992 6.79992C44.4992 3.69992 48.1992 5.29992 52.7992 5.79992C57.3992 6.29992 52.4992 2.89992 46.0992 1.39992Z" stroke="#212C30" stroke-miterlimit="10" stroke-linecap="round" stroke-linejoin="round"/>
</svg>
