<svg width="96" height="44" viewBox="0 0 96 44" fill="none" xmlns="http://www.w3.org/2000/svg">
<path d="M44.0008 32.8062H18.4008C18.1008 32.8062 17.8008 32.5063 17.8008 32.2063V22.0063C17.8008 20.6063 18.9008 19.4062 20.4008 19.4062H43.2008C44.0008 19.4062 44.6008 20.0062 44.6008 20.8062V32.2063C44.5008 32.6063 44.3008 32.8062 44.0008 32.8062Z" stroke="#212C30" stroke-miterlimit="10" stroke-linejoin="round"/>
<path d="M44.0008 37.0057H18.4008C18.1008 37.0057 17.8008 36.7057 17.8008 36.4057V33.4057C17.8008 33.1057 18.1008 32.8057 18.4008 32.8057H44.0008C44.3008 32.8057 44.6008 33.1057 44.6008 33.4057V36.4057C44.5008 36.7057 44.3008 37.0057 44.0008 37.0057Z" stroke="#212C30" stroke-miterlimit="10" stroke-linejoin="round"/>
<path d="M45.0997 32.8062H70.6997C70.9997 32.8062 71.2997 32.5063 71.2997 32.2063V22.0063C71.2997 20.6063 70.1997 19.4062 68.6997 19.4062H45.9997C45.1997 19.4062 44.5997 20.0062 44.5997 20.8062V32.2063C44.4997 32.6063 44.7997 32.8062 45.0997 32.8062Z" stroke="#212C30" stroke-miterlimit="10" stroke-linejoin="round"/>
<path d="M45.1 37.0057H70.7C71 37.0057 71.3 36.7057 71.3 36.4057V33.4057C71.3 33.1057 71 32.8057 70.7 32.8057H45.1C44.8 32.8057 44.5 33.1057 44.5 33.4057V36.4057C44.5 36.7057 44.8 37.0057 45.1 37.0057Z" stroke="#212C30" stroke-miterlimit="10" stroke-linejoin="round"/>
<path d="M71.3004 26.9062C71.3004 25.8062 72.1004 24.9062 73.2004 24.9062H74.8004C75.8004 24.9062 76.7004 25.8062 76.7004 26.9062V39.7063C76.7004 40.8063 75.9004 41.7063 74.8004 41.7063H44.5004H14.3004C13.3004 41.7063 12.4004 40.8063 12.4004 39.7063V26.9062C12.4004 25.8062 13.2004 24.9062 14.3004 24.9062H15.9004C16.9004 24.9062 17.8004 25.8062 17.8004 26.9062" stroke="#212C30" stroke-miterlimit="10" stroke-linejoin="round"/>
<path d="M36.3008 14.1057C36.4008 14.1057 36.6008 14.1057 36.7008 14.1057C36.8008 13.6057 36.9008 13.1057 36.9008 12.6057C36.9008 9.10566 34.1008 6.30566 30.6008 6.30566C27.1008 6.30566 24.3008 9.10566 24.3008 12.6057C24.3008 13.1057 24.4008 13.6057 24.5008 14.1057H36.3008Z" stroke="#212C30" stroke-miterlimit="10" stroke-linecap="round" stroke-linejoin="round"/>
<path d="M1 42.9062H9.1" stroke="#212C30" stroke-miterlimit="10" stroke-linecap="round" stroke-linejoin="round"/>
<path d="M83.5008 2.50586H56.8008V13.3059H83.5008V2.50586Z" stroke="#212C30" stroke-miterlimit="10" stroke-linecap="round" stroke-linejoin="round"/>
<path d="M79.1992 30.9062H95.3992" stroke="#212C30" stroke-miterlimit="10" stroke-linecap="round" stroke-linejoin="round"/>
<path d="M80.1992 43.0059V31.0059" stroke="#212C30" stroke-miterlimit="10" stroke-linecap="round" stroke-linejoin="round"/>
<path d="M94.1992 43.2061V31.2061" stroke="#212C30" stroke-miterlimit="10" stroke-linecap="round" stroke-linejoin="round"/>
<path d="M80.3008 33.6055H94.0008" stroke="#212C30" stroke-miterlimit="10" stroke-linecap="round" stroke-linejoin="round"/>
<path d="M85.5996 27.1055H82.5996V30.9055H85.5996V27.1055Z" stroke="#212C30" stroke-miterlimit="10" stroke-linecap="round" stroke-linejoin="round"/>
<path d="M5.09961 42.906C5.09961 42.906 5.09961 33.606 5.09961 21.506C5.09961 -3.09402 29.4996 -1.99401 30.5996 6.40599" stroke="#212C30" stroke-miterlimit="10" stroke-linecap="round" stroke-linejoin="round"/>
</svg>
