<svg width="19" height="19" viewBox="0 0 19 19" fill="none" xmlns="http://www.w3.org/2000/svg">
<path d="M9.18074 0.564798C9.32493 0.0929583 9.9929 0.0929576 10.1371 0.564797L11.9439 6.47735C12.0081 6.68761 12.2022 6.83123 12.422 6.83123H18.331C18.808 6.83123 19.0141 7.43536 18.6367 7.72691L13.8045 11.4599C13.6399 11.5871 13.5712 11.8028 13.632 12.0017L15.4651 18.0005C15.6076 18.4667 15.067 18.8403 14.6813 18.5423L9.96459 14.8986C9.78454 14.7595 9.53329 14.7595 9.35324 14.8986L4.63656 18.5423C4.25086 18.8403 3.71028 18.4667 3.85271 18.0005L5.68584 12.0017C5.74662 11.8028 5.67793 11.5871 5.51334 11.4599L0.681111 7.72691C0.303707 7.43536 0.509879 6.83123 0.986783 6.83123H6.89581C7.11566 6.83123 7.30973 6.68761 7.37398 6.47735L9.18074 0.564798Z" fill="#FAC04B"/>
</svg>
