<svg width="31" height="34" viewBox="0 0 31 34" fill="none" xmlns="http://www.w3.org/2000/svg">
<path d="M13.1775 13.3963H12.0292C6.28807 13.3963 1.69514 17.9893 1.69514 23.7304V25.1657H0.738281V27.2708H9.63709V25.1657H8.58454V23.7304C8.58454 21.8167 10.1155 20.2857 12.0292 20.2857H13.1775V21.434H15.2826V12.5352H13.1775V13.3963Z" fill="#3CADDE"/>
<path d="M21.9814 6.60254V8.70763H23.034V10.1429C23.034 12.0566 21.503 13.5876 19.5893 13.5876H18.441V12.4394H16.3359V21.3382H18.441V20.477H19.5893C25.3304 20.477 29.9234 15.8841 29.9234 10.1429V8.70763H30.8802V6.60254H21.9814Z" fill="#3CADDE"/>
<path d="M30.7836 3.54039H29.8267V0H22.9373V3.54039H21.9805V5.64548H30.7836V3.54039Z" fill="#3CADDE"/>
<path d="M0.738281 30.3326H1.69514V33.873H8.58454V30.3326H9.5414V28.2275H0.738281V30.3326Z" fill="#3CADDE"/>
</svg>
