<svg width="41" height="41" viewBox="0 0 41 41" fill="none" xmlns="http://www.w3.org/2000/svg">
<path fill-rule="evenodd" clip-rule="evenodd" d="M28.3409 31.0395L35.6805 32.661C36.03 32.7768 36.263 33.1243 36.263 33.4718L36.1465 34.1667L40.5735 35.0932C40.69 35.0932 40.8065 35.209 40.69 35.3249L40.3405 36.5989C40.3405 36.7147 40.224 36.8305 40.1075 36.7147L35.6805 35.904L35.2144 37.9887L39.6415 38.9153C39.758 38.9153 39.8745 39.0311 39.758 39.1469L39.4085 40.5367C39.4085 40.6525 39.292 40.7684 39.1755 40.6525L34.7484 39.726L34.6319 40.4209C34.5154 40.7684 34.1659 41 33.8164 41L26.4768 39.3785C25.1953 39.0311 24.3798 37.7571 24.6128 36.4831L24.7293 35.7881L25.3118 33.3559L25.4283 32.8927C25.7778 31.5028 27.0593 30.6921 28.3409 31.0395ZM28.5739 1.15819L39.292 12.9718C39.292 13.5508 39.292 14.1299 39.292 14.709C38.7095 14.8249 38.0105 14.9407 37.428 15.0565C37.428 18.7627 37.428 22.4689 37.428 26.1751C31.2534 27.6808 24.9623 29.0706 18.7877 30.5763L7.83658 24.9011V14.8249L6.55506 14.2458V12.7401L16.3412 16.5621L28.5739 1.15819ZM6.55506 11.8136L16.8072 0L27.5253 1.04237L16.1082 15.5198L6.55506 11.8136ZM25.7778 27.4492V17.7203L31.1369 16.7938V26.1751L36.1465 25.0169C36.1465 21.3107 36.1465 17.6045 36.1465 13.8983C36.729 13.7825 37.428 13.6667 38.0105 13.5508L28.6904 3.24294L17.8557 17.0254L20.0692 16.678V28.9548L25.7778 27.4492ZM15.1762 19.3418L11.4481 17.8362V22.1215L15.1762 23.9746V19.3418ZM23.7973 35.7881C23.3313 35.7881 22.7488 35.904 22.2828 36.1356C21.3508 36.5989 20.4187 36.9463 19.4867 37.4096C15.0597 39.4944 10.5161 39.726 6.90456 38.1045C-0.78454 34.3983 -1.83306 23.9746 6.90456 20.0367V23.048C1.54549 26.291 2.71051 33.1243 8.18608 35.6723C10.9821 36.9463 14.7102 36.7147 18.3217 34.9774C19.2537 34.5141 20.1857 34.1667 21.1178 33.7034C22.1663 33.2401 23.3313 33.1243 24.3798 33.1243L23.7973 35.7881Z" fill="#F1BB51"/>
</svg>
