<svg width="32" height="34" viewBox="0 0 32 34" fill="none" xmlns="http://www.w3.org/2000/svg">
<path d="M31.8362 3.54036V0H0.738281V3.54036C0.738281 4.11447 1.21671 4.59289 1.79083 4.59289H8.20179V9.0901C8.20179 9.18579 8.20179 9.18579 8.20179 9.28147C8.20179 9.37716 8.20179 9.37716 8.29748 9.47285V9.56853C8.39316 9.66422 8.48885 9.7599 8.58454 9.85559L8.68022 9.95127L13.0818 12.8218C13.2732 12.9175 13.4645 13.0132 13.6559 13.0132C14.0386 13.0132 14.3257 12.8218 14.5171 12.5348C14.8041 12.0563 14.7084 11.3866 14.23 11.0038L10.3069 8.51599V4.68858H22.459V8.51599L18.5359 11.0995C18.0575 11.3866 17.8661 12.0563 18.2488 12.6305C18.4402 12.9175 18.8229 13.1089 19.11 13.1089C19.3014 13.1089 19.4927 13.0132 19.6841 12.9175L24.0857 10.047L24.1814 9.95127C24.277 9.85559 24.3727 9.7599 24.4684 9.66422V9.56853C24.4684 9.47285 24.4684 9.47285 24.5641 9.37716C24.5641 9.37716 24.5641 9.37716 24.5641 9.28147C24.5641 9.18579 24.5641 9.18579 24.5641 9.0901V4.59289H30.688C31.3578 4.59289 31.8362 4.11447 31.8362 3.54036Z" fill="#197A72"/>
<path d="M17.8667 24.0169C17.8667 23.2514 16.4314 20.668 16.4314 20.668C16.4314 20.668 14.9961 23.2514 14.9961 24.0169C14.9961 24.7824 15.6659 25.4521 16.4314 25.4521C17.1969 25.4521 17.8667 24.7824 17.8667 24.0169Z" fill="#197A72"/>
<path d="M8.39348 21.8162C7.81936 22.3903 7.81936 23.2514 8.39348 23.8256C8.96759 24.3997 9.82877 24.3997 10.4029 23.8256C10.977 23.2514 11.7425 20.3809 11.7425 20.3809C11.7425 20.3809 8.96759 21.242 8.39348 21.8162Z" fill="#197A72"/>
<path d="M24.4682 21.8162C23.894 21.242 21.1191 20.3809 21.1191 20.3809C21.1191 20.3809 21.8846 23.2514 22.4587 23.8256C23.0329 24.3997 23.894 24.3997 24.4682 23.8256C25.0423 23.2514 25.0423 22.3903 24.4682 21.8162Z" fill="#197A72"/>
<path d="M16.4314 33.969C17.2926 33.969 17.8667 33.2992 17.8667 32.5337C17.8667 31.7682 16.4314 29.1846 16.4314 29.1846C16.4314 29.1846 14.9961 31.7682 14.9961 32.5337C14.9961 33.2992 15.6659 33.969 16.4314 33.969Z" fill="#197A72"/>
<path d="M8.77695 30.811C8.48989 31.5765 8.87264 32.342 9.63812 32.6291C10.4036 32.9161 11.1691 32.5334 11.4562 31.7679C11.7432 31.0024 11.3605 28.1318 11.3605 28.1318C11.3605 28.1318 9.06401 30.0456 8.77695 30.811Z" fill="#197A72"/>
<path d="M1.88691 30.0454C2.36534 30.6195 3.22651 30.8109 3.89632 30.3324C4.47043 29.854 5.71435 27.0791 5.71435 27.0791C5.71435 27.0791 2.74808 27.5575 2.17397 28.036C1.50417 28.6101 1.40848 29.4713 1.88691 30.0454Z" fill="#197A72"/>
<path d="M21.597 28.1318C21.597 28.1318 21.2142 31.0981 21.5013 31.7679C21.7883 32.5334 22.6495 32.8205 23.3193 32.6291C24.0848 32.342 24.3719 31.4808 24.1805 30.811C23.7978 30.0456 21.597 28.1318 21.597 28.1318Z" fill="#197A72"/>
<path d="M27.2441 27.0791C27.2441 27.0791 28.3924 29.7584 29.0622 30.3326C29.6363 30.811 30.5932 30.7153 31.0716 30.0455C31.55 29.4714 31.4543 28.5145 30.7845 28.036C30.1147 27.5576 27.2441 27.0791 27.2441 27.0791Z" fill="#197A72"/>
<path d="M22.1718 16.075C22.1718 15.5009 21.6934 15.0225 21.1193 15.0225H17.5789V9.95101C17.5789 9.37688 17.1005 8.89844 16.5263 8.89844C15.9522 8.89844 15.4738 9.37688 15.4738 9.95101V15.0225H11.9334C11.3593 15.0225 10.8809 15.5009 10.8809 16.075V18.1802H22.3632V16.075H22.1718Z" fill="#197A72"/>
</svg>
