<svg width="35" height="34" viewBox="0 0 35 34" fill="none" xmlns="http://www.w3.org/2000/svg">
<path d="M25.6166 0H17.0049C16.7178 0 16.4308 0.28706 16.4308 0.57412V7.65493L1.40808 2.8706C1.3124 2.8706 1.12103 2.8706 0.929653 2.96629C0.833967 3.06197 0.738281 3.25335 0.738281 3.34903V7.65493C0.738281 7.94199 0.929653 8.13336 1.12103 8.13336L12.8904 11.3867L6.86219 14.6401H6.7665V13.3961C6.7665 13.2048 6.67082 13.0134 6.38376 12.9177C6.19239 12.822 5.90533 12.9177 5.80964 13.1091L4.94847 14.0659L1.40808 12.9177C1.21671 12.822 1.02534 12.9177 0.929653 13.0134C0.833967 13.1091 0.738281 13.2048 0.738281 13.3961V17.702C0.738281 17.8934 0.929653 18.1805 1.12103 18.1805L1.3124 18.2761L0.833967 18.7546C0.738281 18.946 0.738281 19.1373 0.738281 19.3287C0.833967 19.5201 0.929653 19.6158 1.12103 19.7114L7.62768 21.0511H7.72336C8.01042 21.0511 8.29748 20.8597 8.29748 20.4769C8.29748 20.3813 8.29748 20.2856 8.20179 20.1899L8.10611 20.0942L12.8904 21.4338L6.7665 24.6871V23.4432C6.7665 23.2518 6.67082 23.0605 6.38376 22.9648C6.19239 22.8691 5.90533 22.9648 5.80964 23.1562L0.833967 28.8974C0.738281 28.8974 0.738281 29.0887 0.738281 29.2801C0.833967 29.4715 0.929653 29.5672 1.12103 29.6629L7.53199 31.0982H7.62768C7.91473 31.0982 8.20179 30.9068 8.20179 30.524C8.20179 30.4283 8.20179 30.3327 8.10611 30.237L7.62768 28.706L16.4308 24.3044V33.3946C16.4308 33.6817 16.7178 33.9688 17.0049 33.9688H25.6166C25.9037 33.9688 26.1908 33.6817 26.1908 33.3946V0.57412C26.0951 0.28706 25.9037 0 25.6166 0ZM16.4308 17.702L12.3163 16.3624L16.4308 14.2573V17.702ZM1.79083 7.27218V4.11452L16.4308 8.80317V9.47297L14.23 10.6212L1.79083 7.27218ZM1.79083 17.3193V14.1616L4.18298 14.9271L2.07789 17.415L1.79083 17.3193ZM6.47944 18.5632L6.86219 19.8071L2.26926 18.7546L5.71395 14.8314V15.5012C5.71395 15.6926 5.80964 15.884 6.00101 15.9797C6.19239 16.0754 6.38376 16.0754 6.57513 15.9797L16.5265 10.7169V11.291V13.1091L6.7665 17.8934C6.47944 18.0848 6.38376 18.2761 6.47944 18.5632ZM7.72336 18.8503L7.62768 18.6589L10.881 17.0322L16.4308 18.7546V19.4244L14.23 20.5726L7.72336 18.8503ZM6.7665 27.9405C6.47944 28.0362 6.38376 28.3232 6.47944 28.6103L6.86219 29.8542L2.26926 28.8017L5.71395 24.8785V25.5483C5.71395 25.7397 5.80964 25.9311 6.00101 26.0268C6.19239 26.1224 6.38376 26.1224 6.57513 26.0268L16.5265 20.764V21.3381V23.1562L6.7665 27.9405ZM25.0425 32.9162H17.579V23.4432V22.0079V19.9028V18.4675V13.3961V11.9608V9.85572V8.42042V1.05255H25.0425V32.9162Z" fill="#41527C"/>
<path d="M19.8749 21.8164C20.162 21.8164 20.449 21.5294 20.449 21.2423V16.9364C20.449 16.6494 20.162 16.3623 19.8749 16.3623C19.5878 16.3623 19.3008 16.6494 19.3008 16.9364V21.2423C19.3008 21.5294 19.5878 21.8164 19.8749 21.8164Z" fill="#41527C"/>
<path d="M19.8749 12.5352C20.162 12.5352 20.449 12.2481 20.449 11.961V7.65517C20.449 7.36811 20.162 7.08105 19.8749 7.08105C19.5878 7.08105 19.3008 7.36811 19.3008 7.65517V11.961C19.3008 12.2481 19.5878 12.5352 19.8749 12.5352Z" fill="#41527C"/>
<path d="M19.8749 15.4059C20.162 15.4059 20.449 15.1189 20.449 14.8318V14.162C20.449 13.8749 20.162 13.5879 19.8749 13.5879C19.5878 13.5879 19.3008 13.8749 19.3008 14.162V14.8318C19.3008 15.1189 19.5878 15.4059 19.8749 15.4059Z" fill="#41527C"/>
<path d="M19.8749 24.687C20.1619 24.687 20.449 24.4 20.449 24.1129V23.4432C20.449 23.1562 20.1619 22.8691 19.8749 22.8691C19.5878 22.8691 19.3008 23.1562 19.3008 23.4432V24.1129C19.3008 24.4 19.5878 24.687 19.8749 24.687Z" fill="#41527C"/>
<path d="M19.8749 31.0986C20.162 31.0986 20.449 30.8116 20.449 30.5245V26.2186C20.449 25.9316 20.162 25.6445 19.8749 25.6445C19.5878 25.6445 19.3008 25.9316 19.3008 26.2186V30.5245C19.3008 30.8116 19.5878 31.0986 19.8749 31.0986Z" fill="#41527C"/>
<path d="M22.746 10.3347C23.0331 10.3347 23.3201 10.0476 23.3201 9.76054V9.09074C23.2244 8.80368 23.0331 8.6123 22.746 8.6123C22.4589 8.6123 22.1719 8.89936 22.1719 9.18642V9.85622C22.1719 10.1433 22.4589 10.3347 22.746 10.3347Z" fill="#41527C"/>
<path d="M22.746 7.46389C23.0331 7.46389 23.3201 7.17683 23.3201 6.88977V2.67959C23.3201 2.39253 23.0331 2.10547 22.746 2.10547C22.4589 2.10547 22.1719 2.39253 22.1719 2.67959V6.98546C22.1719 7.27252 22.4589 7.46389 22.746 7.46389Z" fill="#41527C"/>
<path d="M22.746 26.1221C23.0331 26.1221 23.3201 25.835 23.3201 25.548V21.2421C23.3201 20.955 23.0331 20.668 22.746 20.668C22.4589 20.668 22.1719 20.955 22.1719 21.2421V25.548C22.1719 25.835 22.4589 26.1221 22.746 26.1221Z" fill="#41527C"/>
<path d="M22.746 16.7451C23.0331 16.7451 23.3201 16.4581 23.3201 16.171V11.8651C23.3201 11.5781 23.0331 11.291 22.746 11.291C22.4589 11.291 22.1719 11.5781 22.1719 11.8651V16.2667C22.1719 16.5537 22.4589 16.7451 22.746 16.7451Z" fill="#41527C"/>
<path d="M22.746 19.6157C23.033 19.6157 23.3201 19.3287 23.3201 19.0417V18.3719C23.3201 18.0849 23.033 17.7979 22.746 17.7979C22.4589 17.7979 22.1719 18.0849 22.1719 18.3719V19.1373C22.1719 19.4244 22.4589 19.6157 22.746 19.6157Z" fill="#41527C"/>
<path d="M29.8261 12.8223C29.539 12.8223 29.252 13.1093 29.252 13.3963V14.0661C29.252 14.3531 29.539 14.6401 29.8261 14.6401C30.1131 14.6401 30.4002 14.3531 30.4002 14.0661V13.3963C30.4002 13.1093 30.1131 12.8223 29.8261 12.8223Z" fill="#41527C"/>
<path d="M29.8261 19.3281C29.539 19.3281 29.252 19.6152 29.252 19.9022V20.5719C29.252 20.859 29.539 21.146 29.8261 21.146C30.1131 21.146 30.4002 20.859 30.4002 20.5719V19.9022C30.4002 19.5195 30.1131 19.3281 29.8261 19.3281Z" fill="#41527C"/>
<path d="M29.8261 25.7393C29.539 25.7393 29.252 26.0263 29.252 26.3134V26.9832C29.252 27.2702 29.539 27.5573 29.8261 27.5573C30.1131 27.5573 30.4002 27.2702 30.4002 26.9832V26.3134C30.4002 25.9306 30.1131 25.7393 29.8261 25.7393Z" fill="#41527C"/>
<path d="M29.8261 0C29.539 0 29.252 0.287058 29.252 0.574116V1.24392C29.252 1.53098 29.539 1.81804 29.8261 1.81804C30.1131 1.81804 30.4002 1.53098 30.4002 1.24392V0.574116C30.4002 0.287058 30.1131 0 29.8261 0Z" fill="#41527C"/>
<path d="M29.8261 6.41113C29.539 6.41113 29.252 6.69819 29.252 6.98525V7.65505C29.252 7.94211 29.539 8.22917 29.8261 8.22917C30.1131 8.22917 30.4002 7.94211 30.4002 7.65505V6.98525C30.4002 6.69819 30.1131 6.41113 29.8261 6.41113Z" fill="#41527C"/>
<path d="M29.8261 32.1504C29.539 32.1504 29.252 32.4375 29.252 32.7245V33.3943C29.252 33.6814 29.539 33.9684 29.8261 33.9684C30.1131 33.9684 30.4002 33.6814 30.4002 33.3943V32.7245C30.4002 32.4375 30.1131 32.1504 29.8261 32.1504Z" fill="#41527C"/>
<path d="M34.1327 12.8223C33.8457 12.8223 33.5586 13.1093 33.5586 13.3963V14.0661C33.5586 14.3531 33.8457 14.6401 34.1327 14.6401C34.4198 14.6401 34.7068 14.3531 34.7068 14.0661V13.3963C34.7068 13.1093 34.4198 12.8223 34.1327 12.8223Z" fill="#41527C"/>
<path d="M34.1327 0C33.8457 0 33.5586 0.287058 33.5586 0.574116V1.24392C33.5586 1.53098 33.8457 1.81804 34.1327 1.81804C34.4198 1.81804 34.7068 1.53098 34.7068 1.24392V0.574116C34.7068 0.287058 34.4198 0 34.1327 0Z" fill="#41527C"/>
<path d="M34.1327 19.3281C33.8457 19.3281 33.5586 19.6152 33.5586 19.9022V20.5719C33.5586 20.859 33.8457 21.146 34.1327 21.146C34.4198 21.146 34.7068 20.859 34.7068 20.5719V19.9022C34.7068 19.5195 34.4198 19.3281 34.1327 19.3281Z" fill="#41527C"/>
<path d="M34.1327 32.1504C33.8457 32.1504 33.5586 32.4375 33.5586 32.7245V33.3943C33.5586 33.6814 33.8457 33.9684 34.1327 33.9684C34.4198 33.9684 34.7068 33.6814 34.7068 33.3943V32.7245C34.7068 32.4375 34.4198 32.1504 34.1327 32.1504Z" fill="#41527C"/>
<path d="M34.1327 25.7393C33.8457 25.7393 33.5586 26.0263 33.5586 26.3134V26.9832C33.5586 27.2702 33.8457 27.5573 34.1327 27.5573C34.4198 27.5573 34.7068 27.2702 34.7068 26.9832V26.3134C34.7068 25.9306 34.4198 25.7393 34.1327 25.7393Z" fill="#41527C"/>
<path d="M34.1327 6.41113C33.8457 6.41113 33.5586 6.69819 33.5586 6.98525V7.65505C33.5586 7.94211 33.8457 8.22917 34.1327 8.22917C34.4198 8.22917 34.7068 7.94211 34.7068 7.65505V6.98525C34.7068 6.69819 34.4198 6.41113 34.1327 6.41113Z" fill="#41527C"/>
</svg>
