<svg width="25" height="34" viewBox="0 0 25 34" fill="none" xmlns="http://www.w3.org/2000/svg">
<path d="M22.6504 3.63574H19.9712V5.54946H22.459V31.8631H2.652V5.64515H5.13984V3.73143H2.46063C1.50377 3.63574 0.738281 4.40123 0.738281 5.45378V32.1502C0.738281 33.1071 1.50377 33.8725 2.46063 33.8725H22.5547C23.5116 33.8725 24.2771 33.1071 24.2771 32.1502V5.45378C24.3727 4.40123 23.6073 3.63574 22.6504 3.63574Z" fill="#D82216"/>
<path d="M8.68125 6.50665H16.4318C17.6757 6.50665 18.6326 5.54979 18.6326 4.30587V3.4447C18.6326 3.06195 18.3455 2.87058 18.0585 2.87058H15.475C15.475 1.24392 14.1354 0 12.6044 0C10.9777 0 9.73379 1.33961 9.73379 2.87058H7.05459C6.76753 2.7749 6.48047 3.06195 6.48047 3.4447V4.30587C6.48047 5.45411 7.43733 6.50665 8.68125 6.50665ZM12.6044 1.62666C13.2742 1.62666 13.7526 2.20078 13.7526 2.7749C13.7526 3.34901 13.1785 4.01882 12.6044 4.01882C11.9346 4.01882 11.4561 3.4447 11.4561 2.87058C11.4561 2.29647 11.9346 1.62666 12.6044 1.62666Z" fill="#D82216"/>
<path d="M10.8809 28.2273H20.0667V26.8877H10.8809V28.2273Z" fill="#D82216"/>
<path d="M9.15839 24.6875C9.0627 24.5918 8.96701 24.5918 8.87133 24.5918C8.77564 24.5918 8.67996 24.5918 8.58427 24.6875L6.57486 26.6969L5.71369 25.8357C5.618 25.74 5.52232 25.74 5.42663 25.74C5.33094 25.74 5.23526 25.74 5.13957 25.8357L4.85251 26.1228C4.66114 26.3141 4.66114 26.5055 4.85251 26.6969L6.38349 28.2279C6.47918 28.3236 6.57486 28.3236 6.67055 28.3236C6.76623 28.3236 6.86192 28.3236 6.95761 28.2279L9.54113 25.6443C9.63682 25.5487 9.63682 25.453 9.63682 25.3573C9.63682 25.2616 9.63682 25.1659 9.54113 25.0702L9.15839 24.6875Z" fill="#D82216"/>
<path d="M20.0667 21.5293H10.8809V22.8689H20.0667V21.5293Z" fill="#D82216"/>
<path d="M9.44545 19.7109L9.15839 19.4238C9.0627 19.3281 8.96701 19.3281 8.87133 19.3281C8.77564 19.3281 8.67996 19.3281 8.58427 19.4238L6.57486 21.4332L5.71369 20.572C5.618 20.4764 5.52232 20.4764 5.42663 20.4764C5.33094 20.4764 5.23526 20.4764 5.13957 20.572L4.85251 20.8591C4.66114 21.0505 4.66114 21.2418 4.85251 21.4332L6.2878 22.8685C6.38349 22.9642 6.47918 22.9642 6.57486 22.9642C6.67055 22.9642 6.76624 22.9642 6.86192 22.8685L9.44545 20.285C9.54113 20.1893 9.54113 20.0936 9.54113 19.9979C9.54113 19.9022 9.54113 19.8066 9.44545 19.7109Z" fill="#D82216"/>
<path d="M20.0667 16.1709H10.8809V17.5105H20.0667V16.1709Z" fill="#D82216"/>
<path d="M9.44544 14.3535L9.15838 14.0664C9.06269 13.9707 8.96701 13.9707 8.87132 13.9707C8.77564 13.9707 8.67995 13.9707 8.58426 14.0664L6.57486 16.0759L5.71369 15.2147C5.618 15.119 5.52231 15.119 5.42663 15.119C5.33094 15.119 5.23526 15.119 5.13957 15.2147L4.85251 15.5018C4.66114 15.6931 4.66114 15.8845 4.85251 16.0759L6.38349 17.6069C6.47917 17.7026 6.57486 17.7026 6.67055 17.7026C6.76623 17.7026 6.86192 17.7026 6.9576 17.6069L9.54112 15.0233C9.63681 14.9276 9.63681 14.8319 9.63681 14.7362C9.54112 14.5448 9.54112 14.4492 9.44544 14.3535Z" fill="#D82216"/>
<path d="M20.0667 10.9082H10.8809V12.1521H20.0667V10.9082Z" fill="#D82216"/>
<path d="M4.75681 10.1424C4.56544 10.3338 4.56544 10.5251 4.75681 10.7165L6.28779 12.2476C6.38347 12.2476 6.47916 12.3433 6.57484 12.3433C6.67053 12.3433 6.76622 12.3433 6.8619 12.2476L9.44542 9.66392C9.54111 9.47253 9.54111 9.37684 9.54111 9.28115C9.54111 9.18546 9.54111 9.08977 9.44542 8.99408L9.15836 8.70701C9.06268 8.61132 8.96699 8.51562 8.87131 8.51562C8.77562 8.51562 8.67993 8.51563 8.58425 8.61132L6.57484 10.6208L5.71367 9.75961C5.61798 9.66392 5.5223 9.66392 5.42661 9.66392C5.33093 9.66392 5.23524 9.66392 5.13955 9.75961L4.75681 10.1424Z" fill="#D82216"/>
</svg>
