<svg width="37" height="34" viewBox="0 0 37 34" fill="none" xmlns="http://www.w3.org/2000/svg">
<path d="M31.6449 7.94194L26.4778 0L13.6559 9.95135L0.738281 19.9984L7.14925 26.9835L31.6449 7.94194Z" fill="#BD3AA8"/>
<path d="M32.601 27.3658C31.6442 25.6435 27.0512 24.4952 26.5728 22.1031L36.8112 14.1611L32.601 8.70703L20.1618 18.3713L7.72266 28.0356L11.9328 33.4897L22.1713 25.5478C24.372 26.696 24.372 31.2889 25.8073 32.7242C28.0081 34.925 31.0701 32.4372 31.0701 32.4372C31.0701 32.4372 34.132 30.045 32.601 27.3658ZM28.3908 30.6191C28.1038 30.2364 28.1995 29.6623 28.5822 29.3752C28.965 29.0882 29.5391 29.1838 29.8261 29.5666C30.1132 29.9493 30.0175 30.5235 29.6348 30.8105C29.252 31.0976 28.6779 31.0019 28.3908 30.6191Z" fill="#BD3AA8"/>
</svg>
