<svg width="35" height="34" viewBox="0 0 35 34" fill="none" xmlns="http://www.w3.org/2000/svg">
<path d="M33.8457 29.4713L25.1382 20.7639L21.5022 24.3999L30.2096 33.1074C31.1665 34.0642 32.7931 34.0642 33.8457 33.1074C34.8982 32.1505 34.8982 30.5239 33.8457 29.4713ZM22.8418 21.0509L21.3108 19.52C20.1626 18.3717 18.0575 18.6588 16.6222 20.0941L8.10611 28.6101C7.24493 29.4713 5.80964 29.4713 4.94847 28.6101L3.70455 27.3662C2.93906 26.6007 2.84337 25.4525 3.41749 24.5913L2.36494 23.5388C1.21671 24.9741 1.3124 27.0792 2.652 28.4188L3.99161 29.6627C5.4269 31.098 7.81905 31.098 9.25434 29.6627L17.7704 21.1466C18.7273 20.1898 19.8755 20.0941 20.3539 20.5725L21.8849 22.1035L22.8418 21.0509ZM25.9037 2.00941L24.8512 0.956861L24.1814 1.62666L25.2339 2.67921L25.9037 2.00941ZM8.2018 25.6439L26.3821 7.46351C27.1476 6.69802 27.1476 5.54979 26.3821 4.7843L24.6598 3.25333L23.6073 2.20078L21.9806 0.574116C21.2151 -0.191372 20.0669 -0.191372 19.3014 0.574116L1.3124 18.6588C0.546909 19.4243 0.546909 20.5725 1.3124 21.338L5.61827 25.6439C6.38376 26.3137 7.53199 26.3137 8.2018 25.6439Z" fill="#296E8B"/>
</svg>
