<svg width="28" height="34" viewBox="0 0 28 34" fill="none" xmlns="http://www.w3.org/2000/svg">
<path d="M27.1748 0H0.574116C0.287058 0 0 0.287058 0 0.574116V3.06195V8.229V28.8972C0 29.2799 0.287058 29.4713 0.574116 29.4713H0.861175V30.0454H0.574116C0.191372 30.0454 0 30.3325 0 30.6195V33.2031C0 33.5858 0.287058 33.7772 0.574116 33.7772H27.1748C27.5576 33.7772 27.749 33.4901 27.749 33.2031V30.6195C27.749 30.2368 27.4619 30.0454 27.1748 30.0454H26.8878V29.4713H27.1748C27.5576 29.4713 27.749 29.1843 27.749 28.8972V8.229V3.06195V0.574116C27.8446 0.287058 27.5576 0 27.1748 0ZM26.6007 28.3231H26.3137H14.5443V8.8988H26.6007V28.3231ZM1.53098 28.3231H1.24392V8.8988H13.3004V28.3231H1.53098ZM13.8745 7.65489H1.24392V3.73176H26.6007V7.65489H13.8745ZM1.24392 1.24392H26.6007V2.48784H1.24392V1.24392ZM26.6007 32.6289H1.24392V31.2893H1.53098H26.3137H26.6007V32.6289ZM25.7396 30.1411H2.10509V29.567H13.8745H25.6439V30.1411H25.7396Z" fill="#79578D"/>
<path d="M10.5253 10.4297C10.1425 10.4297 9.95117 10.7168 9.95117 11.0038V14.5443C9.95117 14.927 10.2382 15.1184 10.5253 15.1184C10.8123 15.1184 11.0994 14.8313 11.0994 14.5443V11.0038C11.0994 10.7168 10.908 10.4297 10.5253 10.4297Z" fill="#79578D"/>
<path d="M17.3192 15.2139C17.702 15.2139 17.8934 14.9268 17.8934 14.6398V11.0995C17.8934 10.7168 17.6063 10.5254 17.3192 10.5254C16.9365 10.5254 16.7451 10.8124 16.7451 11.0995V14.6398C16.6494 14.9268 16.9365 15.2139 17.3192 15.2139Z" fill="#79578D"/>
<path d="M15.6926 4.49707H12.1522C11.7695 4.49707 11.5781 4.78413 11.5781 5.07119C11.5781 5.45393 11.8652 5.6453 12.1522 5.6453H15.6926C15.9797 5.74099 16.2667 5.45393 16.2667 5.16687C16.2667 4.78413 15.9797 4.49707 15.6926 4.49707Z" fill="#79578D"/>
</svg>
