<svg width="38" height="34" viewBox="0 0 38 34" fill="none" xmlns="http://www.w3.org/2000/svg">
<path fill-rule="evenodd" clip-rule="evenodd" d="M36.8119 16.2666H1.9822C1.3124 16.2666 0.738281 16.8407 0.738281 17.5105C0.738281 18.1803 1.3124 18.7544 1.9822 18.7544H3.22612H35.4723H36.7162C37.386 18.7544 37.9602 18.1803 37.9602 17.5105C37.9602 16.8407 37.5774 16.2666 36.8119 16.2666Z" fill="#3CADDE"/>
<path fill-rule="evenodd" clip-rule="evenodd" d="M3.60938 23.1566C3.60938 26.4099 5.33172 29.1848 7.91525 30.7158C8.01093 30.7158 8.01093 30.8114 8.10662 30.9071C8.10662 31.0028 8.10662 31.0985 8.10662 31.1942L7.5325 32.1511C7.24545 32.7252 7.43682 33.4907 8.01093 33.7777C8.58505 34.0648 9.35054 33.8734 9.6376 33.2993L10.4988 31.864C10.5945 31.7683 10.6901 31.6726 10.8815 31.6726C11.3599 31.7683 11.9341 31.7683 12.4125 31.7683H26.574C27.0525 31.7683 27.6266 31.7683 28.105 31.6726C28.2007 31.6726 28.3921 31.6726 28.4878 31.864L29.3489 33.2993C29.636 33.8734 30.4015 34.0648 30.9756 33.7777C31.5497 33.4907 31.7411 32.7252 31.454 32.1511L30.8799 31.1942C30.8799 31.0985 30.7842 31.0028 30.8799 30.9071C30.8799 30.8114 30.9756 30.7158 31.0713 30.7158C33.6548 29.1848 35.3772 26.4099 35.3772 23.1566V19.4248H3.60938V23.1566Z" fill="#3CADDE"/>
<path fill-rule="evenodd" clip-rule="evenodd" d="M4.8534 4.01882C4.8534 2.10509 6.38437 0.669802 8.20241 0.669802C10.0204 0.669802 11.4557 2.00941 11.5514 3.73176C11.073 3.82744 10.5946 3.92313 10.1161 4.21019C8.9679 4.87999 8.2981 6.02822 8.2981 7.36783C8.2981 7.5592 8.48947 7.65489 8.58515 7.65489H11.9342H15.2832C15.4746 7.65489 15.5702 7.46351 15.5702 7.36783C15.5702 6.02822 14.9004 4.87999 13.7522 4.21019C13.2738 3.92313 12.7953 3.82744 12.2212 3.73176C12.1255 1.62666 10.4032 0 8.2981 0C6.00163 0 4.18359 1.81804 4.18359 4.01882V15.5968H4.8534V4.01882Z" fill="#3CADDE"/>
<path fill-rule="evenodd" clip-rule="evenodd" d="M10.7851 9.47258C10.7851 9.3769 10.7851 9.28122 10.6894 9.28122C10.5937 9.18555 10.498 9.18555 10.498 9.18555C10.3066 9.18555 10.2109 9.3769 10.2109 9.47258V10.6207C10.2109 10.7164 10.3066 10.8121 10.4023 10.9077C10.498 11.0034 10.5937 11.0034 10.6894 10.9077C10.7851 10.8121 10.8807 10.7164 10.8807 10.6207V9.47258H10.7851Z" fill="#3CADDE"/>
<path fill-rule="evenodd" clip-rule="evenodd" d="M10.1152 12.5351V13.6833C10.1152 13.779 10.2109 13.8747 10.3066 13.9704C10.4023 14.0661 10.498 14.0661 10.5937 13.9704C10.6894 13.8747 10.785 13.779 10.785 13.6833V12.5351C10.785 12.4394 10.785 12.3437 10.6894 12.3437C10.5937 12.248 10.498 12.248 10.498 12.248C10.3066 12.248 10.1152 12.4394 10.1152 12.5351Z" fill="#3CADDE"/>
<path fill-rule="evenodd" clip-rule="evenodd" d="M13.7518 9.47258C13.7518 9.3769 13.7518 9.28122 13.6562 9.28122C13.5605 9.18555 13.4648 9.18555 13.4648 9.18555C13.2734 9.18555 13.1777 9.3769 13.1777 9.47258V10.6207C13.1777 10.7164 13.2734 10.8121 13.3691 10.9077C13.4648 11.0034 13.5605 11.0034 13.6562 10.9077C13.7518 10.8121 13.8475 10.7164 13.8475 10.6207V9.47258H13.7518Z" fill="#3CADDE"/>
<path fill-rule="evenodd" clip-rule="evenodd" d="M13.1777 12.5351V13.6833C13.1777 13.779 13.2734 13.8747 13.3691 13.9704C13.4648 14.0661 13.5605 14.0661 13.6562 13.9704C13.7519 13.8747 13.8475 13.779 13.8475 13.6833V12.5351C13.8475 12.4394 13.8475 12.3437 13.7519 12.3437C13.6562 12.3437 13.5605 12.248 13.5605 12.248C13.2734 12.248 13.1777 12.4394 13.1777 12.5351Z" fill="#3CADDE"/>
</svg>
