<svg width="34" height="30" viewBox="0 0 34 30" fill="none" xmlns="http://www.w3.org/2000/svg">
<path fill-rule="evenodd" clip-rule="evenodd" d="M3.26554 0H30.7345C32.5593 0 34 1.27103 34 2.88099V27.1152C34 28.7252 32.5593 29.9962 30.7345 29.9962H3.26554C1.44068 30.081 0 28.7252 0 27.1152V2.88099C0 1.27103 1.44068 0 3.26554 0ZM12.678 13.3034C13.7345 13.3034 14.5989 14.066 14.5989 14.9981C14.5989 15.9302 13.7345 16.6928 12.678 16.6928C11.6215 16.6928 10.7571 15.9302 10.7571 14.9981C10.7571 14.066 11.6215 13.3034 12.678 13.3034ZM21.4181 13.3034C22.4746 13.3034 23.339 14.066 23.339 14.9981C23.339 15.9302 22.4746 16.6928 21.4181 16.6928C20.3616 16.6928 19.4972 15.9302 19.4972 14.9981C19.4011 14.066 20.2655 13.3034 21.4181 13.3034ZM18.8249 6.10093C23.6271 6.86354 27.2768 10.5919 27.2768 14.9981C27.2768 19.4043 23.6271 23.1327 18.8249 23.8953V21.2685H15.2712V23.8953C10.4689 23.2174 6.72316 19.4891 6.72316 14.9981C6.72316 10.5072 10.3729 6.86354 15.1751 6.10093V8.72772H18.7288V6.10093H18.8249ZM1.63277 10.1682V3.3894C1.63277 2.28785 2.59322 1.4405 3.84181 1.4405H25.1638V2.88099H3.84181C3.55367 2.88099 3.26554 3.05046 3.26554 3.3894V10.1682H1.63277Z" fill="#F1BB51"/>
</svg>
