<svg width="38" height="22" viewBox="0 0 38 22" fill="none" xmlns="http://www.w3.org/2000/svg">
<path fill-rule="evenodd" clip-rule="evenodd" d="M1.79083 2.58352H3.70455V2.29647C3.70455 1.81804 4.08729 1.43529 4.56572 1.43529H8.2018C8.68023 1.43529 9.06297 1.81804 9.06297 2.29647V2.87058H10.9767V2.29647C10.9767 1.81804 11.3594 1.43529 11.8379 1.43529H14.0386V0H33.8457V2.87058C35.7594 7.94194 37.099 13.2047 37.099 18.7545C37.4817 19.0415 37.7688 19.52 37.7688 19.9984C37.7688 20.8596 37.099 21.5294 36.2378 21.5294H29.8268C28.9657 21.5294 28.2959 20.8596 28.2959 19.9984C28.2959 19.1372 28.9657 18.4674 29.8268 18.4674H30.9751C30.9751 17.1278 30.7837 15.6925 30.4967 14.3529H27.6261V11.9608H18.9186L15.761 7.65489C15.6653 7.65489 15.4739 7.65489 15.3783 7.65489H11.7422C11.2638 7.65489 10.881 7.27214 10.881 6.79371V6.12391H8.96728V6.8894C8.96728 7.27214 8.68023 7.65489 8.2018 7.65489H4.56572C4.08729 7.65489 3.70455 7.27214 3.70455 6.79371V6.50665H1.79083L0.738281 5.74116V3.34901L1.79083 2.58352ZM25.9994 1.62666C25.6167 1.62666 25.3296 1.91372 25.3296 2.29647C25.3296 2.58352 25.6167 2.87058 25.9994 2.87058H30.3053C30.688 2.87058 30.9751 2.58352 30.9751 2.20078C30.9751 1.81804 30.688 1.53098 30.3053 1.53098H25.9994V1.62666ZM27.052 5.07136C26.6692 5.07136 26.3821 5.35842 26.3821 5.74116C26.3821 6.12391 26.6692 6.41097 27.052 6.41097H31.3578C31.7406 6.41097 32.0276 6.12391 32.0276 5.74116C32.0276 5.35842 31.7406 5.07136 31.3578 5.07136H27.052ZM26.3821 3.34901C25.9994 3.34901 25.7123 3.63607 25.7123 4.01882C25.7123 4.40156 25.9994 4.68862 26.3821 4.68862H30.688C31.0708 4.68862 31.3578 4.40156 31.3578 4.01882C31.3578 3.63607 31.0708 3.34901 30.688 3.34901H26.3821Z" fill="#8A8EAC"/>
</svg>
