<svg width="32" height="31" viewBox="0 0 32 31" fill="none" xmlns="http://www.w3.org/2000/svg">
<path d="M30.8232 26.4463L23.8175 19.4407C23.2921 18.9153 22.6791 18.6525 21.891 18.6525C21.8034 18.6525 21.7158 18.6525 21.7158 18.6525L20.4023 17.339C21.891 15.3249 22.5916 12.8729 22.504 10.4209C22.4164 7.70621 21.278 5.16667 19.3514 3.24011C17.2497 1.13842 14.4475 0 11.5577 0C8.66782 0 5.86557 1.13842 3.85144 3.24011C1.83732 5.34181 0.611328 8.0565 0.611328 10.9463C0.611328 13.8362 1.74975 16.6384 3.85144 18.6525C5.86557 20.7542 8.66782 21.8927 11.5577 21.8927C13.8345 21.8927 16.1113 21.1921 17.9503 19.791L19.2639 21.1045C19.1763 21.8927 19.439 22.6808 20.052 23.2062L27.0577 30.2119C27.5831 30.7373 28.1961 31 28.9842 31C29.6848 31 30.3853 30.7373 30.9108 30.2119C31.874 29.161 31.874 27.4972 30.8232 26.4463ZM18.0379 16.2006L16.8119 17.4266C15.3232 18.565 13.4842 19.2655 11.5577 19.2655C9.28082 19.2655 7.17912 18.3898 5.60285 16.8136C4.02658 15.2373 3.15088 13.1356 3.15088 10.8588C3.15088 8.58192 4.02658 6.48023 5.60285 4.90395C7.17912 3.32768 9.28082 2.45198 11.5577 2.45198C13.8345 2.45198 15.9362 3.32768 17.5125 4.90395C19.0012 6.39266 19.8769 8.31921 19.9644 10.4209C20.052 12.5226 19.3514 14.5367 18.0379 16.2006C18.1255 16.2006 18.0379 16.2006 18.0379 16.2006Z" fill="#D82216"/>
</svg>
