<svg width="26" height="22" viewBox="0 0 26 22" fill="none" xmlns="http://www.w3.org/2000/svg">
<path d="M0.0771484 18.7043C2.97958 18.9897 5.58625 18.2788 7.89466 16.5115C6.76928 16.4664 5.74917 16.1235 4.84686 15.4501C3.94455 14.7767 3.32296 13.903 2.95953 12.8216C3.75907 12.9643 4.54107 12.9418 5.31556 12.7315C4.08992 12.4436 3.0673 11.8328 2.27527 10.8516C1.48325 9.86776 1.10227 8.73879 1.09726 7.46211C1.84417 7.87015 2.63119 8.09294 3.4959 8.12298C2.34295 7.31442 1.58852 6.25303 1.28023 4.89625C0.971939 3.54198 1.17997 2.2603 1.8542 1.05122C4.72906 4.43064 8.36085 6.29058 12.7997 6.59598C12.7696 6.42325 12.7396 6.27306 12.7195 6.12036C12.5666 4.98888 12.7446 3.91247 13.2809 2.90364C13.8173 1.89232 14.6043 1.12882 15.632 0.620655C16.4165 0.230143 17.2511 0.0499073 18.1284 0.0774433C19.3916 0.117496 20.5019 0.553066 21.4619 1.37164C21.5847 1.47678 21.695 1.59443 21.8153 1.70207C21.8378 1.7221 21.883 1.73712 21.913 1.73211C23.0484 1.50682 24.1187 1.10128 25.1213 0.523027C25.1463 0.508007 25.1689 0.495491 25.1939 0.482974C25.1989 0.480471 25.204 0.480471 25.224 0.477968C24.8029 1.7246 24.031 2.68336 22.9281 3.38427C23.9658 3.26161 24.9583 2.98876 25.9258 2.58573C25.8281 2.72091 25.7353 2.85859 25.6351 2.99376C24.9884 3.8649 24.2265 4.6234 23.3467 5.25923C23.3066 5.28927 23.2891 5.3168 23.2916 5.36687C23.3267 6.0753 23.2991 6.78122 23.2239 7.48715C23.0184 9.41217 22.4619 11.2346 21.5847 12.9593C21.0408 14.0307 20.3791 15.0245 19.6021 15.9382C18.4391 17.3075 17.0732 18.4315 15.4941 19.2901C14.1005 20.0486 12.6193 20.5543 11.0578 20.8271C9.91483 21.0274 8.76438 21.105 7.60391 21.0599C5.58625 20.9823 3.66383 20.5167 1.83164 19.6681C1.24514 19.3952 0.678688 19.0848 0.129783 18.7394C0.119757 18.7344 0.107225 18.7244 0.0771484 18.7043Z" fill="white"/>
</svg>
