<svg width="27" height="27" viewBox="0 0 27 27" fill="none" xmlns="http://www.w3.org/2000/svg">
<path d="M0.692383 26.6919C0.908444 26.0479 1.11603 25.4421 1.31938 24.8363C1.85742 23.2476 2.39969 21.6589 2.92925 20.066C2.95891 19.9813 2.92925 19.8584 2.88265 19.7779C2.20481 18.6086 1.7049 17.3716 1.43801 16.0456C0.730511 12.47 1.37869 9.16126 3.4927 6.183C5.4076 3.48859 8.01728 1.80671 11.2455 1.12039C16.1556 0.0739808 21.2733 2.07361 24.188 6.15758C25.5436 8.05553 26.357 10.1695 26.4799 12.5038C26.7468 17.469 24.7641 21.3412 20.6251 24.061C18.1637 25.6793 15.41 26.247 12.4783 25.9462C10.8854 25.781 9.38566 25.3277 7.97068 24.5863C7.79698 24.4974 7.64447 24.4804 7.45382 24.5397C5.2805 25.2387 3.11142 25.9251 0.938099 26.6156C0.874552 26.6368 0.806768 26.658 0.692383 26.6919ZM3.88246 23.5653C3.99685 23.5357 4.06463 23.5187 4.12818 23.4975C5.33981 23.112 6.54721 22.7307 7.75461 22.341C7.91136 22.2901 8.02575 22.3029 8.16555 22.3876C10.5973 23.8788 13.2197 24.3787 16.0073 23.7899C18.9983 23.1629 21.3199 21.5191 22.9424 18.9179C24.2896 16.7573 24.7557 14.4018 24.3871 11.8938C23.9973 9.20786 22.701 7.00488 20.6166 5.28063C19.0618 3.99697 17.2698 3.20475 15.2532 2.95056C12.8257 2.64553 10.5465 3.08189 8.43245 4.32318C6.51332 5.45009 5.08139 7.02606 4.14089 9.0384C3.23428 11.0041 2.98009 13.0631 3.32748 15.1855C3.58167 16.7319 4.16631 18.1511 5.07292 19.4347C5.17883 19.583 5.19577 19.7101 5.13646 19.8796C4.89922 20.5489 4.67469 21.2268 4.44591 21.9004C4.25951 22.4427 4.08158 22.9849 3.88246 23.5653Z" fill="white"/>
<path d="M9.96639 7.59112C10.5383 7.54451 10.7629 7.94275 10.9535 8.43418C11.2077 9.09931 11.4788 9.75596 11.7838 10.3999C11.966 10.7897 11.8982 11.1074 11.6568 11.4209C11.4619 11.6709 11.2585 11.9123 11.0509 12.1538C10.8433 12.3953 10.8095 12.5309 10.9704 12.7978C11.8262 14.217 12.9531 15.3566 14.4571 16.0938C14.7155 16.2209 14.9824 16.3395 15.2493 16.4496C15.5374 16.5682 15.6857 16.5301 15.8848 16.2929C16.1856 15.937 16.4779 15.5727 16.766 15.2083C17.0286 14.8736 17.1811 14.8186 17.5667 14.9965C18.3843 15.3736 19.1977 15.7675 20.0154 16.1531C20.2229 16.2505 20.2992 16.4073 20.2907 16.6276C20.2356 17.9112 19.8586 18.5467 18.4394 19.1398C17.7954 19.4067 17.1176 19.4448 16.427 19.2457C15.4442 18.9619 14.474 18.6399 13.5547 18.1866C12.5125 17.674 11.6102 16.9622 10.8052 16.1319C9.72491 15.0177 8.75476 13.8145 8.08539 12.4038C7.61938 11.4251 7.50499 10.4041 7.89051 9.36197C8.10234 8.79428 8.4582 8.32403 8.91574 7.93427C9.20382 7.69279 9.55545 7.62501 9.96639 7.59112Z" fill="white"/>
</svg>
