<svg width="62" height="54" viewBox="0 0 62 54" fill="none" xmlns="http://www.w3.org/2000/svg">
<path d="M10.2992 18.7C12.8992 18.7 14.8992 16.6 14.8992 14.1C14.8992 11.5 12.7992 9.5 10.2992 9.5C7.69922 9.5 5.69922 11.6 5.69922 14.1C5.69922 16.6 7.79922 18.7 10.2992 18.7Z" fill="#212C30"/>
<path d="M22.9 38.9C22.9 38.9 22.9 38.8 22.9 38.9C22.9 38.8 22.9 38.8 22.9 38.9C22.9 38.8 22.9 38.7 22.8 38.7V38.6C22.8 38.6 22.8 38.5 22.7 38.5C22.7 38.5 22.7 38.4 22.6 38.4C22.6 38.4 22.6 38.3 22.5 38.3C22.5 38.3 22.5 38.2 22.4 38.2C22.4 38.2 22.4 38.1 22.3 38.1L22.2 38C22.2 38 22.2 38 22.1 37.9L22 37.8C22 37.8 22 37.8 21.9 37.7L21.8 37.6C21.8 37.6 21.7 37.6 21.7 37.5C21.7 37.5 21.6 37.5 21.6 37.4C21.6 37.4 21.5 37.4 21.5 37.3C21.5 37.3 21.4 37.3 21.4 37.2C21.4 37.2 21.3 37.2 21.3 37.1H21.2C21.2 37.1 21.1 37.1 21.1 37H21H20.9H20.8H20.7H20.6H20.5C20.4 37 20.4 37 20.4 37H13.3V27.9C13.9 28.1 14.5 28.3 15.1 28.4C17.4 29 19.8 29.1 22.1 28.6C22.7 28.5 23.3 28.1 23.7 27.6C24.1 27.1 24.2 26.4 24.1 25.8C23.9 24.5 22.6 23.6 21.3 23.8C18.7 24.3 15.7 23.8 13.3 22.4C13.1 21.4 12.5 20.5 11.8 19.9C11 19.3 10 19 9 19C6.5 19 4.5 21 4.5 23.5V37.5C4.5 40 6.5 42 9 42H9.1H18.6L20.9 51.4C21.2 52.5 22.1 53.3 23.3 53.3C23.5 53.3 23.7 53.3 23.9 53.2C24.5 53 25.1 52.7 25.4 52.1C25.7 51.5 25.8 50.9 25.7 50.3L22.9 38.9Z" fill="#212C30"/>
<path d="M12.3 42.4996H2.6V20.8996C2.6 20.1996 2 19.5996 1.3 19.5996C0.6 19.5996 0 20.1996 0 20.8996V52.1996C0 52.8996 0.6 53.4996 1.3 53.4996C2 53.4996 2.6 52.8996 2.6 52.1996V45.0996H11V52.1996C11 52.8996 11.6 53.4996 12.3 53.4996C13 53.4996 13.6 52.8996 13.6 52.1996V43.7996C13.6 43.6996 13.6 43.5996 13.6 43.4996C13.4 42.8996 12.9 42.4996 12.3 42.4996Z" fill="#212C30"/>
<path d="M51.3007 18.7C53.9007 18.7 55.9007 16.6 55.9007 14.1C55.9007 11.5 53.8007 9.5 51.3007 9.5C48.7007 9.5 46.7007 11.6 46.7007 14.1C46.6007 16.6 48.7007 18.7 51.3007 18.7Z" fill="#212C30"/>
<path d="M52.5008 41.9004C52.5008 41.9004 52.6008 41.9004 52.5008 41.9004C55.0008 41.9004 57.0008 39.9004 57.0008 37.4004V23.4004C57.0008 20.9004 55.0008 18.9004 52.5008 18.9004C51.5008 18.9004 50.5008 19.3004 49.7008 19.9004C48.9008 20.5004 48.4008 21.4004 48.2008 22.4004C45.8008 23.7004 42.8008 24.3004 40.2008 23.8004C38.9008 23.6004 37.6008 24.4004 37.4008 25.8004C37.2008 27.1004 38.0008 28.4004 39.4008 28.6004C41.6008 29.0004 44.0008 28.9004 46.4008 28.4004C47.0008 28.3004 47.6008 28.1004 48.2008 27.9004V37.0004H41.1008H41.0008H40.9008H40.8008H40.7008H40.6008H40.5008H40.4008C40.4008 37.0004 40.3008 37.0004 40.3008 37.1004H40.2008C40.2008 37.1004 40.1008 37.1004 40.1008 37.2004C40.1008 37.2004 40.0008 37.2004 40.0008 37.3004C40.0008 37.3004 39.9008 37.3004 39.9008 37.4004C39.9008 37.4004 39.8008 37.4004 39.8008 37.5004C39.8008 37.5004 39.7008 37.5004 39.7008 37.6004L39.6008 37.7004C39.6008 37.7004 39.6008 37.7004 39.5008 37.8004L39.4008 37.9004C39.4008 37.9004 39.4008 37.9004 39.3008 38.0004L39.2008 38.1004C39.2008 38.1004 39.2008 38.2004 39.1008 38.2004C39.1008 38.2004 39.1008 38.3004 39.0008 38.3004C39.0008 38.3004 39.0008 38.4004 38.9008 38.4004C38.9008 38.4004 38.9008 38.5004 38.8008 38.5004C38.8008 38.5004 38.8008 38.6004 38.7008 38.6004V38.7004V38.8004L35.9008 50.1004C35.7008 50.7004 35.8008 51.4004 36.2008 51.9004C36.5008 52.5004 37.1008 52.8004 37.7008 53.0004C37.9008 53.0004 38.1008 53.1004 38.3008 53.1004C39.4008 53.1004 40.4008 52.3004 40.7008 51.2004L43.0008 41.8004L52.5008 41.9004Z" fill="#212C30"/>
<path d="M60.3 19.5996C59.6 19.5996 59 20.1996 59 20.8996V42.4996H49.3C48.7 42.4996 48.2 42.8996 48 43.4996C48 43.5996 48 43.6996 48 43.7996V52.1996C48 52.8996 48.6 53.4996 49.3 53.4996C50 53.4996 50.6 52.8996 50.6 52.1996V45.0996H59V52.1996C59 52.8996 59.6 53.4996 60.3 53.4996C61 53.4996 61.6 52.8996 61.6 52.1996V20.8996C61.6 20.0996 61 19.5996 60.3 19.5996Z" fill="#212C30"/>
<path d="M46.8992 32.2004C46.8992 31.5004 46.2992 30.9004 45.5992 30.9004H15.9992C15.2992 30.9004 14.6992 31.5004 14.6992 32.2004C14.6992 32.9004 15.2992 33.5004 15.9992 33.5004H29.4992V52.2004C29.4992 52.9004 30.0992 53.5004 30.7992 53.5004C31.4992 53.5004 32.0992 52.9004 32.0992 52.2004V33.5004H45.5992C46.2992 33.5004 46.8992 32.9004 46.8992 32.2004Z" fill="#212C30"/>
<path d="M20.5992 12.4996C20.6992 12.4996 20.7992 12.4996 20.7992 12.5996C20.7992 12.6996 20.7992 12.7996 20.7992 12.7996L19.7992 14.2996L22.8992 12.4996H22.9992H30.0992C30.8992 12.4996 31.4992 11.8996 31.4992 11.0996V9.79961H31.3992C30.2992 9.79961 29.4992 8.89961 29.4992 7.89961V3.09961H20.5992C19.7992 3.09961 19.1992 3.69961 19.1992 4.49961V11.0996C19.2992 11.8996 19.8992 12.4996 20.5992 12.4996Z" fill="#212C30"/>
<path d="M31.3992 9.2H38.4992C38.5992 9.2 38.5992 9.2 38.6992 9.2L41.4992 10.9L40.6992 9.7C40.5992 9.6 40.5992 9.5 40.6992 9.4C40.7992 9.3 40.8992 9.2 40.9992 9.2C41.6992 9.2 42.2992 8.6 42.2992 7.9V1.3C42.2992 0.6 41.6992 0 40.9992 0H31.4992C30.7992 0 30.1992 0.6 30.1992 1.3V7.9C30.1992 8.6 30.6992 9.2 31.3992 9.2Z" fill="#212C30"/>
</svg>
