<svg width="42" height="49" viewBox="0 0 42 49" fill="none" xmlns="http://www.w3.org/2000/svg">
<path d="M40.5801 6.36L40.5001 5.5C40.4501 4.92 40.15 4.40001 39.68 4.06001C39.34 3.81001 38.9301 3.68 38.5101 3.68C38.3601 3.68 38.2 3.7 38.05 3.73C35.71 4.28 33.67 4.55 31.79 4.55C27.77 4.55 24.6401 3.29 21.9601 0.590004C21.5801 0.210004 21.07 0 20.54 0C20.01 0 19.5 0.210004 19.12 0.590004C16.43 3.29 13.3101 4.55 9.29006 4.55C7.41006 4.55 5.37005 4.28 3.03005 3.73C2.88005 3.69 2.72006 3.68 2.57006 3.68C2.16006 3.68 1.75005 3.81001 1.40005 4.06001C0.930046 4.40001 0.630039 4.92 0.580039 5.5L0.490043 6.39C-0.309957 14.58 -2.73994 39.49 19.8201 47.89C20.0501 47.97 20.2801 48.02 20.5201 48.02C20.7601 48.02 20.99 47.98 21.22 47.89C43.8 39.48 41.3801 14.55 40.5801 6.36ZM20.5101 46.02C-1.44994 37.84 1.90005 12.83 2.56005 5.69C5.00005 6.27 7.23005 6.57 9.28005 6.57C13.8101 6.57 17.45 5.12 20.53 2.02C23.61 5.12 27.26 6.57 31.78 6.57C33.83 6.57 36.0601 6.27 38.5001 5.69C39.1701 12.83 42.4801 37.84 20.5101 46.02Z" fill="#2B2B2D"/>
<path d="M27.7708 19.91H27.2808C27.2608 19.17 27.2108 18.24 27.1308 17.07C26.9408 14.03 24.7108 10.77 20.2708 10.77C16.0708 10.77 13.5708 14.25 13.3408 17.52C13.2708 18.5 13.2208 19.28 13.1908 19.91H12.5508C12.2708 19.91 12.0508 20.13 12.0508 20.41V32.87C12.0508 33.15 12.2708 33.37 12.5508 33.37H27.7708C28.0508 33.37 28.2708 33.15 28.2708 32.87V20.41C28.2708 20.13 28.0408 19.91 27.7708 19.91ZM20.6508 26.74L20.8808 29.44C20.8908 29.51 20.8608 29.58 20.8208 29.63C20.7808 29.68 20.7108 29.71 20.6408 29.71H19.7008C19.6308 29.71 19.5608 29.68 19.5108 29.63C19.4608 29.58 19.4408 29.51 19.4508 29.44L19.7208 26.74C19.2308 26.55 18.8908 26.08 18.8908 25.53C18.8908 24.81 19.4708 24.23 20.1908 24.23C20.9108 24.23 21.4908 24.81 21.4908 25.53C21.5008 26.08 21.1408 26.55 20.6508 26.74ZM15.2008 19.91C15.2208 19.37 15.2608 18.63 15.3308 17.65C15.5008 15.28 17.2808 12.76 20.2708 12.76C23.6508 12.76 25.0008 15.15 25.1308 17.19C25.2108 18.38 25.2508 19.25 25.2708 19.91H15.2008Z" fill="#2B2B2D"/>
</svg>
