<svg width="34" height="41" viewBox="0 0 34 41" fill="none" xmlns="http://www.w3.org/2000/svg">
<path d="M26.3129 37.37H6.21289C5.94289 37.37 5.71289 37.59 5.71289 37.87V40.42C5.71289 40.69 5.93289 40.92 6.21289 40.92H26.3229C26.5929 40.92 26.8229 40.7 26.8229 40.42V37.87C26.8129 37.59 26.5929 37.37 26.3129 37.37Z" fill="#2B2B2D"/>
<path d="M32.6622 1.61C32.3622 1.26 32.0822 0.960002 29.0422 1.6C29.0422 2.29 29.0222 2.98 28.9822 3.66C29.7322 3.5 30.5522 3.34 31.1022 3.26C31.2922 4.93 31.3622 9.81 26.9622 13.67C26.4622 14.99 25.8922 16.2 25.2422 17.29C30.2422 14.51 32.1222 10.62 32.8022 7.7C33.4522 4.89 33.1522 2.17 32.6622 1.61Z" fill="#2B2B2D"/>
<path d="M6.1128 13.57C1.8028 9.71 1.8928 4.88 2.0828 3.24C2.5928 3.31 3.3428 3.46 4.1328 3.63C4.0928 2.96 4.0728 2.27 4.0728 1.58C1.1028 0.949998 0.832796 1.25 0.512796 1.61C0.0227964 2.18 -0.277203 4.9 0.372797 7.7C1.0428 10.6 2.9128 14.45 7.8328 17.23C7.1828 16.12 6.6028 14.9 6.1128 13.57Z" fill="#2B2B2D"/>
<path d="M17.9131 23.22C17.4731 23.3 17.0131 23.35 16.5631 23.35C15.9931 23.35 15.4331 23.26 14.8831 23.14C14.5431 26.38 13.8231 29.52 12.8131 32.05C12.4031 33.08 11.6131 34.5 11.1731 35.46C11.0831 35.66 11.2331 35.88 11.4431 35.88H21.2831C21.5031 35.88 21.6531 35.65 21.5531 35.45C21.0831 34.49 20.2731 33.09 19.9431 32.04C19.0931 29.34 18.2931 26.36 17.9131 23.22Z" fill="#2B2B2D"/>
<path d="M16.5523 21.86C22.6223 21.86 27.5523 12.68 27.5523 1.37C27.5523 1.31 27.5323 1.26 27.4923 1.2C27.4823 1.18 27.4523 1.16999 27.4323 1.14999C27.3923 1.11999 27.3623 1.08 27.3123 1.05C27.2823 1.03 27.2423 1.01 27.2023 1C27.1423 0.97 27.0823 0.939996 27.0123 0.909996C26.9623 0.889996 26.9023 0.869993 26.8523 0.859993C26.7723 0.829993 26.7023 0.799999 26.6023 0.779999C26.5423 0.759999 26.4623 0.749996 26.4023 0.729996C26.3023 0.709996 26.2123 0.679996 26.1023 0.659996C26.0223 0.639996 25.9423 0.629993 25.8623 0.609993C25.7523 0.589993 25.6423 0.559993 25.5123 0.539993C25.4323 0.529993 25.3423 0.51 25.2523 0.5C25.1123 0.48 24.9823 0.459995 24.8323 0.439995C24.7423 0.429995 24.6423 0.419994 24.5423 0.399994C24.3923 0.379994 24.2423 0.359996 24.0823 0.339996C23.9723 0.329996 23.8623 0.319998 23.7423 0.309998C23.5823 0.289998 23.4323 0.279995 23.2723 0.259995C23.1523 0.249995 23.0323 0.239996 22.9123 0.229996C22.7423 0.219996 22.5823 0.199995 22.4023 0.189995C22.2723 0.179995 22.1423 0.169996 22.0123 0.159996C21.8423 0.149996 21.6723 0.139997 21.4923 0.129997C21.3523 0.119997 21.2123 0.119993 21.0723 0.109993C20.8923 0.099993 20.7123 0.0899942 20.5323 0.0799942C20.3823 0.0699942 20.2423 0.0699976 20.0923 0.0599976C19.9123 0.0499976 19.7323 0.0499933 19.5523 0.0399933C19.3923 0.0299933 19.2323 0.0299988 19.0723 0.0299988C18.8923 0.0299988 18.7223 0.0199966 18.5423 0.0199966C18.3823 0.0199966 18.2323 0.00999451 18.0723 0.00999451C17.8823 0.00999451 17.7023 0 17.5123 0C17.3523 0 17.1923 0 17.0423 0C16.8523 0 16.6723 0 16.4823 0C16.3123 0 16.1323 0 15.9623 0C15.7923 0 15.6223 0 15.4623 0C15.2923 0 15.1123 0.00999451 14.9423 0.00999451C14.7723 0.00999451 14.6123 0.00999664 14.4423 0.0199966C14.2723 0.0199966 14.1023 0.0299988 13.9323 0.0299988C13.7723 0.0299988 13.6023 0.0399933 13.4423 0.0399933C13.2723 0.0499933 13.1023 0.0499976 12.9323 0.0599976C12.7823 0.0699976 12.6223 0.0699942 12.4723 0.0799942C12.3023 0.0899942 12.1323 0.099993 11.9723 0.109993C11.8223 0.119993 11.6723 0.119997 11.5323 0.129997C11.3723 0.139997 11.2123 0.149996 11.0523 0.159996C10.9123 0.169996 10.7623 0.179995 10.6223 0.189995C10.4623 0.199995 10.3123 0.219996 10.1623 0.229996C10.0323 0.239996 9.90233 0.249995 9.77233 0.259995C9.61233 0.269994 9.46233 0.289998 9.31233 0.309998C9.20233 0.319998 9.08233 0.329996 8.97233 0.339996C8.82233 0.359996 8.68233 0.379999 8.54233 0.389999C8.44233 0.399999 8.33232 0.41 8.23233 0.43C8.09232 0.45 7.97233 0.469998 7.84233 0.489998C7.75233 0.499998 7.65233 0.519999 7.57233 0.529999C7.44233 0.549999 7.33233 0.579998 7.22233 0.599998C7.14233 0.619998 7.06233 0.629999 6.99233 0.639999C6.88233 0.659999 6.79233 0.689994 6.69233 0.719994C6.63233 0.739994 6.56233 0.749997 6.50233 0.769997C6.41233 0.799997 6.34233 0.819999 6.26233 0.849998C6.21233 0.869998 6.15233 0.889994 6.10233 0.899994C6.03233 0.929994 5.97233 0.959998 5.92233 0.989998C5.88233 1.01 5.84233 1.03 5.81233 1.05C5.76233 1.08 5.72233 1.12 5.69233 1.16C5.67233 1.18 5.64233 1.19 5.63233 1.21C5.59233 1.26 5.57233 1.32 5.57233 1.38C5.55233 12.68 10.4823 21.86 16.5523 21.86Z" fill="#2B2B2D"/>
</svg>
