<svg width="52" height="43" viewBox="0 0 52 43" fill="none" xmlns="http://www.w3.org/2000/svg">
<path d="M31.7198 29.6699L27.4398 34.9899L27.2598 35.2099L30.0398 38.4799L32.2798 41.1099C32.4398 41.2899 32.6198 41.4399 32.7998 41.5699C32.8598 41.6199 32.9298 41.6399 32.9998 41.6799C33.1298 41.7599 33.2498 41.8399 33.3898 41.8999C33.4698 41.9399 33.5598 41.9599 33.6398 41.9799C33.7598 42.0199 33.8898 42.0699 34.0198 42.0999C34.1098 42.1199 34.2098 42.1199 34.2998 42.1299C34.4198 42.1499 34.5498 42.1699 34.6698 42.1699C34.7898 42.1699 34.9098 42.1599 35.0298 42.1399C35.1198 42.1299 35.2098 42.1299 35.2998 42.1099C35.4298 42.0899 35.5498 42.0399 35.6698 42.0099C35.7498 41.9799 35.8398 41.9699 35.9198 41.9399C36.0498 41.8899 36.1798 41.8099 36.2998 41.7399C36.3698 41.6999 36.4298 41.6799 36.4998 41.6399C36.6898 41.5199 36.8598 41.3799 37.0298 41.2099L38.3598 39.8799C38.6898 39.5499 38.9398 39.1599 39.0998 38.7499C39.1798 38.5399 39.2398 38.3299 39.2698 38.1199C39.3398 37.6899 39.3298 37.2499 39.2298 36.8199C39.1298 36.3999 38.9498 35.9899 38.6798 35.6199C38.5498 35.4399 38.3898 35.2699 38.2198 35.1099L31.7898 29.7099L31.7198 29.6699ZM34.0898 36.9599C34.3498 36.6999 34.6898 36.5699 35.0298 36.5699C35.3698 36.5699 35.7098 36.6999 35.9698 36.9599C36.0998 37.0899 36.1998 37.2399 36.2598 37.3999C36.3898 37.7199 36.3898 38.0799 36.2598 38.3999C36.1998 38.5599 36.0998 38.7099 35.9698 38.8399C35.7098 39.0999 35.3698 39.2299 35.0298 39.2299C34.6898 39.2299 34.3498 39.0999 34.0898 38.8399C33.5698 38.3199 33.5698 37.4699 34.0898 36.9599Z" fill="#2B2B2D"/>
<path d="M21.0799 27.95L25.3699 24.34L25.2799 24.27L22.0999 21.6C22.0999 21.6 23.5799 17.31 21.0099 14.83C19.4599 13.34 17.7099 13.02 16.5599 13C16.5199 13 16.4899 13.01 16.4599 13.01C16.4299 13.01 16.3999 13.01 16.3799 13.02C16.3499 13.03 16.3299 13.05 16.2999 13.06C16.2799 13.07 16.2499 13.08 16.2299 13.09C16.2099 13.11 16.1899 13.13 16.1699 13.15C16.1499 13.17 16.1299 13.18 16.1199 13.2C16.0999 13.22 16.0899 13.25 16.0799 13.28C16.0699 13.3 16.0499 13.32 16.0399 13.34C16.0299 13.37 16.0199 13.4 16.0199 13.43C16.0099 13.45 16.0099 13.47 15.9999 13.5C15.9999 13.53 15.9999 13.56 15.9999 13.6C15.9999 13.62 15.9999 13.64 15.9999 13.67C16.0099 13.71 16.0199 13.75 16.0399 13.78C16.0499 13.8 16.0499 13.81 16.0599 13.83C16.0899 13.88 16.1199 13.93 16.1699 13.98L17.6999 15.52C18.2299 16.05 18.4999 16.75 18.4999 17.45C18.4999 18.15 18.2399 18.85 17.7099 19.39L16.5399 20.51C16.3999 20.64 16.2599 20.76 16.1099 20.86C16.0599 20.89 15.9999 20.92 15.9399 20.95C15.8399 21.01 15.7299 21.07 15.6299 21.11C15.5599 21.14 15.4899 21.15 15.4199 21.17C15.3199 21.2 15.2199 21.24 15.1199 21.26C15.0499 21.27 14.9699 21.27 14.8999 21.28C14.8099 21.29 14.7199 21.31 14.6199 21.31C14.6099 21.31 14.6099 21.31 14.5999 21.31C14.4999 21.31 14.3999 21.29 14.2899 21.28C14.2099 21.27 14.1399 21.27 14.0599 21.25C13.9499 21.23 13.8499 21.19 13.7499 21.16C13.6799 21.14 13.6099 21.12 13.5399 21.09C13.4299 21.04 13.3199 20.98 13.2199 20.92C13.1699 20.89 13.1099 20.87 13.0599 20.83C12.9099 20.72 12.7599 20.6 12.6299 20.46L11.1799 18.95C11.1299 18.89 11.0599 18.86 10.9999 18.83C10.9799 18.82 10.9599 18.82 10.9399 18.81C10.8899 18.79 10.8499 18.78 10.7999 18.78C10.7799 18.78 10.7599 18.78 10.7399 18.78C10.6799 18.78 10.6199 18.79 10.5599 18.81H10.5499C10.4899 18.83 10.4299 18.87 10.3799 18.92C10.3699 18.93 10.3499 18.95 10.3399 18.96C10.3099 19 10.2799 19.04 10.2499 19.08C10.2399 19.1 10.2299 19.12 10.2199 19.13C10.1899 19.2 10.1799 19.27 10.1699 19.35C10.1699 19.82 10.2199 20.4 10.3799 21.01C10.4399 21.26 10.5299 21.53 10.6299 21.79C10.7399 22.06 10.8599 22.34 11.0199 22.61C11.2499 23.01 11.5399 23.41 11.8999 23.81C12.0499 23.97 12.2099 24.12 12.3699 24.25C12.4299 24.3 12.4899 24.33 12.5499 24.38C12.6599 24.46 12.7699 24.54 12.8799 24.61C12.9499 24.65 13.0199 24.69 13.0999 24.73C13.1999 24.79 13.3099 24.85 13.4099 24.9C13.4899 24.94 13.5699 24.96 13.6499 24.99C13.7499 25.03 13.8499 25.07 13.9599 25.11C14.0399 25.14 14.1299 25.16 14.2099 25.18C14.3099 25.21 14.4099 25.24 14.5099 25.26C14.5999 25.28 14.6799 25.29 14.7699 25.31C14.8699 25.33 14.9699 25.35 15.0599 25.36C15.1499 25.37 15.2299 25.38 15.3199 25.39C15.4199 25.4 15.5099 25.41 15.6099 25.42C15.6999 25.43 15.7799 25.43 15.8599 25.43C15.9499 25.43 16.0399 25.44 16.1299 25.44C16.2299 25.44 16.3199 25.44 16.4099 25.43C16.4899 25.43 16.5699 25.43 16.6399 25.42C16.7299 25.41 16.8199 25.41 16.9099 25.4C16.9799 25.39 17.0499 25.39 17.1199 25.38C17.2099 25.37 17.2899 25.36 17.3699 25.35C17.4299 25.34 17.4899 25.33 17.5499 25.33C17.6299 25.32 17.6999 25.3 17.7699 25.29C17.8199 25.28 17.8699 25.27 17.9199 25.26C17.9899 25.25 18.0399 25.23 18.0999 25.22C18.1399 25.21 18.1899 25.2 18.2199 25.19C18.2699 25.18 18.3099 25.17 18.3499 25.16C18.3799 25.15 18.4199 25.14 18.4499 25.14C18.4899 25.13 18.5199 25.12 18.5399 25.11C18.5599 25.11 18.5799 25.1 18.5899 25.1C18.6199 25.09 18.6399 25.09 18.6399 25.09L21.0799 27.95Z" fill="#2B2B2D"/>
<path d="M40.6009 19.7288L32.5608 11.6888C32.4308 11.5588 32.2809 11.4688 32.1309 11.3988C31.9709 11.3388 31.8109 11.2988 31.6409 11.2988C31.3109 11.2988 30.9709 11.4288 30.7209 11.6788L27.8108 14.5888C27.3008 15.0988 27.3008 15.9288 27.8108 16.4388L32.0509 20.6788L26.5608 25.3188L22.0709 29.0988L16.2409 33.9988L14.7209 35.1388C13.8409 35.9188 13.4908 37.0688 13.6708 38.1388C13.7408 38.5688 13.9009 38.9888 14.1509 39.3688C14.2709 39.5588 14.4209 39.7388 14.5809 39.9088L15.9109 41.2388C16.0709 41.3988 16.2409 41.5388 16.4309 41.6588C16.7909 41.8988 17.2009 42.0588 17.6109 42.1388C17.8209 42.1788 18.0309 42.1988 18.2409 42.1988C19.1309 42.1988 20.0208 41.8388 20.6708 41.1188L21.8309 39.5888L26.2808 34.0488L30.5809 28.6988L34.8108 23.4388L40.6009 29.2288C40.7209 29.3488 40.8909 29.4188 41.0509 29.4188C41.1309 29.4188 41.2109 29.3988 41.2909 29.3688C41.3709 29.3388 41.4409 29.2888 41.5009 29.2288L42.4709 28.2588C42.6209 28.1088 42.6908 27.8888 42.6409 27.6788L41.2008 20.8188C41.1108 20.4188 40.9009 20.0288 40.6009 19.7288Z" fill="#2B2B2D"/>
<path d="M42.29 11.86V1.45H36.62V7.81L25.69 0L0 18.41L1.84 21.04L25.69 4.03L49.54 21.04L51.4 18.38L42.29 11.86Z" fill="#2B2B2D"/>
</svg>
