<svg width="41" height="36" viewBox="0 0 41 36" fill="none" xmlns="http://www.w3.org/2000/svg">
<path d="M20.1492 20.6408H4.19922V21.1408H20.1492V20.6408Z" fill="#2B2B2D"/>
<path d="M20.1492 23.8408H4.19922V24.3408H20.1492V23.8408Z" fill="#2B2B2D"/>
<path d="M18.4707 29.6708C18.0607 29.8508 17.6407 30.0308 17.2507 30.2808C17.1107 30.3708 16.9507 30.5408 16.9307 30.7508C16.9207 30.8708 16.9607 30.9908 17.0507 31.0708C17.2207 31.2308 17.4507 31.1808 17.5407 31.1608C17.8107 31.1008 18.0707 31.0408 18.3407 30.9808C19.5207 30.7108 20.7307 30.4308 21.9407 30.4008C21.9507 30.5108 21.9607 30.6108 21.9507 30.7208L22.4507 30.7608C22.4707 30.5308 22.4507 30.3008 22.3907 30.0808C22.3607 29.9708 22.2607 29.8908 22.1507 29.8908C20.8207 29.9008 19.5107 30.2008 18.2407 30.4908C18.0407 30.5408 17.8407 30.5808 17.6407 30.6308C17.9607 30.4408 18.3107 30.2908 18.6807 30.1308C19.1607 29.9208 19.6607 29.7108 20.1007 29.3808C20.5207 29.0708 20.7607 28.7208 20.8107 28.3408C20.8207 28.2508 20.7907 28.1708 20.7207 28.1108C20.6507 28.0508 20.5607 28.0408 20.4707 28.0708C18.9707 28.6608 17.4707 29.2408 15.9707 29.8108C15.1707 30.1208 14.2607 30.4608 13.3407 30.7308C12.9607 30.8408 12.5607 30.9408 12.1607 30.9408C12.0507 30.9608 12.0007 30.9208 11.9907 30.9208C11.9807 30.9108 11.9607 30.8308 12.0407 30.6408C12.2307 30.1808 12.4807 29.7408 12.7807 29.3408C13.5807 28.9908 14.3707 28.6308 15.1707 28.2608C15.4807 28.1208 15.8607 27.9408 16.1507 27.6408C16.2307 27.5608 16.3307 27.4308 16.3507 27.2508C16.3707 26.9508 16.1207 26.7208 15.8607 26.6808C15.6407 26.6508 15.4507 26.7108 15.2907 26.7808C14.1707 27.2308 13.1907 27.9808 12.4607 28.9308C11.2907 29.4408 10.1207 29.9408 8.9707 30.4408L9.17072 30.9008C10.0907 30.5108 11.0207 30.1108 11.9507 29.7008C11.8107 29.9408 11.6907 30.1908 11.5907 30.4508C11.4007 30.9008 11.5307 31.1508 11.6607 31.2808C11.8207 31.4308 12.0407 31.4408 12.1507 31.4408C12.1607 31.4408 12.1707 31.4408 12.1807 31.4408C12.6407 31.4308 13.0807 31.3208 13.4907 31.2108C14.3607 30.9608 15.1807 30.6608 16.1607 30.2808C17.4507 29.7908 18.7407 29.2908 20.0307 28.7808C19.9707 28.8408 19.8907 28.9008 19.8107 28.9708C19.3907 29.2708 18.9507 29.4608 18.4707 29.6708ZM15.4507 27.2608C15.5407 27.2208 15.6407 27.1908 15.7207 27.1908C15.7307 27.1908 15.7507 27.1908 15.7607 27.1908C15.8007 27.2008 15.8307 27.2208 15.8307 27.2208C15.8307 27.2208 15.8207 27.2508 15.7707 27.3008C15.5507 27.5308 15.2307 27.6808 14.9507 27.8108C14.5007 28.0208 14.0507 28.2208 13.6007 28.4308C14.1407 27.9308 14.7707 27.5308 15.4507 27.2608Z" fill="#2B2B2D"/>
<path d="M38.92 14.7108H37.59C37.38 15.3808 37.17 16.0508 36.95 16.7108H38.92V33.6808H27.74C27.51 33.7308 27.29 33.7708 27.05 33.7708C26.81 33.7708 26.57 33.7408 26.34 33.6808H1.98999V16.7108H27.28C27.49 16.0508 27.7 15.3808 27.93 14.7108H2C0.9 14.7108 0 15.6108 0 16.7108V33.6808C0 34.7808 0.9 35.6808 2 35.6808H38.93C40.03 35.6808 40.93 34.7808 40.93 33.6808V16.7108C40.92 15.6008 40.02 14.7108 38.92 14.7108Z" fill="#2B2B2D"/>
<path d="M25.9604 21.1408C26.0104 20.9708 26.0504 20.8108 26.1004 20.6408H22.9004C22.7604 20.6408 22.6504 20.7508 22.6504 20.8908V24.0908C22.6504 24.2308 22.7604 24.3408 22.9004 24.3408H25.1404C25.1804 24.1808 25.2204 24.0108 25.2604 23.8408H23.1504V21.1408H25.9604Z" fill="#2B2B2D"/>
<path d="M27.3209 23.8408C27.3009 23.9008 27.2909 23.9608 27.2809 24.0208C27.0909 24.7708 26.9309 25.4908 26.7809 26.1608C26.3509 28.1808 26.2909 31.6008 26.8409 31.7508C27.9609 32.0408 29.6409 29.8008 30.7009 27.4708C31.1309 26.5308 31.5809 25.4808 32.0409 24.3408C32.1109 24.1708 32.1709 24.0108 32.2409 23.8408C32.5809 22.9808 32.9309 22.0808 33.2809 21.1408C33.3409 20.9808 33.4009 20.8108 33.4609 20.6408C33.9109 19.4108 34.3609 18.1308 34.8009 16.8108C34.8109 16.7708 34.8209 16.7408 34.8309 16.7008C35.0609 16.0208 35.2609 15.3608 35.4609 14.7008C35.6409 14.1308 35.8409 13.5408 36.0109 12.9808L31.1809 11.3708C30.7309 12.5908 30.2909 13.8608 29.8509 15.1608C28.8409 18.2708 27.9609 21.2608 27.3209 23.8408Z" fill="#2B2B2D"/>
<path d="M34.3992 23.8408C34.3292 24.0108 34.2692 24.1808 34.1992 24.3408H36.3692C36.5092 24.3408 36.6192 24.2308 36.6192 24.0908V20.8908C36.6192 20.7508 36.5092 20.6408 36.3692 20.6408H35.5992C35.5392 20.8108 35.4792 20.9708 35.4192 21.1408H36.1292V23.8408H34.3992Z" fill="#2B2B2D"/>
<path d="M37.9097 5.83082C38.8497 1.39082 38.5297 0.350819 37.6497 0.0608187C36.7797 -0.229181 35.8897 0.400818 33.9797 4.53082C33.2697 6.05082 32.5198 7.88082 31.7598 9.89082L36.4797 11.4608C37.0697 9.39082 37.5597 7.47082 37.9097 5.83082Z" fill="#2B2B2D"/>
</svg>
