<svg width="17" height="17" viewBox="0 0 17 17" fill="none" xmlns="http://www.w3.org/2000/svg">
<path d="M8.61389 0C3.93704 0 0.1875 3.74954 0.1875 8.42639C0.1875 13.1032 3.93704 16.8528 8.61389 16.8528C13.2907 16.8528 17.0403 13.1032 17.0403 8.42639C17.0403 3.74954 13.2504 0 8.61389 0ZM11.799 10.8858C10.6298 11.6115 9.74278 11.5712 9.21865 11.4099C8.69452 11.2486 8.1704 10.8051 8.13008 10.6439C8.08976 10.5229 7.68658 12.4582 7.60595 12.7001C7.52531 12.942 6.55769 14.9578 6.27547 14.8772C5.99324 14.7966 6.11419 12.6597 6.15451 12.4178C6.19483 12.1759 7.12214 8.42639 7.12214 8.26512C7.12214 8.14417 6.67864 7.41845 7.0415 6.32987C7.36404 5.36225 8.4123 5.12034 8.85579 5.52352C9.21865 5.84606 9.37992 6.32987 8.93643 7.66035C8.53325 8.86988 8.4123 9.55528 9.13802 10.1197C9.86374 10.6439 10.9926 9.75687 11.3958 8.99084C11.799 8.2248 12.1618 6.24924 11.7183 5.32193C11.2749 4.39462 10.3879 3.78986 9.25897 3.78986C8.13008 3.78986 6.67864 3.99145 5.87229 5.68479C5.10625 7.33781 5.95292 8.46671 6.03356 8.58766C6.11419 8.66829 6.15451 8.74893 6.11419 8.9102C6.07388 9.03115 5.99324 9.43433 5.95292 9.55528C5.91261 9.67624 5.79165 9.87782 5.22721 9.51497C4.46117 8.95052 4.05799 8.10385 4.17895 6.41051C4.2999 4.71716 6.19483 2.94319 8.04944 2.70128C10.025 2.41906 12.2425 2.78192 13.2907 5.08002C14.339 7.41845 12.9682 10.2004 11.799 10.8858Z" fill="white"/>
</svg>
