<svg width="35" height="35" viewBox="0 0 35 35" fill="none" xmlns="http://www.w3.org/2000/svg">
<path d="M7.91389 13.8025C7.33978 14.3766 6.95703 15.1421 6.95703 16.0033C6.95703 16.8645 7.24409 17.6299 7.91389 18.2041L12.3155 22.6056L14.0378 24.328L16.6213 26.9115C17.8652 28.1554 19.779 28.1554 21.0229 26.9115L22.3625 25.5719L9.2535 12.4629L7.91389 13.8025Z" fill="#296E8B"/>
<path d="M10.1155 22.0312L1.3124 30.8344C0.546909 31.5999 0.546909 32.7481 1.3124 33.5136C2.07789 34.1834 3.22612 34.1834 3.99161 33.5136L12.7947 24.7105L11.4551 23.3709L10.1155 22.0312ZM3.22612 32.3653C3.22612 32.461 3.13043 32.461 3.13043 32.5567C3.03475 32.6524 2.84337 32.7481 2.74769 32.7481C2.55632 32.7481 2.46063 32.6524 2.26926 32.5567C2.17357 32.461 2.17357 32.461 2.17357 32.3653C2.17357 32.2697 2.17357 32.174 2.17357 32.174C2.17357 31.9826 2.26926 31.8869 2.36494 31.7912C2.36494 31.6955 2.36494 31.5999 2.46063 31.5999C2.55632 31.5042 2.652 31.5042 2.84337 31.5999H2.93906C2.93906 31.5999 3.03475 31.5999 3.03475 31.6955L3.13043 31.7912C3.22612 31.8869 3.32181 32.0783 3.32181 32.174C3.32181 32.174 3.32181 32.2697 3.22612 32.3653Z" fill="#296E8B"/>
<path d="M31.5497 13.8027L28.4877 16.8647C27.7223 17.6302 26.574 17.6302 25.9042 16.8647C25.1387 16.0992 25.1387 14.9509 25.9042 14.2811L28.105 12.0804C28.3921 11.7933 28.3921 11.4106 28.105 11.2192C27.8179 10.9321 27.4352 10.9321 27.2438 11.2192L26.7654 11.6976C26.287 12.1761 25.6172 12.3674 24.9474 12.1761C24.2776 11.9847 23.7991 11.5063 23.6078 10.8364C23.4164 10.1666 23.6078 9.49684 24.0862 9.01841L27.6266 5.47803L22.3638 0.215294C22.0768 -0.0717646 21.694 -0.0717646 21.5027 0.215294L14.5176 7.20038L27.6266 20.3094L33.3677 14.5682L32.4109 13.8027C32.2195 13.5157 31.8368 13.5157 31.5497 13.8027Z" fill="#296E8B"/>
<path d="M34.6115 12.4628L28.4876 6.33887L24.9472 9.87925C24.7559 10.0706 24.7559 10.262 24.7559 10.4534C24.8515 10.6447 24.9472 10.8361 25.2343 10.9318C25.4257 11.0275 25.7127 10.9318 25.8084 10.7404L26.2868 10.262C26.7653 9.78357 27.4351 9.59219 28.1049 9.78357C28.7747 9.97494 29.2531 10.4534 29.4445 11.1232C29.6358 11.793 29.4445 12.4628 28.966 12.9412L26.7653 15.142C26.6696 15.2377 26.5739 15.429 26.5739 15.6204C26.5739 15.8118 26.6696 15.9075 26.7653 16.0988C27.0523 16.3859 27.4351 16.3859 27.6264 16.0988L30.6884 13.0369C31.0711 12.6541 31.5496 12.4628 32.028 12.4628C32.5064 12.4628 32.9849 12.6541 33.3676 13.0369L34.2288 13.8981L34.7072 13.4196C34.8986 13.1326 34.8986 12.6541 34.6115 12.4628Z" fill="#296E8B"/>
<path d="M23.2242 24.7104L10.1152 11.6013L11.8376 9.87891L25.0422 22.9881L23.2242 24.7104Z" fill="#296E8B"/>
<path d="M25.9039 22.1274L12.6992 8.9227L13.5604 8.06152L26.6694 21.1705L25.9039 22.1274Z" fill="#296E8B"/>
</svg>
