<svg width="45" height="27" viewBox="0 0 45 27" fill="none" xmlns="http://www.w3.org/2000/svg">
<path fill-rule="evenodd" clip-rule="evenodd" d="M6.84652 17.5191L9.12416 15.2519C9.53828 15.355 9.9524 15.458 10.3665 15.6641L7.77828 18.2405C7.77828 18.7557 7.98534 19.1679 8.39946 19.5802C8.81358 19.9924 9.33122 20.1985 9.9524 20.1985H10.0559C10.6771 20.1985 11.2983 19.9924 11.7124 19.5802C12.1265 19.1679 12.4371 18.6527 12.4371 18.0344V17.9313C12.4371 17.0038 12.023 16.1794 11.4018 15.5611C10.7806 14.9427 9.9524 14.5305 8.91711 14.5305H8.71005C7.67475 14.5305 6.63946 14.9427 5.91475 15.5611C5.19005 16.1794 4.77593 17.1069 4.6724 18.1374V18.3435C4.87946 19.4771 5.39711 20.7137 6.32887 21.5382C7.15711 22.3626 8.39946 22.9809 9.74534 22.9809C9.74534 22.9809 9.84887 22.9809 9.9524 22.9809C11.1948 22.9809 12.3336 22.5687 13.2653 21.8473C13.5759 21.5382 13.99 21.229 14.3006 20.8168C14.9218 19.9924 15.3359 18.9618 15.4395 17.8282C15.4395 17.8282 15.4395 17.7252 15.4395 17.6221C15.4395 15.9733 14.8183 14.4275 13.6795 13.3969C12.5406 12.2634 10.9877 11.542 9.22769 11.542C9.12416 11.542 9.12416 11.542 8.91711 11.542C7.05358 11.542 5.39711 12.2634 4.15475 13.3969C4.15475 13.3969 4.15475 13.3969 4.05122 13.5C2.80887 14.6336 1.98063 16.2824 1.8771 18.0344C1.8771 18.1374 1.8771 18.2405 1.8771 18.3435C1.8771 20.4046 2.70534 22.1565 4.05122 23.5992C5.39711 24.9389 7.26063 25.7634 9.43475 25.8664C9.53828 25.8664 9.64181 25.8664 9.74534 25.8664H29.5195L41.8395 13.6031C36.1453 13.6031 30.4512 13.6031 24.6536 13.6031L25.8959 12.3664H44.7383L30.1406 27H9.84887C9.74534 27 9.64181 27 9.43475 27C6.95005 26.8969 4.77593 25.8664 3.22299 24.3206C1.67005 22.7748 0.738281 20.7137 0.738281 18.3435C0.738281 18.2405 0.738281 18.1374 0.738281 18.0344C0.841811 15.9733 1.77358 14.1183 3.22299 12.7786L3.32652 12.6756L13.5759 2.47328C13.6795 2.37023 13.8865 2.16412 13.99 2.06107C15.543 0.721374 17.51 0 19.4771 0C20.5124 0 21.5477 0.206107 22.4795 0.515267C24.343 1.23664 25.7924 2.57634 26.5171 4.53435C26.8277 5.35878 27.0348 6.28626 26.9312 7.31679C26.9312 9.0687 26.2065 10.9237 24.8606 12.2634C24.7571 12.3664 24.55 12.5725 24.4465 12.6756L15.3359 21.7443C14.9218 22.1565 14.5077 22.5687 13.99 22.9809C12.8512 23.8053 11.4018 24.3206 9.84887 24.3206C9.74534 24.3206 9.74534 24.3206 9.53828 24.3206C7.88181 24.2176 6.32887 23.5992 5.29358 22.4656C4.25828 21.4351 3.53358 19.8893 3.53358 18.2405C3.53358 18.2405 3.53358 18.1374 3.53358 18.0344C3.6371 16.6947 4.15475 15.458 5.19005 14.6336C6.12181 13.8092 7.36416 13.1908 8.81358 13.1908H9.02063C10.3665 13.1908 11.5053 13.8092 12.3336 14.6336C13.1618 15.458 13.6795 16.5916 13.6795 17.8282V18.0344C13.6795 18.9618 13.1618 19.7863 12.5406 20.4046C11.9195 21.0229 10.9877 21.4351 10.0559 21.4351H9.9524C9.02063 21.4351 8.1924 21.0229 7.57122 20.4046C6.95005 19.7863 6.63946 18.9618 6.63946 18.1374V18.0344C6.63946 17.9313 6.63946 17.8282 6.74299 17.7252C6.74299 17.6221 6.84652 17.5191 6.84652 17.5191ZM6.95005 10.6145C7.57122 10.4084 8.29593 10.4084 8.91711 10.4084C9.02063 10.4084 9.12416 10.4084 9.22769 10.4084C11.2983 10.5114 13.1618 11.3359 14.4042 12.6756C15.75 14.0153 16.5783 15.7672 16.5783 17.8282C16.5783 17.9313 16.5783 18.0344 16.5783 18.1374C16.5783 18.3435 16.5783 18.5496 16.4748 18.8588L23.5148 11.8511C23.6183 11.7481 23.8253 11.645 23.9289 11.4389C24.4465 10.9237 24.9642 10.2023 25.1712 9.48092C25.4818 8.75954 25.5853 8.03817 25.5853 7.31679C25.5853 6.49237 25.4818 5.77099 25.2748 5.04962C24.6536 3.50382 23.4112 2.37023 21.8583 1.75191C21.03 1.44275 20.2018 1.23664 19.3736 1.23664C17.7171 1.23664 16.0606 1.75191 14.7148 2.8855C14.6112 2.98855 14.5077 3.0916 14.3006 3.19466L6.95005 10.6145Z" fill="#72AC8D"/>
</svg>
