<svg width="35" height="34" viewBox="0 0 35 34" fill="none" xmlns="http://www.w3.org/2000/svg">
<path d="M0.738281 0V33.9686H34.7068V0H0.738281ZM1.9822 22.9647V1.24392H4.37435V22.9647H1.9822ZM1.9822 32.7246V23.9215H4.37435V32.7246H1.9822ZM5.23553 10.047V1.24392H10.7853V10.047H5.23553ZM5.23553 32.7246V11.0039H10.7853V32.7246H5.23553ZM11.7422 22.9647V1.24392H17.292V22.9647H11.7422ZM11.7422 32.7246V23.9215H17.292V32.7246H11.7422ZM18.1531 10.047V1.24392H23.7029V10.047H18.1531ZM18.1531 32.7246V11.0039H23.7029V32.7246H18.1531ZM24.6598 22.9647V1.24392H30.2096V22.9647H24.6598ZM24.6598 32.7246V23.9215H30.2096V32.7246H24.6598ZM31.1665 10.047V1.24392H33.5586V10.047H31.1665ZM31.1665 32.7246V11.0039H33.5586V32.7246H31.1665Z" fill="#B69679"/>
</svg>
