<svg width="40" height="32" viewBox="0 0 40 32" fill="none" xmlns="http://www.w3.org/2000/svg">
<path d="M25.2414 22.8069C25.153 22.8953 23.7386 22.1881 23.6502 22.2765C23.5618 22.3649 23.7386 23.8677 23.6502 23.9561C23.5618 24.0445 22.3242 23.4257 22.3242 23.5141L30.1032 30.7626C30.3684 31.0277 30.722 30.9393 30.9872 30.5858L32.49 28.9946C32.7552 28.7294 32.7552 28.2875 32.49 28.0223L25.3297 21.3926C25.2413 21.3926 25.3297 22.7185 25.2414 22.8069Z" fill="#935656"/>
<path d="M6.32454 17.0608L8.53449 14.7624C8.88808 14.4088 8.79968 13.7901 8.44609 13.4365L8.1809 13.1713L13.6616 7.33702L11.4516 5.21547C12.2472 3.00553 14.1919 1.59116 15.8715 1.06077C15.5179 0.707182 15.1643 0.353591 14.8107 0C13.0428 0.441989 10.8328 1.85635 9.33007 3.53591L4.0262 9.19337L3.76101 8.92818C3.40742 8.57459 2.78863 8.57459 2.43504 8.92818L0.225096 11.2265C-0.128495 11.5801 -0.0400974 12.1989 0.313494 12.5525L5.08697 17.0608C5.35217 17.4144 5.97095 17.4144 6.32454 17.0608Z" fill="#935656"/>
<path d="M4.37967 6.71879C4.64486 6.98397 5.08685 6.89558 5.35204 6.63039L6.8548 5.03928C7.11999 4.7741 7.11999 4.33212 6.8548 4.06694L6.23602 3.62496C5.97083 3.35978 5.52884 3.44817 5.26365 3.71336L3.84929 5.21607C3.58409 5.56965 3.58409 5.92323 3.84929 6.18842L4.37967 6.71879Z" fill="#935656"/>
<path d="M13.0432 9.98922C12.778 9.72403 12.336 9.81243 12.0708 10.0776L10.568 11.6688C10.3028 11.934 10.3028 12.376 10.568 12.6412L14.3691 16.2655L16.8443 13.7903L13.0432 9.98922Z" fill="#935656"/>
<path d="M25.0645 18.4758L19.3186 12.8184L4.46777 27.846L8.44567 31.6471L8.71087 31.4703L10.2136 32.0007V30.4095L10.302 30.3211L11.8048 30.8515L11.8932 29.2603V29.172L13.396 29.7023L13.4843 28.1112L15.0755 28.5532V26.962H15.1639L16.6667 27.4924V25.8128H16.7551L18.2578 26.3432V24.7521L18.3462 24.6637L19.849 25.1941V23.6029L19.9374 23.5145L21.4401 24.0449V22.4537L21.5285 22.3653L23.0313 22.8957V21.3045H23.1197L24.6225 21.7465V20.1554H24.7109L26.2136 20.5974L26.302 19.0062L25.0645 18.4758Z" fill="#935656"/>
<path d="M39.0318 11.227L30.8108 3.18273C30.1036 2.47555 28.866 2.47555 28.1589 3.18273L21.087 10.4314C20.3798 11.1386 20.3798 12.3762 21.087 13.0834L25.2417 17.2381L31.3412 19.0061C32.3135 19.2713 33.2859 19.7132 33.9931 19.0061L39.0318 13.8789C39.739 13.0834 39.739 11.9342 39.0318 11.227ZM23.3854 13.3486C22.855 13.3486 22.413 12.8182 22.5014 12.2878C22.5014 11.7574 23.0318 11.3154 23.5622 11.4038C24.0926 11.4922 24.5345 11.9342 24.4461 12.4646C24.3577 12.9066 23.9158 13.3486 23.3854 13.3486ZM26.9213 16.6193C26.3909 16.6193 25.9489 16.0889 26.0373 15.5585C26.0373 15.0281 26.5677 14.5861 27.0981 14.6745C27.6285 14.6745 28.0705 15.2049 27.9821 15.7353C27.8937 16.2657 27.4517 16.7077 26.9213 16.6193ZM35.9379 12.8182L33.1975 15.5585C32.5787 16.1773 31.6948 16.1773 31.076 15.5585L26.1257 10.6966C25.5069 10.0778 25.5069 9.19383 26.1257 8.57504L28.866 5.83469C29.4848 5.2159 30.3688 5.2159 30.9876 5.83469L35.9379 10.6966C36.5566 11.227 36.5566 12.1994 35.9379 12.8182Z" fill="#935656"/>
</svg>
