<svg width="34" height="34" viewBox="0 0 34 34" fill="none" xmlns="http://www.w3.org/2000/svg">
<path d="M33.1074 29.4713L24.4 20.7639L20.7639 24.3999L29.4713 33.1074C30.4282 34.0642 32.0548 34.0642 33.1074 33.1074C34.1599 32.1505 34.1599 30.5239 33.1074 29.4713ZM22.1035 21.0509L20.5725 19.52C19.4243 18.3717 17.3192 18.6588 15.8839 20.0941L7.36783 28.6101C6.50665 29.4713 5.07136 29.4713 4.21019 28.6101L2.96627 27.3662C2.20078 26.6007 2.10509 25.4525 2.67921 24.5913L1.62666 23.5388C0.47843 24.9741 0.574116 27.0792 1.91372 28.4188L3.25333 29.6627C4.68862 31.098 7.08077 31.098 8.51606 29.6627L17.0321 21.1466C17.989 20.1898 19.1372 20.0941 19.6156 20.5725L21.1466 22.1035L22.1035 21.0509ZM25.1654 2.00941L24.1129 0.956861L23.4431 1.62666L24.4956 2.67921L25.1654 2.00941ZM7.46351 25.6439L25.6439 7.46351C26.4094 6.69802 26.4094 5.54979 25.6439 4.7843L23.9215 3.25333L22.869 2.20078L21.2423 0.574116C20.4768 -0.191372 19.3286 -0.191372 18.5631 0.574116L0.574116 18.6588C-0.191372 19.4243 -0.191372 20.5725 0.574116 21.338L4.87999 25.6439C5.64548 26.3137 6.79371 26.3137 7.46351 25.6439Z" fill="#296E8B"/>
</svg>
