<svg width="34" height="34" viewBox="0 0 34 34" fill="none" xmlns="http://www.w3.org/2000/svg">
<path d="M0 0V33.9686H33.9686V0H0ZM1.24392 22.9647V1.24392H3.63607V22.9647H1.24392ZM1.24392 32.7246V23.9215H3.63607V32.7246H1.24392ZM4.49725 10.047V1.24392H10.047V10.047H4.49725ZM4.49725 32.7246V11.0039H10.047V32.7246H4.49725ZM11.0039 22.9647V1.24392H16.5537V22.9647H11.0039ZM11.0039 32.7246V23.9215H16.5537V32.7246H11.0039ZM17.4149 10.047V1.24392H22.9647V10.047H17.4149ZM17.4149 32.7246V11.0039H22.9647V32.7246H17.4149ZM23.9215 22.9647V1.24392H29.4713V22.9647H23.9215ZM23.9215 32.7246V23.9215H29.4713V32.7246H23.9215ZM30.4282 10.047V1.24392H32.8203V10.047H30.4282ZM30.4282 32.7246V11.0039H32.8203V32.7246H30.4282Z" fill="#B69679"/>
</svg>
