<svg width="32" height="58" viewBox="0 0 32 58" fill="none" xmlns="http://www.w3.org/2000/svg">
<path d="M10.7189 13.7783H4.2998V20.1974H10.7189V13.7783Z" stroke="#212C30" stroke-miterlimit="10" stroke-linecap="round" stroke-linejoin="round"/>
<path d="M10.7189 27.9365H4.2998V34.3556H10.7189V27.9365Z" stroke="#212C30" stroke-miterlimit="10" stroke-linecap="round" stroke-linejoin="round"/>
<path d="M14.918 32.7949H22.1769" stroke="#212C30" stroke-miterlimit="10" stroke-linecap="round"/>
<path d="M14.918 29.6162H27.1561" stroke="#212C30" stroke-miterlimit="10" stroke-linecap="round"/>
<path d="M14.3779 54.8721H17.1375" stroke="#212C30" stroke-miterlimit="10" stroke-linecap="round" stroke-linejoin="round"/>
<path d="M14.918 18.6973H22.1769" stroke="#212C30" stroke-miterlimit="10" stroke-linecap="round"/>
<path d="M14.918 15.5176H27.1561" stroke="#212C30" stroke-miterlimit="10" stroke-linecap="round"/>
<path d="M22.1767 49.4129C24.8604 49.4129 27.0359 47.2373 27.0359 44.5536C27.0359 41.8699 24.8604 39.6943 22.1767 39.6943C19.493 39.6943 17.3174 41.8699 17.3174 44.5536C17.3174 47.2373 19.493 49.4129 22.1767 49.4129Z" stroke="#212C30" stroke-miterlimit="10" stroke-linecap="round"/>
<path d="M23.6162 42.6932C23.0163 41.6133 20.7966 41.7933 20.7966 43.1131C20.7966 44.6129 23.7962 44.133 23.7962 45.4528C23.7962 46.8926 21.2765 47.3725 20.5566 45.8727" stroke="#212C30" stroke-miterlimit="10" stroke-linecap="round"/>
<path d="M22.2373 41.3135V41.9134" stroke="#212C30" stroke-miterlimit="10" stroke-linecap="round"/>
<path d="M22.2373 46.8926V47.6125" stroke="#212C30" stroke-miterlimit="10" stroke-linecap="round"/>
<path d="M4.2998 45.2734H10.9588" stroke="#212C30" stroke-miterlimit="10" stroke-linecap="round"/>
<path d="M4.2998 42.0342H14.4383" stroke="#212C30" stroke-miterlimit="10" stroke-linecap="round"/>
<path d="M29.3158 57.1516H2.19982C1.53992 57.1516 1 56.6117 1 55.9518V2.19982C1 1.53992 1.53992 1 2.19982 1H29.3158C29.9757 1 30.5156 1.53992 30.5156 2.19982V55.9518C30.5156 56.6117 29.9757 57.1516 29.3158 57.1516Z" stroke="#212C30" stroke-miterlimit="10" stroke-linejoin="round"/>
<path d="M5.85938 16.1773L7.77909 18.097L12.6984 13.1777" stroke="#212C30" stroke-miterlimit="10" stroke-linecap="round" stroke-linejoin="round"/>
<path d="M5.85938 30.2759L7.77909 32.1956L12.6984 27.2764" stroke="#212C30" stroke-miterlimit="10" stroke-linecap="round" stroke-linejoin="round"/>
<path d="M5.85938 16.1773L7.77909 18.097L12.6984 13.1777" stroke="#212C30" stroke-miterlimit="10" stroke-linecap="round" stroke-linejoin="round"/>
<path d="M5.85938 30.2759L7.77909 32.1956L12.6984 27.2764" stroke="#212C30" stroke-miterlimit="10" stroke-linecap="round" stroke-linejoin="round"/>
<path d="M1 6.09961H30.5156" stroke="#212C30" stroke-miterlimit="10" stroke-linejoin="round"/>
<path d="M1 52.9521H30.5156" stroke="#212C30" stroke-miterlimit="10" stroke-linejoin="round"/>
</svg>
