<svg width="32" height="34" viewBox="0 0 32 34" fill="none" xmlns="http://www.w3.org/2000/svg">
<path d="M31.098 3.54036V0H0V3.54036C0 4.11447 0.47843 4.59289 1.05255 4.59289H7.46351V9.0901C7.46351 9.18579 7.46351 9.18579 7.46351 9.28147C7.46351 9.37716 7.46351 9.37716 7.5592 9.47285V9.56853C7.65488 9.66422 7.75057 9.7599 7.84625 9.85559L7.94194 9.95127L12.3435 12.8218C12.5349 12.9175 12.7262 13.0132 12.9176 13.0132C13.3004 13.0132 13.5874 12.8218 13.7788 12.5348C14.0658 12.0563 13.9702 11.3866 13.4917 11.0038L9.5686 8.51599V4.68858H21.7207V8.51599L17.7976 11.0995C17.3192 11.3866 17.1278 12.0563 17.5105 12.6305C17.7019 12.9175 18.0847 13.1089 18.3717 13.1089C18.5631 13.1089 18.7545 13.0132 18.9458 12.9175L23.3474 10.047L23.4431 9.95127C23.5388 9.85559 23.6345 9.7599 23.7301 9.66422V9.56853C23.7301 9.47285 23.7301 9.47285 23.8258 9.37716C23.8258 9.37716 23.8258 9.37716 23.8258 9.28147C23.8258 9.18579 23.8258 9.18579 23.8258 9.0901V4.59289H29.9497C30.6195 4.59289 31.098 4.11447 31.098 3.54036Z" fill="#197A72"/>
<path d="M17.1284 24.0169C17.1284 23.2514 15.6931 20.668 15.6931 20.668C15.6931 20.668 14.2578 23.2514 14.2578 24.0169C14.2578 24.7824 14.9276 25.4521 15.6931 25.4521C16.4586 25.4521 17.1284 24.7824 17.1284 24.0169Z" fill="#197A72"/>
<path d="M7.6552 21.8162C7.08108 22.3903 7.08108 23.2514 7.6552 23.8256C8.22931 24.3997 9.09049 24.3997 9.6646 23.8256C10.2387 23.2514 11.0042 20.3809 11.0042 20.3809C11.0042 20.3809 8.22931 21.242 7.6552 21.8162Z" fill="#197A72"/>
<path d="M23.7299 21.8162C23.1558 21.242 20.3809 20.3809 20.3809 20.3809C20.3809 20.3809 21.1463 23.2514 21.7205 23.8256C22.2946 24.3997 23.1558 24.3997 23.7299 23.8256C24.304 23.2514 24.304 22.3903 23.7299 21.8162Z" fill="#197A72"/>
<path d="M15.6931 33.969C16.5543 33.969 17.1284 33.2992 17.1284 32.5337C17.1284 31.7682 15.6931 29.1846 15.6931 29.1846C15.6931 29.1846 14.2578 31.7682 14.2578 32.5337C14.2578 33.2992 14.9276 33.969 15.6931 33.969Z" fill="#197A72"/>
<path d="M8.03769 30.811C7.75063 31.5765 8.13338 32.342 8.89887 32.6291C9.66435 32.9161 10.4298 32.5334 10.7169 31.7679C11.004 31.0024 10.6212 28.1318 10.6212 28.1318C10.6212 28.1318 8.32475 30.0456 8.03769 30.811Z" fill="#197A72"/>
<path d="M1.14863 30.0454C1.62706 30.6195 2.48823 30.8109 3.15804 30.3324C3.73215 29.854 4.97607 27.0791 4.97607 27.0791C4.97607 27.0791 2.0098 27.5575 1.43569 28.036C0.765884 28.6101 0.670198 29.4713 1.14863 30.0454Z" fill="#197A72"/>
<path d="M20.8597 28.1318C20.8597 28.1318 20.4769 31.0981 20.764 31.7679C21.051 32.5334 21.9122 32.8205 22.582 32.6291C23.3475 32.342 23.6346 31.4808 23.4432 30.811C23.0604 30.0456 20.8597 28.1318 20.8597 28.1318Z" fill="#197A72"/>
<path d="M26.5049 27.0791C26.5049 27.0791 27.6531 29.7584 28.3229 30.3326C28.897 30.811 29.8539 30.7153 30.3323 30.0455C30.8108 29.4714 30.7151 28.5145 30.0453 28.036C29.3755 27.5576 26.5049 27.0791 26.5049 27.0791Z" fill="#197A72"/>
<path d="M21.4335 16.075C21.4335 15.5009 20.9551 15.0225 20.381 15.0225H16.8406V9.95101C16.8406 9.37688 16.3622 8.89844 15.7881 8.89844C15.2139 8.89844 14.7355 9.37688 14.7355 9.95101V15.0225H11.1951C10.621 15.0225 10.1426 15.5009 10.1426 16.075V18.1802H21.6249V16.075H21.4335Z" fill="#197A72"/>
</svg>
