<svg width="24" height="34" viewBox="0 0 24 34" fill="none" xmlns="http://www.w3.org/2000/svg">
<path d="M21.9121 3.63574H19.2329V5.54946H21.7207V31.8631H1.91372V5.64515H4.40156V3.73143H1.72235C0.765489 3.63574 0 4.40123 0 5.45378V32.1502C0 33.1071 0.765489 33.8725 1.72235 33.8725H21.8164C22.7733 33.8725 23.5388 33.1071 23.5388 32.1502V5.45378C23.6345 4.40123 22.869 3.63574 21.9121 3.63574Z" fill="#D82216"/>
<path d="M7.94199 6.50665H15.6926C16.9365 6.50665 17.8933 5.54979 17.8933 4.30587V3.4447C17.8933 3.06195 17.6063 2.87058 17.3192 2.87058H14.7357C14.7357 1.24392 13.3961 0 11.8651 0C10.2385 0 8.99454 1.33961 8.99454 2.87058H6.31533C6.02827 2.7749 5.74121 3.06195 5.74121 3.4447V4.30587C5.74121 5.45411 6.69807 6.50665 7.94199 6.50665ZM11.8651 1.62666C12.5349 1.62666 13.0134 2.20078 13.0134 2.7749C13.0134 3.34901 12.4392 4.01882 11.8651 4.01882C11.1953 4.01882 10.7169 3.4447 10.7169 2.87058C10.7169 2.29647 11.1953 1.62666 11.8651 1.62666Z" fill="#D82216"/>
<path d="M10.1426 28.2273H19.3284V26.8877H10.1426V28.2273Z" fill="#D82216"/>
<path d="M8.42011 24.6875C8.32442 24.5918 8.22873 24.5918 8.13305 24.5918C8.03736 24.5918 7.94168 24.5918 7.84599 24.6875L5.83658 26.6969L4.97541 25.8357C4.87972 25.74 4.78403 25.74 4.68835 25.74C4.59266 25.74 4.49698 25.74 4.40129 25.8357L4.11423 26.1228C3.92286 26.3141 3.92286 26.5055 4.11423 26.6969L5.64521 28.2279C5.7409 28.3236 5.83658 28.3236 5.93227 28.3236C6.02795 28.3236 6.12364 28.3236 6.21933 28.2279L8.80285 25.6443C8.89854 25.5487 8.89854 25.453 8.89854 25.3573C8.89854 25.2616 8.89854 25.1659 8.80285 25.0702L8.42011 24.6875Z" fill="#D82216"/>
<path d="M19.3284 21.5293H10.1426V22.8689H19.3284V21.5293Z" fill="#D82216"/>
<path d="M8.70716 19.7109L8.42011 19.4238C8.32442 19.3281 8.22873 19.3281 8.13305 19.3281C8.03736 19.3281 7.94168 19.3281 7.84599 19.4238L5.83658 21.4332L4.97541 20.572C4.87972 20.4764 4.78403 20.4764 4.68835 20.4764C4.59266 20.4764 4.49698 20.4764 4.40129 20.572L4.11423 20.8591C3.92286 21.0505 3.92286 21.2418 4.11423 21.4332L5.54952 22.8685C5.64521 22.9642 5.7409 22.9642 5.83658 22.9642C5.93227 22.9642 6.02795 22.9642 6.12364 22.8685L8.70716 20.285C8.80285 20.1893 8.80285 20.0936 8.80285 19.9979C8.80285 19.9022 8.80285 19.8066 8.70716 19.7109Z" fill="#D82216"/>
<path d="M19.3284 16.1709H10.1426V17.5105H19.3284V16.1709Z" fill="#D82216"/>
<path d="M8.70716 14.3535L8.4201 14.0664C8.32441 13.9707 8.22873 13.9707 8.13304 13.9707C8.03736 13.9707 7.94167 13.9707 7.84598 14.0664L5.83658 16.0759L4.97541 15.2147C4.87972 15.119 4.78403 15.119 4.68835 15.119C4.59266 15.119 4.49698 15.119 4.40129 15.2147L4.11423 15.5018C3.92286 15.6931 3.92286 15.8845 4.11423 16.0759L5.64521 17.6069C5.74089 17.7026 5.83658 17.7026 5.93226 17.7026C6.02795 17.7026 6.12364 17.7026 6.21932 17.6069L8.80284 15.0233C8.89853 14.9276 8.89853 14.8319 8.89853 14.7362C8.80284 14.5448 8.80284 14.4492 8.70716 14.3535Z" fill="#D82216"/>
<path d="M19.3284 10.9082H10.1426V12.1521H19.3284V10.9082Z" fill="#D82216"/>
<path d="M4.01951 10.1424C3.82813 10.3338 3.82813 10.5251 4.01951 10.7165L5.55048 12.2476C5.64617 12.2476 5.74185 12.3433 5.83754 12.3433C5.93322 12.3433 6.02891 12.3433 6.1246 12.2476L8.70812 9.66392C8.8038 9.47253 8.8038 9.37684 8.8038 9.28115C8.8038 9.18546 8.8038 9.08977 8.70812 8.99408L8.42106 8.70701C8.32537 8.61132 8.22969 8.51562 8.134 8.51562C8.03832 8.51562 7.94263 8.51563 7.84694 8.61132L5.83754 10.6208L4.97636 9.75961C4.88068 9.66392 4.78499 9.66392 4.68931 9.66392C4.59362 9.66392 4.49794 9.66392 4.40225 9.75961L4.01951 10.1424Z" fill="#D82216"/>
</svg>
