<svg width="38" height="34" viewBox="0 0 38 34" fill="none" xmlns="http://www.w3.org/2000/svg">
<path fill-rule="evenodd" clip-rule="evenodd" d="M36.0737 16.2666H1.24392C0.574116 16.2666 0 16.8407 0 17.5105C0 18.1803 0.574116 18.7544 1.24392 18.7544H2.48784H34.734H35.978C36.6478 18.7544 37.2219 18.1803 37.2219 17.5105C37.2219 16.8407 36.8391 16.2666 36.0737 16.2666Z" fill="#3CADDE"/>
<path fill-rule="evenodd" clip-rule="evenodd" d="M2.87109 23.1566C2.87109 26.4099 4.59344 29.1848 7.17697 30.7158C7.27265 30.7158 7.27265 30.8114 7.36834 30.9071C7.36834 31.0028 7.36834 31.0985 7.36834 31.1942L6.79422 32.1511C6.50716 32.7252 6.69854 33.4907 7.27265 33.7777C7.84677 34.0648 8.61226 33.8734 8.89932 33.2993L9.76049 31.864C9.85618 31.7683 9.95186 31.6726 10.1432 31.6726C10.6217 31.7683 11.1958 31.7683 11.6742 31.7683H25.8358C26.3142 31.7683 26.8883 31.7683 27.3667 31.6726C27.4624 31.6726 27.6538 31.6726 27.7495 31.864L28.6106 33.2993C28.8977 33.8734 29.6632 34.0648 30.2373 33.7777C30.8114 33.4907 31.0028 32.7252 30.7157 32.1511L30.1416 31.1942C30.1416 31.0985 30.0459 31.0028 30.1416 30.9071C30.1416 30.8114 30.2373 30.7158 30.333 30.7158C32.9165 29.1848 34.6389 26.4099 34.6389 23.1566V19.4248H2.87109V23.1566Z" fill="#3CADDE"/>
<path fill-rule="evenodd" clip-rule="evenodd" d="M4.11414 4.01882C4.11414 2.10509 5.64512 0.669802 7.46315 0.669802C9.28119 0.669802 10.7165 2.00941 10.8122 3.73176C10.3337 3.82744 9.8553 3.92313 9.37687 4.21019C8.22864 4.87999 7.55884 6.02822 7.55884 7.36783C7.55884 7.5592 7.75021 7.65489 7.8459 7.65489H11.1949H14.5439C14.7353 7.65489 14.831 7.46351 14.831 7.36783C14.831 6.02822 14.1612 4.87999 13.0129 4.21019C12.5345 3.92313 12.0561 3.82744 11.482 3.73176C11.3863 1.62666 9.66393 0 7.55884 0C5.26237 0 3.44434 1.81804 3.44434 4.01882V15.5968H4.11414V4.01882Z" fill="#3CADDE"/>
<path fill-rule="evenodd" clip-rule="evenodd" d="M10.0468 9.47258C10.0468 9.3769 10.0468 9.28122 9.95108 9.28122C9.8554 9.18555 9.75971 9.18555 9.75971 9.18555C9.56834 9.18555 9.47266 9.3769 9.47266 9.47258V10.6207C9.47266 10.7164 9.56834 10.8121 9.66403 10.9077C9.75971 11.0034 9.8554 11.0034 9.95108 10.9077C10.0468 10.8121 10.1425 10.7164 10.1425 10.6207V9.47258H10.0468Z" fill="#3CADDE"/>
<path fill-rule="evenodd" clip-rule="evenodd" d="M9.37695 12.5351V13.6833C9.37695 13.779 9.47264 13.8747 9.56833 13.9704C9.66401 14.0661 9.7597 14.0661 9.85538 13.9704C9.95107 13.8747 10.0468 13.779 10.0468 13.6833V12.5351C10.0468 12.4394 10.0468 12.3437 9.95107 12.3437C9.85538 12.248 9.7597 12.248 9.7597 12.248C9.56832 12.248 9.37695 12.4394 9.37695 12.5351Z" fill="#3CADDE"/>
<path fill-rule="evenodd" clip-rule="evenodd" d="M13.0136 9.47258C13.0136 9.3769 13.0136 9.28122 12.9179 9.28122C12.8222 9.18555 12.7265 9.18555 12.7265 9.18555C12.5351 9.18555 12.4395 9.3769 12.4395 9.47258V10.6207C12.4395 10.7164 12.5351 10.8121 12.6308 10.9077C12.7265 11.0034 12.8222 11.0034 12.9179 10.9077C13.0136 10.8121 13.1093 10.7164 13.1093 10.6207V9.47258H13.0136Z" fill="#3CADDE"/>
<path fill-rule="evenodd" clip-rule="evenodd" d="M12.4395 12.5351V13.6833C12.4395 13.779 12.5351 13.8747 12.6308 13.9704C12.7265 14.0661 12.8222 14.0661 12.9179 13.9704C13.0136 13.8747 13.1093 13.779 13.1093 13.6833V12.5351C13.1093 12.4394 13.1093 12.3437 13.0136 12.3437C12.9179 12.3437 12.8222 12.248 12.8222 12.248C12.5351 12.248 12.4395 12.4394 12.4395 12.5351Z" fill="#3CADDE"/>
</svg>
