<svg width="65" height="38" viewBox="0 0 65 38" fill="none" xmlns="http://www.w3.org/2000/svg">
<path d="M50.6721 5.24902L47.7461 6.29403L53.1105 19.8791L55.5488 18.9734" stroke="#212C30" stroke-miterlimit="10" stroke-linecap="round" stroke-linejoin="round"/>
<path d="M63.5606 19.1134C63.5606 19.1134 56.5939 21.6214 56.5939 21.4821C56.5939 21.3428 50.1846 3.64735 50.1846 3.64735L57.5693 1L63.5606 19.1134Z" stroke="#212C30" stroke-miterlimit="10" stroke-linecap="round" stroke-linejoin="round"/>
<path d="M13.8884 5.24902L16.8144 6.29403L11.4501 19.8791L9.01172 18.9734" stroke="#212C30" stroke-miterlimit="10" stroke-linecap="round" stroke-linejoin="round"/>
<path d="M1 19.1134C1 19.1134 7.96671 21.6214 7.96671 21.4821C7.96671 21.3428 14.4457 3.71702 14.4457 3.71702L7.06103 1L1 19.1134Z" stroke="#212C30" stroke-miterlimit="10" stroke-linecap="round" stroke-linejoin="round"/>
<path d="M47.9558 7.06086C45.5871 7.82719 38.5508 3.92584 36.6001 4.06517C34.5797 4.13484 28.1007 5.94618 26.986 7.26986C25.8714 8.59353 23.1543 12.8432 23.433 13.4006C23.7117 13.9579 25.3837 15.4209 27.1254 15.0726C28.7974 14.7242 30.3301 11.1712 31.1661 11.2409C32.0021 11.3105 36.1821 10.6835 36.1821 11.2409C36.1821 11.7982 37.9238 16.1176 40.6408 17.0232C43.3578 17.9289 51.5785 22.7359 51.9965 23.572C52.4145 24.408 53.0415 28.797 49.6975 27.8913C46.3535 26.9856 42.7308 24.5473 42.7308 24.5473C42.7308 24.5473 46.7715 26.4283 46.6321 28.0306C46.4928 29.633 45.7961 31.514 43.9151 31.2353C42.0341 30.9567 37.5754 28.1003 37.9238 28.2396C38.2721 28.379 41.6161 30.3297 41.6161 31.2353C41.6161 32.141 41.2678 34.3007 39.2474 34.231C37.2271 34.1613 34.6494 32.0713 34.9281 32.4197C35.2764 32.768 35.6248 33.9523 35.3461 34.7187C35.0674 35.485 33.7437 36.8087 32.3504 36.4604C30.9571 36.112 30.1907 35.2063 30.1907 35.2063" stroke="#212C30" stroke-miterlimit="10" stroke-linecap="round" stroke-linejoin="round"/>
<path d="M16.3965 7.26999C19.3225 7.20032 25.8712 8.66333 26.0105 8.524" stroke="#212C30" stroke-miterlimit="10" stroke-linecap="round" stroke-linejoin="round"/>
<path d="M12.3559 22.1089C12.7042 20.9943 14.3066 19.5312 15.6302 19.5312C16.9539 19.5312 18.4169 19.9493 18.4169 21.4819C18.4169 23.0146 16.8146 25.4529 15.4909 25.5226C14.1672 25.5226 11.7986 23.7809 12.3559 22.1089Z" stroke="#212C30" stroke-miterlimit="10" stroke-linecap="round" stroke-linejoin="round"/>
<path d="M15.4213 26.4987C15.7697 25.384 18.208 22.876 19.5317 22.876C20.8554 22.876 22.3184 23.294 22.3184 24.8267C22.3184 26.3593 19.88 29.773 18.5563 29.8427C17.2327 29.9124 14.864 28.1707 15.4213 26.4987Z" stroke="#212C30" stroke-miterlimit="10" stroke-linecap="round" stroke-linejoin="round"/>
<path d="M20.3667 30.0514C20.715 28.9367 22.7354 26.4287 23.9894 26.4287C25.3131 26.4287 26.7761 26.8467 26.7761 28.3794C26.7761 29.9121 24.7557 33.3257 23.4321 33.3954C22.1781 33.5348 19.8094 31.7931 20.3667 30.0514Z" stroke="#212C30" stroke-miterlimit="10" stroke-linecap="round" stroke-linejoin="round"/>
<path d="M25.1049 33.1861C25.4533 32.0714 27.0556 30.6084 28.3793 30.6084C29.703 30.6084 31.166 31.0264 31.166 32.5591C31.166 34.0918 29.5636 36.5301 28.24 36.5998C26.986 36.6694 24.5476 34.8581 25.1049 33.1861Z" stroke="#212C30" stroke-miterlimit="10" stroke-linecap="round" stroke-linejoin="round"/>
<path d="M12.2861 19.0439L13.8188 20.298" stroke="#212C30" stroke-miterlimit="10" stroke-linecap="round" stroke-linejoin="round"/>
<path d="M52.2748 19.0439C51.5782 19.9496 51.1602 22.9453 51.1602 22.9453" stroke="#212C30" stroke-miterlimit="10" stroke-linecap="round" stroke-linejoin="round"/>
</svg>
